<svg width="400" height="484" viewBox="0 0 400 484" fill="none" xmlns="http://www.w3.org/2000/svg">
<rect width="400" height="484" rx="200" fill="url(#paint0_radial_250_2012)"/>
<g clip-path="url(#clip0_250_2012)">
<g clip-path="url(#clip1_250_2012)">
<g clip-path="url(#clip2_250_2012)">
<path fill-rule="evenodd" clip-rule="evenodd" d="M262.143 99.8814C255.08 99.8814 172.532 88.7286 162.006 200.26C151.48 311.789 270.384 381.248 335.723 310.612C401.062 239.976 362.212 107.533 262.145 99.8814H262.143Z" fill="#E4ECE0"/>
<path fill-rule="evenodd" clip-rule="evenodd" d="M86.4047 451.059C86.3039 451.458 85.899 451.697 85.5009 451.596C85.1029 451.496 84.8626 451.091 84.9634 450.692C84.9919 450.579 94.8507 411.012 119.522 384.231C136.992 365.265 136.009 353.317 135.072 341.916C134.701 337.403 134.336 332.973 135.084 328.191C135.731 324.052 137.557 319.816 140.082 315.851C143.618 310.294 148.537 305.246 153.498 301.732C158.534 298.164 163.652 296.162 167.491 296.761C167.952 296.834 168.393 296.941 168.815 297.089C167.754 293.359 166.47 289.535 164.917 285.666C160.617 274.95 158.733 269.04 158.649 264.932C158.561 260.654 160.337 258.393 163.342 254.977C164.663 253.475 167.415 251.025 170.941 247.882C183.003 237.138 204.259 218.204 207.266 202.571C209.075 193.168 208.841 183.14 207.253 173.325C205.415 161.951 201.756 150.86 197.347 141.34C196.496 139.506 195.664 137.709 194.85 135.946C193.679 135.766 192.482 135.516 191.264 135.185C183.999 133.215 186.647 127.157 188.339 124.36C185.414 124.922 179.011 126.655 172.831 131.696C168.459 135.26 164.828 137.25 161.89 137.68C158.744 138.14 156.392 136.897 154.783 133.972C153.087 130.887 151.407 126.852 151.185 122.931C151.015 119.934 151.691 117.011 153.832 114.616C154.454 113.922 155.26 113.203 156.226 112.519C157.054 111.933 158.002 111.372 159.05 110.875C158.795 110.655 158.545 110.433 158.299 110.21C154.022 106.311 151.267 101.999 150.136 98.6828C149.839 97.8127 149.759 96.8669 149.871 95.891C150.126 93.6417 151.409 91.1892 153.394 89.0491C155.351 86.9392 158.005 85.115 161.043 84.0802C163.278 83.3192 165.72 82.9816 168.245 83.2706C170.174 83.4906 171.885 83.8131 173.413 84.2633C173.251 82.3769 173.309 80.6165 173.566 78.9803C174.38 73.7779 177.166 69.8522 181.206 67.1829C182.866 66.0861 184.931 65.2595 187.168 64.7338C190.659 63.9124 194.595 63.8166 198.075 64.5558C201.629 65.3099 204.73 66.9394 206.464 69.5633C207.016 70.3981 207.426 71.3288 207.668 72.3584C207.874 73.2286 208.009 74.0752 208.082 74.9068C209.607 74.7152 211.129 74.7707 212.609 75.0815C213.796 75.33 214.97 75.661 216.102 76.0742C219.249 77.2232 222.07 79.0123 223.919 81.4513C225.802 83.934 226.678 87.0652 225.884 90.8448C225.73 91.5789 225.514 92.3382 225.227 93.1209C223.707 97.2903 220.393 101.196 216.464 104.614C215.634 105.337 214.776 106.037 213.901 106.714C215.27 107.935 216.4 109.465 217.23 111.076C218.34 113.232 218.925 115.557 218.841 117.507C218.71 120.535 217.833 123.633 216.551 126.328C215.176 129.218 213.317 131.671 211.39 133.097C209.377 134.587 206.184 135.773 202.299 136.166C200.527 136.346 198.608 136.361 196.586 136.166L198.696 140.722C203.155 150.349 206.856 161.574 208.719 173.096C210.331 183.071 210.566 193.272 208.725 202.852C205.624 218.981 184.128 238.128 171.931 248.994C168.445 252.1 165.725 254.521 164.459 255.962C161.691 259.109 160.055 261.179 160.13 264.906C160.21 268.803 162.065 274.573 166.295 285.117C168.056 289.503 169.477 293.835 170.617 298.036C175.572 301.495 179.182 309.543 182.069 315.98C184.141 320.603 185.821 324.345 186.993 324.556C187.871 324.712 189.113 324.617 190.868 324.48C195.982 324.083 205.273 323.363 223.38 327.451C247.661 332.935 269.657 330.331 269.721 330.324C270.129 330.277 270.497 330.571 270.544 330.977C270.579 331.288 270.418 331.575 270.159 331.715C269.378 332.194 253.44 341.779 230.042 341.779C220.314 341.779 212.716 340.467 206.491 339.391C197.657 337.866 191.66 336.832 186.395 340.837C181.547 344.524 178.134 346.212 175.936 345.639C173.566 345.022 172.707 342.117 173.133 336.647C173.589 330.803 173.602 321.644 171.862 310.847C171.252 307.062 170.427 303.076 169.329 298.959C168.717 298.586 168.023 298.346 167.262 298.226C163.819 297.689 159.087 299.586 154.35 302.941C149.537 306.351 144.764 311.249 141.328 316.647C138.907 320.45 137.16 324.492 136.547 328.418C135.83 333.01 136.187 337.364 136.552 341.8C137.516 353.516 138.526 365.792 120.614 385.237C96.203 411.737 86.4332 450.946 86.4047 451.061V451.059ZM180.712 316.58C178.21 310.996 175.146 304.168 171.249 300.465C172.12 303.965 172.801 307.361 173.325 310.612C175.089 321.555 175.075 330.835 174.613 336.756C174.253 341.392 174.77 343.801 176.307 344.201C178.011 344.645 181.028 343.054 185.498 339.654C191.28 335.256 197.533 336.334 206.739 337.924C212.903 338.987 220.427 340.287 230.041 340.287C247.435 340.287 260.594 334.92 266.3 332.103C259.044 332.593 241.717 333.108 223.054 328.892C205.173 324.854 196.018 325.565 190.978 325.956C189.113 326.101 187.792 326.203 186.736 326.015C184.788 325.668 182.963 321.601 180.712 316.58ZM194.093 134.308C192.597 131.07 191.155 127.938 189.753 124.89C188.36 127.119 185.939 132.2 191.65 133.749C192.474 133.972 193.289 134.159 194.091 134.308H194.093ZM187.309 119.551L186.14 116.993C182.7 109.447 179.576 102.513 176.603 95.7902C175.01 92.1903 174.035 88.8861 173.597 85.8776C172.01 85.3518 170.185 84.9873 168.08 84.7471C165.783 84.485 163.557 84.7925 161.518 85.4878C158.724 86.4404 156.28 88.1202 154.479 90.062C152.705 91.9737 151.566 94.1221 151.346 96.0539C151.259 96.82 151.318 97.5489 151.543 98.2075C152.605 101.32 155.217 105.394 159.299 109.113C159.71 109.489 160.137 109.86 160.579 110.226C162.713 109.42 165.177 108.899 167.85 108.918C172.604 108.952 178.02 110.68 183.436 115.525C184.729 116.682 186.025 118.019 187.309 119.555V119.551ZM187.489 116.376L188.102 117.72C187.24 113.243 185.916 106.78 184.371 100.593C183.026 95.2106 181.442 91.5117 178.959 89.0457C177.899 87.9925 176.664 87.1559 175.201 86.4975C175.671 89.1482 176.572 92.0459 177.965 95.1922C181.027 102.116 184.139 109.029 187.491 116.378L187.489 116.376ZM190.735 123.469C192.355 126.999 194.058 130.695 195.856 134.585C198.098 134.871 200.221 134.881 202.152 134.686C205.759 134.322 208.689 133.246 210.504 131.903C212.235 130.621 213.929 128.369 215.206 125.686C216.412 123.153 217.235 120.255 217.356 117.44C217.43 115.743 216.904 113.687 215.908 111.753C215.109 110.201 214.013 108.743 212.691 107.623C208.134 110.986 203.274 113.699 199.654 115.449C196.66 116.895 194.556 118.365 193.123 119.66C192.706 120.037 192.347 120.388 192.041 120.712C191.823 121.179 191.629 121.606 191.46 121.98C191.175 122.608 190.946 123.111 190.736 123.465L190.735 123.469ZM175.03 79.2054C174.763 80.9121 174.727 82.7716 174.953 84.7841C176.955 85.5568 178.606 86.6049 180.005 87.9942C182.706 90.6785 184.403 94.5908 185.812 100.233C186.911 104.629 187.897 109.163 188.686 113.033C188.712 107.462 189.149 100.415 190.736 93.8752C192.335 87.2836 195.411 82.3232 199.1 79.1197C201.426 77.0989 203.997 75.7735 206.604 75.1705C206.543 74.3608 206.417 73.5377 206.219 72.6961C206.018 71.8411 205.678 71.0717 205.223 70.383C203.724 68.1152 200.962 66.6891 197.764 66.0105C194.496 65.3167 190.793 65.4091 187.502 66.1834C185.432 66.6706 183.531 67.4265 182.023 68.4227C178.322 70.8668 175.771 74.4565 175.028 79.2088L175.03 79.2054ZM208.142 76.3951C208.122 82.6356 204.547 88.1806 199.61 95.8373C198.704 97.2432 197.751 98.7215 196.81 100.216C191.866 108.073 190.783 115.978 190.592 120.186C190.636 120.131 190.681 120.075 190.728 120.018C192.705 115.783 196.585 108.332 202.668 105.197C204.419 104.295 206.103 103.946 207.684 104.015C209.532 104.095 211.22 104.749 212.696 105.763C213.651 105.033 214.586 104.275 215.488 103.49C219.251 100.218 222.411 96.5108 223.834 92.6137C224.094 91.8981 224.292 91.2076 224.432 90.5408C225.127 87.2265 224.371 84.4967 222.738 82.3433C221.074 80.1478 218.493 78.5234 215.594 77.4651C214.531 77.0771 213.424 76.7646 212.305 76.5311C210.949 76.2472 209.549 76.2035 208.142 76.3934V76.3951ZM198.361 95.0359C203.063 87.7422 206.486 82.434 206.639 76.689C204.366 77.2686 202.118 78.4596 200.071 80.2402C196.601 83.2538 193.701 87.9505 192.177 94.2229C190.674 100.418 190.224 107.089 190.173 112.472C191.076 108.557 192.688 103.981 195.554 99.427C196.555 97.8363 197.481 96.4017 198.361 95.0359ZM199.009 114.115C202.464 112.446 207.069 109.882 211.428 106.709C210.277 106.003 208.994 105.558 207.617 105.499C206.285 105.442 204.852 105.745 203.345 106.521C199.075 108.72 195.913 113.324 193.8 117.204C195.159 116.202 196.873 115.148 199.007 114.117L199.009 114.115ZM186.706 123.203C183.678 122.276 178.433 120.596 171.326 118.041C167.041 116.501 163.364 114.339 160.318 111.926C159.095 112.452 158.007 113.074 157.079 113.731C156.211 114.345 155.488 114.989 154.936 115.605C153.095 117.663 152.517 120.216 152.667 122.85C152.873 126.504 154.471 130.322 156.085 133.258C157.364 135.582 159.212 136.571 161.676 136.21C164.347 135.82 167.738 133.938 171.896 130.546C177.479 125.992 183.268 124.026 186.706 123.201V123.203ZM171.825 116.647C178.989 119.224 184.241 120.902 187.23 121.814C185.646 119.773 184.045 118.058 182.448 116.63C177.341 112.063 172.273 110.431 167.843 110.4C165.71 110.384 163.724 110.739 161.952 111.313C164.739 113.413 168.037 115.284 171.825 116.647Z" fill="#899F87"/>
<path fill-rule="evenodd" clip-rule="evenodd" d="M174.976 85.0982C175.099 85.488 174.884 85.9045 174.494 86.0289C174.105 86.1515 173.688 85.9365 173.563 85.5468C173.558 85.53 171.63 79.691 172.461 71.4112C172.203 70.5174 170.582 65.0866 167.481 57.9927C167.435 57.8886 167.404 57.8147 167.384 57.7643C165.699 53.7344 165.875 49.3418 168.033 45.2783C170.157 41.2787 174.209 37.6066 180.299 34.9441C180.518 34.8483 180.707 34.7677 180.87 34.6988C182.476 34.0286 184.074 33.491 185.643 33.0778C190.785 31.7239 195.611 31.7121 199.422 32.6713C203.35 33.6607 206.237 35.6949 207.365 38.3877C207.482 38.6699 207.583 38.9639 207.662 39.2645C208.128 41.0317 208.577 42.562 208.958 43.8572C210.029 47.5074 210.615 49.5014 209.31 50.1547C208.518 50.5512 207.728 49.9062 206.508 48.91C204.744 47.4705 201.842 45.0985 197.422 44.2956C197.331 44.4367 197.244 44.5828 197.16 44.734C195.017 48.5741 193.153 49.5735 190.034 51.245C188.421 52.1084 186.455 53.1633 183.879 54.9574C177.015 59.7381 174.153 70.667 173.952 71.4716C173.128 79.4927 174.975 85.0814 174.979 85.0982H174.976ZM172.47 66.6321C172.391 65.5116 172.277 64.3526 172.161 63.1767C171.462 56.0912 170.704 48.4095 176.967 43.6522C181.244 40.4018 185.082 37.8283 188.65 36.3249C192.321 34.7778 195.705 34.3545 198.978 35.4682C202.569 36.6911 204.625 37.741 205.733 38.4246C204.64 36.4391 202.252 34.9155 199.062 34.1125C195.473 33.2088 190.908 33.2273 186.02 34.514C184.518 34.9088 182.985 35.4245 181.438 36.0712C181.223 36.1602 181.04 36.2392 180.89 36.3047C175.133 38.8211 171.321 42.2546 169.347 45.9754C167.405 49.6323 167.244 53.5783 168.756 57.1948L168.843 57.3998C170.429 61.0282 171.633 64.2316 172.471 66.6337L172.47 66.6321ZM173.637 63.0322C173.76 64.277 173.881 65.5015 173.962 66.6909C175.526 62.6794 178.42 56.9463 183.026 53.7378C185.64 51.9169 187.67 50.8301 189.332 49.938C192.211 48.3944 193.928 47.4738 195.86 44.0134C196.04 43.6909 196.231 43.3902 196.43 43.1063C196.453 43.0693 196.476 43.0358 196.504 43.0038C198.596 40.1129 201.628 39.2461 203.795 39.0277C202.677 38.4582 200.993 37.7242 198.502 36.8759C195.606 35.8898 192.56 36.2862 189.226 37.6922C185.789 39.1402 182.048 41.6532 177.862 44.8332C172.264 49.0864 172.979 56.3415 173.639 63.0322H173.637ZM206.458 40.5177C206.375 40.5294 206.29 40.5278 206.207 40.511C205.748 40.4488 201.412 39.9533 198.452 42.9887C202.805 43.9748 205.664 46.3097 207.441 47.7593C208.212 48.3893 208.579 48.8629 208.645 48.8293C208.839 48.732 208.378 47.1563 207.531 44.2754C207.212 43.1869 206.843 41.9354 206.458 40.516V40.5177Z" fill="#899F87"/>
<path fill-rule="evenodd" clip-rule="evenodd" d="M174.521 84.801C174.736 85.1487 174.629 85.6057 174.279 85.8206C173.932 86.0357 173.474 85.9281 173.26 85.5788C173.248 85.5586 170.15 80.5662 166.969 77.6366C166.911 77.6064 166.858 77.5677 166.809 77.5224C166.809 77.5224 166.673 77.3981 166.442 77.1697C165.961 76.7648 165.482 76.4171 165.017 76.1483C164.553 75.9064 164.004 75.6863 163.372 75.5503C162.689 75.4024 160.989 75.8527 158.815 76.4305C154.639 77.5392 148.815 79.0863 143.781 77.9054C141.307 77.3258 139.904 76.4087 139.349 75.436C139.015 74.8515 138.962 74.2501 139.153 73.6722C139.326 73.1465 139.702 72.661 140.248 72.2562C141.585 71.2634 144.1 70.6688 147.144 71.1324C150.553 71.6515 153.72 72.1974 156.575 72.7215C159.156 73.1951 161.486 73.6554 163.502 74.0637C162.244 72.6375 160.773 70.8417 159.362 68.8142C158.856 68.9452 158.39 68.663 157.397 68.0633C156.694 67.6384 155.632 66.9966 153.929 66.1718C153.157 65.799 152.255 65.4042 151.264 64.9724C146.605 62.9416 140.033 60.0725 135.876 54.5307C134.028 52.0665 130.737 50.521 127.422 49.5535C126.273 50.5042 121.97 53.911 117.785 55.1893C113.199 56.5903 109.202 56.051 108.708 55.9754C108.651 55.9704 108.593 55.9586 108.536 55.9385C108.148 55.8057 107.942 55.3825 108.074 54.9944C108.076 54.9877 108.839 52.7015 110.117 51.2098C110.989 50.1935 112.059 49.5249 113.791 48.4432C114.585 47.9476 115.524 47.3597 116.628 46.6273C116.814 46.4323 117.359 45.9066 118.353 45.3002C118.864 44.8281 119.213 44.4065 119.569 43.9749C120.355 43.0258 121.17 42.0413 123.462 40.5379C125.603 39.1319 128.116 37.5411 131.227 36.6088C134.357 35.6715 138.056 35.4145 142.514 36.708C146.808 37.9527 151.553 41.2418 155.371 44.9844C159.453 48.984 162.506 53.5515 162.863 56.7616C163.132 59.1738 162.914 61.3559 162.501 63.1566C161.993 65.3639 161.152 67.0454 160.526 67.9021C163.207 71.7673 166.142 74.7944 167.308 75.9434C167.686 76.2726 167.889 76.5111 167.889 76.5111C167.904 76.5279 167.918 76.5464 167.929 76.5649C171.373 79.7212 174.513 84.7825 174.525 84.8027L174.521 84.801ZM159.352 74.7541C158.39 74.5693 157.376 74.3761 156.305 74.1812C153.534 73.6722 150.401 73.1347 146.92 72.6039C144.288 72.2024 142.191 72.6594 141.128 73.4489C140.831 73.6689 140.636 73.9041 140.56 74.1325C140.502 74.3122 140.523 74.5072 140.635 74.7036C141.001 75.342 142.089 75.9836 144.115 76.4591C148.794 77.5577 154.408 76.066 158.433 74.996C158.749 74.912 159.055 74.8313 159.35 74.7541H159.352ZM157.944 66.659C156.52 64.3509 155.269 61.8346 154.52 59.278C153.219 54.8382 151.33 51.549 148.214 49.1872C145.065 46.8002 140.634 45.322 134.271 44.5174C126.097 43.486 121.545 45.1188 119.353 46.3971C119.289 46.4559 119.222 46.5164 119.153 46.5786C121.088 46.7449 124.169 47.1295 127.322 48.0046C127.396 48.013 127.468 48.0349 127.537 48.0652C131.207 49.1083 134.945 50.8234 137.058 53.6404C140.978 58.8681 147.343 61.6447 151.854 63.6118C152.867 64.0536 153.787 64.4551 154.57 64.8347C156.184 65.6175 157.227 66.229 157.944 66.659ZM155.944 58.8646C156.73 61.5507 158.106 64.1997 159.648 66.5935C160.095 65.8443 160.654 64.5424 161.049 62.824C161.43 61.1643 161.63 59.152 161.383 56.9228C161.065 54.052 158.186 49.8223 154.328 46.041C150.665 42.4512 146.144 39.3049 142.099 38.1308C137.962 36.9314 134.54 37.1665 131.649 38.0316C128.739 38.9035 126.33 40.4304 124.273 41.781C123.038 42.5907 122.272 43.2341 121.706 43.8018C124.53 42.9014 128.661 42.3152 134.458 43.0475C141.086 43.8841 145.744 45.4564 149.109 48.0081C152.506 50.5832 154.553 54.1192 155.944 58.8664V58.8646ZM125.633 49.0815C121.782 48.1744 118.246 47.9795 117.322 47.9425C116.233 48.6649 115.336 49.2243 114.572 49.7013C112.958 50.7091 111.96 51.3324 111.241 52.1706C110.613 52.9047 110.12 53.8958 109.818 54.6013C111.236 54.7105 114.127 54.7542 117.352 53.7682C120.589 52.7787 123.945 50.3934 125.633 49.0815Z" fill="#899F87"/>
<path fill-rule="evenodd" clip-rule="evenodd" d="M209.557 179.624C209.664 180.019 209.43 180.427 209.035 180.535C208.641 180.643 208.233 180.409 208.126 180.014C208.119 179.987 206.252 173.078 201.598 167.763C200.41 167.447 193.716 165.958 187.252 170.477C187.061 170.61 186.486 171.015 185.94 171.402C179.525 175.928 179.288 176.096 169.871 172.06C160.959 168.242 155.66 173.963 155.373 174.284C155.337 174.326 155.299 174.363 155.255 174.395L155.251 174.398L155.245 174.403L155.235 174.41L155.208 174.429L155.202 174.432C155.128 174.479 155.047 174.513 154.96 174.53L154.924 174.536H154.917C154.851 174.546 154.785 174.548 154.718 174.54H154.713L154.667 174.531C154.645 174.526 154.622 174.521 154.601 174.516L154.591 174.513L154.576 174.507C154.551 174.499 154.526 174.489 154.502 174.479L154.476 174.466C154.373 174.413 154.288 174.339 154.22 174.252L154.217 174.249L154.212 174.242L154.205 174.232L154.188 174.205L154.184 174.199C154.14 174.125 154.104 174.044 154.087 173.957L154.081 173.922V173.913C154.076 173.874 154.072 173.834 154.072 173.794C154.069 173.385 154.011 161.971 158.425 156.285C161.789 151.951 165.312 151.312 170.495 150.375C172.257 150.056 174.22 149.7 176.483 149.13C184.332 147.154 187.477 148.817 191.878 151.144C192.453 151.449 193.049 151.765 193.665 152.075C198.902 154.726 202.245 165.331 202.67 166.737C207.603 172.354 209.557 179.592 209.564 179.621L209.557 179.624ZM199.8 165.93C198.423 164.69 196.852 163.623 195.071 162.875C189.289 160.446 187.277 160.853 184.22 161.467C182.125 161.889 179.569 162.404 175.195 162.274C169.821 162.112 165.898 162.669 163.095 163.781C160.395 164.851 158.751 166.442 157.844 168.405C157.259 169.672 156.817 170.679 156.483 171.472C159.1 169.772 163.927 167.894 170.452 170.691C179.108 174.402 179.322 174.25 185.086 170.182C185.361 169.989 185.661 169.777 186.405 169.257C191.54 165.667 196.83 165.581 199.802 165.929L199.8 165.93ZM195.648 161.503C197.383 162.231 198.932 163.237 200.304 164.405C198.981 160.861 196.39 155.123 192.99 153.401C192.345 153.075 191.751 152.761 191.181 152.458C187.074 150.286 184.139 148.733 176.839 150.572C174.583 151.139 172.563 151.506 170.753 151.834C165.908 152.71 162.616 153.307 159.596 157.197C157.121 160.383 156.159 165.615 155.786 169.354C155.997 168.876 156.233 168.354 156.498 167.781C157.56 165.48 159.459 163.626 162.55 162.399C165.537 161.215 169.655 160.622 175.238 160.788C179.447 160.915 181.914 160.419 183.933 160.011C187.265 159.341 189.457 158.899 195.651 161.5L195.648 161.503Z" fill="#899F87"/>
<path fill-rule="evenodd" clip-rule="evenodd" d="M209.738 194.031C209.508 194.37 209.044 194.456 208.706 194.225C208.367 193.994 208.281 193.532 208.512 193.194C208.523 193.178 212.266 187.868 214.112 171.64C213.711 170.597 211.702 165.094 210.63 156.573C210.03 151.805 209.781 148.297 210.476 144.924C211.173 141.533 212.805 138.342 215.963 134.244C221.107 127.569 227.657 125.78 232.528 124.451C233.64 124.147 234.661 123.868 235.535 123.566C240.175 121.955 248.162 122.007 248.863 122.016C249.202 121.997 249.521 122.216 249.616 122.556C249.682 122.788 249.629 123.025 249.496 123.203C249.142 123.732 244.537 130.69 242.798 137.893C241.579 142.946 238.814 144.608 236.069 146.258C234.56 147.166 233.057 148.07 231.908 149.585C230.311 151.693 229.509 153.799 228.633 156.105C227.742 158.449 226.775 160.991 224.853 163.972C221.545 169.104 216.958 171.439 215.559 172.06C213.65 188.483 209.752 194.016 209.74 194.034L209.738 194.031ZM215.909 168.622C215.858 169.199 215.802 169.766 215.746 170.321C217.512 169.412 220.976 167.241 223.602 163.168C225.441 160.312 226.378 157.849 227.242 155.58C228.161 153.164 228.999 150.959 230.721 148.686C232.039 146.945 233.669 145.967 235.305 144.982C237.785 143.492 240.28 141.99 241.354 137.54C242.669 132.091 245.558 126.793 247.159 124.127C243.88 125.353 236.817 128.466 228.893 134.88C218.172 143.557 217.601 149.887 215.939 168.311L215.909 168.622ZM214.473 168.032C216.168 149.254 216.78 142.775 227.958 133.727C234.572 128.372 240.632 125.259 244.47 123.611C241.777 123.769 238.404 124.134 236.016 124.964C235.089 125.284 234.046 125.57 232.915 125.879C228.249 127.152 221.977 128.866 217.136 135.15C214.126 139.058 212.576 142.065 211.927 145.221C211.275 148.394 211.519 151.775 212.1 156.391C212.744 161.498 213.722 165.481 214.475 168.032H214.473Z" fill="#899F87"/>
<path fill-rule="evenodd" clip-rule="evenodd" d="M73.8699 132.75C73.7658 132.887 72.9023 134.117 74.2495 135.285C75.2171 136.123 76.6583 136.777 78.2138 136.884C79.4804 136.97 80.8192 136.685 82.0321 135.829C82.7678 135.308 84.2327 133.833 86.1342 131.92C91.6608 126.356 100.791 117.166 107.797 115.664C113.996 114.337 122.178 114.015 126.925 113.947C122.312 112.335 113.804 110.086 105.049 111.48C99.5743 112.352 94.2561 114.922 89.4753 118.176C82.9492 122.617 77.4361 128.322 73.8834 132.736L73.8699 132.751V132.75ZM73.2785 136.407C70.9839 134.417 72.4202 132.222 72.6889 131.856C72.7008 131.839 72.7141 131.821 72.7259 131.806C76.3492 127.304 81.9733 121.483 88.6371 116.949C93.5774 113.586 99.0973 110.926 104.815 110.015C118.076 107.904 130.762 113.853 131.091 114.01C131.351 114.127 131.529 114.391 131.526 114.693C131.521 115.103 131.185 115.431 130.777 115.426C130.738 115.426 117.216 115.165 108.104 117.117C101.53 118.527 92.5947 127.52 87.1857 132.966C85.2287 134.935 83.7236 136.451 82.8854 137.045C81.3668 138.118 79.6937 138.475 78.1147 138.367C76.2249 138.239 74.4662 137.435 73.2785 136.407Z" fill="#899F87"/>
<path fill-rule="evenodd" clip-rule="evenodd" d="M121.624 135.402C122.032 135.453 122.321 135.822 122.272 136.231C122.222 136.639 121.852 136.927 121.444 136.879C121.412 136.875 110.047 135.424 105.585 141.188C103.984 143.253 102.533 145.941 101.32 148.585C99.5614 152.413 98.3098 156.077 97.826 157.651C99.7461 157.434 104.565 156.445 112.101 151.972C122.056 146.064 125.824 136.608 125.835 136.581C125.946 136.311 126.213 136.121 126.524 136.123L136.114 136.188C136.178 136.183 136.244 136.188 136.311 136.2C136.713 136.279 136.976 136.669 136.897 137.072C136.892 137.097 135.266 146.101 123.388 153.953C116.181 158.716 107.91 159.748 102.525 159.748C100.819 159.748 99.395 159.644 98.3854 159.522C97.7555 159.447 97.2381 159.33 96.8669 159.205C96.6266 159.205 96.3898 159.089 96.2454 158.874C96.1597 158.745 96.1177 158.605 96.1177 158.452C96.1177 158.446 96.1177 158.436 96.121 158.422C96.1244 158.325 96.1479 158.231 96.1866 158.147C96.5024 156.947 97.8983 152.486 99.9712 147.971C101.228 145.236 102.736 142.448 104.411 140.282C109.398 133.84 121.589 135.401 121.624 135.404V135.402ZM101.931 158.254C102.125 158.258 102.321 158.259 102.523 158.259C107.713 158.259 115.672 157.271 122.568 152.714C131.738 146.654 134.488 140.007 135.209 137.663L127.006 137.608C126.087 139.633 121.923 147.869 112.857 153.25C108.261 155.978 104.592 157.454 101.933 158.254H101.931Z" fill="#899F87"/>
<path fill-rule="evenodd" clip-rule="evenodd" d="M51.888 77.6532C52.2273 77.4231 52.6892 77.5088 52.9193 77.8482C53.1495 78.1874 53.0638 78.6494 52.7245 78.8795C52.6708 78.9165 33.7526 91.3958 33.4923 132.207C33.3612 152.717 34.9705 164.404 37.2803 171.444C39.538 178.328 42.4692 180.689 45.0679 182.591C46.3647 183.54 47.5741 184.387 48.7265 185.193C52.7043 187.977 56.0353 190.309 57.1743 192.641C57.5472 193.406 57.7622 194.938 58.0595 197.061C58.9868 203.68 60.7573 216.312 70.0434 226.389C74.7536 231.499 79.7744 236.395 84.7753 241.27C92.8938 249.186 100.959 257.047 107.555 265.681C108.562 266.999 109.598 268.176 110.656 269.219C115.079 273.577 119.922 275.647 124.604 275.895C129.279 276.144 133.812 274.581 137.617 271.673C138.486 271.009 139.316 270.278 140.097 269.484C143.199 266.335 145.383 262.737 146.345 259.28C146.908 257.259 147.053 255.292 146.715 253.501C146.384 251.744 145.584 250.152 144.255 248.844C142.972 247.578 141.189 246.568 138.852 245.917C132.778 244.224 126.913 243.501 121.714 243.896C116.833 244.266 112.548 245.624 109.243 248.096C106.69 250.003 103.91 250.69 101.478 250.473C99.9642 250.338 98.5816 249.853 97.4646 249.094C96.319 248.315 95.4506 247.253 94.9987 245.986C94.4796 244.532 94.5064 242.823 95.2876 240.978C98.1348 234.259 101.929 232.212 111.8 226.889C112.418 226.555 113.062 226.209 113.73 225.848C124.933 219.786 129.65 218.257 129.663 218.252C130.051 218.124 130.471 218.334 130.599 218.722C130.659 218.905 130.644 219.095 130.57 219.26H130.572C130.567 219.271 128.944 222.841 124.783 231.163C122.433 235.863 117.879 240.58 114.308 243.836C116.551 243.08 119 242.612 121.605 242.414C126.972 242.008 133.008 242.749 139.249 244.488C141.842 245.209 143.839 246.35 145.298 247.787C146.853 249.318 147.788 251.179 148.175 253.229C148.555 255.247 148.399 257.44 147.776 259.676C146.747 263.374 144.432 267.2 141.154 270.526C140.32 271.375 139.438 272.152 138.518 272.856C134.437 275.974 129.566 277.648 124.526 277.379C119.495 277.113 114.315 274.911 109.615 270.279C108.503 269.184 107.419 267.954 106.373 266.586C99.8382 258.033 91.8154 250.212 83.7388 242.337C78.7162 237.441 73.6718 232.522 68.9482 227.397C59.3497 216.982 57.5371 204.046 56.5863 197.268C56.3092 195.286 56.1076 193.856 55.8337 193.295C54.8595 191.299 51.6746 189.07 47.8732 186.409C46.6638 185.563 45.3955 184.675 44.186 183.79C41.4042 181.755 38.2646 179.228 35.8642 171.906C33.5141 164.74 31.8763 152.902 32.0073 132.204C32.2727 90.5996 51.8274 77.6936 51.8846 77.655L51.888 77.6532ZM108.358 246.899L108.516 246.782C109.883 245.733 119.687 238.045 123.461 230.496C126 225.418 127.599 222.094 128.452 220.293C126.243 221.193 121.761 223.187 114.436 227.15C113.767 227.512 113.124 227.859 112.506 228.192C102.966 233.335 99.2973 235.313 96.6566 241.548C96.0334 243.019 96.0032 244.359 96.403 245.478C96.749 246.446 97.4176 247.259 98.2995 247.861C99.2116 248.48 100.352 248.878 101.609 248.989C103.703 249.175 106.117 248.572 108.358 246.896V246.899Z" fill="#899F87"/>
<path fill-rule="evenodd" clip-rule="evenodd" d="M100.573 228.521C100.626 228.798 100.519 229.093 100.274 229.266C100.269 229.269 98.4056 230.588 98.0193 233.644C97.8648 234.873 97.7992 235.909 97.7438 236.79C97.6464 238.327 97.5774 239.426 97.1021 240.557C96.9744 240.858 96.7981 241.136 96.5797 241.378C96.0992 241.914 95.4189 242.273 94.6328 242.399C93.8853 242.518 93.0386 242.426 92.1836 242.067C91.5956 241.82 90.9993 241.445 90.4214 240.927C89.0171 239.666 86.7712 236.332 85.639 232.762C84.8327 230.217 84.5758 227.521 85.5467 225.285C86.8939 222.183 88.5938 221.825 90.2702 221.474C90.9052 221.341 91.5351 221.209 92.118 220.844L91.6864 220.117C90.2938 217.77 88.6795 215.05 86.2337 212.028C85.3703 213.224 84.4396 214.1 81.9165 213.95C79.0558 213.78 75.7987 213.505 73.1967 211.585C70.5829 209.658 68.7183 206.142 68.7519 199.558C68.7771 194.599 68.9635 189.485 69.1819 185.098C68.767 186.048 68.2798 187.017 67.7053 187.993C65.4527 191.817 62.8926 193.975 60.4216 195.154C57.9322 196.343 55.5435 196.534 53.642 196.43C49.7179 196.216 48.9301 195.269 48.9284 195.267C48.6898 195.002 48.6765 194.614 48.878 194.335L52.11 189.01C51.7857 187.506 50.6754 180.836 55.3755 176.505C60.4922 171.793 70.2754 172.472 70.7138 172.504H70.7341C71.112 172.534 71.4026 172.843 71.4177 173.213C71.4228 173.26 71.4278 173.329 71.4312 173.42C71.4748 174.118 71.5437 176.275 71.0045 179.158C70.6786 184.313 70.2738 192.137 70.2351 199.563C70.2032 205.576 71.8159 208.721 74.0753 210.386C76.3447 212.059 79.3549 212.309 82.0057 212.466C83.9307 212.581 84.569 211.828 85.2494 210.847C83.3612 208.647 82.2206 206.288 81.8006 203.98C81.463 202.125 81.5941 200.308 82.1803 198.634C82.7666 196.955 83.8047 195.427 85.2795 194.158C87.1123 192.581 89.6252 191.399 92.7899 190.824C97.0248 190.055 100.334 190.149 102.741 190.827C104.203 191.239 105.347 191.867 106.181 192.654C107.048 193.471 107.577 194.454 107.776 195.539C107.932 196.399 107.876 197.315 107.613 198.25C106.917 200.72 105.909 202.806 103.791 204.439C101.722 206.033 98.6172 207.153 93.7273 207.713C89.6235 208.183 88.0949 209.507 87.1273 210.766C89.7814 213.991 91.4949 216.88 92.9664 219.359L93.1998 219.752L93.215 219.729C94.411 217.863 95.4743 216.486 97.7807 215.665C99.9695 214.884 103.26 214.658 108.918 215.058C120.068 215.85 130.035 218.218 130.065 218.225C130.465 218.317 130.714 218.717 130.619 219.117C130.561 219.369 130.381 219.559 130.156 219.645C129.633 219.872 123.25 222.606 115.701 223.752C112.692 224.208 110.01 225.393 107.611 226.451C105.007 227.601 102.711 228.615 100.569 228.518L100.573 228.521ZM96.5495 233.457C96.9207 230.511 98.5097 228.838 99.148 228.276C98.5971 228.104 98.0545 227.84 97.517 227.466C95.5751 226.11 94.2548 224.318 92.9009 222.134C92.1516 222.596 91.3655 222.762 90.5743 222.927C89.2707 223.2 87.9471 223.478 86.9072 225.872C86.1009 227.729 86.3445 230.066 87.0568 232.314C88.1083 235.629 90.1493 238.686 91.4142 239.822C91.8594 240.222 92.3146 240.507 92.7581 240.695C93.351 240.942 93.9172 241.011 94.3992 240.934C94.8427 240.864 95.2173 240.669 95.4743 240.384C95.5784 240.267 95.6659 240.132 95.728 239.98C96.1076 239.075 96.1715 238.082 96.2588 236.696C96.3143 235.811 96.3798 234.775 96.5461 233.456L96.5495 233.457ZM94.4648 220.533C94.322 220.755 94.1776 220.954 94.0297 221.133C95.3451 223.273 96.5914 225.012 98.3652 226.25C100.7 227.881 103.553 226.622 107.015 225.094C109.499 223.997 112.278 222.771 115.481 222.283C120.416 221.534 124.831 220.094 127.361 219.159C123.784 218.421 116.591 217.095 108.814 216.542C103.381 216.155 100.275 216.356 98.2813 217.067C96.4049 217.738 95.4979 218.92 94.4648 220.533ZM83.2604 203.721C83.6148 205.674 84.5706 207.688 86.148 209.604C87.2886 208.187 89.1045 206.747 93.5593 206.238C98.1587 205.71 101.028 204.698 102.884 203.266C104.692 201.873 105.567 200.04 106.183 197.85C106.386 197.128 106.432 196.437 106.318 195.801C106.178 195.032 105.795 194.329 105.165 193.735C104.502 193.11 103.563 192.601 102.341 192.259C100.132 191.637 97.0483 191.558 93.0521 192.285C90.1694 192.809 87.8951 193.873 86.2505 195.289C84.9755 196.387 84.0802 197.696 83.5812 199.126C83.0807 200.559 82.9697 202.122 83.2604 203.721ZM69.7731 175.345C69.8135 174.775 69.8488 174.305 69.8757 173.952C67.5492 173.876 60.3326 173.96 56.3817 177.598C52.54 181.136 53.1532 186.549 53.4875 188.348C55.9433 188.13 64.8933 186.987 67.3828 181.849C68.8576 178.805 69.4994 176.697 69.7731 175.345ZM66.4287 187.242C67.2602 185.831 67.9001 184.436 68.3907 183.104C65.0831 188.63 55.4007 189.685 53.3345 189.849L50.5107 194.503C50.9862 194.657 51.9201 194.849 53.7192 194.948C55.4259 195.04 57.566 194.871 59.785 193.812C62.0225 192.744 64.3525 190.768 66.4287 187.244V187.242Z" fill="#899F87"/>
<path fill-rule="evenodd" clip-rule="evenodd" d="M71.4202 173.398C71.521 173.796 71.2809 174.201 70.8827 174.302C70.4846 174.402 70.0797 174.162 69.979 173.765C69.9722 173.741 68.1396 166.427 63.3185 160.48C62.3811 160.116 57.3317 158.404 50.0597 160.636C47.0545 161.559 44.3903 162.851 42.1948 163.914C40.2748 164.844 38.6991 165.609 37.4712 165.849C35.8233 166.173 34.7734 165.705 34.4122 163.875C33.6093 159.791 35.8116 158.535 40.4714 155.875C40.9938 155.575 41.5531 155.256 42.1848 154.888C45.3025 153.069 49.0535 152.016 52.8986 152.484C56.1507 152.879 59.4599 154.358 62.5021 157.367C63.1488 158.008 63.7535 158.678 64.3197 159.365C64.3364 159.383 64.3516 159.402 64.365 159.421C69.4767 165.661 71.4101 173.371 71.4169 173.396L71.4202 173.398ZM61.4757 158.438L61.4572 158.419C58.6771 155.668 55.6686 154.319 52.7256 153.961C49.2232 153.535 45.793 154.503 42.9289 156.173C42.346 156.512 41.7564 156.85 41.2037 157.166C37.1772 159.465 35.274 160.551 35.872 163.592C36.0198 164.342 36.4717 164.532 37.1856 164.391C38.2305 164.186 39.7255 163.46 41.5481 162.576C43.7872 161.492 46.5035 160.175 49.6213 159.218C54.7968 157.63 58.9678 157.939 61.474 158.438H61.4757Z" fill="#899F87"/>
<path fill-rule="evenodd" clip-rule="evenodd" d="M355.314 366.65C355.48 367.024 355.314 367.463 354.94 367.63C354.566 367.796 354.126 367.63 353.96 367.255C353.932 367.19 344.249 345.291 329.347 332.408C321.757 325.845 317.226 321.357 314.863 316.315C312.517 311.302 312.347 305.847 313.501 297.418C312.207 295.819 305.041 286.896 301.434 280.64C299.32 276.978 299.032 272.268 300.583 267.148C302.049 262.315 305.163 257.104 309.937 252.068C319.231 242.263 335.391 236.275 336.768 235.776C336.834 235.751 336.871 235.739 336.871 235.739C337.257 235.604 337.681 235.807 337.815 236.196C337.839 236.265 337.852 236.336 337.855 236.404C337.855 236.434 338.391 246.706 334.362 254.496C333.315 256.518 332.383 257.981 331.586 259.227C329.478 262.534 328.386 264.245 328.667 271.846C329.046 282.11 316.569 295.832 314.98 297.536C313.854 305.72 313.992 310.964 316.202 315.686C318.45 320.485 322.877 324.856 330.313 331.287C345.465 344.387 355.281 366.586 355.309 366.65H355.314ZM313.747 295.353C314.295 289.328 313.258 284.219 312.314 279.562C310.76 271.905 309.447 265.434 315.41 258.022C321.146 250.889 325.426 246.808 328.3 244.069C330.258 242.202 331.544 240.977 332.136 239.891C332.3 239.59 332.476 239.308 332.661 239.045C326.96 241.55 317.338 246.423 311.016 253.093C306.405 257.958 303.406 262.962 302.004 267.58C300.573 272.3 300.817 276.604 302.721 279.902C305.749 285.152 311.37 292.369 313.748 295.353H313.747ZM313.767 279.271C314.708 283.909 315.739 288.988 315.267 295.001C318.85 290.89 327.493 280.095 327.189 271.898C326.89 263.84 328.068 261.996 330.34 258.432C331.111 257.222 332.017 255.802 333.045 253.816C336.113 247.882 336.406 240.394 336.399 237.595C335.544 238.083 334.301 239.015 333.438 240.598C332.732 241.894 331.38 243.182 329.324 245.142C326.478 247.856 322.243 251.894 316.567 258.951C311.039 265.823 312.291 271.982 313.768 279.271H313.767Z" fill="#899F87"/>
<path fill-rule="evenodd" clip-rule="evenodd" d="M329.492 330.567C329.799 330.838 329.832 331.306 329.563 331.614C329.294 331.922 328.825 331.953 328.516 331.685C328.467 331.641 311.321 316.674 295.588 304.482C289.029 299.398 283.2 296.323 278.061 294.889C277.146 295.226 273.11 297.013 271.02 302.958C269.691 306.735 265.763 309.457 260.879 311.517C256.116 313.524 250.431 314.913 245.413 316.035C235.574 318.236 227.146 317.66 226.714 317.629C226.625 317.626 226.535 317.606 226.449 317.568C226.073 317.403 225.903 316.962 226.067 316.588C226.808 314.905 227.701 313.289 229.601 310.76C231.467 308.273 234.317 304.895 238.99 299.66C241.068 297.336 242.603 295.442 243.845 293.911C248.292 288.428 249.14 287.383 257.797 286.75C268.148 285.992 277.245 292.587 278.37 293.437C283.714 294.914 289.745 298.077 296.494 303.309C312.258 315.526 329.442 330.527 329.492 330.57V330.567ZM275.827 294.357C269.885 293.205 264.933 294.357 260.898 297.155C255.327 301.02 254.629 301.349 250.823 303.148C249.039 303.991 246.564 305.162 242.57 307.179C234.129 311.445 230.108 314.63 228.411 316.213C231.314 316.287 237.806 316.216 245.095 314.586C250.049 313.477 255.653 312.11 260.306 310.147C264.836 308.238 268.456 305.777 269.62 302.466C271.234 297.878 273.964 295.503 275.827 294.354V294.357ZM260.055 295.935C264.026 293.181 268.802 291.9 274.436 292.631C270.867 290.558 264.656 287.735 257.903 288.229C249.887 288.815 249.105 289.78 244.998 294.843C243.753 296.376 242.216 298.273 240.095 300.646C235.453 305.846 232.628 309.194 230.787 311.646C230.336 312.247 229.945 312.794 229.601 313.299C231.986 311.466 235.849 308.913 241.9 305.856C245.925 303.821 248.402 302.651 250.188 301.806C253.907 300.047 254.588 299.724 260.055 295.933V295.935Z" fill="#899F87"/>
<path fill-rule="evenodd" clip-rule="evenodd" d="M297.502 304.088C297.82 304.348 297.866 304.817 297.606 305.135C297.346 305.452 296.877 305.499 296.56 305.239C296.529 305.214 285.928 296.69 274.701 273.706C270.815 265.75 267.781 259.173 265.149 253.469L264.047 251.081C264.035 251.058 264.023 251.035 264.013 251.009C259.731 241.745 256.406 234.759 251.645 227.186C247.62 220.786 244.516 215.367 242.525 210.244C240.516 205.069 239.646 200.208 240.117 194.967C240.191 194.134 240.349 193.355 240.581 192.63C241.744 188.997 244.723 186.669 248.274 185.335C251.736 184.033 255.757 183.681 259.123 183.983C260.617 184.117 261.987 184.379 263.13 184.745L263.165 184.758L263.209 184.771H263.212C269.365 186.739 275.271 188.631 275.757 197.484C277.932 196.709 280.136 196.385 282.242 196.521C286.33 196.785 290.21 199.015 293.2 202.078C296.448 205.407 298.662 209.745 298.948 213.613C299.23 217.435 297.297 222.051 293.916 226.177C293.089 227.185 292.175 228.163 291.186 229.096C291.673 229.57 292.132 230.097 292.565 230.678L292.582 230.702C293.754 232.284 294.737 234.267 295.62 236.635C297.102 240.607 297.723 242.916 297.619 244.945C297.512 247.018 296.681 248.669 295.254 251.35C294.469 252.827 294.08 254.204 293.749 255.371C292.83 258.621 292.295 260.512 286.81 259.675C281.277 258.832 270.51 254.164 266.22 252.237L266.5 252.842C269.108 258.497 272.117 265.017 276.04 273.05C287.122 295.736 297.473 304.058 297.504 304.083L297.502 304.088ZM252.9 226.396C255.647 230.764 257.913 234.925 260.151 239.42C259.171 233.654 258.317 224.695 260.342 216.51C261.922 210.131 264.962 205.227 268.611 201.873C270.388 200.239 272.312 198.972 274.281 198.078C273.983 189.778 268.485 188.018 262.755 186.184L262.708 186.168L262.673 186.158C261.63 185.824 260.372 185.583 258.992 185.461C255.821 185.178 252.04 185.506 248.793 186.726C245.634 187.914 242.995 189.948 241.991 193.086C241.791 193.712 241.653 194.383 241.589 195.097C241.141 200.092 241.978 204.745 243.906 209.71C245.853 214.723 248.918 220.067 252.898 226.396H252.9ZM263.112 245.56C263.799 247.017 264.499 248.523 265.225 250.093C267.191 250.539 276.974 252.618 281.631 251.086C284.851 250.027 285.264 249.434 286.292 247.96C286.939 247.033 287.801 245.795 289.531 243.995C291.332 242.118 292.165 240.097 292.436 238.199C292.827 235.457 292.058 232.966 291.338 231.526C290.941 230.996 290.521 230.519 290.074 230.095C287.482 232.323 284.446 234.217 281.144 235.487C272.422 238.842 265.016 244.141 263.112 245.558V245.56ZM275.783 199.058C275.777 199.552 275.753 200.064 275.716 200.598C275.006 210.537 272.096 217.493 268.855 225.25C268.42 226.289 267.981 227.338 267.657 228.125C265.507 233.346 264.245 238.435 263.573 241.725C266.884 236.716 273.7 227.542 279.836 226.454C284.11 225.696 287.307 226.228 289.837 227.986C289.907 228.035 289.976 228.084 290.045 228.135C291.035 227.211 291.947 226.238 292.768 225.237C295.915 221.399 297.718 217.164 297.463 213.72C297.203 210.194 295.15 206.205 292.133 203.114C289.382 200.296 285.841 198.243 282.147 198.004C280.088 197.872 277.919 198.226 275.783 199.056V199.058ZM274.233 200.492C274.252 200.232 274.265 199.977 274.275 199.726C272.663 200.532 271.087 201.614 269.616 202.966C266.167 206.138 263.285 210.791 261.783 216.864C259.496 226.103 260.994 236.39 262.073 241.636C262.75 238.282 264.046 232.99 266.281 227.559C266.761 226.393 267.122 225.528 267.478 224.677C270.673 217.038 273.538 210.186 274.232 200.491L274.233 200.492ZM280.615 234.105C283.665 232.931 286.479 231.194 288.901 229.148C286.719 227.671 283.902 227.24 280.09 227.916C274.465 228.914 267.984 237.71 264.802 242.547C268.184 240.251 274.03 236.638 280.617 234.105H280.615ZM294.227 237.155C294.159 236.976 294.092 236.8 294.023 236.625C294.026 237.205 293.991 237.801 293.904 238.409C293.594 240.581 292.647 242.891 290.6 245.024C288.943 246.75 288.122 247.927 287.507 248.81C286.274 250.577 285.78 251.287 282.096 252.499C279.182 253.458 274.524 253.133 270.737 252.6C275.777 254.752 282.933 257.586 287.028 258.209C291.221 258.848 291.624 257.423 292.316 254.973C292.669 253.729 293.082 252.262 293.937 250.655C295.268 248.152 296.043 246.622 296.133 244.871C296.226 243.079 295.633 240.924 294.227 237.155Z" fill="#899F87"/>
<path fill-rule="evenodd" clip-rule="evenodd" d="M262.921 245.221C262.964 245.512 262.834 245.791 262.605 245.946C263.361 246.759 263.838 247.309 263.952 247.444C264.169 247.671 264.224 248.021 264.067 248.311C264.031 248.376 263.986 248.435 263.936 248.485C263.835 248.597 263.415 249.053 262.747 249.768C261.597 251.185 259.848 253.839 258.695 257.901L258.685 257.936C257.714 261.346 256.632 264.101 255.058 266.219C253.439 268.398 251.327 269.885 248.33 270.686C243.966 271.853 239.881 272.03 238.164 272.047C235.898 272.191 233.355 271.097 228.398 268.962L227.897 268.747C218.625 264.758 221.074 256.159 223.421 247.916C223.981 245.946 224.537 243.996 224.905 242.193C225.084 241.323 225.352 240.518 225.7 239.778C225.797 239.571 225.9 239.371 226.009 239.174C223.994 238.432 222.004 237.553 220.091 236.497C217.889 235.282 216.323 233.802 215.278 232.169V232.166C213.875 229.974 213.417 227.527 213.617 225.078C213.813 222.665 214.65 220.253 215.847 218.084C217.454 215.17 219.728 212.68 221.985 211.228L222.023 211.202L222.148 211.123L222.153 211.119C225.598 208.993 231.786 208.13 237.944 209.143C244.099 210.154 250.265 213.033 253.714 218.383C253.724 218.397 253.735 218.412 253.743 218.425C253.765 218.461 253.817 218.543 253.887 218.657C260.531 229.421 262.914 245.173 262.921 245.218V245.221ZM261.309 244.59C260.716 241.209 258.206 228.481 252.625 219.438L252.493 219.23L252.471 219.195C249.283 214.241 243.498 211.562 237.704 210.609C231.887 209.652 226.103 210.428 222.935 212.379L222.81 212.458L222.789 212.473C220.731 213.797 218.64 216.096 217.148 218.802C216.046 220.798 215.279 223.006 215.099 225.195C214.923 227.346 215.317 229.478 216.525 231.369C217.442 232.802 218.833 234.108 220.804 235.196C222.749 236.27 224.779 237.155 226.848 237.899C228.442 235.834 230.771 234.456 233.417 233.671C236.721 232.692 240.529 232.645 243.981 233.35C245.621 233.685 247.187 234.19 248.582 234.847C253.556 237.186 258.419 241.644 261.309 244.589V244.59ZM228.345 238.411C233.872 240.209 239.562 241.069 244.463 241.81C247.982 242.341 251.103 242.813 253.531 243.535C256.592 244.445 258.876 245.25 260.5 245.88C257.732 243.028 252.884 238.509 247.954 236.193C246.664 235.587 245.211 235.117 243.684 234.805C240.456 234.145 236.906 234.187 233.836 235.096C231.657 235.741 229.727 236.826 228.345 238.411ZM244.242 243.28C239.144 242.509 233.207 241.611 227.428 239.675C227.289 239.91 227.159 240.154 227.041 240.406C226.741 241.043 226.51 241.738 226.355 242.49C225.965 244.397 225.409 246.349 224.849 248.322C222.676 255.951 220.41 263.908 228.482 267.382L228.982 267.597C233.202 269.412 235.586 270.439 237.408 270.562C237.51 270.563 237.729 270.568 238.048 270.565C238.127 270.56 238.206 270.553 238.284 270.545C240.145 270.338 241.848 268.924 245.202 266.14V266.137L246.022 265.456C251.51 260.914 254.066 257.59 256.002 255.071C256.886 253.921 257.643 252.935 258.498 252.06C259.84 250.684 260.917 249.552 261.666 248.752C261.848 248.531 262.015 248.336 262.165 248.169C260.855 247.575 258.023 246.415 253.113 244.954C250.8 244.267 247.717 243.8 244.244 243.276L244.242 243.28ZM246.148 267.283C244.628 268.544 243.427 269.542 242.37 270.293C244.023 270.103 245.952 269.784 247.946 269.251C250.593 268.544 252.451 267.241 253.865 265.336C255.315 263.384 256.332 260.779 257.257 257.525L257.266 257.495C257.567 256.433 257.91 255.46 258.273 254.573C257.92 255.012 257.561 255.481 257.177 255.979C255.194 258.559 252.577 261.963 246.971 266.604L246.151 267.284L246.148 267.283Z" fill="#899F87"/>
<path fill-rule="evenodd" clip-rule="evenodd" d="M257.832 256.772C257.576 256.451 257.63 255.984 257.951 255.728C258.272 255.473 258.738 255.527 258.994 255.848C259.002 255.86 262.083 259.824 267.009 258.744C271.678 257.719 270.924 253.938 270.922 253.928C270.848 253.525 271.116 253.139 271.518 253.065C271.922 252.991 272.308 253.258 272.382 253.661C272.386 253.676 273.413 258.862 267.322 260.199C261.487 261.479 257.844 256.787 257.832 256.774V256.772Z" fill="#899F87"/>
</g>
<circle cx="101.548" cy="329.743" r="14" fill="#213721" fill-opacity="0.66"/>
<circle cx="87.5483" cy="306.743" r="9" fill="#213721"/>
<circle cx="76.0483" cy="325.243" r="4.5" fill="#213721" fill-opacity="0.25"/>
</g>
</g>
<defs>
<radialGradient id="paint0_radial_250_2012" cx="0" cy="0" r="1" gradientUnits="userSpaceOnUse" gradientTransform="translate(200 242) scale(313.949 313.949)">
<stop stop-color="#E4ECE0" stop-opacity="0.95"/>
<stop offset="0.7" stop-color="#E4ECE0" stop-opacity="0"/>
</radialGradient>
<clipPath id="clip0_250_2012">
<rect width="336" height="420" fill="white" transform="translate(32 32)"/>
</clipPath>
<clipPath id="clip1_250_2012">
<rect width="336" height="420" fill="white" transform="translate(32 32)"/>
</clipPath>
<clipPath id="clip2_250_2012">
<rect width="336" height="420" fill="white" transform="translate(32 32)"/>
</clipPath>
</defs>
</svg>
