<svg width="116" height="116" viewBox="0 0 116 116" fill="none" xmlns="http://www.w3.org/2000/svg">
<g filter="url(#filter0_dddd_341_903)">
<rect x="11" y="11" width="94" height="94" rx="47" fill="url(#paint0_radial_341_903)" shape-rendering="crispEdges"/>
<rect x="9.5" y="9.5" width="97" height="97" rx="48.5" stroke="white" stroke-width="3" shape-rendering="crispEdges"/>
<path d="M81.739 78.7961C83.3026 66.6618 83.6153 63.9179 83.8465 62.208C84.1592 59.8776 83.9686 58.0161 83.5063 56.5682C83.2075 55.6444 82.9625 55.0928 82.7313 54.6653C82.446 54.1552 82.1874 53.9345 82.1059 53.8656C81.5214 53.3968 80.7599 53.4795 80.2161 53.5484C79.5362 53.6312 79.0468 53.8518 78.639 54.0311C77.9726 54.3344 77.157 54.6792 76.7217 55.4513C76.586 55.6996 76.4365 56.0994 76.586 56.4717C76.7627 56.913 77.0889 56.9819 77.4017 56.913C77.8504 56.8302 78.2176 56.5407 78.8701 55.8512C79.2779 55.4237 79.7947 54.6792 79.9714 54.2931C80.1074 54.0035 80.3251 53.5347 80.1755 53.2727C79.7812 52.5832 77.7414 53.0244 76.5045 53.4381C74.9409 53.9621 73.9483 54.6929 72.9557 55.3962C71.3241 56.5545 69.6245 57.5886 67.9929 58.7331C64.8795 60.898 62.3777 62.3734 60.4879 63.4904C57.9725 64.9657 55.9874 65.9585 53.9752 67.0618C51.3919 68.482 48.4687 70.9779 44.0362 73.1566C42.935 73.6943 42.7446 73.777 41.1538 74.4662C39.7942 75.0456 39.3047 75.3767 38.149 75.7211C37.0341 76.0384 36.3815 76.1899 36.096 76.2313C35.5385 76.3281 35.0083 76.3418 34.2605 76.3418C33.703 76.3418 33.1456 76.3694 32.5881 76.3694C32.3298 76.3694 32.1802 76.3694 32.0851 76.4796C31.8131 76.7831 32.2482 77.6656 32.6153 78.1895C33.6758 79.6648 35.3074 79.8719 35.4841 79.8856C35.8377 79.927 36.6806 79.8856 37.7684 79.6924C39.767 79.3476 39.8622 79.2649 40.8139 79.2236C41.249 79.2098 42.2144 79.1685 43.4108 79.403C44.2946 79.5684 44.5665 79.6786 45.3823 79.8167C46.5108 79.9958 47.1498 79.7475 47.2994 79.7062C47.9928 79.4995 48.4551 79.1547 48.5774 79.0582C49.2301 78.5481 49.5156 77.9687 49.8011 77.3897C50.073 76.852 50.2362 76.0935 50.5625 74.5768C50.6985 73.9285 50.7257 73.7494 50.6169 73.6668C50.3042 73.4046 49.1213 74.1769 48.3735 75.1145C47.8569 75.7624 47.3946 76.6725 47.5713 76.8106C47.7617 76.976 48.8629 76.3143 49.5836 75.3074C50.1002 74.5768 50.5489 73.9148 50.9432 73.5424C51.2151 73.2944 51.7454 73.1566 51.9221 73.1149C52.7379 72.922 53.6489 72.6461 55.1037 72.2462C57.8366 71.4743 59.2098 71.1157 60.2431 70.9228C62.4185 70.5367 63.7374 70.6607 65.301 70.3296C66.5926 70.0541 68.4552 69.7231 70.6716 68.6886C73.1868 67.5168 74.5057 66.2344 74.8319 65.9033C75.6885 65.0484 76.6131 63.8766 76.4906 63.7384C76.382 63.6282 75.5799 64.1659 74.9406 64.8004C73.9348 65.7931 73.6356 66.717 73.1053 67.7235C72.4253 69.0197 71.9905 69.2956 70.6442 71.0193C68.7818 73.4046 67.5715 75.5144 66.8509 76.7693C64.8659 80.2301 63.4382 82.7811 63.2751 86.2974C63.2207 87.442 63.3159 88.3796 63.411 89M55.2669 87.4696C55.2125 86.7111 55.2125 85.6219 55.43 84.3533C55.7428 82.5056 56.3546 81.1956 56.8033 80.2301C57.5919 78.5756 58.4076 77.4448 59.1418 76.4658C60.1208 75.1421 60.651 74.6457 61.9563 73.1563C62.2962 72.7705 64.3628 70.4123 65.9672 68.2198C67.3132 66.3722 68.4961 64.6898 69.3933 63.4766C69.9511 62.7181 70.481 62.3458 70.5355 61.877C70.5626 61.6702 70.1683 61.4909 69.815 61.2841C69.3117 60.9945 69.04 60.7877 68.5097 60.3878C68.1834 60.1396 67.354 59.4915 66.2391 58.3332C64.7163 56.7751 63.8733 55.7961 63.3839 55.1617C62.3642 53.8518 62.4458 53.6863 61.0317 51.356C60.148 49.9081 59.101 48.4603 57.5919 46.8056C57.0888 46.254 55.9467 45.3302 53.7305 43.4411C53.5537 43.2894 52.0037 41.745 51.7862 41.5244C51.0384 40.7936 50.4946 40.2696 50.3586 39.4423C50.3042 39.0838 50.2906 38.477 50.5081 38.3805C50.7801 38.2702 51.4463 38.9045 51.555 39.6629C51.6502 40.2972 51.4055 40.7798 51.0112 41.1107C50.8073 41.2762 50.3858 41.4692 49.9643 41.6485C49.3525 41.9243 48.9174 42.1863 48.4551 42.2552C48.3192 42.269 47.7345 42.3931 47.1906 42.076C46.7012 41.7864 46.5244 41.2762 46.2525 40.4902C45.7222 38.8769 45.3959 37.7876 45.0832 36.9189C44.7297 35.8847 44.553 35.3745 44.2267 34.8505C43.6692 33.968 43.0302 33.6508 42.4591 32.8925C41.7929 31.9962 41.3986 31.417 41.1675 30.4794C40.9091 29.4038 41.0995 28.5213 41.2354 28.0249C41.3578 27.5699 41.5346 27.0459 41.8473 27.0045C42.228 26.9356 42.6359 27.6664 42.935 28.1628C44.0227 29.9968 44.6889 30.8655 45.4503 31.5135C45.8718 31.8859 47.0411 32.6305 49.3661 33.7612C51.6774 34.8781 52.3981 35.1814 53.6897 36.1053C54.3151 36.5466 54.7774 36.9189 55.5796 37.6083C58.1493 39.8146 59.808 41.4692 60.5015 42.0484C61.0997 42.5448 62.8129 43.9926 68.5777 47.9639C70.3318 49.1635 71.3921 49.9771 73.0782 50.9423C74.6959 51.88 76.0828 52.5418 77.0345 52.9693" stroke="#E9ECEF" stroke-width="0.930232" stroke-miterlimit="10" stroke-linecap="round" stroke-linejoin="round"/>
</g>
<defs>
<filter id="filter0_dddd_341_903" x="0" y="0" width="116" height="116" filterUnits="userSpaceOnUse" color-interpolation-filters="sRGB">
<feFlood flood-opacity="0" result="BackgroundImageFix"/>
<feColorMatrix in="SourceAlpha" type="matrix" values="0 0 0 0 0 0 0 0 0 0 0 0 0 0 0 0 0 0 127 0" result="hardAlpha"/>
<feOffset dy="4"/>
<feGaussianBlur stdDeviation="2"/>
<feComposite in2="hardAlpha" operator="out"/>
<feColorMatrix type="matrix" values="0 0 0 0 0 0 0 0 0 0 0 0 0 0 0 0 0 0 0.25 0"/>
<feBlend mode="normal" in2="BackgroundImageFix" result="effect1_dropShadow_341_903"/>
<feColorMatrix in="SourceAlpha" type="matrix" values="0 0 0 0 0 0 0 0 0 0 0 0 0 0 0 0 0 0 127 0" result="hardAlpha"/>
<feOffset dy="-4"/>
<feGaussianBlur stdDeviation="2"/>
<feComposite in2="hardAlpha" operator="out"/>
<feColorMatrix type="matrix" values="0 0 0 0 0 0 0 0 0 0 0 0 0 0 0 0 0 0 0.25 0"/>
<feBlend mode="normal" in2="effect1_dropShadow_341_903" result="effect2_dropShadow_341_903"/>
<feColorMatrix in="SourceAlpha" type="matrix" values="0 0 0 0 0 0 0 0 0 0 0 0 0 0 0 0 0 0 127 0" result="hardAlpha"/>
<feOffset dx="4" dy="4"/>
<feGaussianBlur stdDeviation="2"/>
<feComposite in2="hardAlpha" operator="out"/>
<feColorMatrix type="matrix" values="0 0 0 0 0 0 0 0 0 0 0 0 0 0 0 0 0 0 0.25 0"/>
<feBlend mode="normal" in2="effect2_dropShadow_341_903" result="effect3_dropShadow_341_903"/>
<feColorMatrix in="SourceAlpha" type="matrix" values="0 0 0 0 0 0 0 0 0 0 0 0 0 0 0 0 0 0 127 0" result="hardAlpha"/>
<feOffset dx="-4" dy="4"/>
<feGaussianBlur stdDeviation="2"/>
<feComposite in2="hardAlpha" operator="out"/>
<feColorMatrix type="matrix" values="0 0 0 0 0 0 0 0 0 0 0 0 0 0 0 0 0 0 0.25 0"/>
<feBlend mode="normal" in2="effect3_dropShadow_341_903" result="effect4_dropShadow_341_903"/>
<feBlend mode="normal" in="SourceGraphic" in2="effect4_dropShadow_341_903" result="shape"/>
</filter>
<radialGradient id="paint0_radial_341_903" cx="0" cy="0" r="1" gradientUnits="userSpaceOnUse" gradientTransform="translate(58 58) rotate(90) scale(91.5)">
<stop stop-color="#213721"/>
<stop offset="1" stop-color="#050E05"/>
</radialGradient>
</defs>
</svg>
