<svg width="116" height="116" viewBox="0 0 116 116" fill="none" xmlns="http://www.w3.org/2000/svg">
<g filter="url(#filter0_dddd_341_879)">
<rect x="11" y="11" width="94" height="94" rx="47" fill="url(#paint0_radial_341_879)" shape-rendering="crispEdges"/>
<rect x="9.5" y="9.5" width="97" height="97" rx="48.5" stroke="white" stroke-width="3" shape-rendering="crispEdges"/>
<path d="M71.8778 81.9879C71.1729 81.6988 70.1833 81.3268 68.9497 81.0653C66.4013 80.5282 63.5817 80.6247 62.3346 80.7487C61.3586 80.8452 60.3555 81.0242 56.7361 82.0704C52.7101 83.241 50.7445 83.8471 48.0063 84.8107C44.4004 86.0778 42.9364 86.6699 40.2524 87.2895C37.6904 87.8816 36.484 87.386 35.6299 87.014C35.2639 86.8489 32.485 85.5683 32.0513 82.7179C32.0106 82.4149 31.7666 80.6522 32.8646 79.1375C33.583 78.1324 34.8708 77.4713 35.8468 77.1268C40.2931 75.5711 44.6987 76.6312 45.4443 76.7688C48.44 77.3473 50.4327 78.1874 53.4963 79.5781C55.6517 80.5557 57.563 81.6713 61.2366 83.7231C65.8184 86.2704 66.2115 86.6424 68.1635 87.4135C72.3387 89.0522 74.765 89.0386 75.5377 88.9832C76.9612 88.8871 78.737 88.6531 80.4993 87.3445C81.8683 86.3394 82.5866 85.1827 83.2508 83.9846C84.132 82.4009 84.0235 81.6713 83.9561 81.3268C83.7931 80.4042 83.224 79.8121 82.8848 79.4956C81.8683 78.5729 80.1466 78.2285 79.6994 78.1324C76.6224 77.4713 74.0062 77.0583 70.8747 76.3832C67.2011 75.5846 66.7131 75.4471 63.7444 74.7585C62.5515 74.483 61.0604 74.1939 58.7966 74.1939C58.0781 74.1939 55.733 74.304 55.5025 75.1851C55.3534 75.7636 55.6517 76.5212 56.3566 76.7277C56.8988 76.8928 57.8206 76.9618 58.8508 76.9067C60.7892 76.7827 61.7517 76.7277 62.8904 76.4522C64.2188 76.1492 65.1542 75.7776 65.8591 74.8135C66.2522 74.2765 66.4691 73.7669 66.6046 73.2299C66.7402 72.7068 66.9028 71.8117 66.6318 69.5944C66.4555 68.2173 66.32 67.3086 65.9404 66.0555C65.5608 64.8161 65.127 63.7145 64.2188 62.5165C63.4326 61.4836 62.6193 60.9191 61.8872 60.4096C60.7079 59.5971 58.9457 58.6607 58.7152 58.9637C58.5254 59.2115 59.4201 60.2443 59.9623 60.7814C60.9519 61.7591 61.8466 62.3099 63.3784 63.081C66.7266 64.7748 67.662 65.243 68.3533 65.5597C69.2344 65.9591 69.9258 66.3722 71.4169 66.9643C71.7287 67.0882 72.3251 67.1709 72.8675 67.0607C73.6263 66.9092 73.9383 66.6063 74.2093 66.2345C74.711 65.5597 74.8601 64.706 74.8329 62.7643C74.8195 60.7952 74.8195 59.9965 74.616 58.9361C74.399 57.7106 74.1687 56.8568 73.491 55.2318C72.7862 53.5518 72.42 52.6017 71.6609 51.3761C71.0644 50.3984 70.0884 48.8423 69.004 48.1814C68.272 47.7269 66.9707 47.479 65.0729 46.9007C62.443 46.102 61.4263 45.5787 59.8403 44.6974C58.539 43.9676 57.7121 43.582 55.9228 42.1223C54.6757 41.1033 54.0385 40.5112 53.3201 39.3957C53.1303 39.1066 52.2085 37.6469 51.9103 35.4712C51.7612 34.4246 51.3409 31.9046 52.7779 29.6049C53.1438 29.0266 53.8759 28.0489 55.1365 27.443C57.7121 26.2174 60.4368 27.8974 60.8299 28.1453C62.4973 29.1781 63.2292 30.6239 63.3648 30.9269C64.1104 32.4692 64.0426 33.8738 64.0019 34.6036C63.7173 39.2718 59.7454 42.3702 58.8643 43.0312C57.2783 44.2017 55.8143 44.8489 54.0792 45.4135C51.9781 46.102 50.1074 46.4876 47.9385 47.3827C46.0678 48.1676 44.7529 48.8286 43.5871 50.2607C42.4755 51.6378 42.1096 52.7945 41.73 54.9289C41.5402 56.0168 41.12 57.7794 40.9166 60.2856C40.8489 61.1119 40.7269 61.9381 40.632 62.7643C40.4287 64.3617 40.4558 65.1879 40.5507 65.6561C40.632 66.0692 40.8489 67.0194 41.6215 67.3224C42.1231 67.5151 42.9907 67.6115 44.1158 67.2948C45.6883 66.8542 46.1085 66.7027 47.2743 66.2482C47.8029 66.0417 48.2367 65.8351 48.8061 65.9453C49.389 66.0555 49.7685 66.4548 49.9176 66.6338C51.1105 67.9282 50.853 70.214 50.731 70.9716C50.5141 72.4448 50.3107 74.552 49.0501 74.5655C47.9249 74.5795 47.8571 72.5002 47.8571 70.9851C47.8571 68.0933 49.1992 65.8765 49.6872 65.1466C50.4327 64.0036 51.2596 63.2325 51.4358 63.0535C52.3576 62.186 52.8592 61.8141 53.8081 61.2358C54.6621 60.6988 55.4754 59.9551 56.0583 58.8122C56.587 57.7519 56.8445 56.9256 57.1699 55.2181C57.4546 53.7446 57.685 52.4778 57.6308 50.8253C57.6172 50.481 57.7121 48.8423 57.807 48.2227C57.8884 47.6994 58.0781 46.7905 58.3221 46.7767C58.4712 46.7767 58.6881 47.0935 59.1084 49.0076C59.5828 51.1971 59.6641 51.7204 59.881 52.643C60.1115 53.6482 60.5452 54.86 61.5348 56.003C62.2533 56.8292 62.9446 57.201 64.2731 57.9171C65.8455 58.7709 67.0791 59.1151 68.5295 59.5145C69.6953 59.845 70.6713 60.1204 70.7798 59.8863C70.8747 59.6797 70.2782 59.0738 69.5462 58.8122C68.8142 58.5368 68.3804 58.6056 67.6484 58.6745C66.6453 58.7709 65.832 58.7984 64.0968 58.4954C62.4701 58.2063 60.8977 57.9309 59.4744 56.6777C59.0135 56.2784 58.1324 55.5073 57.6986 54.2128C57.5359 53.7446 57.4952 53.841 57.3732 49.9715C57.3732 49.9715 57.3054 48.8286 57.0885 47.6856C56.9937 47.1899 56.7903 46.9696 56.6548 46.9558C56.2075 46.9145 55.9092 48.1125 55.7059 49.5997C55.4619 51.4174 55.3128 52.0647 55.1772 53.0837C55.0416 54.0476 54.6486 55.5211 53.5234 56.7191C52.5068 57.8069 51.2596 58.2889 50.1345 58.5781C48.562 58.9774 47.9385 59.1151 46.5558 59.666C45.8238 59.9552 44.9156 60.5748 44.9562 61.2496C44.9834 61.6902 45.4171 62.1722 45.8645 62.1722C46.6371 62.1722 47.1658 61.222 47.5047 60.6299C48.0063 59.7623 48.8603 57.7794 48.4129 54.323" stroke="#E9ECEF" stroke-width="0.990099" stroke-miterlimit="10" stroke-linecap="round" stroke-linejoin="round"/>
</g>
<defs>
<filter id="filter0_dddd_341_879" x="0" y="0" width="116" height="116" filterUnits="userSpaceOnUse" color-interpolation-filters="sRGB">
<feFlood flood-opacity="0" result="BackgroundImageFix"/>
<feColorMatrix in="SourceAlpha" type="matrix" values="0 0 0 0 0 0 0 0 0 0 0 0 0 0 0 0 0 0 127 0" result="hardAlpha"/>
<feOffset dy="4"/>
<feGaussianBlur stdDeviation="2"/>
<feComposite in2="hardAlpha" operator="out"/>
<feColorMatrix type="matrix" values="0 0 0 0 0 0 0 0 0 0 0 0 0 0 0 0 0 0 0.25 0"/>
<feBlend mode="normal" in2="BackgroundImageFix" result="effect1_dropShadow_341_879"/>
<feColorMatrix in="SourceAlpha" type="matrix" values="0 0 0 0 0 0 0 0 0 0 0 0 0 0 0 0 0 0 127 0" result="hardAlpha"/>
<feOffset dy="-4"/>
<feGaussianBlur stdDeviation="2"/>
<feComposite in2="hardAlpha" operator="out"/>
<feColorMatrix type="matrix" values="0 0 0 0 0 0 0 0 0 0 0 0 0 0 0 0 0 0 0.25 0"/>
<feBlend mode="normal" in2="effect1_dropShadow_341_879" result="effect2_dropShadow_341_879"/>
<feColorMatrix in="SourceAlpha" type="matrix" values="0 0 0 0 0 0 0 0 0 0 0 0 0 0 0 0 0 0 127 0" result="hardAlpha"/>
<feOffset dx="4" dy="4"/>
<feGaussianBlur stdDeviation="2"/>
<feComposite in2="hardAlpha" operator="out"/>
<feColorMatrix type="matrix" values="0 0 0 0 0 0 0 0 0 0 0 0 0 0 0 0 0 0 0.25 0"/>
<feBlend mode="normal" in2="effect2_dropShadow_341_879" result="effect3_dropShadow_341_879"/>
<feColorMatrix in="SourceAlpha" type="matrix" values="0 0 0 0 0 0 0 0 0 0 0 0 0 0 0 0 0 0 127 0" result="hardAlpha"/>
<feOffset dx="-4" dy="4"/>
<feGaussianBlur stdDeviation="2"/>
<feComposite in2="hardAlpha" operator="out"/>
<feColorMatrix type="matrix" values="0 0 0 0 0 0 0 0 0 0 0 0 0 0 0 0 0 0 0.25 0"/>
<feBlend mode="normal" in2="effect3_dropShadow_341_879" result="effect4_dropShadow_341_879"/>
<feBlend mode="normal" in="SourceGraphic" in2="effect4_dropShadow_341_879" result="shape"/>
</filter>
<radialGradient id="paint0_radial_341_879" cx="0" cy="0" r="1" gradientUnits="userSpaceOnUse" gradientTransform="translate(58 58) rotate(90) scale(91.5)">
<stop stop-color="#213721"/>
<stop offset="1" stop-color="#050E05"/>
</radialGradient>
</defs>
</svg>
