<svg width="147" height="172" viewBox="0 0 147 172" fill="none" xmlns="http://www.w3.org/2000/svg">
<path d="M140.152 143.357C144.542 109.89 145.42 102.322 146.069 97.6059C146.947 91.1787 146.412 86.0445 145.114 82.0512C144.275 79.5031 143.587 77.9819 142.938 76.8029C142.137 75.3958 141.411 74.7873 141.182 74.5971C139.541 73.3041 137.403 73.5323 135.876 73.7224C133.967 73.9506 132.593 74.5591 131.448 75.0535C129.577 75.8902 127.287 76.841 126.065 78.9707C125.684 79.6553 125.264 80.7582 125.684 81.785C126.18 83.002 127.096 83.1922 127.974 83.002C129.234 82.7738 130.265 81.9752 132.097 80.0736C133.242 78.8946 134.693 76.841 135.189 75.7761C135.571 74.9775 136.182 73.6844 135.762 72.9618C134.655 71.0603 128.928 72.2772 125.455 73.4182C121.065 74.8634 118.278 76.879 115.491 78.8186C110.91 82.0132 106.138 84.8655 101.557 88.0221C92.8155 93.993 85.7914 98.0623 80.4852 101.143C73.4229 105.212 67.8494 107.95 62.1996 110.993C54.9465 114.91 46.739 121.794 34.2941 127.803C31.202 129.286 30.6676 129.514 26.2011 131.415C22.3837 133.013 21.0094 133.926 17.7646 134.876C14.6343 135.751 12.802 136.169 12.0003 136.283C10.4351 136.55 8.94634 136.588 6.84675 136.588C5.2816 136.588 3.71643 136.664 2.15128 136.664C1.42597 136.664 1.00607 136.664 0.738849 136.968C-0.0246388 137.805 1.19695 140.239 2.22766 141.684C5.20526 145.753 9.78618 146.324 10.2824 146.362C11.275 146.476 13.6418 146.362 16.6958 145.829C22.3074 144.878 22.5746 144.65 25.2468 144.536C26.4684 144.498 29.1788 144.384 32.5381 145.031C35.0195 145.487 35.783 145.791 38.0734 146.172C41.2419 146.666 43.0361 145.981 43.456 145.867C45.4029 145.297 46.7008 144.346 47.0444 144.08C48.8768 142.673 49.6784 141.075 50.4801 139.478C51.2436 137.995 51.7017 135.903 52.6179 131.72C52.9996 129.932 53.076 129.438 52.7706 129.21C51.8925 128.487 48.5714 130.617 46.4718 133.203C45.0212 134.99 43.7232 137.5 44.2195 137.881C44.7539 138.337 47.846 136.512 49.8693 133.735C51.3199 131.72 52.5796 129.894 53.6867 128.867C54.4502 128.183 55.939 127.803 56.4353 127.688C58.7258 127.156 61.2835 126.395 65.3681 125.292C73.0412 123.163 76.8967 122.174 79.798 121.642C85.9059 120.577 89.6088 120.919 93.9989 120.006C97.6255 119.246 102.855 118.333 109.078 115.48C116.14 112.248 119.843 108.711 120.759 107.798C123.164 105.44 125.76 102.208 125.416 101.827C125.111 101.523 122.859 103.006 121.064 104.756C118.24 107.494 117.4 110.042 115.911 112.818C114.002 116.393 112.781 117.154 109.001 121.908C103.772 128.487 100.374 134.306 98.3507 137.767C92.7773 147.312 88.769 154.348 88.3109 164.046C88.1582 167.203 88.4254 169.789 88.6926 171.5M65.8263 167.279C65.6736 165.187 65.6736 162.183 66.2844 158.684C67.1624 153.588 68.8802 149.975 70.14 147.312C72.3541 142.749 74.6446 139.63 76.706 136.93C79.4545 133.279 80.9433 131.91 84.6081 127.802C85.5624 126.738 91.3649 120.234 95.8695 114.187C99.6488 109.091 102.97 104.451 105.489 101.105C107.055 99.013 108.543 97.9862 108.696 96.6931C108.772 96.1227 107.665 95.6283 106.673 95.0578C105.26 94.2591 104.497 93.6887 103.008 92.5858C102.092 91.9012 99.7633 90.1138 96.633 86.9192C92.3575 82.6217 89.9906 79.9215 88.6164 78.172C85.7533 74.5591 85.9824 74.1027 82.0122 67.6755C79.5309 63.6822 76.5914 59.6889 72.3541 55.1252C70.9416 53.604 67.735 51.0559 61.5125 45.8457C61.0163 45.4273 56.6644 41.1678 56.0536 40.5593C53.9541 38.5437 52.4271 37.0985 52.0453 34.8167C51.8926 33.8279 51.8544 32.1545 52.4652 31.8883C53.2287 31.584 55.0993 33.3335 55.4046 35.4252C55.6719 37.1746 54.9847 38.5057 53.8777 39.4184C53.3051 39.8748 52.1217 40.4072 50.9383 40.9016C49.2204 41.6622 47.9988 42.3848 46.7009 42.575C46.3192 42.613 44.6777 42.9553 43.1507 42.0806C41.7764 41.2819 41.2801 39.8748 40.5166 37.707C39.0278 33.2574 38.1117 30.2529 37.2336 27.857C36.2411 25.0047 35.7449 23.5975 34.8287 22.1523C33.2635 19.7184 31.4693 18.8436 29.866 16.7519C27.9955 14.2799 26.8884 12.6826 26.2395 10.0965C25.5141 7.13008 26.0486 4.6961 26.4303 3.32698C26.7739 2.07196 27.2702 0.626779 28.1482 0.512686C29.2171 0.322531 30.3623 2.33818 31.2021 3.70729C34.2561 8.76542 36.1266 11.1614 38.2644 12.9488C39.4478 13.9757 42.7308 16.0293 49.2586 19.1479C55.7482 22.2284 57.7715 23.0651 61.3981 25.6132C63.1541 26.8302 64.452 27.857 66.7043 29.7585C73.9193 35.8435 78.5765 40.4072 80.5234 42.0045C82.2031 43.3736 87.0131 47.3669 103.199 58.3198C108.124 61.6285 111.101 63.8724 115.835 66.5345C120.377 69.1206 124.271 70.9461 126.943 72.1251" stroke="#213721" stroke-miterlimit="10" stroke-linecap="round" stroke-linejoin="round"/>
</svg>
