<svg width="87" height="152" viewBox="0 0 87 152" fill="none" xmlns="http://www.w3.org/2000/svg">
<path d="M38.5944 0.500061C38.0894 4.62373 38.83 6.16591 39.0993 6.63527C40.6479 9.48496 44.0143 10.3566 46.0678 10.8595C47.9194 11.3289 51.3195 11.8653 61.9575 9.55201C68.219 8.17746 69.7676 7.40636 74.0766 7.23873C77.746 7.10463 80.5065 7.03759 82.863 8.84798C86.3978 11.5636 86.4651 16.5924 86.4987 18.0005C86.5324 20.649 85.8928 22.56 84.2432 26.5496C80.5402 35.6015 79.5639 36.272 77.847 41.0327C75.8945 46.3968 74.4806 50.2858 74.9855 55.3817C75.3559 58.969 76.5341 62.0869 78.3856 66.8811C79.1263 68.792 80.3045 71.6417 81.7184 76.0336C82.7284 79.118 83.166 80.8948 82.8294 83.1075C82.6947 84.1133 82.3244 86.3595 80.5402 88.304C78.756 90.2485 76.5341 90.8184 75.8272 90.9861C74.3796 91.3213 72.8647 91.3213 69.2289 90.9861C68.724 90.9525 67.7814 90.8519 66.6031 90.5837C65.1219 90.2485 63.6743 89.6115 63.7416 89.3098C63.809 89.0081 65.5595 89.6115 67.7477 88.9074C68.421 88.6728 69.7676 88.237 70.6092 86.9965C71.6864 85.3873 71.2488 83.5098 71.0805 82.7387C70.4745 80.1237 68.522 78.7491 68.118 78.5145C67.3774 78.0116 66.0308 77.1399 64.3476 77.4081C62.1931 77.7434 61.1158 79.6879 60.8129 80.2243C59.9712 81.6994 60.0049 83.1075 60.0386 84.3144C60.1059 87.0636 60.7792 88.8069 61.4861 89.9803C62.2941 91.3549 63.1357 92.2265 64.2129 92.5618C65.5932 92.9976 66.8724 92.7294 66.9734 93.0647C67.0407 93.2658 66.6705 93.5005 66.3675 93.7352C65.2566 94.7074 65.0882 96.1825 64.8862 97.7918C64.6169 99.971 65.1892 100.139 64.7179 101.748C64.5159 102.418 64.2129 103.491 63.2703 104.128C62.4287 104.698 61.4861 104.665 60.7118 104.665C58.49 104.598 55.9315 104.53 53.9453 104.732C51.6561 104.966 51.7908 105.369 48.761 105.704C47.2461 105.872 46.1352 105.871 46.1015 106.14C46.0678 106.508 48.256 107.045 48.3907 107.078C49.9729 107.447 50.7809 107.347 53.2384 107.581C55.8305 107.816 56.4028 108.017 56.7731 108.52C57.1771 109.023 57.1771 109.593 57.1771 110.565C57.1771 111.303 57.1434 113.415 55.6622 115.292C54.9552 116.164 54.2146 116.667 53.7097 117.002C52.4304 117.84 51.9928 117.673 51.0502 118.31C49.3333 119.416 48.66 121.226 48.4917 121.729C47.9531 123.238 48.2897 123.908 48.1551 125.853C48.0877 126.557 47.8521 129.239 46.5392 131.653C44.8559 134.804 42.0618 136.279 40.8162 136.95C38.0221 138.425 35.5309 138.66 34.3527 138.76C31.4575 138.995 29.3367 138.459 27.3841 137.956C25.0276 137.352 23.8494 137.05 23.1088 136.078C21.5602 134.067 22.5365 131.083 22.8058 130.312C23.3444 128.635 24.186 127.697 25.7683 125.819C30.8852 119.785 23.0414 128.401 30.8852 119.584C36.2379 113.549 37.2141 112.543 39.234 110.23C41.6242 107.481 43.644 105.167 45.8659 102.15C48.4917 98.5629 52.2284 93.467 55.1572 86.0913C56.4365 82.9064 57.7831 79.4532 58.4227 74.5585C58.894 70.8706 59.5336 65.473 57.2444 59.5054C56.5038 57.5609 55.4602 54.8453 53.1037 52.1632C48.761 47.1679 48.6937 47.1009 48.6937 47.1009C47.5154 45.8604 46.8421 45.2234 46.6738 44.1171C46.4045 42.139 48.0204 40.4292 48.4244 39.9934C49.165 39.2223 49.8046 38.8535 51.7908 37.8478C54.6859 36.4061 56.5038 35.568 57.884 34.8975C60.6445 33.59 61.6545 33.0871 63.506 32.6177C65.2565 32.1819 66.3338 32.1484 67.3437 32.6513C68.421 33.1877 68.9596 34.1264 69.0943 34.3611C69.3299 34.8304 69.9022 36.0709 68.9933 39.1217C68.2527 41.7367 67.6467 41.435 66.8388 43.983C66.1318 46.1621 66.0982 47.7043 66.0645 50.3864C66.0645 51.1575 66.0645 51.8615 66.4348 52.5991C67.0407 53.8395 68.118 54.4095 68.017 54.5771C67.8487 54.8788 65.6942 53.8395 65.6942 53.8395C62.4287 52.2973 60.4089 51.3251 58.0187 49.1795C56.6721 47.939 54.4166 45.9274 52.9354 42.6084C52.3968 41.435 52.4304 41.0998 51.2858 35.1657C50.1076 28.997 49.67 27.2201 48.3234 25.175C47.0778 23.2976 45.8322 22.3924 44.654 21.8895C43.341 21.3531 42.1964 21.3531 41.6915 21.3531C41.6915 21.3531 37.5844 21.3531 31.5922 20.0121C27.3168 19.0733 24.3543 16.8942 21.7958 14.9832C18.867 12.804 18.3284 11.6977 14.356 8.98207C11.0906 6.76937 9.37369 6.13238 7.65681 6.46764C5.50229 6.90348 4.22303 8.61329 4.1557 8.71387C3.24677 9.98785 3.17944 11.3289 3.14577 12.4352C2.91012 18.9057 3.68439 23.2976 3.68439 23.2976C3.92004 24.6386 4.42504 27.3207 5.40131 30.7068C6.44491 34.4281 6.88251 34.8975 8.56573 40.3287C9.94597 44.7876 10.2489 46.3968 10.4173 47.4696C10.7539 49.4812 11.0569 51.3586 10.8213 53.8395C10.6193 56.1528 10.0133 57.8291 8.86872 61.0811C8.19543 62.9585 8.0271 63.2268 6.37754 67.1828C3.24676 74.8267 4.22304 73.0498 2.77547 76.3353C2.03486 78.0451 1.56355 79.889 0.957589 81.6324C0.721938 82.2694 0.418983 83.1746 0.519976 84.3144C0.654634 85.4878 1.15957 86.3595 1.46255 86.8289C2.06851 87.8011 2.70816 88.3375 3.88641 89.2763C4.79535 90.0138 5.93991 90.919 7.72412 91.8242C8.73405 92.3271 9.94599 92.9305 11.6629 93.2658C12.1342 93.3664 13.5481 93.4334 15.3323 93.3664C15.9719 93.3329 16.9145 93.2658 17.2175 93.0647C17.6215 92.7965 17.7898 92.2601 17.7561 91.8242C17.6551 91.0196 16.8135 90.6843 16.2749 90.5167C15.6016 90.3156 14.861 90.282 14.5243 90.2485C12.3698 90.0473 10.7876 88.304 10.7876 88.2705C10.8549 88.1699 12.6055 91.1202 16.0729 91.9919C17.1838 92.2936 18.6314 92.6623 19.978 91.9248C21.4929 91.1201 22.0988 89.7121 22.4355 88.5052C22.6711 87.6335 23.0414 85.9907 21.9305 83.7445C21.5602 83.007 20.9542 82.0347 18.0254 80.4925C15.8709 79.3526 15.2313 78.8162 14.659 77.7099C13.9857 76.4694 14.4907 75.3295 13.9857 75.0949C13.3124 74.8267 11.9658 76.4359 11.1916 77.6093C9.44102 80.2578 9.20538 82.9734 9.13805 83.8116C9.07072 85.1861 8.93604 87.5664 10.2489 89.9132C11.6292 92.3606 14.3897 94.3386 15.4333 94.8415C15.5343 94.9086 15.8709 95.0427 16.1739 95.3444C16.7799 95.9479 17.1838 96.786 17.2848 97.2554C17.7561 99.4681 17.7561 100.507 17.6888 102.016C17.6551 103.223 17.5205 103.558 17.6551 104.564C17.7561 105.335 17.8571 106.073 18.3621 106.777C19.1364 107.917 20.3819 108.252 20.6849 108.352C22.3345 108.788 23.681 108.084 24.8929 107.648C29.4376 106.039 33.8814 108.017 33.8814 107.95C33.8814 107.883 30.8179 107.28 27.8218 107.648C26.0376 107.85 24.388 108.218 23.1424 109.593C22.2671 110.565 21.3919 112.342 21.8969 113.985C22.4018 115.627 24.1187 116.533 26.0712 117.572C27.3841 118.276 27.5525 118.142 28.1921 118.678C29.6733 119.952 30.0099 121.863 30.2119 122.97C30.5486 124.981 30.1783 125.886 30.0773 127.764C30.0099 128.803 29.9426 131.955 31.1882 135.005C32.8714 139.196 36.2715 141.375 37.4161 142.079C38.1567 142.549 40.5132 143.923 43.846 144.426C44.5193 144.527 45.1589 144.56 48.5927 144.46C55.2582 144.225 56.4028 143.923 58.8603 144.46C60.7455 144.862 62.5634 145.298 63.7753 146.907C65.0209 148.583 64.9199 150.595 64.8526 151.5" stroke="#213721" stroke-miterlimit="10" stroke-linecap="round" stroke-linejoin="round"/>
</svg>
