<svg width="129" height="152" viewBox="0 0 129 152" fill="none" xmlns="http://www.w3.org/2000/svg">
<path d="M98.6609 134.422C96.9257 133.718 94.4899 132.812 91.4534 132.175C85.1803 130.867 78.2398 131.102 75.17 131.404C72.7675 131.639 70.2983 132.075 61.3891 134.623C51.4789 137.474 46.6405 138.95 39.9003 141.297C31.0244 144.383 27.4207 145.825 20.8139 147.334C14.5074 148.776 11.5377 147.569 9.4355 146.663C8.53457 146.261 1.69419 143.142 0.62642 136.2C0.526316 135.462 -0.0743032 131.169 2.62848 127.48C4.39698 125.032 7.56691 123.422 9.96939 122.583C20.914 118.794 31.7585 121.376 33.5938 121.711C40.968 123.12 45.8731 125.166 53.4142 128.553C58.7197 130.934 63.4245 133.651 72.4672 138.648C83.7455 144.852 84.7132 145.758 89.5181 147.636C99.7954 151.627 105.768 151.594 107.67 151.459C111.174 151.225 115.545 150.655 119.883 147.468C123.253 145.02 125.021 142.203 126.656 139.285C128.825 135.428 128.558 133.651 128.392 132.812C127.991 130.565 126.59 129.123 125.755 128.352C123.253 126.105 119.015 125.266 117.914 125.032C110.34 123.422 103.9 122.416 96.1917 120.772C87.149 118.827 85.9478 118.492 78.6402 116.815C75.7039 116.144 72.0334 115.44 66.461 115.44C64.6925 115.44 58.9199 115.708 58.3526 117.854C57.9856 119.263 58.7197 121.108 60.4548 121.611C61.7895 122.013 64.0585 122.181 66.5945 122.047C71.366 121.745 73.7352 121.611 76.5381 120.94C79.8081 120.202 82.1105 119.297 83.8456 116.949C84.8133 115.641 85.3471 114.4 85.6808 113.092C86.0145 111.818 86.4149 109.638 85.7476 104.238C85.3138 100.884 84.9801 98.6708 84.0458 95.6189C83.1115 92.6005 82.0437 89.9175 79.8081 86.9997C77.8728 84.4843 75.8707 83.1093 74.0688 81.8684C71.1658 79.8896 66.828 77.6091 66.2608 78.3469C65.7936 78.9506 67.9959 81.4659 69.3306 82.7739C71.7665 85.1551 73.9687 86.4966 77.7393 88.3747C85.9811 92.4999 88.2835 93.6401 89.9853 94.4115C92.1542 95.3841 93.8559 96.3903 97.5264 97.8324C98.2938 98.1342 99.762 98.3355 101.097 98.0672C102.965 97.6982 103.733 96.9604 104.4 96.0549C105.635 94.4115 106.002 92.3322 105.935 87.6034C105.902 82.8075 105.902 80.8623 105.401 78.2798C104.867 75.295 104.3 73.2156 102.632 69.2581C100.897 65.1665 99.9956 62.8524 98.127 59.8676C96.6588 57.4864 94.2563 53.6966 91.5869 52.0868C89.785 50.98 86.5818 50.3763 81.9103 48.9678C75.4369 47.0226 72.9343 45.7481 69.0303 43.6017C65.827 41.8242 63.7916 40.8852 59.387 37.3301C56.3172 34.8483 54.7489 33.4062 52.9804 30.6896C52.5133 29.9853 50.2443 26.4303 49.5102 21.1314C49.1431 18.5825 48.1087 12.4451 51.6457 6.84424C52.5466 5.43565 54.3485 3.05446 57.4517 1.5788C63.7916 -1.40607 70.4985 2.68556 71.4662 3.28924C75.5704 5.80458 77.3722 9.32603 77.7059 10.0639C79.5412 13.8201 79.3743 17.241 79.2742 19.0185C78.5735 30.3878 68.7967 37.9338 66.6278 39.5436C62.7238 42.3944 59.1201 43.9706 54.849 45.3457C49.677 47.0226 45.0723 47.9616 39.7334 50.1416C35.1287 52.0532 31.892 53.6631 29.0224 57.151C26.2862 60.5048 25.3853 63.322 24.451 68.5203C23.9838 71.1698 22.9494 75.4627 22.4489 81.5666C22.2821 83.5788 21.9818 85.5911 21.7482 87.6034C21.2477 91.4938 21.3144 93.506 21.548 94.6463C21.7482 95.6524 22.2821 97.9666 24.184 98.7044C25.4187 99.1739 27.5542 99.4086 30.3237 98.6373C34.1944 97.5641 35.2288 97.1952 38.0984 96.0884C39.3997 95.5853 40.4675 95.0823 41.869 95.3506C43.3038 95.6189 44.2381 96.5915 44.6051 97.0275C47.5415 100.18 46.9075 105.747 46.6072 107.592C46.0733 111.18 45.5728 116.312 42.4696 116.345C39.7001 116.379 39.5332 111.315 39.5332 107.625C39.5332 100.582 42.8366 95.1829 44.0379 93.4054C45.8731 90.6217 47.9085 88.7436 48.3423 88.3077C50.6113 86.1948 51.8459 85.2892 54.1817 83.8806C56.2838 82.5727 58.2859 80.7616 59.7207 77.978C61.0221 75.3956 61.656 73.3833 62.4569 69.2246C63.1576 65.6361 63.7248 62.5506 63.5914 58.526C63.558 57.6876 63.7916 53.6966 64.0251 52.1874C64.2254 50.913 64.6925 48.6995 65.2931 48.6659C65.6602 48.6659 66.1941 49.4373 67.2285 54.0991C68.3963 59.4316 68.5965 60.706 69.1304 62.953C69.6977 65.4013 70.7654 68.3526 73.2013 71.1363C74.9698 73.1485 76.6715 74.0541 79.9416 75.798C83.8122 77.8774 86.8487 78.7158 90.419 79.6884C93.2887 80.4933 95.6911 81.1641 95.9581 80.594C96.1917 80.0909 94.7235 78.6152 92.9216 77.978C91.1198 77.3072 90.052 77.4749 88.2501 77.6426C85.7809 77.8774 83.7789 77.9445 79.5078 77.2066C75.5036 76.5023 71.633 75.8316 68.1294 72.7796C66.9949 71.807 64.826 69.9289 63.7582 66.7764C63.3578 65.6361 63.2577 65.8708 62.9574 56.4467C62.9574 56.4467 62.7905 53.6631 62.2566 50.8794C62.0231 49.6721 61.5226 49.1355 61.1889 49.1019C60.0878 49.0013 59.3537 51.9191 58.8531 55.5412C58.2525 59.9682 57.8855 61.5445 57.5518 64.0263C57.2181 66.3739 56.2505 69.9625 53.4809 72.8803C50.9784 75.5297 47.9085 76.7036 45.139 77.4079C41.2683 78.3805 39.7334 78.7158 36.3299 80.0574C34.5281 80.7617 32.2924 82.2709 32.3925 83.9142C32.4593 84.9874 33.527 86.1612 34.6282 86.1612C36.5301 86.1612 37.8315 83.8471 38.6657 82.405C39.9003 80.2921 42.0024 75.4627 40.9013 67.0447" stroke="#213721" stroke-miterlimit="10" stroke-linecap="round" stroke-linejoin="round"/>
</svg>
