<svg width="116" height="116" viewBox="0 0 116 116" fill="none" xmlns="http://www.w3.org/2000/svg">
<g filter="url(#filter0_dddd_341_891)">
<rect x="11" y="11" width="94" height="94" rx="47" fill="url(#paint0_radial_341_891)" shape-rendering="crispEdges"/>
<rect x="9.5" y="9.5" width="97" height="97" rx="48.5" stroke="white" stroke-width="3" shape-rendering="crispEdges"/>
<g filter="url(#filter1_d_341_891)">
<path d="M55.9465 27.5C55.7351 29.1659 56.0451 29.7889 56.1579 29.9785C56.8061 31.1297 58.2153 31.4818 59.0749 31.6849C59.85 31.8746 61.2733 32.0913 65.7264 31.1567C68.3475 30.6015 68.9958 30.29 70.7995 30.2222C72.3355 30.1681 73.4911 30.141 74.4775 30.8723C75.9572 31.9694 75.9854 34.0009 75.9995 34.5697C76.0136 35.6396 75.7458 36.4116 75.0553 38.0233C73.5052 41.6801 73.0965 41.9509 72.3778 43.8741C71.5605 46.0411 70.9686 47.6121 71.18 49.6707C71.335 51.1199 71.8282 52.3795 72.6033 54.3162C72.9133 55.0881 73.4065 56.2393 73.9984 58.0136C74.4212 59.2596 74.6044 59.9774 74.4635 60.8712C74.4071 61.2775 74.2521 62.185 73.5052 62.9705C72.7583 63.756 71.8282 63.9862 71.5323 64.054C70.9264 64.1894 70.2922 64.1894 68.7702 64.054C68.5589 64.0404 68.1643 63.9998 67.6711 63.8914C67.051 63.756 66.4451 63.4987 66.4732 63.3768C66.5015 63.2549 67.2342 63.4987 68.1502 63.2142C68.4321 63.1195 68.9958 62.9434 69.3481 62.4423C69.799 61.7922 69.6158 61.0337 69.5453 60.7222C69.2917 59.6659 68.4743 59.1106 68.3052 59.0158C67.9952 58.8126 67.4315 58.4605 66.7269 58.5688C65.825 58.7043 65.3741 59.4898 65.2473 59.7065C64.8949 60.3024 64.909 60.8712 64.9231 61.3588C64.9513 62.4694 65.2332 63.1736 65.5291 63.6477C65.8673 64.203 66.2196 64.5551 66.6705 64.6905C67.2483 64.8666 67.7838 64.7582 67.8261 64.8937C67.8543 64.9749 67.6993 65.0697 67.5725 65.1645C67.1074 65.5573 67.0369 66.1532 66.9524 66.8033C66.8396 67.6836 67.0792 67.7515 66.8819 68.4015C66.7974 68.6722 66.6705 69.1056 66.276 69.363C65.9237 69.5932 65.5291 69.5799 65.2049 69.5799C64.2749 69.5528 63.2039 69.5254 62.3725 69.607C61.4142 69.7015 61.4706 69.8643 60.2023 69.9996C59.5681 70.0675 59.1031 70.0671 59.089 70.1758C59.0749 70.3244 59.9909 70.5414 60.0473 70.5547C60.7096 70.7037 61.0478 70.6634 62.0765 70.7579C63.1616 70.8528 63.4012 70.934 63.5562 71.1372C63.7253 71.3404 63.7253 71.5707 63.7253 71.9633C63.7253 72.2615 63.7112 73.1147 63.0912 73.8729C62.7952 74.2252 62.4852 74.4284 62.2738 74.5637C61.7383 74.9022 61.5551 74.8348 61.1606 75.0921C60.4419 75.5389 60.16 76.2701 60.0896 76.4733C59.8641 77.0829 60.005 77.3536 59.9487 78.1393C59.9204 78.4237 59.8218 79.5071 59.2722 80.4823C58.5676 81.7553 57.398 82.3511 56.8766 82.6222C55.7069 83.218 54.6641 83.313 54.1709 83.3534C52.959 83.4483 52.0712 83.2318 51.2538 83.0286C50.2674 82.7846 49.7742 82.6626 49.4642 82.2699C48.8159 81.4575 49.2246 80.2521 49.3373 79.9406C49.5628 79.2631 49.9151 78.8842 50.5774 78.1256C52.7194 75.688 49.4359 79.1686 52.7194 75.6068C54.9601 73.1688 55.3687 72.7624 56.2142 71.828C57.2148 70.7175 58.0603 69.7827 58.9904 68.5639C60.0896 67.1148 61.6538 65.0562 62.8798 62.0766C63.4153 60.79 63.979 59.395 64.2467 57.4177C64.444 55.9278 64.7117 53.7474 63.7535 51.3366C63.4435 50.5511 63.0066 49.454 62.0202 48.3705C60.2023 46.3526 60.1741 46.3255 60.1741 46.3255C59.6809 45.8244 59.399 45.5671 59.3286 45.1201C59.2158 44.321 59.8923 43.6303 60.0614 43.4543C60.3714 43.1428 60.6391 42.9938 61.4706 42.5875C62.6825 42.0051 63.4435 41.6665 64.0212 41.3957C65.1768 40.8675 65.5996 40.6643 66.3746 40.4747C67.1074 40.2986 67.5583 40.2851 67.9811 40.4883C68.4321 40.7049 68.6575 41.0842 68.7139 41.179C68.8125 41.3686 69.0521 41.8697 68.6716 43.1021C68.3616 44.1585 68.1079 44.0366 67.7697 45.066C67.4738 45.9463 67.4597 46.5693 67.4456 47.6528C67.4456 47.9643 67.4456 48.2487 67.6006 48.5466C67.8543 49.0477 68.3052 49.278 68.2629 49.3457C68.1925 49.4676 67.2906 49.0477 67.2906 49.0477C65.9237 48.4247 65.0782 48.032 64.0776 47.1652C63.5139 46.6641 62.5697 45.8514 61.9497 44.5107C61.7242 44.0366 61.7383 43.9012 61.2592 41.504C60.766 39.012 60.5828 38.2942 60.0191 37.468C59.4977 36.7096 58.9763 36.3439 58.4831 36.1408C57.9334 35.9241 57.4543 35.9241 57.243 35.9241C57.243 35.9241 55.5237 35.9241 53.0153 35.3824C51.2256 35.0031 49.9855 34.1228 48.9145 33.3508C47.6885 32.4705 47.4631 32.0236 45.8002 30.9265C44.4333 30.0326 43.7146 29.7753 42.9959 29.9107C42.094 30.0868 41.5585 30.7775 41.5303 30.8182C41.1498 31.3328 41.1216 31.8746 41.1075 32.3215C41.0089 34.9354 41.333 36.7096 41.333 36.7096C41.4316 37.2513 41.643 38.3348 42.0517 39.7027C42.4886 41.206 42.6717 41.3957 43.3764 43.5897C43.9541 45.391 44.0809 46.0411 44.1514 46.4745C44.2923 47.2871 44.4192 48.0455 44.3205 49.0477C44.236 49.9822 43.9823 50.6594 43.5032 51.9731C43.2213 52.7316 43.1509 52.84 42.4604 54.4381C41.1498 57.526 41.5585 56.8082 40.9525 58.1354C40.6425 58.8262 40.4452 59.571 40.1915 60.2753C40.0929 60.5327 39.9661 60.8983 40.0084 61.3588C40.0647 61.8328 40.2761 62.185 40.4029 62.3746C40.6566 62.7673 40.9243 62.984 41.4176 63.3633C41.7981 63.6612 42.2772 64.0269 43.0241 64.3925C43.4468 64.5957 43.9541 64.8395 44.6728 64.9749C44.8701 65.0156 45.462 65.0426 46.2089 65.0156C46.4766 65.002 46.8712 64.9749 46.998 64.8937C47.1671 64.7853 47.2376 64.5686 47.2235 64.3925C47.1812 64.0675 46.8289 63.9321 46.6034 63.8644C46.3216 63.7831 46.0116 63.7695 45.8706 63.756C44.9688 63.6747 44.3064 62.9705 44.3064 62.9569C44.3346 62.9163 45.0674 64.1082 46.5189 64.4603C46.9839 64.5822 47.5899 64.7311 48.1536 64.4332C48.7877 64.1081 49.0414 63.5393 49.1823 63.0518C49.2809 62.6996 49.4359 62.036 48.9709 61.1286C48.8159 60.8306 48.5622 60.4378 47.3362 59.8148C46.4343 59.3543 46.1666 59.1377 45.927 58.6907C45.6452 58.1896 45.8566 57.7291 45.6452 57.6344C45.3633 57.526 44.7996 58.1761 44.4756 58.6501C43.7428 59.72 43.6441 60.8171 43.6159 61.1557C43.5877 61.7109 43.5314 62.6725 44.0809 63.6206C44.6587 64.6092 45.8143 65.4083 46.2512 65.6115C46.2934 65.6386 46.4343 65.6927 46.5612 65.8146C46.8148 66.0584 46.9839 66.397 47.0262 66.5866C47.2235 67.4805 47.2235 67.9002 47.1953 68.5098C47.1812 68.9974 47.1249 69.1327 47.1812 69.5391C47.2235 69.8506 47.2658 70.1487 47.4772 70.4331C47.8013 70.8936 48.3227 71.0289 48.4495 71.0693C49.14 71.2455 49.7037 70.9611 50.211 70.7849C52.1134 70.135 53.9736 70.934 53.9736 70.9069C53.9736 70.8799 52.6912 70.6363 51.437 70.7849C50.6902 70.8666 49.9996 71.0152 49.4782 71.5707C49.1118 71.9633 48.7455 72.6812 48.9568 73.3449C49.1682 74.0083 49.8869 74.3743 50.7042 74.794C51.2538 75.0784 51.3243 75.0242 51.592 75.2408C52.2121 75.7554 52.353 76.5274 52.4375 76.9746C52.5785 77.787 52.4235 78.1526 52.3812 78.9113C52.353 79.331 52.3248 80.6043 52.8462 81.8365C53.5508 83.5295 54.9741 84.4098 55.4533 84.6942C55.7633 84.884 56.7497 85.4391 58.1448 85.6423C58.4267 85.6831 58.6944 85.6964 60.1318 85.656C62.922 85.5611 63.4012 85.4391 64.4299 85.656C65.2191 85.8184 65.98 85.9946 66.4873 86.6445C67.0088 87.3216 66.9665 88.1344 66.9383 88.5" stroke="#E9ECEF" stroke-miterlimit="10" stroke-linecap="round" stroke-linejoin="round" shape-rendering="crispEdges"/>
</g>
</g>
<defs>
<filter id="filter0_dddd_341_891" x="0" y="0" width="116" height="116" filterUnits="userSpaceOnUse" color-interpolation-filters="sRGB">
<feFlood flood-opacity="0" result="BackgroundImageFix"/>
<feColorMatrix in="SourceAlpha" type="matrix" values="0 0 0 0 0 0 0 0 0 0 0 0 0 0 0 0 0 0 127 0" result="hardAlpha"/>
<feOffset dy="4"/>
<feGaussianBlur stdDeviation="2"/>
<feComposite in2="hardAlpha" operator="out"/>
<feColorMatrix type="matrix" values="0 0 0 0 0 0 0 0 0 0 0 0 0 0 0 0 0 0 0.25 0"/>
<feBlend mode="normal" in2="BackgroundImageFix" result="effect1_dropShadow_341_891"/>
<feColorMatrix in="SourceAlpha" type="matrix" values="0 0 0 0 0 0 0 0 0 0 0 0 0 0 0 0 0 0 127 0" result="hardAlpha"/>
<feOffset dy="-4"/>
<feGaussianBlur stdDeviation="2"/>
<feComposite in2="hardAlpha" operator="out"/>
<feColorMatrix type="matrix" values="0 0 0 0 0 0 0 0 0 0 0 0 0 0 0 0 0 0 0.25 0"/>
<feBlend mode="normal" in2="effect1_dropShadow_341_891" result="effect2_dropShadow_341_891"/>
<feColorMatrix in="SourceAlpha" type="matrix" values="0 0 0 0 0 0 0 0 0 0 0 0 0 0 0 0 0 0 127 0" result="hardAlpha"/>
<feOffset dx="4" dy="4"/>
<feGaussianBlur stdDeviation="2"/>
<feComposite in2="hardAlpha" operator="out"/>
<feColorMatrix type="matrix" values="0 0 0 0 0 0 0 0 0 0 0 0 0 0 0 0 0 0 0.25 0"/>
<feBlend mode="normal" in2="effect2_dropShadow_341_891" result="effect3_dropShadow_341_891"/>
<feColorMatrix in="SourceAlpha" type="matrix" values="0 0 0 0 0 0 0 0 0 0 0 0 0 0 0 0 0 0 127 0" result="hardAlpha"/>
<feOffset dx="-4" dy="4"/>
<feGaussianBlur stdDeviation="2"/>
<feComposite in2="hardAlpha" operator="out"/>
<feColorMatrix type="matrix" values="0 0 0 0 0 0 0 0 0 0 0 0 0 0 0 0 0 0 0.25 0"/>
<feBlend mode="normal" in2="effect3_dropShadow_341_891" result="effect4_dropShadow_341_891"/>
<feBlend mode="normal" in="SourceGraphic" in2="effect4_dropShadow_341_891" result="shape"/>
</filter>
<filter id="filter1_d_341_891" x="39.5" y="27" width="37" height="66" filterUnits="userSpaceOnUse" color-interpolation-filters="sRGB">
<feFlood flood-opacity="0" result="BackgroundImageFix"/>
<feColorMatrix in="SourceAlpha" type="matrix" values="0 0 0 0 0 0 0 0 0 0 0 0 0 0 0 0 0 0 127 0" result="hardAlpha"/>
<feOffset dy="4"/>
<feComposite in2="hardAlpha" operator="out"/>
<feColorMatrix type="matrix" values="0 0 0 0 0.129412 0 0 0 0 0.215686 0 0 0 0 0.129412 0 0 0 0.12 0"/>
<feBlend mode="normal" in2="BackgroundImageFix" result="effect1_dropShadow_341_891"/>
<feBlend mode="normal" in="SourceGraphic" in2="effect1_dropShadow_341_891" result="shape"/>
</filter>
<radialGradient id="paint0_radial_341_891" cx="0" cy="0" r="1" gradientUnits="userSpaceOnUse" gradientTransform="translate(58 58) rotate(90) scale(91.5)">
<stop stop-color="#213721"/>
<stop offset="1" stop-color="#050E05"/>
</radialGradient>
</defs>
</svg>
