<svg width="360" height="415" viewBox="0 0 360 415" fill="none" xmlns="http://www.w3.org/2000/svg">
<path fill-rule="evenodd" clip-rule="evenodd" d="M262.808 298.524C269.549 296.717 351.187 286.251 332.71 177.111C314.234 67.973 182.986 32.0881 138.689 116.214C94.3922 200.341 165.342 316.813 262.806 298.524L262.808 298.524Z" fill="#F6EEE7"/>
<path fill-rule="evenodd" clip-rule="evenodd" d="M53.7569 414.07C53.6573 414.464 53.2573 414.701 52.8639 414.601C52.4706 414.502 52.2332 414.102 52.3328 413.708C52.361 413.596 62.1024 374.5 86.4801 348.038C103.742 329.298 102.771 317.492 101.845 306.227C101.478 301.767 101.118 297.39 101.857 292.665C102.496 288.575 104.3 284.39 106.795 280.472C110.289 274.981 115.15 269.993 120.052 266.521C125.028 262.995 130.085 261.017 133.878 261.609C134.333 261.681 134.769 261.787 135.186 261.933C134.138 258.248 132.869 254.469 131.335 250.646C127.086 240.058 125.224 234.218 125.141 230.159C125.054 225.932 126.809 223.698 129.778 220.323C131.084 218.838 133.803 216.418 137.287 213.312C149.205 202.696 170.208 183.987 173.179 168.54C174.967 159.249 174.736 149.341 173.167 139.643C171.35 128.404 167.735 117.445 163.378 108.038C162.538 106.226 161.716 104.451 160.911 102.709C159.754 102.531 158.571 102.284 157.368 101.957C150.189 100.01 152.806 94.0245 154.478 91.2609C151.588 91.8153 145.261 93.5282 139.154 98.5094C134.834 102.031 131.247 103.997 128.344 104.422C125.235 104.876 122.911 103.648 121.321 100.758C119.645 97.7093 117.985 93.7225 117.766 89.8484C117.598 86.8873 118.266 83.9992 120.382 81.6323C120.996 80.9468 121.793 80.2364 122.747 79.5609C123.565 78.9816 124.502 78.4272 125.537 77.9359C125.285 77.7185 125.038 77.4994 124.795 77.2786C120.569 73.4262 117.847 69.1655 116.73 65.889C116.436 65.0292 116.357 64.0947 116.468 63.1304C116.72 60.9079 117.987 58.4846 119.949 56.37C121.882 54.2852 124.505 52.4827 127.507 51.4602C129.715 50.7083 132.128 50.3747 134.623 50.6602C136.529 50.8776 138.22 51.1963 139.729 51.6411C139.569 49.7772 139.627 48.0377 139.881 46.421C140.685 41.2806 143.438 37.4016 147.43 34.7641C149.07 33.6803 151.11 32.8636 153.321 32.3441C156.77 31.5325 160.659 31.4378 164.098 32.1682C167.61 32.9134 170.674 34.5235 172.387 37.1161C172.932 37.941 173.338 38.8606 173.577 39.878C173.78 40.7378 173.914 41.5743 173.986 42.396C175.493 42.2067 176.996 42.2615 178.459 42.5686C179.632 42.8142 180.792 43.1412 181.91 43.5495C185.02 44.6848 187.807 46.4526 189.634 48.8626C191.495 51.3158 192.36 54.4097 191.576 58.1443C191.424 58.8696 191.21 59.6199 190.927 60.3933C189.425 64.513 186.15 68.3721 182.268 71.7498C181.448 72.4635 180.6 73.1557 179.735 73.8246C181.088 75.0313 182.205 76.5434 183.025 78.1351C184.122 80.2647 184.7 82.5618 184.617 84.4889C184.487 87.4815 183.621 90.5422 182.354 93.2046C180.995 96.0611 179.158 98.4845 177.254 99.8937C175.265 101.366 172.11 102.538 168.272 102.926C166.521 103.104 164.624 103.119 162.627 102.926L164.711 107.428C169.117 116.94 172.774 128.031 174.615 139.416C176.208 149.273 176.44 159.352 174.621 168.818C171.557 184.755 150.317 203.674 138.265 214.411C134.821 217.48 132.133 219.872 130.882 221.296C128.147 224.405 126.53 226.451 126.605 230.133C126.684 233.984 128.517 239.685 132.696 250.104C134.436 254.437 135.84 258.718 136.967 262.869C141.863 266.287 145.43 274.239 148.282 280.599C150.33 285.167 151.99 288.865 153.148 289.073C154.015 289.227 155.243 289.133 156.977 288.998C162.03 288.606 171.21 287.894 189.102 291.934C213.094 297.352 234.828 294.779 234.891 294.773C235.294 294.726 235.658 295.017 235.704 295.418C235.739 295.725 235.58 296.009 235.324 296.147C234.552 296.62 218.804 306.091 195.684 306.091C186.072 306.091 178.565 304.795 172.414 303.732C163.685 302.225 157.759 301.203 152.557 305.16C147.767 308.803 144.394 310.471 142.222 309.905C139.881 309.296 139.032 306.425 139.453 301.02C139.903 295.246 139.916 286.196 138.197 275.527C137.594 271.787 136.779 267.849 135.694 263.781C135.089 263.412 134.404 263.175 133.652 263.057C130.25 262.526 125.574 264.4 120.893 267.716C116.138 271.085 111.421 275.925 108.026 281.258C105.634 285.016 103.908 289.01 103.302 292.889C102.594 297.427 102.947 301.729 103.307 306.112C104.26 317.688 105.258 329.818 87.559 349.032C63.4386 375.216 53.7851 413.959 53.7569 414.072V414.07ZM146.942 281.192C144.469 275.675 141.442 268.928 137.591 265.269C138.452 268.727 139.125 272.083 139.642 275.295C141.385 286.108 141.372 295.277 140.915 301.128C140.559 305.709 141.07 308.089 142.589 308.484C144.273 308.923 147.254 307.351 151.671 303.991C157.384 299.646 163.562 300.711 172.659 302.282C178.749 303.332 186.184 304.617 195.683 304.617C212.87 304.617 225.873 299.314 231.511 296.53C224.341 297.015 207.22 297.523 188.779 293.358C171.111 289.368 162.065 290.07 157.085 290.457C155.243 290.6 153.937 290.701 152.894 290.515C150.969 290.172 149.166 286.153 146.942 281.192ZM160.163 101.09C158.685 97.8903 157.26 94.7963 155.875 91.7838C154.498 93.9864 152.106 99.0073 157.749 100.538C158.564 100.758 159.369 100.943 160.161 101.09H160.163ZM153.46 86.5089L152.305 83.981C148.906 76.5251 145.819 69.6734 142.881 63.0308C141.307 59.4738 140.344 56.2089 139.911 53.2362C138.343 52.7167 136.54 52.3565 134.46 52.1192C132.19 51.8602 129.991 52.164 127.976 52.8511C125.215 53.7923 122.8 55.4521 121.021 57.3708C119.268 59.2597 118.143 61.3826 117.925 63.2914C117.839 64.0483 117.897 64.7686 118.12 65.4193C119.169 68.4949 121.75 72.5199 125.783 76.1948C126.19 76.5666 126.611 76.9334 127.048 77.2952C129.157 76.4985 131.591 75.984 134.233 76.0023C138.93 76.0354 144.282 77.7434 149.633 82.5303C150.911 83.6739 152.191 84.9951 153.46 86.5122V86.5089ZM153.638 83.3718L154.244 84.6997C153.392 80.2763 152.084 73.8893 150.557 67.7762C149.228 62.4581 147.663 58.8032 145.209 56.3666C144.162 55.3259 142.942 54.4993 141.496 53.8487C141.961 56.4679 142.851 59.3311 144.227 62.4399C147.253 69.2817 150.328 76.1118 153.64 83.3735L153.638 83.3718ZM156.845 90.3796C158.446 93.8685 160.129 97.5201 161.905 101.364C164.121 101.646 166.218 101.656 168.126 101.464C171.69 101.104 174.585 100.041 176.379 98.7135C178.089 97.4471 179.763 95.2213 181.025 92.5705C182.217 90.0675 183.03 87.2043 183.149 84.4225C183.222 82.7461 182.703 80.7145 181.719 78.804C180.929 77.2704 179.846 75.8296 178.54 74.7225C174.037 78.0455 169.235 80.7261 165.658 82.4556C162.7 83.8847 160.621 85.3371 159.205 86.6168C158.793 86.9886 158.438 87.3355 158.136 87.6558C157.92 88.1173 157.729 88.5388 157.562 88.909C157.28 89.5297 157.054 90.026 156.846 90.3763L156.845 90.3796ZM141.327 46.6434C141.063 48.3298 141.028 50.1672 141.251 52.1557C143.229 52.9192 144.861 53.9549 146.243 55.3276C148.912 57.98 150.589 61.8457 151.981 67.421C153.067 71.7647 154.041 76.2446 154.821 80.0688C154.846 74.5632 155.278 67.6003 156.846 61.1386C158.426 54.6255 161.466 49.7241 165.111 46.5588C167.409 44.562 169.949 43.2524 172.525 42.6566C172.465 41.8565 172.341 41.0432 172.145 40.2116C171.946 39.3668 171.61 38.6066 171.161 37.9261C169.68 35.6853 166.95 34.2761 163.791 33.6056C160.561 32.9201 156.903 33.0114 153.651 33.7765C151.605 34.2579 149.727 35.0048 148.237 35.9891C144.58 38.4041 142.059 41.9511 141.325 46.6468L141.327 46.6434ZM174.045 43.8666C174.025 50.0328 170.493 55.5118 165.615 63.0773C164.719 64.4665 163.778 65.9272 162.848 67.4044C157.963 75.1674 156.893 82.9785 156.704 87.1363C156.747 87.0815 156.792 87.0267 156.838 86.9703C158.792 82.7859 162.626 75.423 168.636 72.3258C170.366 71.4344 172.03 71.0892 173.592 71.1572C175.418 71.2369 177.086 71.8826 178.545 72.8851C179.488 72.1631 180.412 71.4145 181.304 70.6394C185.022 67.4061 188.144 63.7428 189.55 59.8921C189.807 59.185 190.003 58.5028 190.141 57.8439C190.828 54.5691 190.081 51.8718 188.467 49.744C186.823 47.5746 184.273 45.9696 181.408 44.9239C180.358 44.5405 179.264 44.2317 178.158 44.001C176.819 43.7205 175.435 43.6773 174.045 43.8649V43.8666ZM164.38 62.2855C169.026 55.0786 172.409 49.8336 172.56 44.157C170.314 44.7297 168.093 45.9065 166.07 47.6659C162.641 50.6436 159.776 55.2844 158.27 61.4822C156.785 67.6036 156.34 74.1947 156.29 79.5144C157.182 75.6454 158.775 71.1241 161.607 66.6243C162.596 65.0525 163.511 63.635 164.38 62.2855ZM165.021 81.1377C168.435 79.4879 172.985 76.955 177.292 73.8196C176.155 73.1225 174.887 72.6826 173.526 72.6245C172.21 72.5681 170.794 72.8669 169.305 73.6337C165.086 75.8064 161.962 80.3559 159.874 84.1901C161.217 83.1992 162.91 82.1585 165.019 81.1394L165.021 81.1377ZM152.864 90.1173C149.872 89.2011 144.69 87.5413 137.667 85.0167C133.433 83.4947 129.8 81.3585 126.79 78.975C125.582 79.4945 124.507 80.1086 123.59 80.7576C122.732 81.3651 122.018 82.0008 121.472 82.61C119.653 84.6432 119.082 87.1662 119.23 89.7688C119.434 93.3789 121.013 97.1516 122.608 100.053C123.871 102.349 125.697 103.326 128.132 102.969C130.771 102.584 134.122 100.724 138.23 97.3724C143.747 92.8726 149.467 90.9306 152.864 90.1157V90.1173ZM138.16 83.6391C145.239 86.1852 150.429 87.8434 153.382 88.7446C151.817 86.728 150.235 85.0333 148.657 83.6225C143.611 79.1094 138.603 77.4977 134.226 77.4662C132.118 77.4513 130.156 77.8015 128.405 78.3692C131.159 80.4439 134.417 82.293 138.16 83.6391Z" fill="#899F87"/>
<path fill-rule="evenodd" clip-rule="evenodd" d="M141.274 52.4661C141.395 52.8512 141.183 53.2628 140.798 53.3857C140.413 53.5068 140.001 53.2944 139.878 52.9093C139.873 52.8927 137.968 47.1232 138.789 38.942C138.534 38.0589 136.932 32.6927 133.868 25.6833C133.823 25.5804 133.792 25.5074 133.772 25.4576C132.107 21.4757 132.281 17.1353 134.414 13.1202C136.512 9.16819 140.516 5.53983 146.534 2.90902C146.75 2.81441 146.937 2.73473 147.098 2.66668C148.685 2.00441 150.264 1.47328 151.814 1.06497C156.895 -0.272842 161.663 -0.284468 165.429 0.663287C169.31 1.64092 172.163 3.65096 173.277 6.31164C173.393 6.59049 173.493 6.88096 173.571 7.17806C174.031 8.92419 174.475 10.4363 174.851 11.716C175.91 15.3228 176.489 17.293 175.199 17.9386C174.417 18.3304 173.636 17.693 172.431 16.7087C170.688 15.2863 167.82 12.9426 163.453 12.1492C163.363 12.2886 163.277 12.433 163.194 12.5824C161.076 16.3768 159.235 17.3643 156.153 19.0159C154.559 19.869 152.616 20.9114 150.071 22.6841C143.289 27.4079 140.461 38.2067 140.262 39.0017C139.448 46.9273 141.273 52.4495 141.277 52.4661H141.274ZM138.798 34.2198C138.72 33.1127 138.607 31.9674 138.492 30.8055C137.802 23.8044 137.053 16.2141 143.241 11.5135C147.467 8.30176 151.26 5.75892 154.785 4.27339C158.412 2.7447 161.756 2.32643 164.99 3.42688C168.538 4.63523 170.57 5.67261 171.665 6.34816C170.585 4.38625 168.225 2.88079 165.073 2.0874C161.527 1.19442 157.016 1.21268 152.186 2.4841C150.702 2.87416 149.188 3.38372 147.659 4.02275C147.447 4.11072 147.266 4.18874 147.118 4.25347C141.429 6.73987 137.662 10.1325 135.712 13.809C133.793 17.4224 133.634 21.3214 135.128 24.8949L135.214 25.0974C136.781 28.6826 137.971 31.8479 138.799 34.2214L138.798 34.2198ZM139.951 30.6628C140.072 31.8927 140.192 33.1027 140.272 34.2779C141.817 30.3142 144.677 24.6493 149.228 21.479C151.811 19.6798 153.817 18.6059 155.459 17.7245C158.304 16.1992 160 15.2896 161.909 11.8704C162.087 11.5517 162.276 11.2546 162.473 10.9741C162.495 10.9375 162.518 10.9044 162.546 10.8728C164.613 8.01627 167.609 7.1598 169.75 6.94402C168.645 6.38135 166.981 5.65602 164.52 4.81781C161.658 3.8435 158.649 4.23521 155.354 5.62448C151.958 7.05524 148.262 9.53832 144.126 12.6804C138.594 16.883 139.301 24.0517 139.953 30.6628H139.951ZM172.381 8.41628C172.299 8.4279 172.215 8.42625 172.133 8.40965C171.68 8.34824 167.395 7.85859 164.47 10.8579C168.772 11.8322 171.597 14.1393 173.352 15.5717C174.114 16.1942 174.477 16.6622 174.542 16.629C174.734 16.5328 174.278 14.9759 173.441 12.1293C173.126 11.0537 172.762 9.81716 172.381 8.41462V8.41628Z" fill="#899F87"/>
<path fill-rule="evenodd" clip-rule="evenodd" d="M140.824 52.1724C141.037 52.516 140.931 52.9675 140.585 53.1799C140.242 53.3924 139.79 53.2861 139.578 52.9409C139.566 52.921 136.505 47.988 133.362 45.0933C133.305 45.0634 133.252 45.0252 133.204 44.9804C133.204 44.9804 133.07 44.8576 132.841 44.6319C132.366 44.2318 131.893 43.8883 131.433 43.6227C130.975 43.3837 130.432 43.1662 129.808 43.0318C129.133 42.8857 127.453 43.3306 125.305 43.9015C121.179 44.997 115.424 46.5257 110.45 45.3589C108.006 44.7862 106.619 43.88 106.071 42.9189C105.741 42.3413 105.689 41.7471 105.877 41.1761C106.048 40.6566 106.42 40.1769 106.959 39.7769C108.28 38.796 110.765 38.2084 113.773 38.6665C117.142 39.1794 120.271 39.7188 123.092 40.2367C125.642 40.7047 127.944 41.1595 129.936 41.5629C128.693 40.1537 127.24 38.3793 125.846 36.3759C125.346 36.5054 124.885 36.2265 123.904 35.634C123.209 35.2141 122.16 34.58 120.477 33.765C119.715 33.3966 118.823 33.0065 117.844 32.5799C113.241 30.5732 106.747 27.7383 102.639 22.2625C100.813 19.8276 97.5611 18.3005 94.2863 17.3445C93.151 18.2839 88.8986 21.6501 84.764 22.9132C80.2327 24.2975 76.2824 23.7647 75.7944 23.69C75.7379 23.685 75.6815 23.6734 75.6251 23.6535C75.2417 23.5223 75.0375 23.1041 75.1686 22.7206C75.1703 22.714 75.9239 20.455 77.187 18.9811C78.0484 17.9769 79.1057 17.3163 80.8169 16.2474C81.602 15.7577 82.5299 15.1768 83.6204 14.4531C83.8046 14.2605 84.3424 13.741 85.325 13.1418C85.8296 12.6754 86.1748 12.2588 86.5267 11.8323C87.3035 10.8945 88.1086 9.92179 90.3726 8.43626C92.4888 7.04699 94.9719 5.47514 98.0459 4.55395C101.138 3.62777 104.793 3.37383 109.198 4.65189C113.441 5.88181 118.13 9.13173 121.902 12.8298C125.936 16.7818 128.952 21.2949 129.305 24.4668C129.571 26.8503 129.355 29.0064 128.947 30.7857C128.445 32.9667 127.614 34.6282 126.996 35.4747C129.645 39.2939 132.545 42.2849 133.697 43.4202C134.071 43.7455 134.27 43.9796 134.271 43.9812C134.286 43.9978 134.3 44.0161 134.311 44.0343C137.714 47.1531 140.816 52.1541 140.828 52.1741L140.824 52.1724ZM125.836 42.2451C124.885 42.0625 123.883 41.8716 122.825 41.679C120.087 41.1761 116.991 40.645 113.552 40.1205C110.951 39.7238 108.879 40.1753 107.829 40.9554C107.535 41.1728 107.343 41.4052 107.268 41.6309C107.21 41.8085 107.231 42.001 107.342 42.1952C107.703 42.826 108.778 43.46 110.78 43.9298C115.403 45.0153 120.951 43.5414 124.928 42.4841C125.24 42.4011 125.542 42.3214 125.834 42.2451H125.836ZM124.445 34.2464C123.038 31.9658 121.801 29.4794 121.061 26.9532C119.776 22.5663 117.909 19.3163 114.83 16.9826C111.719 14.624 107.341 13.1634 101.053 12.3684C92.9767 11.3492 88.4787 12.9626 86.3126 14.2257C86.2496 14.2838 86.1831 14.3436 86.1151 14.405C88.0272 14.5693 91.0713 14.9494 94.1868 15.8141C94.2598 15.8224 94.3312 15.844 94.3992 15.8739C98.0259 16.9046 101.719 18.5993 103.807 21.3828C107.681 26.5482 113.97 29.2918 118.427 31.2355C119.428 31.672 120.337 32.0687 121.111 32.4438C122.706 33.2173 123.736 33.8215 124.445 34.2464ZM122.468 26.5448C123.245 29.1989 124.605 31.8164 126.128 34.1817C126.57 33.4414 127.122 32.155 127.513 30.457C127.889 28.8171 128.087 26.8287 127.843 24.6261C127.528 21.7895 124.684 17.6101 120.872 13.8738C117.252 10.3268 112.785 7.21796 108.788 6.05775C104.7 4.87264 101.319 5.10502 98.4625 5.95982C95.5876 6.82127 93.2074 8.33003 91.1742 9.66452C89.9542 10.4646 89.1974 11.1003 88.638 11.6613C91.4282 10.7716 95.5097 10.1924 101.238 10.916C107.787 11.7426 112.39 13.2962 115.715 15.8175C119.071 18.362 121.094 21.8559 122.468 26.5465V26.5448ZM92.5186 16.8781C88.7127 15.9818 85.2188 15.7893 84.3059 15.7527C83.2303 16.4665 82.344 17.0192 81.5887 17.4906C79.9937 18.4864 79.0078 19.1022 78.2974 19.9305C77.6766 20.6558 77.1903 21.6351 76.8915 22.3322C78.2924 22.4401 81.1489 22.4833 84.3358 21.509C87.5342 20.5313 90.8505 18.1744 92.5186 16.8781Z" fill="#899F87"/>
<path fill-rule="evenodd" clip-rule="evenodd" d="M175.443 145.867C175.549 146.257 175.318 146.66 174.928 146.767C174.538 146.873 174.135 146.642 174.029 146.252C174.022 146.225 172.178 139.399 167.579 134.147C166.405 133.835 159.791 132.363 153.404 136.828C153.215 136.96 152.647 137.36 152.108 137.742C145.769 142.215 145.535 142.381 136.23 138.393C127.424 134.62 122.188 140.273 121.904 140.59C121.869 140.632 121.831 140.668 121.788 140.7L121.784 140.703L121.778 140.708L121.768 140.715L121.741 140.733L121.735 140.736C121.662 140.783 121.582 140.816 121.496 140.833L121.461 140.839H121.454C121.389 140.849 121.323 140.851 121.257 140.843H121.252L121.207 140.834C121.185 140.829 121.162 140.824 121.142 140.819L121.132 140.816L121.117 140.811C121.092 140.803 121.067 140.793 121.044 140.783L121.018 140.77C120.916 140.718 120.832 140.645 120.765 140.559L120.762 140.556L120.757 140.549L120.75 140.539L120.734 140.512L120.73 140.506C120.686 140.433 120.651 140.353 120.634 140.267L120.628 140.232V140.224C120.623 140.185 120.619 140.146 120.619 140.106C120.616 139.702 120.559 128.424 124.92 122.805C128.244 118.523 131.725 117.892 136.846 116.966C138.587 116.651 140.527 116.299 142.763 115.736C150.519 113.783 153.626 115.426 157.975 117.726C158.543 118.027 159.132 118.339 159.741 118.646C164.915 121.265 168.218 131.744 168.638 133.133C173.513 138.683 175.443 145.835 175.45 145.864L175.443 145.867ZM165.803 132.336C164.442 131.11 162.89 130.056 161.13 129.317C155.417 126.917 153.429 127.319 150.408 127.926C148.338 128.343 145.812 128.852 141.49 128.723C136.18 128.563 132.304 129.113 129.534 130.212C126.867 131.269 125.242 132.842 124.346 134.781C123.768 136.033 123.331 137.028 123.001 137.812C125.587 136.132 130.357 134.276 136.804 137.04C145.357 140.707 145.568 140.557 151.264 136.537C151.535 136.346 151.832 136.137 152.567 135.623C157.641 132.076 162.868 131.991 165.804 132.335L165.803 132.336ZM161.7 127.961C163.414 128.681 164.945 129.675 166.301 130.829C164.993 127.327 162.433 121.657 159.074 119.956C158.436 119.634 157.849 119.323 157.286 119.024C153.228 116.878 150.328 115.343 143.115 117.16C140.886 117.721 138.89 118.083 137.101 118.407C132.314 119.273 129.061 119.863 126.077 123.707C123.632 126.855 122.681 132.024 122.312 135.719C122.521 135.247 122.754 134.731 123.016 134.165C124.065 131.891 125.942 130.059 128.996 128.847C131.947 127.677 136.016 127.091 141.533 127.255C145.692 127.38 148.129 126.89 150.124 126.487C153.417 125.825 155.583 125.388 161.703 127.958L161.7 127.961Z" fill="#899F87"/>
<path fill-rule="evenodd" clip-rule="evenodd" d="M175.622 160.102C175.395 160.437 174.937 160.522 174.603 160.294C174.268 160.065 174.183 159.609 174.411 159.275C174.422 159.259 178.12 154.012 179.944 137.978C179.548 136.947 177.563 131.51 176.504 123.09C175.911 118.379 175.665 114.912 176.351 111.58C177.04 108.229 178.653 105.076 181.773 101.027C186.856 94.4313 193.328 92.6635 198.141 91.3506C199.24 91.0502 200.249 90.7747 201.112 90.4759C205.697 88.8842 213.589 88.9356 214.281 88.9439C214.616 88.9256 214.932 89.1415 215.026 89.4784C215.091 89.7075 215.038 89.9415 214.907 90.1174C214.557 90.6402 210.007 97.5152 208.289 104.632C207.084 109.625 204.352 111.267 201.64 112.898C200.149 113.795 198.664 114.688 197.528 116.185C195.95 118.268 195.158 120.349 194.292 122.628C193.412 124.944 192.456 127.455 190.557 130.401C187.289 135.472 182.756 137.779 181.374 138.393C179.488 154.62 175.636 160.087 175.624 160.105L175.622 160.102ZM181.72 134.996C181.669 135.566 181.614 136.126 181.559 136.674C183.304 135.776 186.726 133.631 189.321 129.606C191.138 126.784 192.064 124.351 192.918 122.109C193.826 119.722 194.654 117.543 196.355 115.297C197.658 113.577 199.268 112.61 200.885 111.637C203.335 110.165 205.801 108.681 206.862 104.284C208.161 98.8995 211.016 93.6644 212.598 91.0303C209.358 92.242 202.379 95.3176 194.549 101.655C183.956 110.229 183.392 116.484 181.749 134.688L181.72 134.996ZM180.301 134.413C181.976 115.858 182.58 109.456 193.625 100.516C200.161 95.2247 206.148 92.149 209.941 90.5207C207.28 90.6767 203.947 91.0369 201.587 91.8569C200.671 92.1739 199.641 92.4561 198.523 92.7615C193.913 94.0196 187.716 95.7127 182.932 101.922C179.958 105.783 178.426 108.755 177.785 111.873C177.141 115.008 177.382 118.349 177.956 122.91C178.592 127.956 179.559 131.892 180.303 134.413H180.301Z" fill="#899F87"/>
<path fill-rule="evenodd" clip-rule="evenodd" d="M41.3713 99.5502C41.2684 99.6863 40.4152 100.901 41.7464 102.055C42.7025 102.883 44.1265 103.53 45.6635 103.635C46.915 103.72 48.2379 103.439 49.4363 102.593C50.1633 102.078 51.6107 100.621 53.4896 98.7303C58.9504 93.233 67.9715 84.1521 74.8946 82.6682C81.0193 81.357 89.1042 81.0383 93.7949 80.9719C89.237 79.3785 80.83 77.156 72.1791 78.5336C66.7697 79.3951 61.5148 81.9346 56.7909 85.1497C50.3425 89.5382 44.8951 95.1749 41.3846 99.5369L41.3713 99.5519V99.5502ZM40.787 103.164C38.5197 101.198 39.9389 99.029 40.2044 98.6672C40.2161 98.6506 40.2293 98.6323 40.2409 98.6174C43.8211 94.1691 49.3782 88.4178 55.9627 83.938C60.8442 80.615 66.2984 77.9859 71.9484 77.0863C85.051 74.9999 97.5859 80.879 97.9112 81.0333C98.1685 81.1495 98.3444 81.4101 98.3411 81.7089C98.3361 82.1139 98.0042 82.4375 97.6008 82.4325C97.5627 82.4325 84.2011 82.1753 75.1983 84.104C68.7018 85.4966 59.8732 94.3832 54.5286 99.7644C52.5949 101.71 51.1077 103.208 50.2795 103.794C48.779 104.855 47.1258 105.207 45.5656 105.101C43.6983 104.974 41.9605 104.181 40.787 103.165V103.164Z" fill="#899F87"/>
<path fill-rule="evenodd" clip-rule="evenodd" d="M88.5572 102.171C88.9605 102.221 89.246 102.586 89.1979 102.99C89.1481 103.393 88.7829 103.678 88.3795 103.63C88.348 103.627 77.1177 102.193 72.7092 107.888C71.1274 109.929 69.6934 112.585 68.495 115.197C66.7572 118.98 65.5205 122.6 65.0425 124.155C66.9397 123.941 71.7017 122.964 79.1476 118.544C88.9837 112.706 92.7067 103.363 92.7183 103.336C92.8279 103.069 93.0918 102.882 93.3989 102.883L102.875 102.948C102.938 102.943 103.003 102.948 103.069 102.96C103.467 103.038 103.726 103.423 103.648 103.821C103.643 103.846 102.037 112.743 90.3 120.501C83.1794 125.208 75.0064 126.227 69.6851 126.227C68.0003 126.227 66.5928 126.124 65.5952 126.004C64.9728 125.93 64.4616 125.814 64.0948 125.691C63.8574 125.691 63.6234 125.576 63.4807 125.364C63.396 125.236 63.3545 125.098 63.3545 124.947C63.3545 124.941 63.3545 124.931 63.3578 124.917C63.3611 124.821 63.3844 124.728 63.4226 124.645C63.7346 123.46 65.1139 119.052 67.1621 114.59C68.4036 111.888 69.8942 109.133 71.549 106.993C76.477 100.628 88.5223 102.17 88.5572 102.173V102.171ZM69.0991 124.751C69.29 124.755 69.4842 124.756 69.6834 124.756C74.8122 124.756 82.6764 123.78 89.4899 119.277C98.5509 113.289 101.268 106.721 101.98 104.405L93.8752 104.351C92.9672 106.352 88.8526 114.49 79.8945 119.807C75.3533 122.502 71.7283 123.961 69.1008 124.751H69.0991Z" fill="#899F87"/>
<path fill-rule="evenodd" clip-rule="evenodd" d="M19.6512 45.1097C19.9865 44.8823 20.4429 44.967 20.6703 45.3023C20.8977 45.6375 20.813 46.094 20.4778 46.3214C20.4247 46.3579 1.73177 58.6887 1.4745 99.0139C1.34503 119.28 2.93518 130.828 5.21743 137.784C7.44822 144.586 10.3446 146.919 12.9123 148.798C14.1937 149.736 15.3887 150.573 16.5274 151.369C20.4578 154.12 23.7492 156.424 24.8746 158.729C25.2431 159.484 25.4555 160.998 25.7493 163.096C26.6655 169.636 28.415 182.118 37.5905 192.075C42.2446 197.124 47.2057 201.962 52.147 206.779C60.1689 214.6 68.1377 222.368 74.6558 230.9C75.6501 232.201 76.6742 233.364 77.7198 234.395C82.0901 238.701 86.8754 240.746 91.5013 240.991C96.1205 241.237 100.6 239.693 104.36 236.82C105.218 236.164 106.038 235.441 106.81 234.657C109.875 231.545 112.033 227.99 112.984 224.574C113.54 222.577 113.683 220.634 113.349 218.864C113.022 217.128 112.232 215.555 110.919 214.262C109.651 213.012 107.889 212.014 105.58 211.37C99.5779 209.697 93.7835 208.983 88.6463 209.373C83.8229 209.739 79.5888 211.081 76.3239 213.523C73.801 215.408 71.054 216.086 68.6506 215.872C67.1551 215.739 65.789 215.259 64.6853 214.509C63.5533 213.74 62.6952 212.69 62.2487 211.438C61.7358 210.002 61.7623 208.313 62.5342 206.49C65.3475 199.851 69.097 197.828 78.8501 192.569C79.4609 192.239 80.0967 191.897 80.7573 191.54C91.8266 185.55 96.4874 184.04 96.5006 184.035C96.8841 183.908 97.299 184.116 97.4251 184.499C97.4849 184.68 97.47 184.868 97.3969 185.031H97.3985C97.3936 185.042 95.7902 188.569 91.6788 196.792C89.3567 201.436 84.857 206.097 81.3282 209.314C83.5441 208.567 85.9641 208.105 88.5385 207.909C93.8416 207.508 99.8053 208.24 105.972 209.958C108.534 210.671 110.508 211.798 111.949 213.218C113.486 214.731 114.41 216.57 114.792 218.595C115.167 220.589 115.013 222.756 114.398 224.966C113.381 228.619 111.094 232.4 107.855 235.686C107.03 236.525 106.159 237.293 105.25 237.989C101.218 241.069 96.4044 242.724 91.4249 242.458C86.4538 242.195 81.3349 240.019 76.6907 235.442C75.5919 234.36 74.5214 233.145 73.4873 231.792C67.0306 223.342 59.1033 215.614 51.1229 207.833C46.1601 202.995 41.1757 198.135 36.5083 193.071C27.0241 182.78 25.2331 169.998 24.2936 163.3C24.0198 161.342 23.8206 159.929 23.55 159.375C22.5874 157.403 19.4404 155.2 15.6842 152.571C14.4892 151.735 13.236 150.857 12.0409 149.983C9.29225 147.972 6.19005 145.475 3.81818 138.24C1.49609 131.16 -0.122219 119.463 0.0072465 99.0106C0.269497 57.9019 19.5914 45.1496 19.6479 45.1114L19.6512 45.1097ZM75.4492 212.341L75.6052 212.225C76.9563 211.188 86.643 203.592 90.3726 196.133C92.8806 191.115 94.4607 187.831 95.3039 186.051C93.1213 186.941 88.6929 188.911 81.4544 192.827C80.7938 193.184 80.1581 193.527 79.5473 193.856C70.1212 198.938 66.4961 200.893 63.8869 207.053C63.2711 208.507 63.2413 209.831 63.6363 210.937C63.9782 211.893 64.6388 212.696 65.5102 213.291C66.4115 213.903 67.5385 214.296 68.78 214.406C70.8498 214.59 73.235 213.994 75.4492 212.338V212.341Z" fill="#899F87"/>
<path fill-rule="evenodd" clip-rule="evenodd" d="M67.7563 194.181C67.8094 194.455 67.7032 194.747 67.4609 194.918C67.4559 194.921 65.6152 196.224 65.2334 199.243C65.0807 200.458 65.0159 201.481 64.9612 202.352C64.8649 203.871 64.7968 204.957 64.3271 206.074C64.2009 206.372 64.0267 206.646 63.8109 206.885C63.3362 207.415 62.664 207.77 61.8872 207.894C61.1486 208.012 60.312 207.921 59.4672 207.566C58.8862 207.322 58.297 206.952 57.726 206.44C56.3384 205.194 54.1192 201.899 53.0005 198.372C52.2038 195.857 51.9499 193.193 52.9093 190.984C54.2404 187.919 55.9201 187.565 57.5766 187.218C58.204 187.087 58.8264 186.956 59.4024 186.596L58.9759 185.877C57.5999 183.558 56.0048 180.871 53.5881 177.885C52.735 179.067 51.8154 179.932 49.3223 179.784C46.4957 179.616 43.2773 179.344 40.7063 177.447C38.1236 175.543 36.2812 172.069 36.3144 165.563C36.3393 160.663 36.5235 155.61 36.7393 151.275C36.3293 152.214 35.8479 153.172 35.2803 154.136C33.0545 157.914 30.5249 160.047 28.0833 161.212C25.6235 162.386 23.2633 162.575 21.3844 162.472C17.507 162.261 16.7286 161.325 16.7269 161.323C16.4912 161.061 16.478 160.678 16.6771 160.402L19.8706 155.141C19.5502 153.655 18.4531 147.064 23.0973 142.785C28.1531 138.129 37.8198 138.8 38.253 138.831H38.273C38.6464 138.861 38.9336 139.166 38.9485 139.532C38.9535 139.578 38.9585 139.646 38.9618 139.736C39.0049 140.426 39.073 142.557 38.5402 145.406C38.2182 150.5 37.8182 158.231 37.78 165.568C37.7484 171.51 39.3419 174.617 41.5744 176.262C43.8168 177.915 46.7912 178.162 49.4104 178.318C51.3125 178.431 51.9432 177.687 52.6155 176.718C50.7498 174.544 49.6228 172.213 49.2078 169.933C48.8742 168.1 49.0037 166.304 49.583 164.65C50.1623 162.991 51.188 161.481 52.6453 160.228C54.4562 158.669 56.9392 157.501 60.0663 156.933C64.2507 156.173 67.5206 156.266 69.8991 156.936C71.3432 157.343 72.4735 157.964 73.2984 158.741C74.1549 159.549 74.6777 160.52 74.8735 161.592C75.0279 162.442 74.9732 163.347 74.7126 164.271C74.0254 166.711 73.0295 168.773 70.9365 170.386C68.8916 171.961 65.8242 173.068 60.9925 173.621C56.9376 174.086 55.4271 175.394 54.4711 176.638C57.0936 179.824 58.7867 182.679 60.2407 185.128L60.4713 185.517L60.4863 185.494C61.6681 183.65 62.7187 182.29 64.9976 181.478C67.1604 180.707 70.412 180.483 76.0023 180.879C87.0201 181.661 96.8678 184.001 96.8977 184.008C97.2927 184.099 97.5384 184.494 97.4454 184.889C97.3873 185.138 97.2097 185.326 96.9873 185.411C96.4711 185.635 90.1638 188.337 82.7046 189.469C79.7318 189.92 77.0811 191.091 74.7109 192.136C72.1382 193.272 69.8692 194.274 67.7529 194.178L67.7563 194.181ZM63.7811 199.059C64.1479 196.148 65.718 194.495 66.3487 193.939C65.8043 193.769 65.2682 193.509 64.7371 193.139C62.8183 191.799 61.5137 190.028 60.1759 187.87C59.4356 188.327 58.6588 188.491 57.877 188.654C56.589 188.924 55.2811 189.198 54.2536 191.564C53.4569 193.399 53.6976 195.708 54.4014 197.929C55.4404 201.205 57.4571 204.225 58.7069 205.348C59.1468 205.743 59.5966 206.025 60.0348 206.21C60.6207 206.455 61.1801 206.523 61.6564 206.447C62.0946 206.377 62.4648 206.185 62.7187 205.903C62.8216 205.788 62.908 205.654 62.9694 205.504C63.3445 204.61 63.4076 203.629 63.4939 202.259C63.5487 201.385 63.6134 200.361 63.7777 199.058L63.7811 199.059ZM61.7212 186.289C61.5801 186.508 61.4374 186.705 61.2913 186.881C62.591 188.996 63.8225 190.714 65.5752 191.937C67.8824 193.549 70.7008 192.305 74.1217 190.795C76.5765 189.711 79.3219 188.5 82.4871 188.018C87.3637 187.278 91.7257 185.855 94.2254 184.931C90.6916 184.202 83.5843 182.891 75.8993 182.345C70.5315 181.963 67.4625 182.161 65.4923 182.864C63.6382 183.527 62.742 184.695 61.7212 186.289ZM50.6502 169.677C51.0004 171.606 51.9448 173.596 53.5034 175.49C54.6304 174.089 56.4247 172.667 60.8265 172.164C65.3711 171.642 68.2061 170.642 70.0402 169.227C71.8262 167.851 72.6909 166.039 73.3 163.876C73.5009 163.162 73.5457 162.479 73.4329 161.851C73.2951 161.091 72.9166 160.396 72.2942 159.81C71.6385 159.192 70.7108 158.689 69.5041 158.351C67.3214 157.737 64.274 157.658 60.3253 158.377C57.477 158.895 55.2297 159.946 53.6047 161.345C52.3449 162.43 51.4602 163.723 50.9672 165.136C50.4726 166.552 50.363 168.097 50.6502 169.677ZM37.3235 141.638C37.3634 141.075 37.3983 140.611 37.4248 140.262C35.126 140.187 27.9954 140.27 24.0915 143.865C20.2955 147.361 20.9014 152.709 21.2317 154.487C23.6583 154.271 32.5018 153.142 34.9616 148.065C36.4189 145.057 37.053 142.974 37.3235 141.638ZM34.0189 153.394C34.8405 152 35.4728 150.621 35.9575 149.305C32.6893 154.765 23.1222 155.808 21.0806 155.97L18.2904 160.568C18.7602 160.721 19.683 160.91 21.4607 161.008C23.1471 161.099 25.2617 160.932 27.4543 159.886C29.6651 158.83 31.9674 156.878 34.0189 153.396V153.394Z" fill="#899F87"/>
<path fill-rule="evenodd" clip-rule="evenodd" d="M38.9511 139.715C39.0507 140.108 38.8134 140.508 38.42 140.608C38.0266 140.707 37.6265 140.47 37.527 140.077C37.5203 140.054 35.7095 132.827 30.9458 126.951C30.0196 126.591 25.0303 124.899 17.8449 127.105C14.8755 128.017 12.243 129.293 10.0736 130.344C8.17646 131.263 6.61953 132.018 5.40621 132.256C3.77793 132.576 2.74055 132.113 2.38369 130.305C1.5903 126.27 3.76637 125.029 8.3707 122.4C8.8869 122.104 9.43957 121.789 10.0637 121.425C13.1443 119.628 16.8507 118.587 20.65 119.05C23.8634 119.44 27.1332 120.901 30.1392 123.875C30.7782 124.508 31.3757 125.17 31.9351 125.849C31.9516 125.867 31.9666 125.885 31.9799 125.904C37.0307 132.07 38.9411 139.688 38.9478 139.713L38.9511 139.715ZM29.125 124.933L29.1067 124.914C26.3597 122.196 23.387 120.863 20.479 120.509C17.0183 120.088 13.629 121.045 10.799 122.695C10.223 123.03 9.64043 123.364 9.09435 123.676C5.11577 125.948 3.23516 127.021 3.82606 130.025C3.97212 130.767 4.41866 130.954 5.12409 130.815C6.15649 130.612 7.63368 129.895 9.43458 129.022C11.6471 127.95 14.331 126.649 17.4117 125.704C22.5256 124.134 26.6469 124.44 29.1233 124.933H29.125Z" fill="#899F87"/>
<path fill-rule="evenodd" clip-rule="evenodd" d="M319.465 330.666C319.629 331.036 319.465 331.469 319.095 331.634C318.726 331.798 318.291 331.634 318.127 331.264C318.099 331.2 308.532 309.561 293.807 296.832C286.308 290.347 281.83 285.912 279.496 280.93C277.178 275.977 277.01 270.587 278.15 262.258C276.871 260.678 269.791 251.861 266.226 245.68C264.138 242.062 263.853 237.408 265.386 232.349C266.834 227.573 269.911 222.424 274.628 217.448C283.812 207.76 299.779 201.843 301.14 201.35C301.205 201.325 301.242 201.313 301.242 201.313C301.623 201.18 302.042 201.381 302.174 201.765C302.198 201.833 302.211 201.903 302.214 201.971C302.214 202 302.744 212.15 298.762 219.847C297.728 221.845 296.807 223.291 296.02 224.522C293.937 227.789 292.858 229.48 293.135 236.991C293.51 247.132 281.181 260.691 279.611 262.375C278.499 270.461 278.635 275.643 280.819 280.309C283.04 285.051 287.414 289.37 294.762 295.724C309.733 308.668 319.432 330.603 319.46 330.666H319.465ZM278.393 260.218C278.934 254.265 277.91 249.216 276.977 244.615C275.441 237.049 274.144 230.655 280.036 223.331C285.704 216.283 289.933 212.251 292.773 209.544C294.707 207.7 295.978 206.489 296.563 205.416C296.725 205.119 296.899 204.84 297.082 204.58C291.449 207.055 281.941 211.87 275.694 218.461C271.138 223.268 268.175 228.212 266.79 232.775C265.376 237.439 265.617 241.692 267.498 244.951C270.49 250.138 276.044 257.269 278.394 260.218H278.393ZM278.413 244.327C279.342 248.91 280.361 253.929 279.895 259.87C283.435 255.808 291.975 245.141 291.675 237.042C291.379 229.08 292.543 227.258 294.788 223.736C295.55 222.541 296.445 221.138 297.461 219.175C300.493 213.312 300.782 205.913 300.775 203.147C299.93 203.63 298.702 204.55 297.849 206.115C297.152 207.395 295.816 208.668 293.784 210.605C290.972 213.286 286.788 217.276 281.179 224.249C275.717 231.039 276.954 237.125 278.414 244.327H278.413Z" fill="#899F87"/>
<path fill-rule="evenodd" clip-rule="evenodd" d="M293.95 295.013C294.254 295.28 294.286 295.743 294.02 296.047C293.755 296.351 293.291 296.382 292.986 296.117C292.938 296.074 275.996 281.285 260.45 269.238C253.969 264.215 248.209 261.176 243.132 259.759C242.227 260.092 238.24 261.858 236.174 267.732C234.861 271.464 230.98 274.154 226.154 276.189C221.448 278.173 215.831 279.545 210.872 280.654C201.15 282.828 192.823 282.259 192.396 282.229C192.308 282.226 192.219 282.206 192.134 282.168C191.762 282.005 191.595 281.57 191.757 281.2C192.489 279.537 193.371 277.94 195.248 275.441C197.092 272.984 199.908 269.646 204.526 264.474C206.579 262.177 208.096 260.306 209.323 258.793C213.717 253.375 214.555 252.343 223.109 251.717C233.337 250.968 242.325 257.485 243.437 258.325C248.717 259.784 254.676 262.909 261.345 268.079C276.921 280.151 293.901 294.973 293.95 295.016V295.013ZM240.924 259.234C235.053 258.095 230.16 259.234 226.173 261.998C220.668 265.817 219.979 266.142 216.218 267.92C214.455 268.753 212.01 269.91 208.063 271.903C199.723 276.118 195.749 279.265 194.073 280.83C196.941 280.903 203.356 280.832 210.558 279.222C215.453 278.126 220.99 276.775 225.588 274.836C230.064 272.949 233.641 270.518 234.791 267.246C236.386 262.713 239.083 260.366 240.924 259.231V259.234ZM225.34 260.793C229.264 258.072 233.983 256.806 239.55 257.528C236.023 255.48 229.886 252.691 223.214 253.179C215.293 253.758 214.52 254.711 210.462 259.714C209.232 261.229 207.713 263.103 205.618 265.448C201.031 270.586 198.239 273.894 196.42 276.317C195.975 276.911 195.588 277.451 195.248 277.95C197.605 276.139 201.422 273.616 207.401 270.596C211.378 268.586 213.826 267.429 215.59 266.594C219.265 264.856 219.938 264.537 225.34 260.791V260.793Z" fill="#899F87"/>
<path fill-rule="evenodd" clip-rule="evenodd" d="M262.341 268.849C262.655 269.106 262.701 269.569 262.444 269.883C262.187 270.197 261.724 270.243 261.41 269.986C261.38 269.961 250.905 261.539 239.812 238.829C235.972 230.967 232.974 224.469 230.373 218.832L229.284 216.473C229.273 216.45 229.261 216.427 229.251 216.402C225.02 207.248 221.734 200.345 217.03 192.862C213.053 186.539 209.986 181.184 208.019 176.122C206.034 171.009 205.174 166.206 205.639 161.027C205.712 160.204 205.869 159.434 206.098 158.718C207.247 155.128 210.19 152.828 213.699 151.51C217.12 150.223 221.093 149.875 224.419 150.174C225.895 150.306 227.249 150.565 228.378 150.927L228.413 150.939L228.456 150.952H228.459C234.539 152.897 240.375 154.766 240.855 163.514C243.004 162.748 245.182 162.428 247.263 162.562C251.302 162.823 255.136 165.027 258.09 168.053C261.3 171.343 263.487 175.629 263.77 179.451C264.049 183.227 262.139 187.788 258.798 191.865C257.981 192.861 257.078 193.828 256.1 194.75C256.582 195.218 257.035 195.739 257.463 196.313L257.48 196.336C258.638 197.9 259.609 199.859 260.482 202.199C261.946 206.124 262.56 208.405 262.457 210.41C262.351 212.458 261.53 214.09 260.12 216.739C259.344 218.198 258.96 219.559 258.633 220.712C257.725 223.923 257.196 225.792 251.776 224.965C246.309 224.132 235.67 219.519 231.432 217.615L231.708 218.213C234.285 223.801 237.258 230.243 241.135 238.18C252.085 260.596 262.313 268.819 262.343 268.844L262.341 268.849ZM218.27 192.082C220.984 196.398 223.223 200.509 225.435 204.951C224.466 199.253 223.623 190.401 225.624 182.313C227.185 176.01 230.189 171.165 233.794 167.851C235.55 166.236 237.451 164.984 239.397 164.101C239.102 155.9 233.67 154.161 228.008 152.348L227.961 152.333L227.927 152.323C226.896 151.993 225.653 151.755 224.29 151.634C221.156 151.354 217.42 151.679 214.212 152.884C211.091 154.058 208.483 156.068 207.491 159.168C207.293 159.787 207.157 160.45 207.094 161.155C206.651 166.091 207.478 170.689 209.383 175.594C211.307 180.548 214.336 185.828 218.268 192.082H218.27ZM228.361 211.018C229.039 212.457 229.731 213.945 230.448 215.497C232.391 215.937 242.058 217.992 246.659 216.478C249.841 215.431 250.249 214.845 251.265 213.389C251.904 212.473 252.756 211.25 254.465 209.471C256.245 207.617 257.068 205.62 257.335 203.744C257.722 201.035 256.962 198.574 256.251 197.151C255.858 196.627 255.443 196.156 255.002 195.737C252.44 197.938 249.441 199.81 246.178 201.065C237.56 204.38 230.242 209.615 228.361 211.016V211.018ZM240.881 165.069C240.875 165.557 240.851 166.063 240.815 166.591C240.113 176.412 237.238 183.285 234.035 190.949C233.605 191.976 233.172 193.013 232.851 193.79C230.727 198.949 229.48 203.977 228.816 207.228C232.088 202.279 238.823 193.214 244.885 192.139C249.109 191.39 252.268 191.916 254.767 193.653C254.837 193.701 254.905 193.75 254.973 193.8C255.951 192.887 256.852 191.926 257.664 190.937C260.773 187.144 262.555 182.96 262.303 179.557C262.046 176.073 260.017 172.131 257.036 169.077C254.318 166.292 250.819 164.264 247.169 164.028C245.134 163.897 242.991 164.247 240.881 165.067V165.069ZM239.349 166.486C239.368 166.229 239.381 165.977 239.391 165.729C237.798 166.526 236.241 167.595 234.787 168.931C231.379 172.065 228.532 176.663 227.047 182.663C224.788 191.792 226.268 201.957 227.334 207.14C228.003 203.826 229.283 198.597 231.492 193.231C231.966 192.079 232.323 191.224 232.675 190.383C235.832 182.835 238.662 176.065 239.348 166.485L239.349 166.486ZM245.655 199.699C248.669 198.539 251.449 196.823 253.843 194.801C251.687 193.342 248.903 192.916 245.136 193.584C239.578 194.57 233.175 203.261 230.03 208.04C233.372 205.772 239.149 202.202 245.657 199.699H245.655ZM259.105 202.713C259.038 202.536 258.972 202.362 258.904 202.189C258.907 202.762 258.872 203.351 258.786 203.952C258.48 206.098 257.544 208.38 255.521 210.488C253.884 212.193 253.073 213.356 252.465 214.229C251.247 215.975 250.759 216.676 247.119 217.874C244.239 218.822 239.637 218.5 235.895 217.974C240.875 220.1 247.946 222.9 251.992 223.516C256.135 224.147 256.533 222.739 257.217 220.319C257.566 219.089 257.974 217.64 258.819 216.052C260.134 213.579 260.9 212.067 260.988 210.337C261.08 208.566 260.494 206.436 259.105 202.712V202.713Z" fill="#899F87"/>
<path fill-rule="evenodd" clip-rule="evenodd" d="M228.172 210.683C228.215 210.97 228.086 211.246 227.86 211.399C228.607 212.202 229.078 212.746 229.191 212.879C229.405 213.103 229.46 213.449 229.304 213.736C229.269 213.8 229.224 213.858 229.175 213.908C229.075 214.018 228.66 214.469 228 215.175C226.864 216.576 225.136 219.198 223.996 223.212L223.986 223.246C223.027 226.616 221.958 229.338 220.403 231.431C218.803 233.584 216.716 235.053 213.755 235.844C209.443 236.998 205.406 237.172 203.71 237.189C201.471 237.332 198.958 236.251 194.06 234.141L193.565 233.929C184.403 229.987 186.823 221.49 189.142 213.346C189.696 211.399 190.245 209.472 190.609 207.691C190.785 206.831 191.05 206.036 191.394 205.304C191.49 205.1 191.592 204.902 191.699 204.708C189.708 203.974 187.742 203.106 185.852 202.062C183.676 200.862 182.129 199.4 181.096 197.786V197.783C179.71 195.617 179.257 193.199 179.455 190.779C179.649 188.395 180.476 186.012 181.658 183.869C183.246 180.989 185.493 178.529 187.723 177.094L187.761 177.069L187.884 176.991L187.889 176.987C191.293 174.886 197.408 174.033 203.492 175.034C209.574 176.033 215.667 178.878 219.075 184.164C219.085 184.178 219.095 184.193 219.103 184.206C219.125 184.241 219.176 184.322 219.246 184.435C225.81 195.071 228.165 210.635 228.172 210.68V210.683ZM226.579 210.059C225.993 206.718 223.513 194.142 217.999 185.207L217.868 185.001L217.846 184.966C214.696 180.071 208.98 177.424 203.255 176.483C197.507 175.537 191.792 176.304 188.662 178.232L188.539 178.31L188.518 178.324C186.484 179.633 184.418 181.904 182.944 184.578C181.855 186.55 181.097 188.732 180.919 190.895C180.745 193.02 181.135 195.127 182.328 196.996C183.234 198.411 184.609 199.702 186.556 200.777C188.478 201.838 190.484 202.713 192.528 203.448C194.103 201.407 196.405 200.046 199.019 199.27C202.284 198.303 206.047 198.256 209.458 198.953C211.078 199.284 212.625 199.783 214.004 200.432C218.919 202.743 223.724 207.148 226.579 210.058V210.059ZM194.008 203.954C199.469 205.73 205.091 206.58 209.934 207.312C213.411 207.837 216.495 208.303 218.894 209.017C221.918 209.916 224.175 210.711 225.78 211.334C223.045 208.516 218.255 204.051 213.383 201.762C212.109 201.163 210.673 200.699 209.164 200.391C205.974 199.738 202.467 199.78 199.433 200.678C197.28 201.315 195.373 202.388 194.008 203.954ZM209.715 208.765C204.678 208.003 198.812 207.116 193.102 205.203C192.964 205.435 192.836 205.676 192.719 205.925C192.423 206.554 192.194 207.241 192.041 207.984C191.656 209.868 191.107 211.797 190.553 213.747C188.406 221.285 186.167 229.147 194.143 232.58L194.637 232.792C198.807 234.586 201.162 235.6 202.963 235.722C203.064 235.723 203.28 235.728 203.595 235.725C203.673 235.72 203.751 235.713 203.828 235.705C205.667 235.501 207.35 234.103 210.664 231.353V231.35L211.474 230.677C216.897 226.189 219.422 222.904 221.335 220.415C222.209 219.279 222.957 218.305 223.802 217.44C225.128 216.081 226.192 214.962 226.932 214.172C227.112 213.953 227.277 213.761 227.425 213.596C226.131 213.009 223.332 211.862 218.481 210.419C216.195 209.74 213.149 209.279 209.717 208.761L209.715 208.765ZM211.599 232.482C210.097 233.728 208.91 234.714 207.866 235.456C209.499 235.268 211.405 234.953 213.375 234.427C215.991 233.728 217.827 232.44 219.224 230.558C220.657 228.629 221.661 226.055 222.575 222.84L222.584 222.81C222.882 221.761 223.221 220.8 223.579 219.923C223.231 220.357 222.876 220.82 222.496 221.313C220.537 223.862 217.951 227.225 212.412 231.811L211.602 232.483L211.599 232.482Z" fill="#899F87"/>
<path fill-rule="evenodd" clip-rule="evenodd" d="M223.143 222.096C222.891 221.779 222.944 221.317 223.261 221.065C223.578 220.813 224.039 220.866 224.292 221.183C224.3 221.195 227.344 225.112 232.211 224.045C236.825 223.032 236.08 219.296 236.078 219.286C236.005 218.888 236.269 218.506 236.667 218.433C237.066 218.36 237.447 218.624 237.52 219.022C237.524 219.037 238.539 224.161 232.521 225.482C226.755 226.747 223.155 222.111 223.143 222.098V222.096Z" fill="#899F87"/>
</svg>
