<svg width="510" height="241" viewBox="0 0 510 241" fill="none" xmlns="http://www.w3.org/2000/svg">
<path d="M161.36 231.916V214.363H163.383V220.842H163.554C163.703 220.614 163.908 220.322 164.171 219.968C164.44 219.608 164.823 219.288 165.32 219.008C165.823 218.722 166.503 218.58 167.36 218.58C168.468 218.58 169.445 218.857 170.291 219.411C171.137 219.965 171.797 220.751 172.271 221.768C172.745 222.785 172.982 223.985 172.982 225.368C172.982 226.762 172.745 227.97 172.271 228.993C171.797 230.01 171.139 230.799 170.3 231.359C169.46 231.913 168.491 232.19 167.394 232.19C166.548 232.19 165.871 232.05 165.363 231.77C164.854 231.485 164.463 231.162 164.188 230.802C163.914 230.436 163.703 230.133 163.554 229.893H163.314V231.916H161.36ZM163.348 225.333C163.348 226.328 163.494 227.205 163.786 227.965C164.077 228.719 164.503 229.31 165.063 229.739C165.623 230.162 166.308 230.373 167.12 230.373C167.965 230.373 168.671 230.15 169.237 229.705C169.808 229.253 170.237 228.648 170.522 227.888C170.814 227.122 170.96 226.271 170.96 225.333C170.96 224.408 170.817 223.574 170.531 222.831C170.251 222.082 169.825 221.491 169.254 221.057C168.688 220.617 167.977 220.397 167.12 220.397C166.297 220.397 165.605 220.605 165.046 221.022C164.486 221.434 164.063 222.011 163.777 222.754C163.491 223.491 163.348 224.351 163.348 225.333ZM181.596 232.19C180.328 232.19 179.233 231.91 178.313 231.35C177.399 230.785 176.694 229.996 176.196 228.985C175.705 227.968 175.459 226.785 175.459 225.436C175.459 224.088 175.705 222.899 176.196 221.871C176.694 220.837 177.385 220.031 178.271 219.454C179.162 218.871 180.202 218.58 181.39 218.58C182.076 218.58 182.753 218.694 183.422 218.922C184.09 219.151 184.699 219.522 185.247 220.037C185.796 220.545 186.233 221.219 186.559 222.059C186.884 222.899 187.047 223.934 187.047 225.162V226.019H176.899V224.271H184.99C184.99 223.528 184.842 222.865 184.545 222.282C184.253 221.699 183.836 221.239 183.293 220.902C182.756 220.565 182.122 220.397 181.39 220.397C180.585 220.397 179.888 220.597 179.299 220.997C178.716 221.391 178.268 221.905 177.953 222.539C177.639 223.174 177.482 223.854 177.482 224.579V225.745C177.482 226.739 177.653 227.582 177.996 228.273C178.345 228.959 178.828 229.482 179.445 229.842C180.062 230.196 180.779 230.373 181.596 230.373C182.128 230.373 182.607 230.299 183.036 230.15C183.47 229.996 183.845 229.768 184.159 229.465C184.473 229.156 184.716 228.773 184.887 228.316L186.842 228.865C186.636 229.528 186.29 230.11 185.804 230.613C185.319 231.11 184.719 231.499 184.005 231.779C183.29 232.053 182.488 232.19 181.596 232.19ZM193.998 232.225C193.164 232.225 192.407 232.067 191.727 231.753C191.047 231.433 190.507 230.973 190.107 230.373C189.707 229.768 189.507 229.036 189.507 228.179C189.507 227.425 189.656 226.813 189.953 226.345C190.25 225.871 190.647 225.499 191.144 225.231C191.641 224.962 192.19 224.762 192.79 224.631C193.396 224.494 194.004 224.385 194.615 224.305C195.415 224.202 196.064 224.125 196.561 224.074C197.064 224.016 197.43 223.922 197.658 223.791C197.892 223.659 198.01 223.431 198.01 223.105V223.036C198.01 222.191 197.778 221.534 197.315 221.065C196.858 220.597 196.164 220.362 195.233 220.362C194.267 220.362 193.51 220.574 192.961 220.997C192.413 221.419 192.027 221.871 191.804 222.351L189.884 221.665C190.227 220.865 190.684 220.242 191.256 219.797C191.833 219.345 192.461 219.031 193.141 218.854C193.827 218.671 194.501 218.58 195.164 218.58C195.587 218.58 196.073 218.631 196.621 218.734C197.175 218.831 197.71 219.034 198.224 219.342C198.744 219.651 199.175 220.117 199.518 220.739C199.861 221.362 200.032 222.197 200.032 223.242V231.916H198.01V230.133H197.907C197.77 230.419 197.541 230.725 197.221 231.05C196.901 231.376 196.475 231.653 195.944 231.882C195.413 232.11 194.764 232.225 193.998 232.225ZM194.307 230.408C195.107 230.408 195.781 230.25 196.33 229.936C196.884 229.622 197.301 229.216 197.581 228.719C197.867 228.222 198.01 227.699 198.01 227.151V225.299C197.924 225.402 197.735 225.496 197.444 225.582C197.158 225.662 196.827 225.733 196.45 225.796C196.078 225.853 195.715 225.905 195.361 225.951C195.013 225.991 194.73 226.025 194.513 226.053C193.987 226.122 193.496 226.233 193.038 226.388C192.587 226.536 192.221 226.762 191.941 227.065C191.667 227.362 191.53 227.768 191.53 228.282C191.53 228.985 191.79 229.516 192.31 229.876C192.836 230.23 193.501 230.408 194.307 230.408ZM212.021 226.533V218.751H214.044V231.916H212.021V229.688H211.884C211.575 230.356 211.095 230.925 210.444 231.393C209.793 231.856 208.97 232.087 207.976 232.087C207.153 232.087 206.421 231.907 205.781 231.547C205.141 231.182 204.639 230.633 204.273 229.902C203.907 229.165 203.724 228.236 203.724 227.116V218.751H205.747V226.979C205.747 227.939 206.016 228.705 206.553 229.276C207.096 229.848 207.787 230.133 208.627 230.133C209.13 230.133 209.641 230.005 210.161 229.748C210.687 229.49 211.127 229.096 211.481 228.565C211.841 228.033 212.021 227.356 212.021 226.533ZM223.474 218.751V220.465H216.652V218.751H223.474ZM218.64 215.597H220.663V228.145C220.663 228.716 220.746 229.145 220.911 229.43C221.083 229.71 221.3 229.899 221.563 229.996C221.831 230.088 222.114 230.133 222.411 230.133C222.634 230.133 222.817 230.122 222.96 230.099C223.103 230.07 223.217 230.048 223.303 230.03L223.714 231.847C223.577 231.899 223.385 231.95 223.14 232.002C222.894 232.059 222.583 232.087 222.206 232.087C221.634 232.087 221.074 231.965 220.526 231.719C219.983 231.473 219.531 231.099 219.171 230.596C218.817 230.093 218.64 229.459 218.64 228.693V215.597ZM227.82 236.853C227.477 236.853 227.171 236.824 226.902 236.767C226.634 236.716 226.448 236.664 226.345 236.613L226.86 234.83C227.351 234.956 227.785 235.002 228.162 234.967C228.539 234.933 228.874 234.764 229.165 234.462C229.462 234.164 229.734 233.682 229.979 233.013L230.357 231.985L225.488 218.751H227.682L231.316 229.242H231.454L235.088 218.751H237.282L231.694 233.836C231.442 234.516 231.131 235.079 230.759 235.524C230.388 235.976 229.957 236.31 229.465 236.527C228.979 236.744 228.431 236.853 227.82 236.853ZM256.065 221.699L254.248 222.214C254.134 221.911 253.965 221.617 253.743 221.331C253.525 221.039 253.228 220.799 252.851 220.611C252.474 220.422 251.991 220.328 251.403 220.328C250.597 220.328 249.926 220.514 249.388 220.885C248.857 221.251 248.591 221.717 248.591 222.282C248.591 222.785 248.774 223.182 249.14 223.474C249.506 223.765 250.077 224.008 250.854 224.202L252.808 224.682C253.985 224.968 254.862 225.405 255.44 225.993C256.017 226.576 256.305 227.328 256.305 228.248C256.305 229.002 256.088 229.676 255.654 230.27C255.225 230.865 254.625 231.333 253.854 231.676C253.083 232.019 252.185 232.19 251.163 232.19C249.82 232.19 248.708 231.899 247.829 231.316C246.949 230.733 246.391 229.882 246.157 228.762L248.077 228.282C248.26 228.99 248.606 229.522 249.114 229.876C249.628 230.23 250.3 230.408 251.128 230.408C252.071 230.408 252.82 230.208 253.374 229.808C253.934 229.402 254.214 228.916 254.214 228.35C254.214 227.893 254.054 227.511 253.734 227.202C253.414 226.888 252.923 226.653 252.26 226.499L250.066 225.985C248.86 225.699 247.974 225.256 247.409 224.656C246.849 224.051 246.569 223.294 246.569 222.385C246.569 221.642 246.777 220.985 247.194 220.414C247.617 219.842 248.191 219.394 248.917 219.068C249.648 218.742 250.477 218.58 251.403 218.58C252.705 218.58 253.728 218.865 254.471 219.437C255.22 220.008 255.751 220.762 256.065 221.699ZM259.35 236.853V218.751H261.304V220.842H261.544C261.693 220.614 261.899 220.322 262.161 219.968C262.43 219.608 262.813 219.288 263.31 219.008C263.813 218.722 264.493 218.58 265.35 218.58C266.458 218.58 267.435 218.857 268.281 219.411C269.127 219.965 269.787 220.751 270.261 221.768C270.735 222.785 270.972 223.985 270.972 225.368C270.972 226.762 270.735 227.97 270.261 228.993C269.787 230.01 269.13 230.799 268.29 231.359C267.45 231.913 266.481 232.19 265.384 232.19C264.538 232.19 263.861 232.05 263.353 231.77C262.844 231.485 262.453 231.162 262.179 230.802C261.904 230.436 261.693 230.133 261.544 229.893H261.373V236.853H259.35ZM261.339 225.333C261.339 226.328 261.484 227.205 261.776 227.965C262.067 228.719 262.493 229.31 263.053 229.739C263.613 230.162 264.298 230.373 265.11 230.373C265.955 230.373 266.661 230.15 267.227 229.705C267.798 229.253 268.227 228.648 268.512 227.888C268.804 227.122 268.95 226.271 268.95 225.333C268.95 224.408 268.807 223.574 268.521 222.831C268.241 222.082 267.815 221.491 267.244 221.057C266.678 220.617 265.967 220.397 265.11 220.397C264.287 220.397 263.596 220.605 263.036 221.022C262.476 221.434 262.053 222.011 261.767 222.754C261.481 223.491 261.339 224.351 261.339 225.333ZM277.932 232.225C277.098 232.225 276.341 232.067 275.661 231.753C274.981 231.433 274.441 230.973 274.041 230.373C273.641 229.768 273.441 229.036 273.441 228.179C273.441 227.425 273.589 226.813 273.887 226.345C274.184 225.871 274.581 225.499 275.078 225.231C275.575 224.962 276.124 224.762 276.724 224.631C277.329 224.494 277.938 224.385 278.549 224.305C279.349 224.202 279.998 224.125 280.495 224.074C280.998 224.016 281.363 223.922 281.592 223.791C281.826 223.659 281.943 223.431 281.943 223.105V223.036C281.943 222.191 281.712 221.534 281.249 221.065C280.792 220.597 280.098 220.362 279.166 220.362C278.201 220.362 277.443 220.574 276.895 220.997C276.346 221.419 275.961 221.871 275.738 222.351L273.818 221.665C274.161 220.865 274.618 220.242 275.189 219.797C275.766 219.345 276.395 219.031 277.075 218.854C277.761 218.671 278.435 218.58 279.098 218.58C279.521 218.58 280.006 218.631 280.555 218.734C281.109 218.831 281.643 219.034 282.158 219.342C282.678 219.651 283.109 220.117 283.452 220.739C283.795 221.362 283.966 222.197 283.966 223.242V231.916H281.943V230.133H281.84C281.703 230.419 281.475 230.725 281.155 231.05C280.835 231.376 280.409 231.653 279.878 231.882C279.346 232.11 278.698 232.225 277.932 232.225ZM278.241 230.408C279.041 230.408 279.715 230.25 280.263 229.936C280.818 229.622 281.235 229.216 281.515 228.719C281.8 228.222 281.943 227.699 281.943 227.151V225.299C281.858 225.402 281.669 225.496 281.378 225.582C281.092 225.662 280.76 225.733 280.383 225.796C280.012 225.853 279.649 225.905 279.295 225.951C278.946 225.991 278.663 226.025 278.446 226.053C277.921 226.122 277.429 226.233 276.972 226.388C276.521 226.536 276.155 226.762 275.875 227.065C275.601 227.362 275.464 227.768 275.464 228.282C275.464 228.985 275.724 229.516 276.244 229.876C276.769 230.23 277.435 230.408 278.241 230.408ZM293.006 232.19C291.772 232.19 290.709 231.899 289.818 231.316C288.926 230.733 288.241 229.93 287.761 228.908C287.281 227.885 287.041 226.716 287.041 225.402C287.041 224.065 287.287 222.885 287.778 221.862C288.275 220.834 288.966 220.031 289.852 219.454C290.744 218.871 291.783 218.58 292.972 218.58C293.898 218.58 294.732 218.751 295.475 219.094C296.218 219.437 296.826 219.917 297.3 220.534C297.775 221.151 298.069 221.871 298.183 222.694H296.16C296.006 222.094 295.663 221.562 295.132 221.099C294.606 220.631 293.898 220.397 293.006 220.397C292.218 220.397 291.526 220.602 290.932 221.014C290.344 221.419 289.884 221.994 289.552 222.736C289.226 223.474 289.064 224.339 289.064 225.333C289.064 226.351 289.224 227.236 289.544 227.99C289.869 228.745 290.326 229.33 290.915 229.748C291.509 230.165 292.206 230.373 293.006 230.373C293.532 230.373 294.009 230.282 294.438 230.099C294.866 229.916 295.229 229.653 295.526 229.31C295.823 228.968 296.035 228.556 296.16 228.076H298.183C298.069 228.853 297.786 229.553 297.335 230.176C296.889 230.793 296.298 231.285 295.56 231.65C294.829 232.01 293.978 232.19 293.006 232.19ZM306.66 232.19C305.391 232.19 304.297 231.91 303.377 231.35C302.463 230.785 301.757 229.996 301.26 228.985C300.769 227.968 300.523 226.785 300.523 225.436C300.523 224.088 300.769 222.899 301.26 221.871C301.757 220.837 302.449 220.031 303.334 219.454C304.226 218.871 305.266 218.58 306.454 218.58C307.14 218.58 307.817 218.694 308.486 218.922C309.154 219.151 309.763 219.522 310.311 220.037C310.86 220.545 311.297 221.219 311.622 222.059C311.948 222.899 312.111 223.934 312.111 225.162V226.019H301.963V224.271H310.054C310.054 223.528 309.905 222.865 309.608 222.282C309.317 221.699 308.9 221.239 308.357 220.902C307.82 220.565 307.186 220.397 306.454 220.397C305.649 220.397 304.951 220.597 304.363 220.997C303.78 221.391 303.331 221.905 303.017 222.539C302.703 223.174 302.546 223.854 302.546 224.579V225.745C302.546 226.739 302.717 227.582 303.06 228.273C303.409 228.959 303.891 229.482 304.509 229.842C305.126 230.196 305.843 230.373 306.66 230.373C307.191 230.373 307.671 230.299 308.1 230.15C308.534 229.996 308.908 229.768 309.223 229.465C309.537 229.156 309.78 228.773 309.951 228.316L311.905 228.865C311.7 229.528 311.354 230.11 310.868 230.613C310.383 231.11 309.783 231.499 309.068 231.779C308.354 232.053 307.551 232.19 306.66 232.19Z" fill="#9D9D9C"/>
<path d="M387.021 55.629C394.548 64.912 401.911 74.424 410.855 82.303C415.318 86.214 420.151 89.744 425.48 92.242C430.782 94.746 436.68 96.05 442.454 95.42C448.237 94.792 453.799 92.578 458.952 89.761C464.108 86.908 468.953 83.472 473.519 79.703C478.079 75.925 482.393 71.834 486.41 67.478C490.403 63.12 494.238 58.528 497.303 53.586L497.156 53.92C497.589 52.414 498.093 51.075 498.445 49.715C498.81 48.354 499.086 46.959 499.303 45.535C499.738 42.69 500.019 39.787 500.231 36.873C500.669 31.044 500.848 25.172 501.027 19.302L501.14 14.902L501.187 12.704L501.211 11.605L501.223 11.055C501.221 10.897 501.246 10.627 501.214 10.583C501.19 10.488 501.2 10.42 501.173 10.298L501.054 9.89296C500.992 9.62496 500.828 9.32796 500.725 9.04396C500.452 8.47496 500.135 7.91096 499.755 7.38496C498.993 6.34496 498.093 5.38596 497.026 4.68896C494.915 3.24896 492.282 2.81396 489.68 3.23296C487.06 3.65096 484.523 4.85996 482.114 6.27196C482.037 6.31696 481.957 6.35697 481.876 6.39197L481.842 6.40596C480.548 6.94396 479.208 8.09296 478.165 9.44496C477.1 10.791 476.16 12.294 475.437 13.917C473.944 17.143 473.073 20.689 472.664 24.286C472.42 26.084 472.414 27.91 472.362 29.731C472.457 31.556 472.464 33.384 472.73 35.203C473.076 38.855 473.941 42.45 474.862 46.017L474.882 46.093C475.084 46.878 474.612 47.678 473.828 47.881C473.529 47.958 473.229 47.937 472.959 47.839C470.052 46.782 467.663 45.324 465.205 43.869C462.78 42.388 460.422 40.842 458.101 39.197C457.522 38.781 456.939 38.361 456.363 37.908C455.802 37.468 455.29 37.061 454.796 36.75C453.83 36.123 452.802 35.908 451.57 35.915C450.35 35.938 449.045 36.186 447.751 36.521C446.453 36.84 445.155 37.276 443.861 37.717L443.83 37.727C443.688 37.776 443.538 37.798 443.396 37.797C442.65 37.79 441.886 37.804 441.029 37.723C440.169 37.644 439.321 37.43 438.573 37.194C436.961 36.684 435.758 36.07 434.443 35.81C431.855 35.18 429.264 35.895 427.114 37.55L426.309 38.191L425.439 38.93C424.855 39.414 424.271 39.9 423.675 40.365C422.491 41.308 421.285 42.214 420.068 43.103C417.63 44.881 415.162 46.572 412.611 48.209L412.28 45.926C412.528 45.986 412.965 46.066 413.337 46.106C413.724 46.153 414.121 46.189 414.522 46.208C415.322 46.257 416.137 46.252 416.953 46.224C418.586 46.159 420.229 45.982 421.865 45.716C423.501 45.435 425.125 45.113 426.751 44.688C428.301 44.327 429.946 43.719 431.631 43.296C434.995 42.4 438.505 41.89 442.03 41.952C445.551 42.039 449.074 42.684 452.38 43.923L452.256 43.885C453.475 44.16 454.88 44.357 456.224 44.551L460.318 45.089C463.054 45.428 465.799 45.745 468.54 46.045L468.581 46.049C469.17 46.113 469.596 46.644 469.532 47.233C469.522 47.322 469.5 47.411 469.471 47.491C468.758 49.412 467.865 51.095 466.799 52.749C465.734 54.384 464.502 55.919 463.096 57.293C461.688 58.661 460.119 59.89 458.379 60.84C456.682 61.764 454.945 62.619 453.016 63.195C452.054 63.479 451.033 63.666 450 63.714C448.966 63.765 447.947 63.65 447.007 63.518C445.138 63.234 443.408 63.05 441.674 63.302C440.802 63.416 439.897 63.627 438.912 63.777C437.93 63.93 436.879 63.982 435.867 63.883C433.834 63.685 431.947 63.075 430.158 62.36L430.136 62.351L430.083 62.326C428.683 61.565 427.537 60.734 426.333 59.894C425.147 59.052 423.984 58.189 422.827 57.319L419.382 54.679L417.676 53.333C417.092 52.861 416.582 52.47 415.931 51.883C415.557 51.545 415.527 50.968 415.865 50.593C415.972 50.474 416.104 50.389 416.246 50.341L416.299 50.323C418.766 49.488 421.399 48.897 424.037 48.728C426.678 48.557 429.31 48.721 431.891 49.087C433.184 49.262 434.464 49.497 435.735 49.76C436.348 49.865 437.097 50.069 437.691 50.276C438.309 50.482 438.883 50.681 439.433 50.794C441.813 51.203 444.351 51.234 446.822 50.954C449.323 50.687 451.745 50.11 454.259 49.507C455.552 49.251 456.833 48.919 458.179 48.849C459.511 48.753 460.854 48.79 462.184 48.971C463.511 49.152 464.836 49.462 466.088 49.983C466.729 50.203 467.318 50.553 467.924 50.853C468.491 51.227 469.094 51.55 469.606 51.999C471.754 53.672 473.373 55.942 474.42 58.387C474.436 58.425 474.452 58.472 474.462 58.511C474.95 60.369 475.191 62.411 474.933 64.383C474.7 66.362 474.037 68.27 473.091 69.987C472.135 71.698 470.97 73.286 469.608 74.656C468.969 75.388 468.216 75.99 467.519 76.655C466.792 77.284 466.025 77.86 465.279 78.464L465.356 78.397C463.951 79.748 462.482 80.877 460.977 82.024C460.685 82.247 460.272 82.201 460.035 81.926L460.01 81.897C456.949 78.33 452.902 75.394 448.452 73.702C446.218 72.857 443.869 72.34 441.493 72.157C439.109 71.927 436.726 72.206 434.442 72.842C429.827 74.091 425.879 77.154 422.682 80.716C419.53 84.361 417.024 88.586 415.255 93.085L415.237 93.131C415.146 93.362 414.885 93.476 414.654 93.385L414.636 93.377C413.331 92.798 412.378 92.065 411.319 91.344C410.295 90.609 409.289 89.854 408.297 89.082C406.315 87.538 404.377 85.941 402.482 84.296C398.688 81.01 395.033 77.559 391.622 73.866L392.301 73.6L392.156 115.791L392.146 115.723C392.4 116.949 392.316 118.142 392.071 119.309C391.825 120.471 391.437 121.6 390.913 122.658C389.864 124.772 388.468 126.709 386.81 128.369C386.027 129.246 385.104 129.978 384.255 130.785C383.326 131.498 382.429 132.255 381.475 132.931C380.5 133.578 379.552 134.267 378.556 134.878L375.535 136.66C375.464 136.702 375.372 136.678 375.33 136.607C375.288 136.536 375.311 136.444 375.382 136.402L375.39 136.397L378.384 134.604C379.37 133.989 380.307 133.298 381.271 132.649C382.214 131.971 383.098 131.215 384.014 130.502C384.847 129.697 385.757 128.966 386.523 128.096C388.149 126.446 389.504 124.533 390.511 122.467C391.015 121.434 391.383 120.337 391.612 119.218C391.844 118.109 391.899 116.919 391.673 115.858L391.668 115.837L391.663 115.791L391.518 73.6C391.517 73.384 391.692 73.208 391.908 73.208C392.02 73.207 392.126 73.259 392.197 73.335C395.605 76.974 399.264 80.382 403.059 83.624C404.956 85.246 406.894 86.821 408.871 88.339C409.86 89.099 410.861 89.839 411.875 90.557C412.878 91.244 413.961 92.005 414.949 92.438L414.331 92.73C416.112 88.111 418.636 83.78 421.86 79.998C423.5 78.132 425.335 76.423 427.376 74.979C429.404 73.519 431.692 72.388 434.112 71.696C436.521 71.004 439.084 70.694 441.579 70.917C444.08 71.092 446.557 71.62 448.908 72.492C451.26 73.36 453.481 74.56 455.524 76C457.565 77.459 459.445 79.073 461.107 81.035L460.14 80.908C461.591 79.79 463.071 78.627 464.343 77.384L464.387 77.344L464.419 77.317C465.132 76.73 465.87 76.17 466.562 75.563C467.221 74.923 467.944 74.34 468.539 73.644C469.826 72.336 470.893 70.843 471.764 69.27C472.625 67.689 473.207 65.971 473.406 64.207C473.623 62.434 473.415 60.667 472.943 58.891L472.985 59.014C472.003 56.757 470.531 54.741 468.622 53.268C468.168 52.869 467.628 52.591 467.127 52.259C466.584 51.999 466.065 51.685 465.489 51.494C464.371 51.033 463.176 50.761 461.968 50.602C460.759 50.444 459.526 50.416 458.302 50.51C457.08 50.576 455.87 50.901 454.652 51.146C452.189 51.75 449.615 52.379 447.015 52.668C444.396 52.972 441.758 52.972 439.082 52.523C438.374 52.38 437.735 52.156 437.137 51.962C436.517 51.756 436.028 51.621 435.377 51.508C434.138 51.259 432.894 51.037 431.646 50.875C429.153 50.534 426.643 50.395 424.166 50.567C421.685 50.743 419.279 51.292 416.895 52.11L417.263 50.551C417.688 50.924 418.314 51.422 418.855 51.85L420.551 53.173L423.982 55.775C425.133 56.632 426.29 57.481 427.459 58.3C428.618 59.107 429.828 59.951 430.966 60.561L430.891 60.527C432.586 61.199 434.323 61.732 436.037 61.888C437.752 62.085 439.397 61.598 441.397 61.289C443.395 60.984 445.448 61.205 447.284 61.476C449.114 61.764 450.734 61.713 452.425 61.191C454.098 60.685 455.755 59.87 457.346 58.989C458.904 58.13 460.315 57.013 461.591 55.761C464.121 53.258 466.15 50.066 467.378 46.793L468.309 48.239C465.551 47.952 462.8 47.648 460.046 47.322L455.913 46.8C454.52 46.603 453.18 46.434 451.7 46.108C451.669 46.101 451.638 46.092 451.609 46.082L451.575 46.069C448.509 44.939 445.258 44.362 441.99 44.296C438.717 44.257 435.444 44.743 432.251 45.611C430.641 46.023 429.097 46.615 427.342 47.045C425.683 47.489 423.976 47.842 422.266 48.145C420.551 48.436 418.812 48.637 417.052 48.718C416.171 48.754 415.286 48.765 414.389 48.717C413.942 48.699 413.492 48.662 413.036 48.609C412.564 48.554 412.161 48.499 411.585 48.358C410.918 48.194 410.51 47.52 410.674 46.853C410.752 46.535 410.946 46.275 411.201 46.109L411.253 46.075C413.716 44.472 416.163 42.772 418.536 41.017C419.723 40.138 420.898 39.243 422.043 38.319C422.62 37.863 423.18 37.389 423.742 36.919L424.574 36.202L425.514 35.442C426.808 34.454 428.313 33.638 429.972 33.222C431.626 32.783 433.392 32.819 435.012 33.166C436.638 33.485 438.138 34.216 439.377 34.58C440.053 34.787 440.663 34.932 441.29 34.987C441.92 35.044 442.651 35.034 443.396 35.033L442.932 35.114C444.284 34.643 445.64 34.177 447.059 33.817C448.47 33.446 449.931 33.142 451.514 33.097C453.07 33.042 454.904 33.414 456.297 34.331C456.99 34.763 457.574 35.231 458.117 35.649C458.644 36.059 459.2 36.454 459.761 36.851C462.018 38.429 464.355 39.94 466.718 41.361C469.07 42.75 471.531 44.169 473.901 45.014L471.999 46.835C471.023 43.129 470.111 39.387 469.727 35.541C469.444 33.633 469.422 31.693 469.319 29.762C469.362 27.823 469.366 25.882 469.618 23.945C470.044 20.079 470.963 16.221 472.617 12.607C473.425 10.796 474.469 9.06596 475.744 7.47296C476.079 7.08496 476.406 6.68996 476.753 6.30896L477.907 5.23697C478.311 4.89297 478.781 4.59395 479.22 4.27795C479.683 3.97795 480.239 3.74796 480.751 3.49596L480.479 3.62996C483.137 2.07996 485.995 0.695967 489.212 0.184967C492.39 -0.340033 495.975 0.233961 498.74 2.15396C500.138 3.08096 501.286 4.30097 502.249 5.63297C502.728 6.30397 503.136 7.02497 503.494 7.78397C503.649 8.18897 503.838 8.54697 503.957 8.99397L504.14 9.64996C504.194 9.88696 504.22 10.19 504.248 10.458C504.285 10.778 504.254 10.879 504.257 11.087L504.244 11.641L504.217 12.749L504.163 14.965L504.038 19.393C503.862 25.291 503.586 31.189 503.098 37.099C502.855 40.054 502.543 43.013 502.059 45.984C501.819 47.467 501.511 48.962 501.099 50.441C500.696 51.926 500.151 53.344 499.761 54.665L499.752 54.696C499.72 54.804 499.671 54.908 499.615 54.999C496.316 60.201 492.386 64.791 488.267 69.21C484.132 73.609 479.707 77.728 475.019 81.538C470.334 85.349 465.328 88.798 459.96 91.642C454.6 94.455 448.785 96.681 442.629 97.25C436.456 97.821 430.261 96.319 424.817 93.637C419.333 90.97 414.477 87.261 410.065 83.178C401.21 74.98 394.08 65.272 386.787 55.816C386.735 55.751 386.747 55.657 386.812 55.606C386.876 55.555 386.969 55.567 387.021 55.629Z" fill="#3CA0A8"/>
<path d="M391.301 152.154C394.026 154.981 396.372 158.111 398.785 161.177C401.175 164.263 403.565 167.345 406.005 170.385C408.443 173.428 410.965 176.398 413.564 179.294C416.21 182.143 418.919 184.941 421.878 187.441C422.604 188.083 423.396 188.638 424.15 189.241C424.537 189.53 424.903 189.849 425.305 190.112L426.516 190.896L427.726 191.681C428.125 191.949 428.576 192.125 428.999 192.352L431.602 193.651C435.061 195.361 438.729 196.624 442.506 197.299C446.275 198.005 450.159 197.998 453.896 197.289C457.636 196.575 461.205 195.104 464.425 193.068L464.29 193.176C465.438 192.049 466.565 191.016 467.659 189.916C468.741 188.815 469.811 187.702 470.816 186.532C472.846 184.21 474.71 181.746 476.411 179.173C478.124 176.609 479.644 173.916 481.009 171.149C482.413 168.399 483.556 165.525 484.661 162.643C484.673 162.61 484.689 162.576 484.704 162.545C487.035 157.75 489.651 152.886 493.477 148.87C495.385 146.877 497.618 145.1 500.216 143.922C502.803 142.731 505.744 142.251 508.598 142.53L507.397 144.108C505.038 138.263 502.878 132.353 500.869 126.385C498.868 120.414 497.037 114.382 495.464 108.268C493.906 102.153 492.546 95.9654 491.764 89.6504C491.371 86.4954 491.102 83.3124 491.063 80.0994C491.022 76.8884 491.233 73.6354 491.938 70.4084L494.81 71.4934C493.544 73.5864 492.17 75.2334 490.78 76.9734C489.382 78.6744 487.961 80.3444 486.523 81.9954C483.66 85.3074 480.711 88.5294 477.741 91.7294C474.767 94.9334 471.797 98.1044 468.76 101.272C467.228 102.851 465.655 104.396 464.027 105.888L461.585 108.071C461.193 108.414 460.82 108.782 460.453 109.158C460.076 109.522 459.72 109.909 459.372 110.307C453.717 116.626 450.12 124.69 447.805 132.97C447.309 135.07 446.73 137.155 446.358 139.288C446.162 140.352 445.914 141.409 445.759 142.481L445.296 145.7C445.122 146.772 445.016 147.852 444.923 148.934L444.619 152.179C444.471 154.346 444.383 156.52 444.262 158.696C444.26 158.779 444.19 158.844 444.108 158.842C444.029 158.839 443.966 158.773 443.962 158.696C443.712 149.975 444.38 141.179 446.319 132.591C447.37 128.319 448.723 124.102 450.553 120.063L451.244 118.55L452.015 117.073C452.512 116.079 453.079 115.121 453.662 114.17C454.211 113.2 454.888 112.306 455.504 111.373C456.192 110.489 456.851 109.582 457.606 108.746C457.969 108.316 458.342 107.895 458.741 107.493C459.128 107.082 459.522 106.677 459.944 106.293L462.333 104.074C463.89 102.591 465.398 101.052 466.871 99.4744C469.805 96.2934 472.731 93.0454 475.626 89.8054C478.515 86.5534 481.395 83.2934 484.231 80.0114C485.646 78.3684 487.04 76.7114 488.4 75.0384C489.727 73.3754 491.117 71.6324 492.097 69.9864L492.111 69.9644C492.55 69.2264 493.504 68.9844 494.241 69.4234C494.824 69.7714 495.097 70.4424 494.969 71.0714C493.771 76.9204 494.049 83.1704 494.752 89.2864C495.479 95.4274 496.704 101.539 498.17 107.591C499.642 113.645 501.376 119.646 503.282 125.593C505.191 131.538 507.263 137.442 509.544 143.25C509.778 143.846 509.484 144.52 508.888 144.754C508.71 144.824 508.52 144.846 508.343 144.828C505.88 144.571 503.393 144.946 501.124 145.957C498.85 146.957 496.809 148.527 495.02 150.359C493.227 152.196 491.671 154.294 490.278 156.504C488.881 158.717 487.669 161.046 486.471 163.428L486.514 163.33C485.354 166.266 484.154 169.191 482.687 171.993C481.259 174.81 479.674 177.552 477.89 180.162C476.12 182.781 474.181 185.288 472.076 187.646C471.033 188.834 469.925 189.962 468.807 191.076C467.687 192.179 466.501 193.246 465.409 194.295L465.39 194.314C465.355 194.347 465.314 194.379 465.275 194.403C461.875 196.505 458.097 198.024 454.157 198.712C450.222 199.402 446.165 199.345 442.273 198.561C438.373 197.808 434.613 196.45 431.102 194.652L428.486 193.3C428.053 193.06 427.591 192.87 427.183 192.588L425.948 191.764L424.714 190.939C424.304 190.663 423.936 190.333 423.546 190.033C422.785 189.408 421.984 188.828 421.257 188.167C415.354 182.957 410.334 176.915 405.514 170.775C403.111 167.696 400.762 164.577 398.417 161.459C396.05 158.363 393.745 155.2 391.089 152.366L391.084 152.361C391.027 152.3 391.03 152.205 391.09 152.149C391.15 152.093 391.244 152.095 391.301 152.154Z" fill="#3CA0A8"/>
<path d="M98.6923 84.0752C98.8023 82.1672 98.8323 80.8482 98.7773 80.1172C98.7183 79.3882 98.4113 78.5752 97.8503 77.6752C96.5033 75.4292 94.4813 75.2062 91.7873 77.0012C90.1023 78.0122 88.0233 79.9772 85.5543 82.8962C83.0843 85.8172 80.5023 89.2412 77.8063 93.1712C75.1123 97.1022 72.4173 101.368 69.7223 105.971C67.0273 110.577 64.6112 115.125 62.4792 119.614C60.0082 125.004 57.6503 130.705 55.4053 136.711C53.1583 142.719 51.1943 148.558 49.5103 154.227C47.8263 159.899 46.5043 165.204 45.5513 170.145C44.5963 175.086 44.1203 179.129 44.1203 182.272V186.313L45.9732 183.619C46.5342 182.946 47.7133 181.235 49.5103 178.481C51.3043 175.731 53.3262 172.729 55.5742 169.471C60.4002 162.173 65.0323 154.817 69.4693 147.406C73.9043 139.995 77.9753 132.865 81.6803 126.014C85.3863 119.167 88.5872 112.85 91.2812 107.066C93.9762 101.284 95.9983 96.3152 97.3453 92.1602C97.5693 91.2622 97.8502 89.9992 98.1872 88.3702C98.5242 86.7442 98.6923 85.3122 98.6923 84.0752ZM89.7653 72.9592C92.1243 71.8382 94.2293 71.4422 96.0823 71.7792C97.9343 72.1162 99.4502 73.1002 100.629 74.7272C101.808 76.3562 102.508 78.4902 102.735 81.1282C102.959 83.7672 102.676 86.7702 101.892 90.1382C100.881 94.2942 98.9453 99.5712 96.0823 105.971C93.2183 112.372 89.6243 119.504 85.3023 127.362C80.9783 135.223 76.0642 143.674 70.5642 152.712C65.0612 161.752 59.1662 170.987 52.8792 180.418L45.1302 191.871L46.6462 195.073C48.7782 198.891 51.5312 200.799 54.9002 200.799C57.5942 200.799 60.7113 199.51 64.2483 196.924C67.7853 194.344 72.2493 190.301 77.6383 184.797C79.6603 182.778 81.4553 181.037 83.0283 179.576C84.5993 178.118 85.4973 177.387 85.7233 177.387C87.2953 177.387 87.3493 178.481 85.8913 180.672C84.4313 182.862 81.2303 186.426 76.2913 191.368C71.5753 196.082 67.6173 199.51 64.4173 201.641C61.2163 203.774 57.9873 204.842 54.7313 204.842C50.2393 204.951 46.3092 202.539 42.9412 197.598C42.7142 197.262 42.5202 197.037 42.3512 196.924C42.1832 196.815 41.9303 196.924 41.5933 197.262C41.2563 197.598 40.7523 198.188 40.0783 199.03C39.4043 199.873 38.5042 201.078 37.3822 202.653C34.9122 206.02 32.2163 209.584 29.2973 213.348C26.3773 217.108 23.5432 220.674 20.7922 224.043C18.0402 227.41 15.5123 230.36 13.2133 232.885C10.9103 235.412 9.19725 237.123 8.07625 238.022C4.81725 240.604 2.46025 240.942 1.00225 239.034C-0.572752 237.237 -0.290748 228.983 1.84325 214.274C2.62825 208.434 3.38525 203.157 4.11725 198.442C4.84625 193.725 5.52025 189.121 6.13825 184.629C6.75425 180.139 7.37325 175.563 7.99125 170.903C8.60725 166.244 9.30925 160.994 10.0963 155.154C10.5443 151.898 11.0232 148.277 11.5282 144.29C12.0342 140.305 12.5943 136.263 13.2133 132.163C13.8293 128.065 14.4183 124.078 14.9813 120.204C15.5423 116.33 16.0473 112.935 16.4973 110.013C16.9443 107.095 17.3663 104.203 17.7603 101.34C18.1523 98.4762 18.5183 95.8392 18.8553 93.4232C19.1923 91.0102 19.4712 88.8752 19.6972 87.0222C19.9212 85.1702 20.0343 83.8512 20.0343 83.0642C20.2573 80.0332 20.5662 77.9852 20.9612 76.9172C21.3522 75.8502 21.9983 75.5982 22.8973 76.1592C23.6813 76.7212 24.2163 78.0122 24.4983 80.0332C24.7773 82.0542 24.6663 85.8172 24.1613 91.3172C23.6563 96.8202 22.7293 104.455 21.3813 114.224C20.0343 123.994 18.1812 136.795 15.8232 152.627C13.4652 168.573 11.5283 181.682 10.0123 191.955C8.49725 202.231 7.31725 210.399 6.47525 216.463C5.63325 222.528 5.04425 226.848 4.70725 229.432C4.37025 232.014 4.20225 233.53 4.20225 233.981V235.832L7.90725 232.127C9.36525 230.78 11.1913 228.844 13.3813 226.317C15.5713 223.789 17.8713 221.037 20.2873 218.063C22.7003 215.086 25.1422 212.026 27.6142 208.883C30.0832 205.739 32.2722 202.846 34.1822 200.209C36.0902 197.573 37.6353 195.383 38.8143 193.641C39.9943 191.901 40.5252 190.862 40.4152 190.524C40.3012 190.301 40.1622 189.543 39.9942 188.25C39.8252 186.961 39.7412 185.53 39.7412 183.955C39.2912 177.219 40.3852 168.686 43.0252 158.354C45.6632 148.024 49.5102 136.963 54.5632 125.173C57.0322 119.336 59.8692 113.524 63.0692 107.74C66.2692 101.958 69.4692 96.7082 72.6702 91.9912C75.8702 87.2752 78.9573 83.2332 81.9333 79.8642C84.9073 76.4962 87.5183 74.1952 89.7653 72.9592Z" fill="#666362"/>
<path d="M176.336 110.013C171.057 116.413 165.557 123.404 159.83 130.983C154.103 138.563 148.655 146.058 143.491 153.469C138.325 160.88 133.639 167.844 129.428 174.355C125.217 180.869 122.045 186.258 119.911 190.523C116.542 197.037 114.55 202.51 113.932 206.947C113.315 211.381 114.185 213.599 116.542 213.599C117.553 213.599 119.068 213.094 121.09 212.084C123.111 211.072 125.47 209.613 128.164 207.705C130.859 205.793 133.862 203.519 137.176 200.883C140.486 198.246 143.997 195.299 147.702 192.041C150.845 189.234 153.484 186.902 155.619 185.051C157.751 183.197 159.52 181.711 160.925 180.586C162.327 179.465 163.393 178.707 164.125 178.312C164.854 177.92 165.33 177.781 165.557 177.892C166.117 178.117 166.398 178.396 166.398 178.734C166.398 178.848 165.33 179.887 163.198 181.849C161.064 183.816 158.482 186.174 155.45 188.924C152.419 191.678 149.245 194.482 145.934 197.346C142.62 200.209 139.786 202.652 137.428 204.672C131.027 210.062 125.975 213.625 122.27 215.367C118.564 217.107 115.59 217.361 113.342 216.127C110.873 214.889 109.778 211.971 110.058 207.367C110.339 202.762 111.884 197.375 114.69 191.197C116.487 187.269 119.321 182.187 123.195 175.955C127.069 169.723 131.504 163.014 136.502 155.827C141.497 148.642 146.86 141.286 152.587 133.762C158.314 126.241 163.928 119.166 169.431 112.539C171.899 109.508 173.865 107.15 175.325 105.465C176.783 103.782 177.907 102.518 178.694 101.676C179.479 100.833 180.068 100.357 180.463 100.244C180.855 100.133 181.221 100.133 181.558 100.244C182.455 100.581 182.539 101.423 181.811 102.771C181.078 104.118 179.255 106.534 176.336 110.013Z" fill="#666362"/>
<path d="M255.498 174.355C252.467 179.296 250.332 183.675 249.098 187.492C247.412 192.882 247.471 195.634 249.266 195.746C250.164 195.972 251.793 195.382 254.15 193.976C256.508 192.574 259.203 190.75 262.234 188.503C272.115 180.982 277.336 177.332 277.898 177.554C279.019 178.117 278.236 179.351 275.541 181.259C274.867 181.824 273.689 182.777 272.004 184.123C270.32 185.47 268.691 186.763 267.119 187.998C260.605 193.277 255.807 196.562 252.719 197.851C249.631 199.142 247.357 198.945 245.896 197.261C243.766 194.457 244.355 189.402 247.666 182.103C250.977 174.804 256.9 165.428 265.436 153.974C266.67 152.289 267.736 150.831 268.635 149.595C269.533 148.36 269.926 147.687 269.814 147.573C268.914 147.687 268.018 147.8 267.119 147.91C266.219 148.023 265.293 148.137 264.34 148.247C263.385 148.36 262.291 148.474 261.057 148.584C258.248 148.921 256.004 149.202 254.318 149.426C252.635 149.652 251.312 149.763 250.361 149.763C249.408 149.763 248.76 149.708 248.424 149.595C248.086 149.484 247.918 149.315 247.918 149.089C247.918 148.528 248.873 148.023 250.781 147.573C252.689 147.126 256.113 146.621 261.057 146.058C263.301 145.721 265.377 145.441 267.287 145.216C269.195 144.991 270.375 144.823 270.824 144.71C271.162 144.71 271.525 144.57 271.92 144.289C272.312 144.01 272.846 143.476 273.519 142.688C274.193 141.904 275.035 140.865 276.047 139.573C277.057 138.283 278.348 136.57 279.92 134.436C282.053 131.63 283.988 128.99 285.732 126.52C287.471 124.051 288.566 122.535 289.016 121.972C289.914 120.514 290.672 119.587 291.289 119.192C291.906 118.801 292.494 118.829 293.059 119.276C293.281 119.503 293.338 119.84 293.227 120.287C293.113 120.737 292.748 121.466 292.133 122.477C291.514 123.487 290.588 124.893 289.353 126.687C288.115 128.485 286.432 130.844 284.299 133.762C282.166 136.684 280.564 138.873 279.5 140.331C278.432 141.791 277.984 142.773 278.152 143.278C278.32 143.783 279.189 143.981 280.764 143.868C282.334 143.758 284.748 143.531 288.006 143.194C293.394 142.634 297.072 142.325 299.037 142.268C301.002 142.213 301.984 142.465 301.984 143.025C301.984 143.362 301.9 143.615 301.732 143.783C301.564 143.952 301.002 144.12 300.049 144.289C299.094 144.457 297.605 144.654 295.584 144.879C293.564 145.104 290.701 145.384 286.994 145.721L274.531 147.068L268.467 155.153C262.852 163.014 258.529 169.414 255.498 174.355Z" fill="#666362"/>
<path d="M235.793 163.911C236.016 163.687 236.299 163.266 236.635 162.648C236.973 162.032 237.363 161.442 237.814 160.88L239.162 158.521L236.973 159.869C235.061 160.993 233.098 162.285 231.076 163.743C229.055 165.203 226.865 166.888 224.508 168.796C222.15 170.706 219.564 172.951 216.76 175.533C213.951 178.117 210.695 181.091 206.99 184.46C204.07 187.156 201.459 189.488 199.158 191.451C196.857 193.415 195.537 194.456 195.201 194.566C193.179 195.017 192.168 194.286 192.168 192.376C192.168 190.468 193.263 187.66 195.453 183.954C197.643 180.249 200.814 175.814 204.969 170.648C206.654 168.404 207.889 166.888 208.676 166.1C209.459 165.316 210.133 164.979 210.695 165.091C211.93 165.316 212.322 166.075 211.875 167.365C211.426 168.656 209.91 170.986 207.328 174.355C205.867 176.265 204.49 178.144 203.201 179.997C201.908 181.849 200.785 183.478 199.832 184.88C198.879 186.286 198.121 187.408 197.559 188.249C196.998 189.091 196.773 189.513 196.885 189.513C196.998 189.513 197.785 188.898 199.242 187.66C200.701 186.425 202.385 184.91 204.295 183.113C208.002 179.634 211.313 176.601 214.232 174.017C217.152 171.435 219.791 169.191 222.15 167.281C224.508 165.372 226.697 163.687 228.719 162.227C230.74 160.769 232.703 159.476 234.613 158.353C239.33 155.548 241.855 155.321 242.193 157.68C242.303 158.242 242.277 158.832 242.109 159.448C241.941 160.066 241.574 160.88 241.014 161.89C240.451 162.9 239.666 164.222 238.656 165.848C237.645 167.478 236.408 169.47 234.951 171.828C233.266 174.411 231.918 176.517 230.908 178.144C229.898 179.773 229.055 181.175 228.381 182.355C227.707 183.535 227.145 184.628 226.697 185.64C226.248 186.65 225.742 187.829 225.182 189.177C224.281 191.423 223.721 193.556 223.498 195.578C223.271 197.597 223.385 198.89 223.834 199.451C224.508 200.011 225.91 199.509 228.045 197.935C230.176 196.363 233.826 193.109 238.992 188.165C241.912 185.47 244.522 183.029 246.824 180.839C249.125 178.65 250.389 177.554 250.615 177.554C250.951 177.554 251.231 177.892 251.457 178.566C251.568 178.902 250.783 179.941 249.1 181.681C247.414 183.423 244.943 185.865 241.688 189.007C238.766 191.816 236.383 194.06 234.529 195.745C232.676 197.429 231.131 198.751 229.898 199.703C228.66 200.656 227.65 201.304 226.865 201.64C226.078 201.978 225.35 202.146 224.676 202.146C223.215 202.146 222.15 201.808 221.477 201.134C220.238 199.788 219.848 197.404 220.297 193.976C220.744 190.552 221.924 186.876 223.834 182.945C224.17 182.16 224.871 180.869 225.939 179.07C227.006 177.275 228.156 175.394 229.393 173.427C230.627 171.464 231.834 169.611 233.014 167.869C234.193 166.13 235.119 164.811 235.793 163.911Z" fill="#666362"/>
<path d="M334.658 163.911C334.883 163.687 335.164 163.266 335.502 162.648C335.838 162.032 336.23 161.442 336.679 160.88L338.027 158.521L335.838 159.869C333.928 160.993 331.965 162.285 329.943 163.743C327.922 165.203 325.732 166.888 323.373 168.796C321.015 170.706 318.431 172.951 315.625 175.533C312.818 178.117 309.562 181.091 305.857 184.46C302.935 187.156 300.324 189.488 298.025 191.451C295.724 193.415 294.404 194.456 294.066 194.566C292.045 195.017 291.035 194.286 291.035 192.376C291.035 190.468 292.129 187.66 294.318 183.954C296.51 180.249 299.679 175.814 303.836 170.648C305.519 168.404 306.754 166.888 307.541 166.1C308.326 165.316 309 164.979 309.562 165.091C310.797 165.316 311.189 166.075 310.742 167.365C310.291 168.656 308.775 170.986 306.193 174.355C304.732 176.265 303.357 178.144 302.066 179.997C300.775 181.849 299.65 183.478 298.699 184.88C297.746 186.286 296.988 187.408 296.424 188.249C295.863 189.091 295.64 189.513 295.75 189.513C295.863 189.513 296.65 188.898 298.109 187.66C299.566 186.425 301.252 184.91 303.162 183.113C306.867 179.634 310.178 176.601 313.099 174.017C316.017 171.435 318.658 169.191 321.015 167.281C323.373 165.372 325.564 163.687 327.584 162.227C329.605 160.769 331.568 159.476 333.48 158.353C338.195 155.548 340.722 155.321 341.058 157.68C341.17 158.242 341.144 158.832 340.974 159.448C340.806 160.066 340.441 160.88 339.881 161.89C339.316 162.9 338.533 164.222 337.521 165.848C336.512 167.478 335.275 169.47 333.816 171.828C332.133 174.411 330.785 176.517 329.773 178.144C328.763 179.773 327.922 181.175 327.248 182.355C326.574 183.535 326.012 184.628 325.564 185.64C325.113 186.65 324.607 187.829 324.047 189.177C323.148 191.423 322.588 193.556 322.363 195.578C322.137 197.597 322.25 198.89 322.699 199.451C323.373 200.011 324.777 199.509 326.91 197.935C329.043 196.363 332.693 193.109 337.859 188.165C340.777 185.47 343.388 183.029 345.691 180.839C347.992 178.65 349.254 177.554 349.48 177.554C349.818 177.554 350.097 177.892 350.322 178.566C350.433 178.902 349.65 179.941 347.965 181.681C346.281 183.423 343.808 185.865 340.554 189.007C337.633 191.816 335.248 194.06 333.396 195.745C331.543 197.429 329.998 198.751 328.763 199.703C327.527 200.656 326.515 201.304 325.732 201.64C324.945 201.978 324.217 202.146 323.543 202.146C322.082 202.146 321.015 201.808 320.342 201.134C319.105 199.788 318.713 197.404 319.162 193.976C319.611 190.552 320.789 186.876 322.699 182.945C323.037 182.16 323.736 180.869 324.804 179.07C325.871 177.275 327.021 175.394 328.258 173.427C329.492 171.464 330.701 169.611 331.879 167.869C333.058 166.13 333.984 164.811 334.658 163.911Z" fill="#666362"/>
<path d="M289.688 162.228C288.565 163.351 287.807 164.025 287.415 164.249C287.02 164.475 286.43 164.417 285.645 164.081C284.409 163.744 284.69 162.172 286.489 159.364C287.385 158.017 288.114 157.204 288.678 156.922C289.239 156.643 289.913 156.727 290.7 157.174C292.27 157.961 291.932 159.646 289.688 162.228ZM282.108 178.061C280.872 179.744 279.583 181.711 278.235 183.955C276.887 186.203 276.102 187.943 275.877 189.178C275.54 190.076 275.401 190.75 275.456 191.197C275.514 191.648 275.653 191.984 275.877 192.209C276.776 193.109 278.627 192.715 281.434 191.029C284.241 189.346 288.284 186.258 293.563 181.766C296.93 178.961 298.895 177.668 299.458 177.893C300.018 178.006 300.299 178.287 300.299 178.734C300.299 178.848 299.821 179.352 298.868 180.25C297.913 181.15 296.733 182.187 295.331 183.365C293.924 184.545 292.438 185.809 290.868 187.156C289.293 188.504 287.834 189.682 286.489 190.693C284.241 192.377 282.53 193.557 281.35 194.23C280.172 194.904 278.909 195.353 277.561 195.578C276.102 195.914 274.866 195.578 273.856 194.566C273.071 193.893 272.592 193.332 272.424 192.883C272.254 192.436 272.17 191.535 272.17 190.187C272.17 188.279 272.706 186.061 273.772 183.535C274.84 181.008 276.272 178.566 278.067 176.207C280.76 172.615 282.782 171.492 284.129 172.838C284.69 173.402 284.803 174.018 284.467 174.691C284.129 175.365 283.342 176.488 282.108 178.061Z" fill="#666362"/>
<path d="M83.0264 191.029C85.2714 189.459 87.4064 187.605 89.4264 185.47C91.4484 183.34 93.2164 181.234 94.7324 179.154C96.2494 177.078 97.4824 175.197 98.4384 173.511C99.3904 171.828 99.9244 170.539 100.038 169.638C98.3544 169.638 96.4724 170.396 94.3954 171.912C92.3164 173.427 90.3804 175.31 88.5854 177.554C86.7874 179.802 85.3274 182.16 84.2064 184.629C83.0854 187.099 82.6894 189.234 83.0264 191.029ZM102.059 196.252C100.148 195.353 99.0274 193.808 98.6904 191.619C98.3544 189.429 98.3544 187.213 98.6904 184.967C99.1384 182.271 99.9244 179.351 101.048 176.207C101.159 175.871 100.991 176.013 100.544 176.629C100.093 177.246 99.4754 178.09 98.6904 179.154C97.9044 180.222 96.9774 181.457 95.9124 182.861C94.8424 184.265 93.6374 185.64 92.2904 186.986C90.6064 188.672 89.2584 189.992 88.2484 190.945C87.2374 191.9 86.4504 192.603 85.8894 193.05C85.3274 193.5 84.8214 193.783 84.3744 193.892C83.9264 194.006 83.4764 194.06 83.0264 194.06C81.4554 194.06 80.3894 193.754 79.8264 193.134C79.2654 192.519 78.9844 191.31 78.9844 189.513C79.0974 187.269 80.0234 184.574 81.7634 181.429C83.5054 178.287 85.7764 175.254 88.5854 172.334C89.9324 170.986 91.2804 169.752 92.6274 168.629C93.9744 167.508 94.9274 166.775 95.4904 166.438C97.0614 165.654 98.5484 165.259 99.9544 165.259C101.356 165.259 102.452 165.709 103.238 166.607C103.912 167.17 104.333 167.422 104.502 167.365C104.67 167.308 105.033 166.888 105.596 166.101C107.728 163.52 109.189 161.835 109.975 161.048C110.759 160.264 111.433 159.869 111.997 159.869C113.118 159.869 113.597 160.433 113.428 161.554C113.26 162.677 112.444 164.643 110.986 167.449C109.413 170.144 108.009 172.896 106.775 175.703C105.539 178.509 104.556 181.091 103.828 183.449C103.096 185.808 102.649 187.857 102.48 189.597C102.312 191.34 102.506 192.545 103.07 193.218C104.191 193.67 105.454 193.556 106.86 192.883C108.262 192.209 109.778 191.172 111.407 189.765C113.034 188.363 114.692 186.734 116.376 184.881C118.06 183.029 119.687 181.15 121.26 179.24C122.158 178.006 123.029 177.302 123.872 177.134C124.714 176.965 125.134 177.386 125.134 178.396C125.134 178.734 124.74 179.437 123.956 180.502C123.169 181.57 122.187 182.804 121.007 184.209C119.829 185.613 118.566 187.015 117.218 188.418C115.871 189.824 114.692 191.029 113.681 192.041C111.883 193.5 110.144 194.709 108.46 195.662C106.775 196.617 105.483 197.037 104.586 196.924C104.359 196.924 103.996 196.869 103.491 196.756C102.986 196.646 102.506 196.476 102.059 196.252Z" fill="#666362"/>
<path d="M347.289 191.029C349.533 189.459 351.668 187.605 353.689 185.47C355.711 183.34 357.478 181.234 358.994 179.154C360.512 177.078 361.744 175.197 362.701 173.511C363.652 171.828 364.187 170.539 364.301 169.638C362.617 169.638 360.734 170.396 358.658 171.912C356.578 173.427 354.643 175.31 352.848 177.554C351.049 179.802 349.59 182.16 348.469 184.629C347.348 187.099 346.951 189.234 347.289 191.029ZM366.322 196.252C364.41 195.353 363.289 193.808 362.953 191.619C362.617 189.429 362.617 187.213 362.953 184.967C363.4 182.271 364.187 179.351 365.31 176.207C365.422 175.871 365.254 176.013 364.807 176.629C364.355 177.246 363.738 178.09 362.953 179.154C362.166 180.222 361.24 181.457 360.174 182.861C359.105 184.265 357.9 185.64 356.553 186.986C354.869 188.672 353.521 189.992 352.51 190.945C351.5 191.9 350.713 192.603 350.152 193.05C349.59 193.5 349.084 193.783 348.637 193.892C348.189 194.006 347.738 194.06 347.289 194.06C345.717 194.06 344.652 193.754 344.088 193.134C343.527 192.519 343.246 191.31 343.246 189.513C343.359 187.269 344.285 184.574 346.025 181.429C347.768 178.287 350.039 175.254 352.848 172.334C354.195 170.986 355.543 169.752 356.889 168.629C358.236 167.508 359.189 166.775 359.752 166.438C361.324 165.654 362.81 165.259 364.217 165.259C365.619 165.259 366.715 165.709 367.5 166.607C368.174 167.17 368.596 167.422 368.764 167.365C368.932 167.308 369.295 166.888 369.859 166.101C371.99 163.52 373.451 161.835 374.238 161.048C375.021 160.264 375.695 159.869 376.26 159.869C377.381 159.869 377.859 160.433 377.691 161.554C377.523 162.677 376.707 164.643 375.248 167.449C373.676 170.144 372.271 172.896 371.037 175.703C369.801 178.509 368.818 181.091 368.09 183.449C367.359 185.808 366.912 187.857 366.742 189.597C366.574 191.34 366.769 192.545 367.332 193.218C368.453 193.67 369.717 193.556 371.123 192.883C372.525 192.209 374.041 191.172 375.67 189.765C377.297 188.363 378.955 186.734 380.639 184.881C382.322 183.029 383.949 181.15 385.523 179.24C386.42 178.006 387.291 177.302 388.135 177.134C388.977 176.965 389.396 177.386 389.396 178.396C389.396 178.734 389.002 179.437 388.219 180.502C387.432 181.57 386.449 182.804 385.269 184.209C384.092 185.613 382.828 187.015 381.48 188.418C380.133 189.824 378.955 191.029 377.943 192.041C376.146 193.5 374.406 194.709 372.723 195.662C371.037 196.617 369.746 197.037 368.848 196.924C368.621 196.924 368.258 196.869 367.754 196.756C367.248 196.646 366.769 196.476 366.322 196.252Z" fill="#666362"/>
<path d="M168.082 182.104C168.082 183.227 169.99 182.553 173.809 180.083C175.717 178.848 177.401 177.471 178.861 175.956C180.319 174.44 181.389 172.952 182.061 171.493C183.183 168.686 182.454 167.956 179.872 169.301C178.861 169.752 177.683 170.565 176.335 171.745C174.987 172.924 173.695 174.186 172.461 175.534C171.225 176.881 170.187 178.174 169.346 179.409C168.503 180.645 168.082 181.543 168.082 182.104ZM184.926 173.344C184.362 174.583 183.549 175.815 182.483 177.049C181.414 178.288 180.181 179.493 178.777 180.672C177.372 181.85 175.914 182.918 174.398 183.872C172.883 184.827 171.45 185.53 170.103 185.977L167.408 186.987L168.756 187.999C170.551 189.459 173.725 189.598 178.272 188.418C182.82 187.241 188.126 184.797 194.189 181.092C196.659 179.522 198.401 178.456 199.411 177.893C200.42 177.333 201.038 177.5 201.264 178.397C201.374 178.624 200.897 179.184 199.832 180.083C198.762 180.983 197.416 181.993 195.79 183.114C194.16 184.237 192.421 185.362 190.567 186.483C188.715 187.606 187.057 188.504 185.599 189.178C181.894 191.088 178.188 192.293 174.482 192.799C170.777 193.303 167.969 193.051 166.061 192.042C164.713 191.143 163.761 190.161 163.197 189.092C162.637 188.028 162.355 186.54 162.355 184.629C162.469 180.25 164.713 175.872 169.093 171.493C173.582 167.112 177.569 164.868 181.052 164.755C183.409 164.418 184.98 165.092 185.768 166.775C186.552 168.459 186.272 170.649 184.926 173.344Z" fill="#666362"/>
</svg>
