<svg width="428" height="202" viewBox="0 0 428 202" fill="none" xmlns="http://www.w3.org/2000/svg">
<path d="M82.7816 70.5215C82.8738 68.9212 82.899 67.8148 82.8529 67.2016C82.8034 66.5902 82.5459 65.9082 82.0753 65.1533C80.9455 63.2694 79.2495 63.0824 76.9898 64.588C75.5764 65.436 73.8326 67.0842 71.7616 69.5326C69.6898 71.9827 67.5241 74.8547 65.2627 78.1511C63.003 81.4484 60.7425 85.0267 58.482 88.8876C56.2215 92.751 54.1949 96.5658 52.4067 100.331C50.334 104.852 48.3562 109.634 46.4731 114.672C44.5883 119.711 42.941 124.609 41.5285 129.364C40.1159 134.122 39.0071 138.571 38.2077 142.716C37.4067 146.86 37.0074 150.251 37.0074 152.888V156.277L38.5617 154.018C39.0322 153.453 40.0212 152.018 41.5285 149.708C43.0332 147.401 44.7293 144.883 46.6148 142.15C50.6628 136.029 54.5481 129.859 58.2698 123.643C61.9898 117.426 65.4045 111.446 68.5122 105.699C71.6207 99.9562 74.3056 94.6576 76.5653 89.8061C78.8259 84.9562 80.5219 80.7883 81.6517 77.3031C81.8396 76.5499 82.0753 75.4905 82.358 74.1241C82.6407 72.7603 82.7816 71.5591 82.7816 70.5215ZM75.2937 61.1976C77.2724 60.2573 79.0381 59.9252 80.5923 60.2079C82.1458 60.4905 83.4174 61.3159 84.4063 62.6806C85.3952 64.047 85.9824 65.8369 86.1728 68.0497C86.3607 70.2632 86.1233 72.7821 85.4657 75.6071C84.6177 79.0931 82.9938 83.5194 80.5923 88.8876C78.1901 94.2566 75.1755 100.239 71.5502 106.83C67.9233 113.424 63.8015 120.512 59.1882 128.093C54.5724 135.676 49.6278 143.422 44.3543 151.333L37.8546 160.939L39.1262 163.625C40.9145 166.827 43.2236 168.428 46.0495 168.428C48.3092 168.428 50.9237 167.347 53.8905 165.178C56.8573 163.014 60.6016 159.622 65.1218 155.006C66.8178 153.312 68.3234 151.852 69.6428 150.626C70.9606 149.403 71.7138 148.79 71.9034 148.79C73.2219 148.79 73.2672 149.708 72.0443 151.546C70.8197 153.383 68.1347 156.372 63.992 160.517C60.0362 164.471 56.7163 167.347 54.0322 169.134C51.3473 170.923 48.6388 171.819 45.9077 171.819C42.1399 171.911 38.8435 169.887 36.0185 165.743C35.8281 165.461 35.6653 165.272 35.5236 165.178C35.3827 165.086 35.1705 165.178 34.8878 165.461C34.6051 165.743 34.1824 166.238 33.617 166.944C33.0517 167.651 32.2968 168.662 31.3557 169.983C29.2839 172.807 27.0225 175.797 24.5741 178.954C22.1248 182.108 19.7477 185.099 17.4402 187.925C15.1319 190.749 13.0114 193.223 11.0831 195.341C9.15136 197.461 7.71452 198.896 6.77424 199.65C4.04064 201.816 2.06362 202.099 0.840671 200.499C-0.480416 198.992 -0.243875 192.068 1.54609 179.731C2.20454 174.832 2.8395 170.406 3.45349 166.451C4.06496 162.494 4.6303 158.633 5.14867 154.865C5.66536 151.099 6.18457 147.26 6.70294 143.352C7.21964 139.444 7.80846 135.04 8.46858 130.142C8.84436 127.41 9.24614 124.373 9.66972 121.029C10.0941 117.686 10.5639 114.296 11.0831 110.857C11.5998 107.42 12.0938 104.075 12.566 100.826C13.0366 97.5766 13.4602 94.7289 13.8376 92.278C14.2126 89.8304 14.5666 87.4046 14.897 85.0032C15.2258 82.6009 15.5328 80.389 15.8155 78.3625C16.0982 76.3385 16.3322 74.5477 16.5218 72.9935C16.7096 71.44 16.8044 70.3337 16.8044 69.6735C16.9915 67.1312 17.2507 65.4133 17.582 64.5175C17.9099 63.6225 18.4518 63.4112 19.2059 63.8817C19.8635 64.3531 20.3122 65.436 20.5488 67.1312C20.7828 68.8264 20.6897 71.9827 20.2661 76.596C19.8425 81.2119 19.065 87.616 17.9343 95.8101C16.8044 104.005 15.2502 114.742 13.2723 128.022C11.2944 141.397 9.66972 152.393 8.39813 161.01C7.12737 169.629 6.1376 176.48 5.43134 181.567C4.72508 186.654 4.23104 190.277 3.94837 192.445C3.6657 194.611 3.52479 195.882 3.52479 196.26V197.813L6.63248 194.705C7.85543 193.575 9.38706 191.952 11.224 189.832C13.0609 187.712 14.9901 185.403 17.0166 182.909C19.0406 180.412 21.0889 177.845 23.1624 175.209C25.2334 172.571 27.0695 170.145 28.6716 167.933C30.272 165.722 31.5679 163.885 32.5568 162.424C33.5466 160.964 33.992 160.093 33.8997 159.809C33.8041 159.622 33.6875 158.987 33.5466 157.902C33.4048 156.821 33.3344 155.62 33.3344 154.299C32.9569 148.649 33.8745 141.492 36.0889 132.826C38.3016 124.161 41.5285 114.883 45.7668 104.994C47.8378 100.098 50.2174 95.2229 52.9015 90.3714C55.5856 85.5215 58.2698 81.1179 60.9547 77.1614C63.6388 73.2057 66.2281 69.8153 68.7244 66.9894C71.2189 64.1644 73.409 62.2344 75.2937 61.1976Z" fill="#666362"/>
<path d="M69.6395 160.233C71.5225 158.916 73.3133 157.361 75.0077 155.57C76.7037 153.783 78.1867 152.017 79.4583 150.272C80.7307 148.531 81.7649 146.953 82.5668 145.539C83.3653 144.127 83.8132 143.046 83.9089 142.29C82.4963 142.29 80.9178 142.926 79.1756 144.198C77.4318 145.469 75.8079 147.048 74.3023 148.93C72.7941 150.816 71.5695 152.794 70.6292 154.865C69.6889 156.936 69.3568 158.727 69.6395 160.233ZM85.604 164.614C84.0011 163.86 83.0609 162.564 82.7782 160.728C82.4964 158.891 82.4964 157.032 82.7782 155.148C83.154 152.887 83.8132 150.437 84.756 147.8C84.8491 147.518 84.7082 147.638 84.3333 148.154C83.955 148.672 83.4366 149.38 82.7782 150.272C82.1189 151.168 81.3413 152.204 80.448 153.382C79.5505 154.559 78.5398 155.713 77.41 156.842C75.9974 158.256 74.8668 159.363 74.0196 160.162C73.1716 160.963 72.5115 161.553 72.0409 161.928C71.5695 162.305 71.1451 162.543 70.7701 162.634C70.3944 162.73 70.0169 162.775 69.6395 162.775C68.3217 162.775 67.4276 162.518 66.9553 161.998C66.4848 161.483 66.2491 160.468 66.2491 158.961C66.3439 157.079 67.1206 154.818 68.5801 152.18C70.0412 149.545 71.9461 147.001 74.3023 144.552C75.4321 143.421 76.5628 142.386 77.6926 141.444C78.8225 140.504 79.6218 139.889 80.0941 139.606C81.4118 138.949 82.6591 138.617 83.8384 138.617C85.0144 138.617 85.9337 138.995 86.593 139.748C87.1583 140.22 87.5114 140.432 87.6532 140.384C87.7941 140.336 88.0986 139.984 88.5708 139.324C90.3591 137.159 91.5846 135.745 92.2439 135.085C92.9015 134.428 93.4668 134.096 93.9399 134.096C94.8802 134.096 95.282 134.569 95.1402 135.51C94.9993 136.452 94.3148 138.101 93.0919 140.454C91.7725 142.715 90.5948 145.023 89.5598 147.378C88.523 149.731 87.6985 151.897 87.0879 153.875C86.4739 155.854 86.0989 157.572 85.9572 159.032C85.8163 160.494 85.979 161.504 86.4521 162.069C87.3923 162.448 88.4517 162.352 89.6311 161.788C90.807 161.223 92.0786 160.353 93.445 159.173C94.8097 157.997 96.2004 156.63 97.6129 155.076C99.0254 153.523 100.39 151.946 101.71 150.344C102.463 149.309 103.193 148.719 103.9 148.578C104.607 148.436 104.959 148.789 104.959 149.636C104.959 149.92 104.629 150.51 103.971 151.403C103.311 152.299 102.487 153.334 101.497 154.512C100.509 155.69 99.4499 156.866 98.3192 158.043C97.1894 159.222 96.2004 160.233 95.3524 161.082C93.8443 162.305 92.3856 163.32 90.9731 164.119C89.5598 164.92 88.476 165.272 87.7237 165.177C87.5333 165.177 87.2288 165.131 86.8052 165.037C86.3816 164.944 85.979 164.802 85.604 164.614Z" fill="#666362"/>
<path d="M147.909 92.2767C143.481 97.645 138.868 103.509 134.064 109.866C129.26 116.224 124.69 122.511 120.359 128.727C116.026 134.943 112.095 140.785 108.563 146.246C105.031 151.71 102.37 156.23 100.58 159.807C97.7546 165.271 96.0837 169.862 95.5654 173.584C95.0478 177.303 95.7776 179.163 97.7546 179.163C98.6026 179.163 99.8734 178.74 101.569 177.892C103.265 177.044 105.243 175.82 107.503 174.219C109.763 172.616 112.282 170.708 115.062 168.497C117.838 166.285 120.783 163.813 123.891 161.081C126.527 158.726 128.741 156.77 130.532 155.218C132.32 153.662 133.804 152.416 134.982 151.472C136.158 150.532 137.052 149.896 137.666 149.565C138.278 149.236 138.677 149.12 138.868 149.213C139.337 149.401 139.573 149.635 139.573 149.919C139.573 150.015 138.677 150.886 136.889 152.532C135.099 154.182 132.933 156.159 130.39 158.466C127.848 160.776 125.185 163.128 122.408 165.53C119.628 167.932 117.251 169.981 115.273 171.675C109.904 176.196 105.667 179.185 102.559 180.646C99.4506 182.106 96.9561 182.319 95.0705 181.284C92.9995 180.245 92.081 177.798 92.3159 173.936C92.5516 170.073 93.8475 165.555 96.2012 160.373C97.7084 157.078 100.086 152.815 103.335 147.588C106.584 142.361 110.304 136.733 114.497 130.705C118.686 124.678 123.185 118.508 127.989 112.197C132.792 105.889 137.501 99.9542 142.117 94.3955C144.187 91.8532 145.836 89.8753 147.061 88.462C148.284 87.0503 149.227 85.9901 149.887 85.2838C150.545 84.5767 151.039 84.1774 151.371 84.0827C151.699 83.9896 152.006 83.9896 152.289 84.0827C153.041 84.3653 153.112 85.0716 152.501 86.2023C151.886 87.3321 150.357 89.3586 147.909 92.2767Z" fill="#666362"/>
<path d="M140.984 152.746C140.984 153.688 142.584 153.122 145.787 151.05C147.388 150.015 148.8 148.859 150.025 147.589C151.248 146.317 152.145 145.069 152.709 143.845C153.65 141.491 153.039 140.878 150.873 142.007C150.025 142.385 149.037 143.067 147.906 144.057C146.775 145.046 145.692 146.104 144.657 147.235C143.62 148.365 142.749 149.449 142.044 150.485C141.337 151.522 140.984 152.275 140.984 152.746ZM155.112 145.398C154.639 146.437 153.957 147.47 153.063 148.506C152.166 149.545 151.132 150.556 149.954 151.544C148.776 152.533 147.553 153.428 146.281 154.229C145.011 155.03 143.809 155.619 142.679 155.994L140.418 156.841L141.549 157.69C143.054 158.915 145.717 159.031 149.531 158.042C153.346 157.054 157.796 155.004 162.882 151.897C164.953 150.58 166.415 149.686 167.262 149.213C168.108 148.744 168.627 148.884 168.816 149.636C168.908 149.827 168.508 150.296 167.615 151.05C166.717 151.805 165.588 152.652 164.225 153.593C162.857 154.535 161.399 155.478 159.844 156.419C158.29 157.361 156.899 158.114 155.677 158.679C152.569 160.281 149.46 161.292 146.352 161.716C143.244 162.139 140.889 161.928 139.288 161.081C138.158 160.327 137.359 159.504 136.886 158.607C136.416 157.715 136.18 156.466 136.18 154.864C136.275 151.19 138.158 147.518 141.832 143.845C145.597 140.171 148.941 138.288 151.863 138.194C153.84 137.911 155.157 138.476 155.818 139.888C156.476 141.3 156.241 143.137 155.112 145.398Z" fill="#666362"/>
<path d="M197.779 137.488C197.966 137.3 198.203 136.947 198.485 136.428C198.769 135.911 199.096 135.417 199.474 134.945L200.605 132.966L198.769 134.097C197.165 135.04 195.518 136.124 193.822 137.347C192.127 138.571 190.29 139.985 188.313 141.585C186.335 143.187 184.166 145.07 181.814 147.236C179.458 149.403 176.727 151.898 173.619 154.724C171.17 156.985 168.98 158.941 167.05 160.588C165.12 162.235 164.013 163.108 163.731 163.2C162.035 163.579 161.187 162.966 161.187 161.364C161.187 159.763 162.105 157.408 163.942 154.299C165.779 151.192 168.439 147.472 171.924 143.138C173.337 141.256 174.373 139.985 175.034 139.324C175.69 138.666 176.256 138.383 176.727 138.477C177.763 138.666 178.092 139.303 177.717 140.385C177.34 141.468 176.069 143.422 173.903 146.248C172.677 147.85 171.522 149.426 170.441 150.98C169.357 152.534 168.415 153.9 167.615 155.076C166.816 156.255 166.18 157.196 165.709 157.902C165.238 158.608 165.049 158.962 165.143 158.962C165.238 158.962 165.898 158.446 167.12 157.408C168.344 156.372 169.757 155.101 171.359 153.594C174.468 150.676 177.245 148.132 179.694 145.964C182.143 143.799 184.357 141.916 186.335 140.314C188.313 138.713 190.149 137.3 191.845 136.075C193.54 134.852 195.187 133.768 196.789 132.826C200.746 130.473 202.864 130.282 203.147 132.261C203.239 132.732 203.218 133.227 203.077 133.744C202.936 134.262 202.628 134.945 202.158 135.792C201.686 136.64 201.027 137.748 200.18 139.112C199.332 140.479 198.295 142.15 197.073 144.128C195.659 146.295 194.529 148.061 193.681 149.426C192.834 150.792 192.127 151.968 191.562 152.958C190.996 153.948 190.525 154.865 190.149 155.713C189.773 156.561 189.348 157.55 188.879 158.68C188.123 160.564 187.653 162.353 187.466 164.049C187.276 165.743 187.371 166.827 187.748 167.298C188.313 167.768 189.489 167.347 191.28 166.026C193.067 164.708 196.129 161.978 200.462 157.831C202.911 155.571 205.101 153.523 207.031 151.686C208.962 149.85 210.022 148.931 210.211 148.931C210.493 148.931 210.728 149.215 210.918 149.78C211.011 150.062 210.352 150.933 208.941 152.393C207.526 153.854 205.454 155.902 202.723 158.538C200.273 160.894 198.274 162.776 196.719 164.189C195.164 165.602 193.868 166.711 192.834 167.509C191.796 168.309 190.949 168.852 190.29 169.134C189.63 169.418 189.019 169.558 188.454 169.558C187.229 169.558 186.335 169.275 185.771 168.71C184.732 167.581 184.404 165.581 184.781 162.706C185.156 159.834 186.146 156.75 187.748 153.453C188.03 152.795 188.618 151.712 189.513 150.203C190.408 148.697 191.373 147.119 192.411 145.469C193.446 143.823 194.458 142.269 195.448 140.807C196.437 139.349 197.214 138.242 197.779 137.488Z" fill="#666362"/>
<path d="M214.307 146.247C211.765 150.391 209.974 154.064 208.939 157.266C207.525 161.787 207.574 164.095 209.08 164.189C209.833 164.379 211.2 163.884 213.177 162.705C215.154 161.529 217.415 159.999 219.957 158.114C228.245 151.805 232.625 148.744 233.096 148.93C234.036 149.402 233.38 150.437 231.119 152.038C230.554 152.512 229.566 153.311 228.152 154.44C226.74 155.57 225.373 156.654 224.055 157.69C218.591 162.118 214.566 164.874 211.976 165.955C209.386 167.038 207.479 166.872 206.253 165.46C204.467 163.108 204.961 158.868 207.738 152.746C210.515 146.623 215.483 138.759 222.643 129.151C223.678 127.738 224.572 126.515 225.326 125.478C226.08 124.443 226.409 123.878 226.315 123.782C225.56 123.878 224.809 123.973 224.055 124.065C223.3 124.16 222.523 124.255 221.724 124.348C220.923 124.443 220.005 124.538 218.97 124.63C216.614 124.913 214.732 125.149 213.317 125.337C211.906 125.526 210.796 125.619 209.998 125.619C209.199 125.619 208.656 125.573 208.374 125.478C208.09 125.385 207.949 125.244 207.949 125.054C207.949 124.583 208.75 124.16 210.351 123.782C211.951 123.407 214.823 122.984 218.97 122.512C220.852 122.229 222.594 121.994 224.196 121.805C225.796 121.617 226.786 121.476 227.162 121.381C227.446 121.381 227.75 121.264 228.082 121.028C228.411 120.794 228.859 120.346 229.423 119.685C229.988 119.027 230.695 118.156 231.543 117.072C232.391 115.99 233.473 114.553 234.792 112.763C236.581 110.41 238.204 108.195 239.667 106.123C241.126 104.053 242.044 102.781 242.422 102.309C243.175 101.086 243.811 100.308 244.328 99.9769C244.846 99.6489 245.339 99.6724 245.813 100.047C245.999 100.238 246.047 100.52 245.954 100.895C245.858 101.273 245.552 101.884 245.036 102.732C244.517 103.579 243.74 104.759 242.704 106.264C241.666 107.772 240.254 109.75 238.465 112.198C236.676 114.649 235.332 116.485 234.44 117.708C233.544 118.933 233.168 119.756 233.309 120.18C233.45 120.603 234.179 120.77 235.5 120.675C236.817 120.582 238.842 120.392 241.574 120.109C246.094 119.64 249.179 119.38 250.827 119.333C252.475 119.287 253.299 119.498 253.299 119.968C253.299 120.25 253.229 120.463 253.088 120.603C252.947 120.745 252.475 120.886 251.676 121.028C250.875 121.169 249.626 121.334 247.931 121.523C246.236 121.711 243.835 121.946 240.726 122.229L230.272 123.359L225.185 130.14C220.476 136.734 216.85 142.102 214.307 146.247Z" fill="#666362"/>
<path d="M242.982 136.073C242.04 137.015 241.404 137.581 241.076 137.769C240.744 137.958 240.249 137.91 239.591 137.628C238.554 137.345 238.79 136.027 240.299 133.671C241.05 132.541 241.662 131.859 242.135 131.623C242.605 131.389 243.171 131.459 243.831 131.834C245.148 132.494 244.864 133.908 242.982 136.073ZM236.624 149.354C235.587 150.766 234.506 152.416 233.375 154.298C232.245 156.183 231.586 157.643 231.398 158.679C231.115 159.432 230.998 159.997 231.044 160.372C231.093 160.751 231.21 161.032 231.398 161.221C232.152 161.976 233.704 161.646 236.059 160.231C238.413 158.82 241.804 156.229 246.232 152.462C249.057 150.109 250.705 149.024 251.177 149.213C251.647 149.308 251.882 149.544 251.882 149.918C251.882 150.014 251.481 150.437 250.682 151.19C249.881 151.945 248.891 152.815 247.715 153.803C246.535 154.793 245.289 155.853 243.972 156.983C242.651 158.113 241.427 159.101 240.299 159.949C238.413 161.362 236.978 162.352 235.988 162.916C235 163.482 233.941 163.858 232.81 164.047C231.586 164.329 230.55 164.047 229.702 163.198C229.044 162.634 228.642 162.163 228.501 161.786C228.359 161.411 228.288 160.656 228.288 159.525C228.288 157.925 228.738 156.064 229.632 153.945C230.528 151.826 231.729 149.778 233.235 147.799C235.493 144.786 237.189 143.844 238.319 144.973C238.79 145.446 238.885 145.963 238.603 146.527C238.319 147.093 237.659 148.035 236.624 149.354Z" fill="#666362"/>
<path d="M280.704 137.486C280.893 137.299 281.128 136.945 281.412 136.427C281.694 135.91 282.023 135.415 282.399 134.944L283.53 132.965L281.694 134.096C280.092 135.039 278.445 136.123 276.749 137.346C275.054 138.57 273.217 139.983 271.238 141.584C269.26 143.186 267.093 145.069 264.739 147.235C262.385 149.402 259.654 151.897 256.546 154.723C254.095 156.984 251.905 158.94 249.977 160.587C248.047 162.234 246.94 163.107 246.656 163.199C244.961 163.578 244.114 162.965 244.114 161.362C244.114 159.762 245.031 157.407 246.867 154.298C248.706 151.19 251.364 147.47 254.851 143.137C256.263 141.255 257.299 139.983 257.959 139.323C258.617 138.665 259.182 138.382 259.654 138.476C260.69 138.665 261.019 139.302 260.644 140.384C260.265 141.466 258.994 143.421 256.828 146.247C255.603 147.849 254.449 149.425 253.366 150.979C252.283 152.533 251.34 153.899 250.542 155.075C249.743 156.254 249.107 157.195 248.634 157.901C248.163 158.607 247.976 158.961 248.069 158.961C248.163 158.961 248.823 158.445 250.047 157.407C251.269 156.371 252.684 155.1 254.286 153.593C257.393 150.675 260.171 148.131 262.621 145.963C265.068 143.797 267.283 141.915 269.26 140.313C271.238 138.712 273.076 137.299 274.77 136.074C276.466 134.851 278.112 133.766 279.716 132.824C283.671 130.472 285.79 130.281 286.072 132.26C286.166 132.731 286.144 133.226 286.002 133.743C285.861 134.261 285.555 134.944 285.085 135.791C284.611 136.638 283.954 137.747 283.105 139.111C282.259 140.478 281.222 142.149 279.998 144.127C278.586 146.294 277.455 148.06 276.607 149.425C275.759 150.791 275.054 151.967 274.489 152.957C273.923 153.947 273.452 154.864 273.076 155.712C272.698 156.56 272.273 157.548 271.804 158.679C271.05 160.563 270.58 162.352 270.391 164.048C270.202 165.742 270.296 166.826 270.673 167.297C271.238 167.767 272.416 167.345 274.205 166.025C275.994 164.707 279.056 161.977 283.389 157.83C285.837 155.57 288.027 153.522 289.958 151.685C291.888 149.849 292.947 148.93 293.136 148.93C293.42 148.93 293.654 149.213 293.843 149.779C293.936 150.061 293.279 150.932 291.866 152.392C290.453 153.853 288.379 155.901 285.65 158.537C283.199 160.893 281.199 162.775 279.645 164.188C278.091 165.601 276.795 166.71 275.759 167.508C274.723 168.308 273.874 168.851 273.217 169.133C272.557 169.416 271.946 169.557 271.381 169.557C270.155 169.557 269.26 169.274 268.696 168.709C267.658 167.58 267.33 165.58 267.706 162.704C268.083 159.832 269.071 156.749 270.673 153.452C270.957 152.793 271.543 151.711 272.439 150.202C273.334 148.696 274.298 147.118 275.336 145.468C276.371 143.822 277.385 142.268 278.373 140.806C279.362 139.348 280.139 138.241 280.704 137.486Z" fill="#666362"/>
<path d="M291.301 160.233C293.183 158.916 294.974 157.361 296.669 155.57C298.365 153.783 299.847 152.017 301.119 150.272C302.392 148.531 303.426 146.953 304.228 145.539C305.026 144.127 305.475 143.046 305.571 142.29C304.158 142.29 302.579 142.926 300.837 144.198C299.093 145.469 297.47 147.048 295.964 148.93C294.455 150.816 293.231 152.794 292.291 154.865C291.351 156.936 291.018 158.727 291.301 160.233ZM307.266 164.614C305.662 163.86 304.722 162.564 304.44 160.728C304.158 158.891 304.158 157.032 304.44 155.148C304.815 152.887 305.475 150.437 306.417 147.8C306.511 147.518 306.37 147.638 305.995 148.154C305.616 148.672 305.098 149.38 304.44 150.272C303.78 151.168 303.003 152.204 302.109 153.382C301.212 154.559 300.201 155.713 299.072 156.842C297.659 158.256 296.528 159.363 295.68 160.162C294.833 160.963 294.173 161.553 293.703 161.928C293.231 162.305 292.807 162.543 292.432 162.634C292.056 162.73 291.678 162.775 291.301 162.775C289.983 162.775 289.089 162.518 288.616 161.998C288.146 161.483 287.91 160.468 287.91 158.961C288.005 157.079 288.781 154.818 290.241 152.18C291.703 149.545 293.608 147.001 295.964 144.552C297.094 143.421 298.224 142.386 299.353 141.444C300.483 140.504 301.283 139.889 301.755 139.606C303.073 138.949 304.32 138.617 305.5 138.617C306.676 138.617 307.595 138.995 308.254 139.748C308.819 140.22 309.173 140.432 309.314 140.384C309.455 140.336 309.759 139.984 310.232 139.324C312.02 137.159 313.245 135.745 313.906 135.085C314.562 134.428 315.128 134.096 315.602 134.096C316.542 134.096 316.943 134.569 316.802 135.51C316.661 136.452 315.976 138.101 314.753 140.454C313.434 142.715 312.256 145.023 311.221 147.378C310.184 149.731 309.359 151.897 308.749 153.875C308.136 155.854 307.761 157.572 307.618 159.032C307.477 160.494 307.641 161.504 308.113 162.069C309.053 162.448 310.113 162.352 311.293 161.788C312.469 161.223 313.74 160.353 315.107 159.173C316.471 157.997 317.862 156.63 319.275 155.076C320.686 153.523 322.051 151.946 323.371 150.344C324.124 149.309 324.854 148.719 325.562 148.578C326.268 148.436 326.62 148.789 326.62 149.636C326.62 149.92 326.289 150.51 325.633 151.403C324.972 152.299 324.148 153.334 323.158 154.512C322.171 155.69 321.111 156.866 319.98 158.043C318.85 159.222 317.862 160.233 317.013 161.082C315.506 162.305 314.046 163.32 312.635 164.119C311.221 164.92 310.138 165.272 309.384 165.177C309.194 165.177 308.89 165.131 308.467 165.037C308.042 164.944 307.641 164.802 307.266 164.614Z" fill="#666362"/>
<path d="M328.215 127.626C330.501 129.997 332.469 132.622 334.493 135.194C336.498 137.782 338.502 140.368 340.549 142.917C342.594 145.47 344.709 147.961 346.889 150.39C349.109 152.78 351.381 155.127 353.863 157.224C354.472 157.762 355.136 158.228 355.769 158.734C356.093 158.976 356.4 159.244 356.737 159.464L357.753 160.122L358.768 160.78C359.103 161.005 359.481 161.153 359.836 161.343L362.019 162.433C364.921 163.867 367.997 164.926 371.165 165.493C374.327 166.085 377.585 166.079 380.719 165.484C383.856 164.885 386.85 163.651 389.551 161.944L389.437 162.034C390.4 161.089 391.346 160.222 392.263 159.3C393.171 158.376 394.068 157.443 394.911 156.461C396.614 154.514 398.178 152.447 399.604 150.289C401.041 148.138 402.316 145.879 403.461 143.558C404.639 141.252 405.597 138.841 406.524 136.424C406.534 136.396 406.548 136.367 406.56 136.341C408.516 132.319 410.71 128.24 413.919 124.871C415.519 123.199 417.392 121.709 419.572 120.721C421.742 119.722 424.208 119.319 426.602 119.553L425.595 120.877C423.616 115.974 421.804 111.017 420.119 106.011C418.441 101.003 416.905 95.943 415.586 90.8146C414.279 85.6855 413.138 80.4951 412.482 75.1981C412.153 72.5518 411.927 69.8819 411.894 67.1869C411.86 64.4936 412.037 61.765 412.628 59.0582L415.037 59.9683C413.975 61.7239 412.823 63.1054 411.657 64.5649C410.484 65.9916 409.292 67.3924 408.086 68.7772C405.685 71.5553 403.211 74.2579 400.72 76.942C398.225 79.6294 395.734 82.2892 393.187 84.9465C391.902 86.2709 390.582 87.5669 389.217 88.8183L387.169 90.6494C386.84 90.9371 386.527 91.2458 386.219 91.5612C385.903 91.8665 385.604 92.1911 385.312 92.5249C380.569 97.8252 377.552 104.589 375.61 111.534C375.194 113.296 374.708 115.045 374.396 116.834C374.232 117.726 374.024 118.613 373.894 119.512L373.506 122.212C373.36 123.111 373.271 124.017 373.193 124.925L372.938 127.647C372.814 129.464 372.74 131.288 372.638 133.113C372.637 133.183 372.578 133.237 372.509 133.235C372.443 133.233 372.39 133.177 372.387 133.113C372.177 125.798 372.737 118.42 374.364 111.216C375.245 107.633 376.38 104.096 377.915 100.708L378.495 99.439L379.141 98.2001C379.558 97.3664 380.034 96.5628 380.523 95.7651C380.983 94.9515 381.551 94.2017 382.068 93.4191C382.645 92.6776 383.198 91.9168 383.831 91.2156C384.135 90.8549 384.448 90.5018 384.783 90.1646C385.108 89.8198 385.438 89.4801 385.792 89.158L387.796 87.2968C389.102 86.0528 390.367 84.762 391.602 83.4384C394.063 80.7702 396.518 78.0458 398.946 75.3281C401.369 72.6004 403.785 69.866 406.164 67.1131C407.351 65.735 408.52 64.3451 409.661 62.9418C410.774 61.5469 411.94 60.0849 412.762 58.7043L412.773 58.6858C413.141 58.0668 413.942 57.8638 414.56 58.232C415.049 58.5239 415.278 59.0868 415.171 59.6143C414.166 64.5204 414.399 69.7628 414.988 74.8928C415.598 80.0438 416.626 85.1705 417.855 90.2468C419.09 95.3248 420.545 100.358 422.143 105.347C423.745 110.333 425.483 115.285 427.396 120.157C427.592 120.657 427.345 121.222 426.846 121.419C426.696 121.477 426.537 121.496 426.388 121.481C424.322 121.265 422.236 121.58 420.333 122.428C418.426 123.266 416.714 124.583 415.213 126.12C413.709 127.661 412.404 129.421 411.236 131.274C410.064 133.131 409.047 135.084 408.043 137.082L408.079 137C407.106 139.462 406.099 141.916 404.869 144.266C403.671 146.629 402.341 148.929 400.845 151.118C399.36 153.315 397.734 155.418 395.968 157.396C395.093 158.392 394.164 159.338 393.226 160.273C392.287 161.198 391.292 162.093 390.376 162.973L390.36 162.989C390.331 163.016 390.296 163.043 390.264 163.063C387.412 164.827 384.243 166.101 380.938 166.678C377.637 167.256 374.234 167.209 370.97 166.551C367.699 165.919 364.545 164.78 361.6 163.272L359.406 162.138C359.042 161.937 358.655 161.778 358.313 161.541L357.277 160.85L356.242 160.158C355.898 159.926 355.589 159.65 355.262 159.398C354.624 158.874 353.952 158.387 353.342 157.833C348.391 153.463 344.18 148.395 340.137 143.245C338.121 140.662 336.151 138.046 334.184 135.43C332.199 132.834 330.265 130.18 328.038 127.803L328.033 127.799C327.986 127.748 327.988 127.668 328.038 127.621C328.089 127.574 328.168 127.576 328.215 127.626Z" fill="#13564F"/>
<path d="M324.624 46.6606C330.938 54.4471 337.114 62.4256 344.616 69.0344C348.36 72.3149 352.413 75.2758 356.883 77.3711C361.331 79.4714 366.278 80.5652 371.121 80.0367C375.972 79.51 380.637 77.6529 384.959 75.29C389.284 72.897 393.348 70.0149 397.178 66.8535C401.003 63.6846 404.621 60.2531 407.99 56.5994C411.34 52.944 414.556 49.0923 417.127 44.947L417.004 45.2271C417.367 43.9639 417.79 42.8408 418.085 41.7001C418.391 40.5585 418.623 39.3884 418.805 38.1939C419.17 35.8076 419.406 33.3726 419.583 30.9284C419.951 26.0391 420.101 21.1138 420.251 16.1901L420.346 12.4994L420.385 10.6558L420.405 9.73396L420.415 9.27262C420.414 9.1401 420.435 8.91362 420.408 8.87672C420.388 8.79704 420.396 8.73999 420.373 8.63766L420.274 8.29795C420.222 8.07316 420.084 7.82404 419.998 7.58582C419.769 7.10856 419.503 6.63548 419.184 6.19428C418.545 5.32195 417.79 4.51756 416.895 3.93292C415.124 2.72507 412.916 2.36019 410.733 2.71164C408.536 3.06226 406.408 4.07635 404.387 5.26071C404.322 5.29845 404.255 5.33202 404.187 5.36137L404.159 5.37311C403.074 5.82438 401.95 6.78814 401.075 7.92218C400.181 9.05119 399.393 10.3119 398.786 11.6732C397.534 14.3791 396.804 17.3535 396.461 20.3706C396.256 21.8787 396.251 23.4103 396.207 24.9378C396.287 26.4686 396.293 28.0019 396.516 29.5276C396.806 32.5908 397.532 35.6063 398.304 38.5982L398.321 38.662C398.49 39.3204 398.094 39.9914 397.437 40.1617C397.186 40.2263 396.934 40.2087 396.708 40.1265C394.27 39.2399 392.266 38.0169 390.204 36.7965C388.17 35.5543 386.192 34.2575 384.245 32.8777C383.76 32.5288 383.271 32.1765 382.788 31.7965C382.317 31.4274 381.887 31.0861 381.473 30.8252C380.663 30.2993 379.801 30.1189 378.767 30.1248C377.744 30.1441 376.649 30.3521 375.564 30.6331C374.475 30.9007 373.386 31.2664 372.301 31.6363L372.275 31.6447C372.156 31.6858 372.03 31.7042 371.911 31.7034C371.285 31.6975 370.644 31.7093 369.926 31.6413C369.204 31.5751 368.493 31.3956 367.866 31.1976C366.513 30.7698 365.504 30.2548 364.401 30.0367C362.231 29.5083 360.057 30.108 358.254 31.4962L357.579 32.0339L356.849 32.6538C356.359 33.0597 355.869 33.4674 355.369 33.8574C354.376 34.6484 353.365 35.4083 352.344 36.154C350.299 37.6454 348.229 39.0637 346.089 40.4368L345.811 38.5219C346.019 38.5722 346.386 38.6393 346.698 38.6729C347.023 38.7123 347.356 38.7425 347.692 38.7584C348.363 38.7995 349.047 38.7953 349.731 38.7719C351.101 38.7173 352.479 38.5689 353.851 38.3457C355.223 38.1101 356.586 37.84 357.949 37.4835C359.25 37.1807 360.629 36.6707 362.043 36.3159C364.864 35.5643 367.808 35.1366 370.765 35.1886C373.719 35.2615 376.674 35.8026 379.447 36.8418L379.343 36.8099C380.365 37.0406 381.544 37.2058 382.671 37.3686L386.105 37.8198C388.4 38.1042 390.702 38.3701 393.001 38.6217L393.036 38.6251C393.53 38.6787 393.887 39.1241 393.833 39.6182C393.825 39.6928 393.807 39.7675 393.782 39.8346C393.184 41.4459 392.435 42.8576 391.541 44.2449C390.648 45.6163 389.614 46.9039 388.435 48.0564C387.254 49.2038 385.938 50.2347 384.479 51.0315C383.055 51.8066 381.598 52.5237 379.98 53.0069C379.173 53.2451 378.317 53.4019 377.45 53.4422C376.583 53.485 375.728 53.3885 374.94 53.2778C373.372 53.0396 371.921 52.8852 370.467 53.0966C369.735 53.1922 368.976 53.3692 368.15 53.495C367.326 53.6234 366.445 53.667 365.596 53.584C363.891 53.4179 362.308 52.9062 360.807 52.3065L360.789 52.2989L360.744 52.278C359.57 51.6397 358.609 50.9426 357.599 50.238C356.604 49.5318 355.628 48.8079 354.658 48.0782L351.768 45.8638L350.337 44.7348C349.848 44.3389 349.42 44.0109 348.874 43.5185C348.56 43.235 348.535 42.751 348.818 42.4365C348.908 42.3367 349.019 42.2654 349.138 42.2251L349.182 42.21C351.252 41.5096 353.46 41.0139 355.673 40.8722C357.888 40.7287 360.096 40.8663 362.261 41.1733C363.345 41.3201 364.419 41.5172 365.485 41.7378C365.999 41.8259 366.627 41.997 367.126 42.1706C367.644 42.3434 368.126 42.5103 368.587 42.6051C370.583 42.9482 372.712 42.9742 374.785 42.7393C376.882 42.5154 378.914 42.0314 381.023 41.5256C382.107 41.3109 383.182 41.0324 384.311 40.9737C385.428 40.8931 386.554 40.9242 387.67 41.076C388.783 41.2278 389.895 41.4878 390.945 41.9248C391.482 42.1094 391.976 42.4029 392.485 42.6546C392.96 42.9683 393.466 43.2392 393.896 43.6158C395.697 45.0191 397.055 46.9232 397.933 48.974C397.947 49.0059 397.96 49.0453 397.969 49.078C398.378 50.6365 398.58 52.3493 398.364 54.0033C398.168 55.6633 397.612 57.2637 396.819 58.7039C396.017 60.1391 395.04 61.4711 393.897 62.6202C393.361 63.2342 392.73 63.7391 392.145 64.2969C391.535 64.8245 390.892 65.3077 390.266 65.8143L390.331 65.7581C389.152 66.8913 387.92 67.8383 386.658 68.8004C386.413 68.9874 386.066 68.9488 385.868 68.7182L385.847 68.6938C383.279 65.7019 379.884 63.2392 376.152 61.82C374.278 61.1112 372.308 60.6776 370.315 60.5241C368.315 60.3311 366.316 60.5652 364.401 61.0986C360.53 62.1463 357.218 64.7155 354.536 67.7032C351.893 70.7606 349.791 74.3045 348.307 78.0782L348.292 78.1167C348.215 78.3105 347.996 78.4061 347.803 78.3298L347.788 78.3231C346.693 77.8374 345.894 77.2226 345.005 76.6178C344.146 76.0013 343.303 75.368 342.47 74.7205C340.808 73.4254 339.182 72.0859 337.593 70.7061C334.411 67.9498 331.345 65.0552 328.484 61.9575L329.053 61.7344L328.932 97.1236L328.923 97.0666C329.136 98.0949 329.066 99.0956 328.86 100.074C328.654 101.049 328.329 101.996 327.889 102.884C327.009 104.657 325.838 106.281 324.447 107.674C323.791 108.409 323.017 109.023 322.304 109.7C321.525 110.298 320.773 110.933 319.973 111.5C319.155 112.043 318.36 112.621 317.524 113.133L314.99 114.628C314.931 114.663 314.853 114.643 314.818 114.584C314.783 114.524 314.802 114.447 314.862 114.412L314.869 114.408L317.38 112.904C318.207 112.388 318.993 111.808 319.801 111.264C320.592 110.695 321.334 110.061 322.102 109.463C322.801 108.788 323.564 108.175 324.207 107.445C325.571 106.061 326.707 104.456 327.552 102.723C327.975 101.857 328.283 100.937 328.475 99.9981C328.67 99.0679 328.716 98.0697 328.527 97.1798L328.522 97.1622L328.518 97.1236L328.396 61.7344C328.396 61.5532 328.542 61.4056 328.724 61.4056C328.818 61.4048 328.906 61.4484 328.966 61.5121C331.825 64.5645 334.894 67.4231 338.077 70.1424C339.668 71.5029 341.294 72.824 342.952 74.0973C343.781 74.7348 344.621 75.3555 345.472 75.9577C346.313 76.534 347.221 77.1723 348.05 77.5355L347.532 77.7804C349.026 73.906 351.143 70.2733 353.847 67.101C355.223 65.5358 356.762 64.1023 358.474 62.8911C360.175 61.6665 362.094 60.7178 364.124 60.1374C366.144 59.5569 368.294 59.2969 370.387 59.484C372.485 59.6308 374.562 60.0736 376.534 60.8051C378.507 61.5331 380.37 62.5397 382.084 63.7475C383.796 64.9713 385.373 66.3251 386.767 67.9708L385.956 67.8643C387.173 66.9265 388.414 65.951 389.481 64.9084L389.518 64.8748L389.545 64.8522C390.143 64.3598 390.762 63.8901 391.342 63.381C391.895 62.8441 392.501 62.3551 393.001 61.7713C394.08 60.6742 394.975 59.4219 395.706 58.1025C396.428 56.7764 396.916 55.3353 397.083 53.8557C397.265 52.3686 397.09 50.8864 396.695 49.3967L396.73 49.4999C395.906 47.6068 394.671 45.9158 393.07 44.6803C392.689 44.3456 392.236 44.1124 391.816 43.8339C391.361 43.6158 390.925 43.3525 390.442 43.1923C389.504 42.8056 388.502 42.5774 387.489 42.444C386.475 42.3115 385.441 42.288 384.414 42.3669C383.389 42.4222 382.374 42.6948 381.352 42.9004C379.286 43.407 377.127 43.9346 374.947 44.177C372.75 44.432 370.537 44.432 368.292 44.0554C367.699 43.9354 367.163 43.7475 366.661 43.5848C366.141 43.412 365.731 43.2988 365.185 43.204C364.146 42.9951 363.102 42.8089 362.055 42.673C359.964 42.387 357.859 42.2704 355.781 42.4147C353.7 42.5623 351.682 43.0228 349.682 43.7089L349.991 42.4013C350.347 42.7141 350.873 43.1319 351.326 43.4909L352.749 44.6006L355.627 46.7831C356.592 47.5019 357.563 48.2141 358.543 48.901C359.515 49.5779 360.53 50.2859 361.485 50.7975L361.422 50.769C362.844 51.3327 364.301 51.7797 365.738 51.9106C367.177 52.0758 368.557 51.6673 370.234 51.4081C371.91 51.1523 373.632 51.3377 375.172 51.565C376.707 51.8066 378.066 51.7638 379.484 51.3259C380.888 50.9015 382.278 50.2179 383.612 49.4789C384.919 48.7584 386.102 47.8215 387.173 46.7713C389.295 44.6719 390.997 41.9945 392.027 39.2491L392.808 40.462C390.494 40.2213 388.187 39.9663 385.877 39.6928L382.41 39.255C381.242 39.0898 380.118 38.948 378.876 38.6746C378.85 38.6687 378.824 38.6611 378.8 38.6527L378.771 38.6418C376.2 37.694 373.473 37.21 370.732 37.1547C367.986 37.122 365.241 37.5296 362.563 38.2577C361.212 38.6033 359.917 39.0998 358.445 39.4605C357.054 39.8329 355.622 40.129 354.187 40.3832C352.749 40.6272 351.29 40.7958 349.814 40.8638C349.075 40.894 348.333 40.9032 347.58 40.8629C347.205 40.8478 346.828 40.8168 346.445 40.7724C346.05 40.7262 345.712 40.6801 345.228 40.5618C344.669 40.4243 344.327 39.8589 344.464 39.2994C344.53 39.0327 344.692 38.8146 344.906 38.6754L344.95 38.6469C347.016 37.3023 349.068 35.8764 351.059 34.4043C352.054 33.667 353.04 32.9163 354 32.1413C354.484 31.7588 354.954 31.3612 355.426 30.967L356.123 30.3655L356.912 29.7281C357.997 28.8994 359.26 28.2149 360.651 27.866C362.038 27.4977 363.52 27.5279 364.879 27.819C366.242 28.0866 367.501 28.6997 368.54 29.005C369.107 29.1787 369.619 29.3003 370.144 29.3464C370.673 29.3942 371.286 29.3858 371.911 29.385L371.522 29.4529C372.656 29.0579 373.793 28.667 374.983 28.365C376.167 28.0539 377.392 27.7989 378.72 27.7611C380.025 27.715 381.564 28.027 382.732 28.7962C383.313 29.1585 383.803 29.5511 384.259 29.9017C384.701 30.2456 385.167 30.5769 385.638 30.9099C387.531 32.2335 389.491 33.5009 391.473 34.6928C393.446 35.8579 395.51 37.0481 397.498 37.7569L395.903 39.2843C395.084 36.1758 394.319 33.0371 393.997 29.8111C393.76 28.2107 393.741 26.5835 393.655 24.9638C393.691 23.3374 393.694 21.7093 393.906 20.0846C394.263 16.8418 395.034 13.6058 396.421 10.5744C397.099 9.05538 397.975 7.60428 399.044 6.2681C399.325 5.94265 399.599 5.61133 399.89 5.29175L400.858 4.39258C401.197 4.10403 401.591 3.85323 401.96 3.58817C402.348 3.33653 402.814 3.14362 403.244 2.93224L403.016 3.04464C405.245 1.74452 407.642 0.583656 410.341 0.155037C413.006 -0.285324 416.013 0.196129 418.333 1.80659C419.505 2.58415 420.468 3.60748 421.276 4.72473C421.678 5.28756 422.02 5.89233 422.32 6.52896C422.45 6.86867 422.609 7.16895 422.709 7.54389L422.862 8.09413C422.907 8.29292 422.929 8.54707 422.953 8.77187C422.984 9.04028 422.958 9.12499 422.96 9.29946L422.949 9.76415L422.927 10.6935L422.881 12.5523L422.777 16.2664C422.629 21.2136 422.397 26.1607 421.988 31.1179C421.784 33.5965 421.523 36.0785 421.117 38.5705C420.915 39.8145 420.657 41.0684 420.311 42.309C419.973 43.5546 419.516 44.744 419.189 45.852L419.182 45.878C419.155 45.9686 419.114 46.0559 419.067 46.1322C416.299 50.4955 413.003 54.3456 409.548 58.0522C406.08 61.742 402.368 65.1969 398.436 68.3927C394.506 71.5893 390.307 74.4823 385.805 76.8678C381.309 79.2273 376.431 81.0944 371.268 81.5717C366.09 82.0506 360.894 80.7908 356.327 78.5412C351.727 76.3041 347.654 73.1931 343.953 69.7683C336.526 62.892 330.545 54.749 324.428 46.8175C324.385 46.763 324.395 46.6841 324.449 46.6413C324.503 46.5986 324.581 46.6086 324.624 46.6606Z" fill="#13564F"/>
</svg>
