<svg width="167" height="87" viewBox="0 0 167 87" fill="none" xmlns="http://www.w3.org/2000/svg">
<path d="M55.1915 76.8907V71.5735H55.8042V73.5363H55.8562C55.9012 73.4671 55.9635 73.3788 56.0431 73.2715C56.1244 73.1624 56.2404 73.0655 56.391 72.9807C56.5433 72.8941 56.7493 72.8509 57.0089 72.8509C57.3447 72.8509 57.6407 72.9348 57.8969 73.1027C58.153 73.2706 58.353 73.5086 58.4966 73.8167C58.6403 74.1248 58.7121 74.4883 58.7121 74.9071C58.7121 75.3295 58.6403 75.6956 58.4966 76.0054C58.353 76.3135 58.1539 76.5524 57.8995 76.722C57.645 76.8899 57.3516 76.9738 57.0193 76.9738C56.7631 76.9738 56.558 76.9314 56.404 76.8466C56.2499 76.7601 56.1314 76.6623 56.0483 76.5532C55.9652 76.4424 55.9012 76.3507 55.8562 76.278H55.7835V76.8907H55.1915ZM55.7938 74.8968C55.7938 75.1979 55.838 75.4636 55.9263 75.6938C56.0145 75.9223 56.1435 76.1015 56.3131 76.2313C56.4827 76.3594 56.6904 76.4234 56.9362 76.4234C57.1924 76.4234 57.4062 76.3559 57.5775 76.2209C57.7506 76.0842 57.8804 75.9007 57.967 75.6705C58.0553 75.4385 58.0994 75.1806 58.0994 74.8968C58.0994 74.6164 58.0561 74.3637 57.9696 74.1386C57.8848 73.9119 57.7558 73.7327 57.5827 73.6012C57.4114 73.4679 57.1959 73.4013 56.9362 73.4013C56.687 73.4013 56.4775 73.4645 56.3079 73.5908C56.1383 73.7154 56.0102 73.8903 55.9237 74.1153C55.8371 74.3386 55.7938 74.5991 55.7938 74.8968ZM61.3214 76.9738C60.9372 76.9738 60.6057 76.889 60.327 76.7194C60.0501 76.548 59.8363 76.3092 59.6857 76.0028C59.5369 75.6947 59.4625 75.3364 59.4625 74.9279C59.4625 74.5194 59.5369 74.1594 59.6857 73.8478C59.8363 73.5346 60.0458 73.2905 60.3141 73.1157C60.5841 72.9391 60.8991 72.8509 61.2591 72.8509C61.4668 72.8509 61.6719 72.8855 61.8745 72.9547C62.077 73.0239 62.2613 73.1365 62.4275 73.2922C62.5936 73.4463 62.7261 73.6505 62.8247 73.905C62.9234 74.1594 62.9727 74.4727 62.9727 74.8448V75.1045H59.8986V74.5748H62.3496C62.3496 74.3498 62.3046 74.149 62.2146 73.9725C62.1263 73.7959 61.9999 73.6566 61.8355 73.5545C61.6728 73.4523 61.4807 73.4013 61.2591 73.4013C61.0151 73.4013 60.8039 73.4619 60.6256 73.583C60.4491 73.7025 60.3132 73.8582 60.218 74.0504C60.1228 74.2425 60.0752 74.4485 60.0752 74.6683V75.0214C60.0752 75.3226 60.1271 75.5779 60.231 75.7873C60.3366 75.995 60.4828 76.1534 60.6698 76.2624C60.8567 76.3697 61.0739 76.4234 61.3214 76.4234C61.4824 76.4234 61.6278 76.4009 61.7576 76.3559C61.8892 76.3092 62.0025 76.2399 62.0977 76.1482C62.1929 76.0547 62.2665 75.9388 62.3184 75.8003L62.9104 75.9665C62.8481 76.1672 62.7434 76.3438 62.5962 76.4961C62.4491 76.6467 62.2674 76.7644 62.051 76.8492C61.8346 76.9323 61.5915 76.9738 61.3214 76.9738ZM65.0783 76.9842C64.8256 76.9842 64.5963 76.9366 64.3903 76.8414C64.1843 76.7445 64.0208 76.6052 63.8996 76.4234C63.7784 76.2399 63.7179 76.0184 63.7179 75.7587C63.7179 75.5303 63.7629 75.3451 63.8529 75.2031C63.9429 75.0595 64.0632 74.947 64.2138 74.8656C64.3643 74.7843 64.5305 74.7237 64.7122 74.6839C64.8957 74.6423 65.0801 74.6094 65.2653 74.5852C65.5076 74.554 65.704 74.5307 65.8546 74.5151C66.007 74.4978 66.1177 74.4692 66.187 74.4294C66.2579 74.3896 66.2934 74.3204 66.2934 74.2217V74.2009C66.2934 73.9448 66.2233 73.7457 66.0831 73.6038C65.9446 73.4619 65.7343 73.3909 65.4522 73.3909C65.1597 73.3909 64.9303 73.4549 64.7642 73.583C64.598 73.7111 64.4812 73.8478 64.4137 73.9932L63.8321 73.7855C63.9359 73.5432 64.0744 73.3545 64.2475 73.2195C64.4223 73.0828 64.6127 72.9876 64.8187 72.9339C65.0264 72.8785 65.2306 72.8509 65.4314 72.8509C65.5595 72.8509 65.7066 72.8664 65.8728 72.8976C66.0407 72.927 66.2025 72.9885 66.3583 73.0819C66.5158 73.1754 66.6465 73.3165 66.7504 73.5051C66.8542 73.6938 66.9061 73.9465 66.9061 74.2633V76.8907H66.2934V76.3507H66.2623C66.2207 76.4373 66.1515 76.5299 66.0546 76.6285C65.9576 76.7272 65.8287 76.8111 65.6677 76.8804C65.5067 76.9496 65.3103 76.9842 65.0783 76.9842ZM65.1718 76.4338C65.4141 76.4338 65.6184 76.3862 65.7845 76.291C65.9524 76.1958 66.0788 76.0729 66.1636 75.9223C66.2501 75.7717 66.2934 75.6134 66.2934 75.4472V74.8864C66.2675 74.9175 66.2103 74.9461 66.1221 74.9721C66.0355 74.9963 65.9351 75.0179 65.8209 75.037C65.7084 75.0543 65.5985 75.0699 65.4911 75.0837C65.3856 75.0958 65.2999 75.1062 65.2341 75.1149C65.0749 75.1356 64.926 75.1694 64.7875 75.2161C64.6508 75.2611 64.54 75.3295 64.4552 75.4212C64.3721 75.5112 64.3306 75.6341 64.3306 75.7899C64.3306 76.0028 64.4093 76.1638 64.5669 76.2728C64.7261 76.3801 64.9277 76.4338 65.1718 76.4338ZM70.5378 75.2603V72.9028H71.1505V76.8907H70.5378V76.2157H70.4962C70.4028 76.4182 70.2574 76.5904 70.06 76.7324C69.8627 76.8726 69.6135 76.9427 69.3123 76.9427C69.0631 76.9427 68.8415 76.8882 68.6476 76.7791C68.4538 76.6683 68.3015 76.5022 68.1907 76.2806C68.0799 76.0573 68.0245 75.7761 68.0245 75.4368V72.9028H68.6373V75.3953C68.6373 75.686 68.7186 75.918 68.8813 76.0911C69.0457 76.2642 69.2552 76.3507 69.5096 76.3507C69.6619 76.3507 69.8169 76.3118 69.9744 76.2339C70.1336 76.156 70.2669 76.0366 70.3742 75.8756C70.4832 75.7146 70.5378 75.5095 70.5378 75.2603ZM74.0071 72.9028V73.422H71.9404V72.9028H74.0071ZM72.5428 71.9473H73.1555V75.7484C73.1555 75.9214 73.1806 76.0513 73.2308 76.1378C73.2827 76.2226 73.3485 76.2797 73.4281 76.3092C73.5095 76.3369 73.5952 76.3507 73.6852 76.3507C73.7527 76.3507 73.8081 76.3472 73.8513 76.3403C73.8946 76.3317 73.9292 76.3247 73.9552 76.3196L74.0798 76.87C74.0383 76.8856 73.9803 76.9011 73.9059 76.9167C73.8314 76.934 73.7371 76.9427 73.6229 76.9427C73.4498 76.9427 73.2801 76.9055 73.114 76.831C72.9495 76.7566 72.8128 76.6432 72.7038 76.4909C72.5964 76.3386 72.5428 76.1465 72.5428 75.9145V71.9473ZM75.3235 78.3862C75.2196 78.3862 75.127 78.3776 75.0457 78.3603C74.9643 78.3447 74.908 78.3291 74.8769 78.3135L75.0327 77.7735C75.1815 77.8116 75.3131 77.8254 75.4273 77.815C75.5415 77.8047 75.6428 77.7536 75.7311 77.6619C75.8211 77.5719 75.9033 77.4256 75.9777 77.2231L76.092 76.9115L74.6173 72.9028H75.2819L76.3828 76.0807H76.4243L77.5251 72.9028H78.1898L76.497 77.4723C76.4208 77.6783 76.3265 77.8488 76.214 77.9838C76.1015 78.1205 75.9708 78.2218 75.822 78.2876C75.6748 78.3533 75.5087 78.3862 75.3235 78.3862ZM83.8797 73.7959L83.3292 73.9517C83.2946 73.86 83.2436 73.7708 83.1761 73.6843C83.1103 73.596 83.0203 73.5233 82.906 73.4662C82.7918 73.4091 82.6455 73.3805 82.4673 73.3805C82.2232 73.3805 82.0198 73.4368 81.8571 73.5493C81.6962 73.66 81.6157 73.8011 81.6157 73.9725C81.6157 74.1248 81.6711 74.2451 81.7818 74.3334C81.8926 74.4216 82.0657 74.4952 82.3011 74.554L82.8931 74.6994C83.2496 74.786 83.5153 74.9184 83.6901 75.0967C83.865 75.2732 83.9524 75.5008 83.9524 75.7795C83.9524 76.008 83.8866 76.2122 83.755 76.3923C83.6252 76.5723 83.4435 76.7142 83.2098 76.818C82.9761 76.9219 82.7044 76.9738 82.3946 76.9738C81.9878 76.9738 81.6512 76.8856 81.3846 76.709C81.118 76.5325 80.9493 76.2746 80.8783 75.9353L81.4599 75.7899C81.5153 76.0045 81.62 76.1655 81.774 76.2728C81.9298 76.3801 82.1332 76.4338 82.3842 76.4338C82.6698 76.4338 82.8965 76.3732 83.0644 76.252C83.234 76.1292 83.3189 75.982 83.3189 75.8107C83.3189 75.6722 83.2704 75.5562 83.1735 75.4628C83.0765 75.3676 82.9277 75.2966 82.7269 75.2499L82.0622 75.0941C81.697 75.0075 81.4287 74.8734 81.2574 74.6917C81.0877 74.5082 81.0029 74.2788 81.0029 74.0036C81.0029 73.7786 81.0661 73.5796 81.1925 73.4065C81.3206 73.2334 81.4945 73.0975 81.7143 72.9988C81.9359 72.9002 82.1869 72.8509 82.4673 72.8509C82.8619 72.8509 83.1717 72.9374 83.3968 73.1105C83.6235 73.2836 83.7845 73.5121 83.8797 73.7959ZM84.8747 78.3862V72.9028H85.4667V73.5363H85.5394C85.5844 73.4671 85.6467 73.3788 85.7263 73.2715C85.8077 73.1624 85.9236 73.0655 86.0742 72.9807C86.2265 72.8941 86.4325 72.8509 86.6921 72.8509C87.0279 72.8509 87.3239 72.9348 87.5801 73.1027C87.8363 73.2706 88.0362 73.5086 88.1798 73.8167C88.3235 74.1248 88.3953 74.4883 88.3953 74.9071C88.3953 75.3295 88.3235 75.6956 88.1798 76.0054C88.0362 76.3135 87.8371 76.5524 87.5827 76.722C87.3282 76.8899 87.0349 76.9738 86.7025 76.9738C86.4464 76.9738 86.2412 76.9314 86.0872 76.8466C85.9332 76.7601 85.8146 76.6623 85.7315 76.5532C85.6484 76.4424 85.5844 76.3507 85.5394 76.278H85.4874V78.3862H84.8747ZM85.4771 74.8968C85.4771 75.1979 85.5212 75.4636 85.6095 75.6938C85.6978 75.9223 85.8267 76.1015 85.9963 76.2313C86.166 76.3594 86.3737 76.4234 86.6194 76.4234C86.8756 76.4234 87.0894 76.3559 87.2607 76.2209C87.4338 76.0842 87.5636 75.9007 87.6502 75.6705C87.7385 75.4385 87.7826 75.1806 87.7826 74.8968C87.7826 74.6164 87.7393 74.3637 87.6528 74.1386C87.568 73.9119 87.439 73.7327 87.2659 73.6012C87.0946 73.4679 86.8791 73.4013 86.6194 73.4013C86.3702 73.4013 86.1608 73.4645 85.9911 73.5908C85.8215 73.7154 85.6934 73.8903 85.6069 74.1153C85.5203 74.3386 85.4771 74.5991 85.4771 74.8968ZM90.5036 76.9842C90.2509 76.9842 90.0215 76.9366 89.8155 76.8414C89.6096 76.7445 89.446 76.6052 89.3248 76.4234C89.2037 76.2399 89.1431 76.0184 89.1431 75.7587C89.1431 75.5303 89.1881 75.3451 89.2781 75.2031C89.3681 75.0595 89.4884 74.947 89.639 74.8656C89.7896 74.7843 89.9557 74.7237 90.1375 74.6839C90.321 74.6423 90.5053 74.6094 90.6905 74.5852C90.9328 74.554 91.1293 74.5307 91.2799 74.5151C91.4322 74.4978 91.543 74.4692 91.6122 74.4294C91.6832 74.3896 91.7186 74.3204 91.7186 74.2217V74.2009C91.7186 73.9448 91.6485 73.7457 91.5083 73.6038C91.3699 73.4619 91.1596 73.3909 90.8774 73.3909C90.5849 73.3909 90.3556 73.4549 90.1894 73.583C90.0232 73.7111 89.9064 73.8478 89.8389 73.9932L89.2573 73.7855C89.3612 73.5432 89.4996 73.3545 89.6727 73.2195C89.8476 73.0828 90.038 72.9876 90.2439 72.9339C90.4516 72.8785 90.6559 72.8509 90.8567 72.8509C90.9847 72.8509 91.1319 72.8664 91.298 72.8976C91.4659 72.927 91.6278 72.9885 91.7836 73.0819C91.9411 73.1754 92.0717 73.3165 92.1756 73.5051C92.2795 73.6938 92.3314 73.9465 92.3314 74.2633V76.8907H91.7186V76.3507H91.6875C91.6459 76.4373 91.5767 76.5299 91.4798 76.6285C91.3829 76.7272 91.2539 76.8111 91.0929 76.8804C90.932 76.9496 90.7355 76.9842 90.5036 76.9842ZM90.597 76.4338C90.8394 76.4338 91.0436 76.3862 91.2098 76.291C91.3777 76.1958 91.504 76.0729 91.5888 75.9223C91.6754 75.7717 91.7186 75.6134 91.7186 75.4472V74.8864C91.6927 74.9175 91.6356 74.9461 91.5473 74.9721C91.4607 74.9963 91.3604 75.0179 91.2461 75.037C91.1336 75.0543 91.0237 75.0699 90.9164 75.0837C90.8108 75.0958 90.7251 75.1062 90.6593 75.1149C90.5001 75.1356 90.3512 75.1694 90.2128 75.2161C90.076 75.2611 89.9653 75.3295 89.8804 75.4212C89.7974 75.5112 89.7558 75.6341 89.7558 75.7899C89.7558 76.0028 89.8346 76.1638 89.9921 76.2728C90.1513 76.3801 90.353 76.4338 90.597 76.4338ZM95.0699 76.9738C94.696 76.9738 94.374 76.8856 94.104 76.709C93.834 76.5325 93.6263 76.2893 93.4809 75.9794C93.3355 75.6696 93.2628 75.3156 93.2628 74.9175C93.2628 74.5125 93.3372 74.1551 93.4861 73.8452C93.6367 73.5337 93.8461 73.2905 94.1144 73.1157C94.3844 72.9391 94.6995 72.8509 95.0595 72.8509C95.3399 72.8509 95.5926 72.9028 95.8176 73.0066C96.0426 73.1105 96.227 73.2559 96.3706 73.4428C96.5143 73.6298 96.6034 73.8478 96.638 74.0971H96.0253C95.9786 73.9154 95.8747 73.7544 95.7138 73.6142C95.5545 73.4722 95.3399 73.4013 95.0699 73.4013C94.831 73.4013 94.6216 73.4636 94.4415 73.5882C94.2633 73.7111 94.1239 73.8851 94.0235 74.1101C93.9249 74.3334 93.8755 74.5956 93.8755 74.8968C93.8755 75.2049 93.924 75.4731 94.0209 75.7016C94.1196 75.9301 94.2581 76.1075 94.4364 76.2339C94.6164 76.3602 94.8275 76.4234 95.0699 76.4234C95.2291 76.4234 95.3736 76.3957 95.5034 76.3403C95.6333 76.2849 95.7432 76.2053 95.8332 76.1015C95.9232 75.9976 95.9872 75.873 96.0253 75.7276H96.638C96.6034 75.963 96.5177 76.175 96.381 76.3637C96.246 76.5506 96.0669 76.6995 95.8436 76.8103C95.622 76.9193 95.3641 76.9738 95.0699 76.9738ZM99.2058 76.9738C98.8216 76.9738 98.4901 76.889 98.2114 76.7194C97.9345 76.548 97.7207 76.3092 97.5701 76.0028C97.4213 75.6947 97.3468 75.3364 97.3468 74.9279C97.3468 74.5194 97.4213 74.1594 97.5701 73.8478C97.7207 73.5346 97.9302 73.2905 98.1984 73.1157C98.4685 72.9391 98.7835 72.8509 99.1435 72.8509C99.3512 72.8509 99.5563 72.8855 99.7588 72.9547C99.9614 73.0239 100.146 73.1365 100.312 73.2922C100.478 73.4463 100.61 73.6505 100.709 73.905C100.808 74.1594 100.857 74.4727 100.857 74.8448V75.1045H97.783V74.5748H100.234C100.234 74.3498 100.189 74.149 100.099 73.9725C100.011 73.7959 99.8843 73.6566 99.7199 73.5545C99.5572 73.4523 99.3651 73.4013 99.1435 73.4013C98.8995 73.4013 98.6883 73.4619 98.51 73.583C98.3335 73.7025 98.1976 73.8582 98.1024 74.0504C98.0072 74.2425 97.9596 74.4485 97.9596 74.6683V75.0214C97.9596 75.3226 98.0115 75.5779 98.1154 75.7873C98.2209 75.995 98.3672 76.1534 98.5541 76.2624C98.7411 76.3697 98.9583 76.4234 99.2058 76.4234C99.3668 76.4234 99.5122 76.4009 99.642 76.3559C99.7735 76.3092 99.8869 76.2399 99.9821 76.1482C100.077 76.0547 100.151 75.9388 100.203 75.8003L100.795 75.9665C100.732 76.1672 100.628 76.3438 100.481 76.4961C100.333 76.6467 100.152 76.7644 99.9354 76.8492C99.719 76.9323 99.4758 76.9738 99.2058 76.9738Z" fill="#828281"/>
<path d="M123.549 23.8511C125.829 26.6631 128.059 29.5445 130.769 31.9312C132.121 33.1159 133.585 34.1852 135.199 34.9419C136.805 35.7004 138.592 36.0954 140.341 35.9046C142.092 35.7144 143.777 35.0437 145.338 34.1904C146.9 33.3261 148.368 32.2853 149.751 31.1436C151.132 29.9992 152.439 28.7599 153.656 27.4404C154.865 26.1203 156.027 24.7293 156.955 23.2322L156.911 23.3334C157.042 22.8772 157.195 22.4716 157.301 22.0596C157.412 21.6474 157.496 21.2248 157.561 20.7934C157.693 19.9316 157.778 19.0522 157.842 18.1695C157.975 16.4038 158.029 14.625 158.084 12.8469L158.118 11.5141L158.132 10.8482L158.139 10.5153L158.143 10.3487C158.142 10.3009 158.15 10.2191 158.14 10.2057C158.133 10.177 158.136 10.1564 158.128 10.1194L158.092 9.99672C158.073 9.91554 158.023 9.82557 157.992 9.73954C157.909 9.56718 157.813 9.39634 157.698 9.237C157.467 8.92196 157.195 8.63146 156.872 8.42033C156.232 7.98412 155.434 7.85235 154.646 7.97927C153.853 8.10589 153.084 8.47212 152.354 8.89985C152.331 8.91348 152.307 8.9256 152.282 8.9362L152.272 8.94044C151.88 9.10341 151.474 9.45147 151.158 9.86102C150.836 10.2687 150.551 10.724 150.332 11.2157C149.88 12.1929 149.616 13.2671 149.492 14.3567C149.418 14.9013 149.416 15.4544 149.4 16.0061C149.429 16.5589 149.431 17.1126 149.512 17.6636C149.617 18.7699 149.879 19.8589 150.158 20.9394L150.164 20.9624C150.225 21.2002 150.082 21.4426 149.844 21.5041C149.754 21.5274 149.663 21.521 149.581 21.4913C148.701 21.1712 147.977 20.7295 147.232 20.2888C146.498 19.8401 145.783 19.3718 145.08 18.8735C144.905 18.7475 144.728 18.6203 144.554 18.483C144.384 18.3498 144.229 18.2265 144.079 18.1323C143.787 17.9423 143.475 17.8772 143.102 17.8793C142.732 17.8863 142.337 17.9614 141.945 18.0629C141.552 18.1595 141.159 18.2916 140.767 18.4252L140.757 18.4282C140.714 18.4431 140.669 18.4497 140.626 18.4494C140.4 18.4473 140.169 18.4515 139.909 18.427C139.648 18.4031 139.392 18.3382 139.165 18.2668C138.677 18.1123 138.312 17.9263 137.914 17.8475C137.13 17.6567 136.345 17.8733 135.694 18.3746L135.45 18.5688L135.186 18.7926C135.009 18.9392 134.833 19.0865 134.652 19.2273C134.293 19.513 133.928 19.7874 133.559 20.0567C132.821 20.5953 132.073 21.1075 131.301 21.6034L131.2 20.9119C131.275 20.93 131.408 20.9543 131.52 20.9664C131.638 20.9806 131.758 20.9915 131.879 20.9973C132.122 21.0121 132.369 21.0106 132.616 21.0021C133.11 20.9824 133.608 20.9288 134.104 20.8482C134.599 20.7631 135.091 20.6656 135.584 20.5368C136.053 20.4275 136.552 20.2433 137.062 20.1152C138.081 19.8438 139.144 19.6893 140.212 19.7081C141.279 19.7344 142.346 19.9298 143.347 20.3051L143.31 20.2936C143.679 20.3769 144.105 20.4366 144.512 20.4953L145.752 20.6583C146.581 20.761 147.412 20.857 148.243 20.9479L148.255 20.9491C148.433 20.9685 148.562 21.1294 148.543 21.3078C148.54 21.3347 148.533 21.3617 148.525 21.3859C148.309 21.9678 148.038 22.4777 147.715 22.9787C147.393 23.474 147.019 23.9389 146.593 24.3552C146.167 24.7696 145.692 25.1418 145.165 25.4296C144.651 25.7095 144.124 25.9685 143.54 26.143C143.249 26.229 142.939 26.2857 142.626 26.3002C142.313 26.3157 142.005 26.2808 141.72 26.2408C141.154 26.1548 140.63 26.0991 140.104 26.1754C139.84 26.2099 139.566 26.2739 139.268 26.3193C138.97 26.3656 138.652 26.3814 138.345 26.3514C137.729 26.2914 137.158 26.1066 136.616 25.8901L136.609 25.8873L136.593 25.8798C136.169 25.6492 135.822 25.3975 135.457 25.1431C135.098 24.888 134.746 24.6266 134.395 24.363L133.352 23.5633L132.835 23.1556C132.658 23.0126 132.503 22.8942 132.306 22.7164C132.193 22.614 132.184 22.4392 132.286 22.3256C132.319 22.2895 132.359 22.2638 132.402 22.2493L132.418 22.2438C133.165 21.9909 133.963 21.8118 134.762 21.7606C135.562 21.7088 136.359 21.7585 137.141 21.8694C137.532 21.9224 137.92 21.9936 138.305 22.0733C138.491 22.1051 138.718 22.1669 138.898 22.2296C139.085 22.292 139.259 22.3522 139.425 22.3865C140.146 22.5104 140.915 22.5198 141.664 22.4349C142.421 22.3541 143.155 22.1793 143.917 21.9966C144.308 21.9191 144.696 21.8185 145.104 21.7973C145.507 21.7682 145.914 21.7794 146.317 21.8343C146.719 21.8891 147.121 21.983 147.5 22.1408C147.694 22.2075 147.872 22.3135 148.056 22.4043C148.228 22.5176 148.41 22.6155 148.565 22.7515C149.216 23.2583 149.707 23.9459 150.024 24.6866C150.029 24.6981 150.033 24.7123 150.036 24.7241C150.184 25.2869 150.257 25.9055 150.179 26.5029C150.109 27.1023 149.908 27.6803 149.621 28.2004C149.332 28.7187 148.979 29.1998 148.566 29.6148C148.373 29.8365 148.144 30.0189 147.933 30.2203C147.713 30.4108 147.481 30.5853 147.255 30.7683L147.278 30.748C146.852 31.1572 146.407 31.4992 145.952 31.8467C145.863 31.9142 145.738 31.9003 145.666 31.817L145.659 31.8082C144.731 30.7277 143.505 29.8383 142.157 29.3258C141.481 29.0698 140.769 28.9132 140.049 28.8578C139.327 28.7881 138.605 28.8726 137.914 29.0653C136.516 29.4436 135.32 30.3715 134.351 31.4505C133.396 32.5546 132.637 33.8344 132.101 35.1973L132.096 35.2112C132.068 35.2812 131.989 35.3157 131.919 35.2882L131.914 35.2857C131.519 35.1104 131.23 34.8883 130.909 34.6699C130.599 34.4473 130.294 34.2186 129.994 33.9847C129.393 33.517 128.806 33.0332 128.232 32.5349C127.083 31.5395 125.976 30.4941 124.943 29.3755L125.148 29.2949L125.104 42.0754L125.101 42.0548C125.178 42.4262 125.153 42.7876 125.079 43.1411C125.004 43.4931 124.886 43.8351 124.728 44.1556C124.41 44.7959 123.987 45.3827 123.485 45.8855C123.248 46.1512 122.968 46.3729 122.711 46.6174C122.429 46.8334 122.158 47.0627 121.869 47.2675C121.573 47.4634 121.286 47.6722 120.985 47.8572L120.069 48.397C120.048 48.4098 120.02 48.4025 120.007 48.381C119.995 48.3595 120.002 48.3316 120.023 48.3189L120.026 48.3174L120.932 47.7742C121.231 47.5879 121.515 47.3786 121.807 47.182C122.093 46.9767 122.36 46.7476 122.638 46.5317C122.89 46.2878 123.166 46.0664 123.398 45.8028C123.89 45.303 124.301 44.7235 124.606 44.0977C124.759 43.7848 124.87 43.4525 124.939 43.1135C125.01 42.7776 125.026 42.4171 124.958 42.0957L124.956 42.0893L124.955 42.0754L124.911 29.2949C124.911 29.2295 124.964 29.1761 125.029 29.1761C125.063 29.1758 125.095 29.1916 125.117 29.2146C126.149 30.3169 127.257 31.3493 128.407 32.3314C128.982 32.8227 129.569 33.2998 130.168 33.7596C130.467 33.9898 130.77 34.214 131.078 34.4315C131.381 34.6396 131.709 34.8701 132.009 35.0013L131.822 35.0898C132.361 33.6906 133.126 32.3786 134.102 31.233C134.599 30.6677 135.155 30.15 135.773 29.7126C136.387 29.2703 137.081 28.9277 137.814 28.7181C138.543 28.5085 139.32 28.4146 140.076 28.4821C140.833 28.5352 141.583 28.6951 142.296 28.9592C143.008 29.2222 143.681 29.5857 144.3 30.0219C144.918 30.4639 145.487 30.9528 145.991 31.5471L145.698 31.5086C146.138 31.17 146.586 30.8177 146.971 30.4411L146.985 30.429L146.994 30.4208C147.21 30.243 147.434 30.0734 147.643 29.8895C147.843 29.6956 148.062 29.519 148.242 29.3082C148.632 28.912 148.955 28.4597 149.219 27.9832C149.48 27.5043 149.656 26.9839 149.717 26.4495C149.782 25.9125 149.719 25.3772 149.576 24.8392L149.589 24.8765C149.292 24.1928 148.846 23.5821 148.267 23.1359C148.13 23.015 147.966 22.9308 147.815 22.8303C147.65 22.7515 147.493 22.6564 147.318 22.5985C146.98 22.4589 146.618 22.3765 146.252 22.3283C145.886 22.2805 145.512 22.272 145.141 22.3004C144.771 22.3204 144.405 22.4189 144.036 22.4931C143.289 22.6761 142.51 22.8666 141.722 22.9541C140.929 23.0462 140.13 23.0462 139.319 22.9102C139.105 22.8669 138.911 22.7991 138.73 22.7403C138.542 22.6779 138.394 22.637 138.197 22.6028C137.821 22.5273 137.445 22.4601 137.067 22.411C136.311 22.3077 135.551 22.2656 134.801 22.3177C134.049 22.371 133.32 22.5373 132.598 22.7851L132.71 22.3129C132.838 22.4259 133.028 22.5767 133.192 22.7064L133.706 23.1071L134.745 23.8953C135.094 24.1549 135.444 24.4121 135.798 24.6602C136.149 24.9047 136.516 25.1603 136.861 25.3451L136.838 25.3348C137.351 25.5384 137.878 25.6998 138.397 25.7471C138.916 25.8068 139.415 25.6592 140.02 25.5656C140.626 25.4732 141.248 25.5402 141.804 25.6223C142.358 25.7095 142.849 25.6941 143.361 25.5359C143.868 25.3827 144.37 25.1358 144.852 24.8689C145.324 24.6087 145.751 24.2703 146.138 23.8911C146.904 23.1329 147.519 22.1659 147.891 21.1745L148.173 21.6125C147.337 21.5256 146.504 21.4335 145.67 21.3347L144.418 21.1766C143.996 21.1169 143.59 21.0657 143.141 20.967C143.132 20.9649 143.123 20.9621 143.114 20.9591L143.104 20.9552C142.175 20.6129 141.19 20.4381 140.2 20.4181C139.209 20.4063 138.217 20.5535 137.25 20.8164C136.762 20.9412 136.294 21.1206 135.763 21.2508C135.26 21.3853 134.743 21.4923 134.225 21.584C133.706 21.6722 133.179 21.7331 132.646 21.7576C132.379 21.7685 132.111 21.7719 131.839 21.7573C131.704 21.7519 131.567 21.7407 131.429 21.7246C131.286 21.7079 131.164 21.6913 130.99 21.6486C130.788 21.5989 130.664 21.3947 130.714 21.1927C130.737 21.0963 130.796 21.0176 130.873 20.9673L130.889 20.957C131.635 20.4714 132.376 19.9564 133.095 19.4248C133.455 19.1586 133.811 18.8874 134.158 18.6075C134.332 18.4694 134.502 18.3258 134.672 18.1835L134.924 17.9663L135.209 17.736C135.601 17.4368 136.057 17.1896 136.56 17.0636C137.061 16.9306 137.596 16.9415 138.086 17.0466C138.579 17.1432 139.033 17.3647 139.408 17.4749C139.613 17.5376 139.798 17.5816 139.988 17.5982C140.179 17.6155 140.4 17.6124 140.626 17.6121L140.485 17.6367C140.895 17.494 141.306 17.3528 141.736 17.2438C142.163 17.1314 142.606 17.0393 143.085 17.0257C143.556 17.009 144.112 17.1217 144.534 17.3995C144.744 17.5304 144.921 17.6721 145.085 17.7987C145.245 17.9229 145.413 18.0426 145.583 18.1629C146.267 18.6409 146.975 19.0986 147.691 19.529C148.403 19.9498 149.149 20.3796 149.867 20.6356L149.29 21.1872C148.995 20.0646 148.718 18.9311 148.602 17.766C148.516 17.1881 148.51 16.6004 148.479 16.0155C148.492 15.4281 148.493 14.8401 148.569 14.2534C148.698 13.0823 148.977 11.9136 149.478 10.8189C149.722 10.2703 150.039 9.74621 150.425 9.26366C150.526 9.14612 150.625 9.02647 150.73 8.91106L151.08 8.58633C151.202 8.48212 151.345 8.39154 151.478 8.29582C151.618 8.20494 151.786 8.13528 151.942 8.05894L151.859 8.09953C152.664 7.63 153.53 7.21077 154.505 7.05597C155.467 6.89694 156.553 7.07081 157.391 7.65242C157.814 7.93323 158.162 8.30279 158.454 8.70628C158.599 8.90954 158.722 9.12795 158.831 9.35786C158.878 9.48055 158.935 9.58899 158.971 9.7244L159.027 9.92311C159.043 9.99491 159.051 10.0867 159.059 10.1679C159.07 10.2648 159.061 10.2954 159.062 10.3584L159.058 10.5262L159.05 10.8619L159.033 11.5331L158.996 12.8745C158.942 14.6611 158.859 16.4477 158.711 18.238C158.637 19.1331 158.543 20.0295 158.396 20.9294C158.323 21.3787 158.23 21.8315 158.105 22.2795C157.983 22.7294 157.818 23.1589 157.7 23.5591L157.697 23.5685C157.688 23.6012 157.673 23.6327 157.656 23.6603C156.656 25.236 155.466 26.6265 154.218 27.9651C152.966 29.2976 151.625 30.5453 150.205 31.6995C148.786 32.8539 147.27 33.8987 145.643 34.7602C144.02 35.6123 142.258 36.2866 140.394 36.459C138.524 36.6319 136.647 36.1769 134.998 35.3645C133.337 34.5566 131.866 33.4331 130.529 32.1963C127.847 29.7129 125.687 26.7722 123.478 23.9077C123.462 23.8881 123.466 23.8596 123.485 23.8441C123.505 23.8287 123.533 23.8323 123.549 23.8511Z" fill="#468D46"/>
<path d="M124.845 53.0906C125.671 53.947 126.381 54.8951 127.112 55.8239C127.836 56.7587 128.56 57.6923 129.299 58.6132C130.038 59.535 130.802 60.4346 131.589 61.3119C132.391 62.1749 133.211 63.0225 134.108 63.7798C134.328 63.9743 134.567 64.1424 134.796 64.3251C134.913 64.4126 135.024 64.5092 135.146 64.5889L135.513 64.8264L135.879 65.0642C136 65.1454 136.137 65.1987 136.265 65.2674L137.053 65.6609C138.101 66.1789 139.212 66.5615 140.356 66.766C141.498 66.9798 142.675 66.9777 143.807 66.763C144.939 66.5467 146.021 66.1011 146.996 65.4843L146.955 65.517C147.303 65.1757 147.644 64.8627 147.976 64.5295C148.303 64.196 148.628 63.8589 148.932 63.5044C149.547 62.8011 150.112 62.0547 150.627 61.2753C151.146 60.4986 151.606 59.6828 152.02 58.8446C152.445 58.0116 152.791 57.141 153.126 56.268C153.13 56.258 153.134 56.2477 153.139 56.2383C153.845 54.7858 154.637 53.3124 155.796 52.0958C156.374 51.4921 157.051 50.9538 157.838 50.597C158.621 50.2362 159.512 50.0908 160.377 50.1753L160.013 50.6533C159.298 48.8828 158.644 47.0925 158.036 45.2847C157.429 43.4759 156.875 41.6487 156.398 39.7967C155.926 37.9443 155.514 36.0698 155.278 34.1569C155.158 33.2012 155.077 32.237 155.065 31.2637C155.053 30.291 155.117 29.3056 155.33 28.3281L156.2 28.6568C155.817 29.2908 155.401 29.7897 154.979 30.3168C154.556 30.832 154.126 31.3379 153.69 31.838C152.823 32.8413 151.929 33.8173 151.03 34.7867C150.129 35.7572 149.229 36.7178 148.309 37.6774C147.845 38.1558 147.369 38.6238 146.875 39.0757L146.136 39.737C146.017 39.8409 145.904 39.9524 145.793 40.0663C145.679 40.1765 145.571 40.2938 145.465 40.4143C143.752 42.3285 142.663 44.7712 141.961 47.2794C141.811 47.9155 141.636 48.5471 141.523 49.1933C141.464 49.5156 141.389 49.8358 141.342 50.1605L141.201 51.1356C141.149 51.4603 141.117 51.7875 141.088 52.1152L140.996 53.0982C140.952 53.7546 140.925 54.4132 140.888 55.0723C140.888 55.0975 140.866 55.1172 140.842 55.1166C140.818 55.1157 140.799 55.0957 140.797 55.0723C140.722 52.4306 140.924 49.7661 141.511 47.1646C141.83 45.8705 142.24 44.5931 142.794 43.3696L143.003 42.9113L143.237 42.4639C143.387 42.1628 143.559 41.8726 143.736 41.5845C143.902 41.2907 144.107 41.0199 144.294 40.7372C144.502 40.4695 144.702 40.1947 144.93 39.9415C145.04 39.8112 145.153 39.6837 145.274 39.5619C145.391 39.4374 145.511 39.3147 145.639 39.1984L146.362 38.5262C146.834 38.077 147.291 37.6108 147.737 37.1328C148.626 36.1692 149.512 35.1853 150.389 34.2038C151.264 33.2188 152.137 32.2312 152.996 31.237C153.424 30.7393 153.847 30.2374 154.259 29.7306C154.66 29.2269 155.082 28.6989 155.378 28.2003L155.383 28.1936C155.516 27.9701 155.805 27.8967 156.028 28.0297C156.204 28.1351 156.287 28.3384 156.248 28.5289C155.885 30.3007 155.97 32.194 156.183 34.0466C156.403 35.9069 156.774 37.7583 157.218 39.5916C157.664 41.4255 158.189 43.2433 158.767 45.0448C159.345 46.8456 159.972 48.6341 160.663 50.3934C160.734 50.574 160.645 50.7781 160.465 50.849C160.411 50.8702 160.353 50.8769 160.3 50.8714C159.554 50.7936 158.8 50.9072 158.113 51.2134C157.424 51.5164 156.806 51.9919 156.264 52.5469C155.721 53.1034 155.249 53.7389 154.827 54.4083C154.404 55.0787 154.037 55.7842 153.674 56.5058L153.687 56.4761C153.336 57.3655 152.972 58.2515 152.528 59.1003C152.095 59.9536 151.615 60.7842 151.075 61.5748C150.539 62.3682 149.951 63.1276 149.314 63.8419C148.998 64.2018 148.662 64.5435 148.323 64.8809C147.984 65.215 147.625 65.5383 147.294 65.856L147.288 65.8618C147.278 65.8718 147.265 65.8815 147.253 65.8887C146.224 66.5255 145.079 66.9856 143.886 67.194C142.694 67.403 141.465 67.3858 140.286 67.1483C139.104 66.9202 137.965 66.5088 136.902 65.9642L136.109 65.5546C135.978 65.4819 135.838 65.4244 135.715 65.3389L135.341 65.0893L134.967 64.8394C134.843 64.7558 134.731 64.6558 134.613 64.565C134.382 64.3756 134.14 64.1999 133.92 63.9997C132.131 62.4215 130.611 60.5913 129.151 58.7313C128.423 57.7986 127.711 56.8538 127.001 55.9093C126.284 54.9715 125.586 54.0133 124.781 53.1549L124.779 53.1533C124.762 53.1349 124.763 53.1061 124.781 53.0891C124.799 53.0722 124.828 53.0728 124.845 53.0906Z" fill="#468D46"/>
<path d="M36.2082 32.4681C36.2415 31.8901 36.2506 31.4905 36.2339 31.2691C36.216 31.0483 36.123 30.802 35.9531 30.5294C35.5451 29.849 34.9326 29.7815 34.1165 30.3252C33.6061 30.6315 32.9763 31.2267 32.2284 32.1109C31.4802 32.9957 30.698 34.0329 29.8814 35.2234C29.0653 36.4142 28.2489 37.7065 27.4326 39.1008C26.6162 40.4961 25.8843 41.8737 25.2385 43.2336C24.49 44.8663 23.7757 46.5932 23.0956 48.4126C22.415 50.2325 21.82 52.0013 21.3099 53.7185C20.7998 55.4367 20.3993 57.0437 20.1107 58.5404C19.8214 60.0372 19.6772 61.2619 19.6772 62.2139V63.438L20.2385 62.622C20.4084 62.4181 20.7656 61.8998 21.3099 61.0656C21.8534 60.2325 22.4659 59.3232 23.1468 58.3363C24.6087 56.1255 26.0119 53.8973 27.3559 51.6523C28.6994 49.4074 29.9326 47.2476 31.0549 45.1722C32.1775 43.0981 33.1472 41.1846 33.9632 39.4325C34.7796 37.681 35.3921 36.1758 35.8001 34.9172C35.868 34.6451 35.9531 34.2626 36.0552 33.7691C36.1573 33.2766 36.2082 32.8428 36.2082 32.4681ZM33.504 29.1008C34.2186 28.7612 34.8562 28.6413 35.4175 28.7433C35.9785 28.8454 36.4378 29.1435 36.7949 29.6364C37.1521 30.1298 37.3641 30.7762 37.4329 31.5753C37.5007 32.3748 37.415 33.2844 37.1775 34.3047C36.8713 35.5636 36.2848 37.1621 35.4175 39.1008C34.55 41.0398 33.4613 43.2002 32.1521 45.5806C30.8422 47.9618 29.3537 50.5218 27.6876 53.2596C26.0206 55.998 24.2349 58.7955 22.3305 61.6523L19.9831 65.1217L20.4424 66.0916C21.0882 67.2482 21.9221 67.8262 22.9427 67.8262C23.7587 67.8262 24.7029 67.4357 25.7744 66.6523C26.8458 65.8708 28.198 64.6461 29.8305 62.9788C30.443 62.3672 30.9867 61.8398 31.4632 61.3973C31.9391 60.9556 32.2111 60.7342 32.2796 60.7342C32.7558 60.7342 32.7721 61.0656 32.3305 61.7293C31.8882 62.3927 30.9186 63.4723 29.4224 64.9693C27.9939 66.3973 26.7949 67.4357 25.8256 68.0812C24.8559 68.7273 23.8778 69.0509 22.8915 69.0509C21.5308 69.0839 20.3403 68.3532 19.32 66.8565C19.2513 66.7547 19.1925 66.6866 19.1413 66.6523C19.0904 66.6193 19.0138 66.6523 18.9117 66.7547C18.8096 66.8565 18.6569 67.0352 18.4528 67.2903C18.2486 67.5456 17.976 67.9107 17.6361 68.3878C16.8879 69.4077 16.0712 70.4873 15.187 71.6275C14.3025 72.7665 13.444 73.8467 12.6107 74.8672C11.777 75.8872 11.0112 76.7808 10.3148 77.5457C9.6172 78.3111 9.09829 78.8294 8.75872 79.1018C7.7715 79.8839 7.05752 79.9863 6.61586 79.4083C6.13876 78.864 6.22418 76.3637 6.87061 71.908C7.10841 70.139 7.33772 68.5404 7.55946 67.1122C7.78029 65.6833 7.98445 64.2886 8.17166 62.9279C8.35826 61.5678 8.54577 60.1817 8.73297 58.77C8.91957 57.3587 9.13222 55.7684 9.37062 53.9993C9.50633 53.013 9.65142 51.9162 9.8044 50.7084C9.95768 49.5013 10.1273 48.2769 10.3148 47.0349C10.5014 45.7935 10.6798 44.5858 10.8504 43.4123C11.0203 42.2388 11.1733 41.2103 11.3096 40.3252C11.445 39.4413 11.5728 38.5652 11.6922 37.698C11.8109 36.8304 11.9218 36.0316 12.0239 35.2998C12.126 34.5688 12.2105 33.9221 12.279 33.3608C12.3468 32.7998 12.381 32.4002 12.381 32.1618C12.4486 31.2437 12.5422 30.6233 12.6618 30.2998C12.7803 29.9765 12.976 29.9002 13.2483 30.0701C13.4858 30.2404 13.6479 30.6315 13.7333 31.2437C13.8178 31.8559 13.7842 32.9957 13.6312 34.6618C13.4782 36.3288 13.1974 38.6416 12.7891 41.6008C12.381 44.5603 11.8197 48.438 11.1054 53.2339C10.3912 58.0642 9.8044 62.0352 9.34517 65.1471C8.88625 68.2599 8.5288 70.7342 8.27374 72.5711C8.01868 74.4083 7.84026 75.7169 7.73818 76.4997C7.63609 77.2818 7.5852 77.741 7.5852 77.8777V78.4384L8.70752 77.316C9.14918 76.908 9.70232 76.3216 10.3657 75.5561C11.0291 74.7903 11.7258 73.9567 12.4577 73.0558C13.1886 72.154 13.9284 71.227 14.6772 70.275C15.4251 69.3226 16.0882 68.4462 16.6668 67.6474C17.2447 66.8489 17.7127 66.1855 18.0699 65.6578C18.4273 65.1308 18.5882 64.816 18.5549 64.7136C18.5203 64.6461 18.4782 64.4165 18.4273 64.0248C18.3761 63.6343 18.3507 63.2009 18.3507 62.7238C18.2144 60.6833 18.5458 58.0985 19.3455 54.9687C20.1446 51.8395 21.3099 48.4889 22.8406 44.9175C23.5885 43.1493 24.4479 41.3888 25.4172 39.6367C26.3866 37.8852 27.3559 36.2949 28.3256 34.866C29.2949 33.4374 30.23 32.213 31.1315 31.1925C32.0324 30.1722 32.8233 29.4752 33.504 29.1008Z" fill="#444444"/>
<path d="M59.4022 39.9844C57.8031 41.9231 56.137 44.0408 54.4022 46.3367C52.6673 48.6328 51.017 50.9032 49.4528 53.1481C47.8879 55.3931 46.4684 57.5026 45.1928 59.4749C43.9172 61.4482 42.9563 63.0806 42.3099 64.3726C41.2893 66.3458 40.6859 68.0037 40.4987 69.3477C40.3118 70.6909 40.5754 71.3628 41.2893 71.3628C41.5956 71.3628 42.0545 71.2098 42.667 70.9038C43.2792 70.5973 43.9938 70.1553 44.8099 69.5773C45.6263 68.9982 46.5359 68.3093 47.5398 67.5108C48.5425 66.712 49.606 65.8193 50.7283 64.8324C51.6804 63.9821 52.4798 63.2757 53.1266 62.715C53.7724 62.1534 54.3083 61.7032 54.7339 61.3624C55.1586 61.0229 55.4815 60.7933 55.7032 60.6736C55.924 60.5549 56.0682 60.5128 56.137 60.5464C56.3066 60.6145 56.3918 60.699 56.3918 60.8014C56.3918 60.836 56.0682 61.1507 55.4224 61.745C54.776 62.3409 53.9938 63.0552 53.0754 63.8882C52.1572 64.7224 51.1958 65.5718 50.1928 66.4394C49.1889 67.3067 48.3304 68.0467 47.6161 68.6586C45.6772 70.2913 44.1468 71.3706 43.0245 71.8983C41.9019 72.4254 41.001 72.5023 40.32 72.1285C39.5721 71.7535 39.2404 70.8696 39.3252 69.475C39.4103 68.08 39.8783 66.4482 40.7283 64.5767C41.2727 63.3869 42.1312 61.8474 43.3047 59.9596C44.4782 58.0718 45.8216 56.0395 47.3356 53.8624C48.8487 51.686 50.4733 49.4577 52.2081 47.1785C53.9429 44.9002 55.6435 42.7571 57.3105 40.7496C58.0581 39.8315 58.6537 39.1172 59.0959 38.6068C59.5376 38.0969 59.8781 37.714 60.1165 37.459C60.3543 37.2036 60.5327 37.0594 60.6523 37.0252C60.7711 36.9916 60.8819 36.9916 60.984 37.0252C61.2557 37.1273 61.2812 37.3823 61.0607 37.7907C60.8386 38.1987 60.2864 38.9306 59.4022 39.9844Z" fill="#444444"/>
<path d="M83.7078 59.8158C82.7897 61.3125 82.143 62.639 81.7692 63.7952C81.2584 65.428 81.2763 66.2616 81.82 66.2955C82.0921 66.364 82.5855 66.1853 83.2995 65.7594C84.0138 65.3347 84.8302 64.7821 85.7483 64.1015C88.7415 61.8232 90.323 60.7176 90.4933 60.7848C90.8328 60.9554 90.5956 61.3292 89.7793 61.9071C89.5751 62.0783 89.2183 62.367 88.7078 62.7747C88.1977 63.1827 87.7043 63.5744 87.2281 63.9485C85.2549 65.5476 83.8014 66.5427 82.866 66.9332C81.9306 67.3243 81.2418 67.2646 80.7992 66.7545C80.154 65.9051 80.3324 64.3738 81.3354 62.1628C82.3383 59.9518 84.1325 57.1116 86.7183 53.6419C87.0921 53.1315 87.415 52.6899 87.6873 52.3155C87.9593 51.9413 88.0784 51.7375 88.0445 51.7029C87.7718 51.7375 87.5004 51.7717 87.2281 51.805C86.9555 51.8393 86.6749 51.8738 86.3863 51.9071C86.097 51.9413 85.7656 51.9759 85.3918 52.0092C84.5409 52.1113 83.8611 52.1964 83.3504 52.2643C82.8406 52.3327 82.4398 52.3663 82.1517 52.3663C81.8631 52.3663 81.6668 52.3497 81.565 52.3155C81.4626 52.2818 81.4117 52.2306 81.4117 52.1622C81.4117 51.9922 81.701 51.8393 82.279 51.7029C82.8569 51.5675 83.8941 51.4146 85.3918 51.244C86.0715 51.1419 86.7004 51.0571 87.279 50.989C87.8569 50.9208 88.2144 50.8699 88.3504 50.8357C88.4528 50.8357 88.5627 50.7933 88.6824 50.7082C88.8011 50.6236 88.9629 50.4619 89.1668 50.2232C89.3709 49.9857 89.626 49.671 89.9326 49.2796C90.2385 48.8888 90.6296 48.3699 91.1058 47.7235C91.7519 46.8735 92.338 46.0738 92.8663 45.3256C93.3931 44.5777 93.7248 44.1184 93.8611 43.9479C94.1332 43.5062 94.3628 43.2254 94.5497 43.1058C94.7366 42.9873 94.9147 42.9958 95.0858 43.1312C95.1531 43.2 95.1704 43.3021 95.1367 43.4375C95.1022 43.5738 94.9916 43.7946 94.8053 44.1009C94.6178 44.4068 94.3373 44.8327 93.9632 45.3762C93.5882 45.9208 93.0784 46.6354 92.4323 47.5193C91.7861 48.4044 91.3008 49.0675 90.9785 49.5092C90.655 49.9515 90.5193 50.2489 90.5702 50.4019C90.6211 50.5549 90.8843 50.6149 91.3614 50.5806C91.837 50.5473 92.5683 50.4785 93.5552 50.3765C95.1873 50.2068 96.3015 50.1132 96.8967 50.096C97.4919 50.0793 97.7894 50.1556 97.7894 50.3253C97.7894 50.4274 97.764 50.504 97.7131 50.5549C97.6622 50.6061 97.4919 50.657 97.2033 50.7082C96.914 50.759 96.4629 50.8187 95.8507 50.8869C95.2388 50.955 94.3716 51.0399 93.2486 51.1419L89.4733 51.55L87.6364 53.9991C85.9355 56.3803 84.626 58.319 83.7078 59.8158Z" fill="#444444"/>
<path d="M77.7388 56.6521C77.8064 56.5843 77.8921 56.4568 77.9939 56.2696C78.0963 56.083 78.2144 55.9042 78.351 55.734L78.7594 55.0194L78.0963 55.4277C77.5171 55.7682 76.9225 56.1596 76.31 56.6013C75.6978 57.0435 75.0344 57.5539 74.3204 58.1319C73.6061 58.7105 72.8227 59.3905 71.9733 60.1727C71.1224 60.9554 70.1361 61.8563 69.0138 62.8769C68.1293 63.6935 67.3384 64.3999 66.6413 64.9946C65.9443 65.5895 65.5445 65.9049 65.4427 65.9382C64.8302 66.0748 64.5239 65.8534 64.5239 65.2748C64.5239 64.6968 64.8556 63.8462 65.519 62.7236C66.1824 61.6013 67.143 60.2578 68.4016 58.6929C68.912 58.0132 69.2861 57.5539 69.5245 57.3152C69.7617 57.0778 69.9659 56.9757 70.1361 57.0096C70.5102 57.0778 70.629 57.3077 70.4936 57.6984C70.3576 58.0895 69.8983 58.7953 69.1162 59.8158C68.6736 60.3944 68.2565 60.9636 67.866 61.5249C67.4744 62.0859 67.1342 62.5794 66.8455 63.0041C66.5568 63.43 66.3272 63.7699 66.157 64.0246C65.987 64.2797 65.9189 64.4075 65.9528 64.4075C65.987 64.4075 66.2254 64.2212 66.6668 63.8462C67.1087 63.4721 67.6189 63.0132 68.1974 62.4688C69.3204 61.415 70.3233 60.4962 71.2076 59.7135C72.0921 58.9313 72.8915 58.2516 73.6061 57.673C74.3204 57.0947 74.9835 56.5843 75.596 56.142C76.2082 55.7004 76.8028 55.3087 77.3814 54.9685C78.8103 54.1188 79.5751 54.0501 79.6775 54.7647C79.7108 54.9349 79.703 55.1136 79.6521 55.3002C79.6012 55.4874 79.49 55.734 79.3204 56.0399C79.1498 56.3459 78.912 56.7464 78.6061 57.2389C78.2998 57.7327 77.9251 58.3361 77.4838 59.0504C76.9734 59.8328 76.565 60.4708 76.2591 60.9636C75.9531 61.4571 75.6978 61.8818 75.4936 62.2392C75.2894 62.5967 75.1192 62.9278 74.9835 63.2343C74.8475 63.5403 74.6942 63.8974 74.5245 64.3057C74.2516 64.9861 74.082 65.6322 74.0144 66.2447C73.9457 66.8563 73.9802 67.248 74.1162 67.4179C74.3204 67.5876 74.7451 67.4355 75.3918 66.9587C76.0373 66.4825 77.143 65.4968 78.7079 63.9992C79.5924 63.1828 80.383 62.4434 81.0803 61.78C81.7774 61.1169 82.1603 60.7849 82.2287 60.7849C82.3305 60.7849 82.4153 60.8873 82.4838 61.0914C82.5174 61.1932 82.2796 61.508 81.7698 62.035C81.2591 62.5627 80.5106 63.3025 79.5246 64.2542C78.6394 65.1051 77.9176 65.7849 77.3559 66.2953C76.7946 66.8054 76.3266 67.2059 75.9531 67.4943C75.5781 67.783 75.2722 67.9793 75.0344 68.081C74.796 68.1834 74.5754 68.2343 74.3713 68.2343C73.9287 68.2343 73.6061 68.1319 73.4022 67.9278C73.0269 67.52 72.9088 66.7979 73.0448 65.7595C73.1802 64.7223 73.5376 63.6087 74.1162 62.4179C74.218 62.1801 74.4303 61.7891 74.7539 61.2441C75.0771 60.7004 75.4254 60.1306 75.8001 59.5347C76.1739 58.9401 76.5396 58.3788 76.897 57.8511C77.2542 57.3243 77.5347 56.9248 77.7388 56.6521Z" fill="#444444"/>
<path d="M107.687 56.6521C107.755 56.5843 107.84 56.4568 107.943 56.2696C108.045 56.083 108.163 55.9042 108.299 55.734L108.708 55.0194L108.045 55.4277C107.466 55.7682 106.871 56.1596 106.259 56.6013C105.647 57.0435 104.983 57.5539 104.269 58.1319C103.554 58.7105 102.772 59.3905 101.922 60.1727C101.071 60.9554 100.085 61.8563 98.9628 62.8769C98.0777 63.6935 97.2867 64.3999 96.5903 64.9946C95.8933 65.5895 95.4934 65.9049 95.3911 65.9382C94.7789 66.0748 94.4729 65.8534 94.4729 65.2748C94.4729 64.6968 94.8043 63.8462 95.4674 62.7236C96.1314 61.6013 97.0913 60.2578 98.3506 58.6929C98.8604 58.0132 99.2345 57.5539 99.4729 57.3152C99.7107 57.0778 99.9149 56.9757 100.085 57.0096C100.459 57.0778 100.578 57.3077 100.443 57.6984C100.306 58.0895 99.8467 58.7953 99.0646 59.8158C98.622 60.3944 98.2055 60.9636 97.8144 61.5249C97.4233 62.0859 97.0826 62.5794 96.7945 63.0041C96.5058 63.43 96.2762 63.7699 96.1053 64.0246C95.9354 64.2797 95.8678 64.4075 95.9012 64.4075C95.9354 64.4075 96.1738 64.2212 96.6158 63.8462C97.0571 63.4721 97.5678 63.0132 98.1464 62.4688C99.2687 61.415 100.272 60.4962 101.157 59.7135C102.04 58.9313 102.84 58.2516 103.554 57.673C104.269 57.0947 104.932 56.5843 105.544 56.142C106.157 55.7004 106.751 55.3087 107.33 54.9685C108.759 54.1188 109.524 54.0501 109.626 54.7647C109.66 54.9349 109.652 55.1136 109.6 55.3002C109.55 55.4874 109.439 55.734 109.269 56.0399C109.098 56.3459 108.861 56.7464 108.554 57.2389C108.249 57.7327 107.874 58.3361 107.432 59.0504C106.922 59.8328 106.514 60.4708 106.207 60.9636C105.901 61.4571 105.647 61.8818 105.443 62.2392C105.238 62.5967 105.068 62.9278 104.932 63.2343C104.796 63.5403 104.643 63.8974 104.473 64.3057C104.201 64.9861 104.031 65.6322 103.963 66.2447C103.894 66.8563 103.929 67.248 104.065 67.4179C104.269 67.5876 104.694 67.4355 105.34 66.9587C105.986 66.4825 107.092 65.4968 108.657 63.9992C109.541 63.1828 110.332 62.4434 111.029 61.78C111.726 61.1169 112.109 60.7849 112.177 60.7849C112.279 60.7849 112.364 60.8873 112.432 61.0914C112.466 61.1932 112.229 61.508 111.718 62.035C111.208 62.5627 110.459 63.3025 109.473 64.2542C108.588 65.1051 107.866 65.7849 107.305 66.2953C106.744 66.8054 106.276 67.2059 105.901 67.4943C105.527 67.783 105.221 67.9793 104.983 68.081C104.745 68.1834 104.524 68.2343 104.32 68.2343C103.878 68.2343 103.554 68.1319 103.351 67.9278C102.976 67.52 102.857 66.7979 102.993 65.7595C103.129 64.7223 103.486 63.6087 104.065 62.4179C104.167 62.1801 104.379 61.7891 104.702 61.2441C105.025 60.7004 105.374 60.1306 105.749 59.5347C106.122 58.9401 106.489 58.3788 106.845 57.8511C107.203 57.3243 107.483 56.9248 107.687 56.6521Z" fill="#444444"/>
<path d="M94.0646 56.1422C93.7244 56.4824 93.4948 56.6866 93.3761 56.7544C93.2564 56.8229 93.0777 56.8053 92.8399 56.7035C92.4655 56.6015 92.5506 56.1253 93.0956 55.2747C93.367 54.8666 93.5878 54.6204 93.7587 54.5349C93.9286 54.4504 94.1328 54.4759 94.3712 54.6113C94.8468 54.8497 94.7444 55.3601 94.0646 56.1422ZM91.7685 60.9384C91.3941 61.4482 91.0036 62.044 90.5953 62.7238C90.1869 63.4047 89.9491 63.9318 89.881 64.3059C89.7789 64.578 89.7368 64.7821 89.7535 64.9175C89.771 65.0541 89.8131 65.1559 89.881 65.2241C90.1533 65.4967 90.714 65.3774 91.5643 64.8666C92.4146 64.3568 93.6393 63.4214 95.2384 62.0607C96.2584 61.211 96.8536 60.8193 97.0242 60.8875C97.1938 60.9217 97.2789 61.0068 97.2789 61.1422C97.2789 61.1768 97.1341 61.3294 96.8454 61.6015C96.5561 61.8741 96.1987 62.1882 95.774 62.5451C95.3478 62.9025 94.8976 63.2854 94.4221 63.6934C93.945 64.1018 93.503 64.4586 93.0956 64.7649C92.4146 65.275 91.8963 65.6324 91.5389 65.8363C91.182 66.0405 90.7994 66.1765 90.3911 66.2446C89.9491 66.3464 89.5747 66.2446 89.2688 65.9381C89.031 65.7342 88.8859 65.5643 88.835 65.4283C88.7835 65.2929 88.7581 65.0199 88.7581 64.6116C88.7581 64.0336 88.9204 63.3617 89.2433 62.5966C89.5669 61.8311 90.0006 61.0913 90.5444 60.3768C91.3601 59.2887 91.9726 58.9485 92.3807 59.3562C92.5506 59.5271 92.5849 59.7137 92.4831 59.9175C92.3807 60.1217 92.1423 60.4619 91.7685 60.9384Z" fill="#444444"/>
<path d="M31.4627 64.8667C32.1427 64.3911 32.7895 63.8295 33.4014 63.1827C34.0139 62.5375 34.5494 61.8996 35.0087 61.2695C35.4682 60.6406 35.8417 60.0708 36.1313 59.5601C36.4197 59.0503 36.5814 58.6598 36.616 58.3869C36.1059 58.3869 35.5358 58.6165 34.9066 59.0757C34.2768 59.5347 33.6904 60.1051 33.1466 60.7848C32.602 61.4658 32.1597 62.1801 31.8201 62.928C31.4806 63.6762 31.3606 64.3229 31.4627 64.8667ZM37.2282 66.4488C36.6493 66.1765 36.3097 65.7085 36.2076 65.0454C36.1059 64.382 36.1059 63.7107 36.2076 63.0304C36.3433 62.2137 36.5814 61.3292 36.9219 60.3768C36.9555 60.275 36.9047 60.318 36.7692 60.5046C36.6326 60.6915 36.4454 60.9472 36.2076 61.2695C35.9695 61.593 35.6887 61.9671 35.3661 62.3924C35.042 62.8177 34.677 63.2342 34.2689 63.642C33.7588 64.1527 33.3505 64.5525 33.0445 64.8412C32.7383 65.1305 32.4999 65.3435 32.3299 65.4789C32.1597 65.6152 32.0064 65.7009 31.871 65.7339C31.7353 65.7685 31.599 65.7848 31.4627 65.7848C30.9868 65.7848 30.6639 65.6921 30.4933 65.5043C30.3234 65.318 30.2383 64.9518 30.2383 64.4075C30.2725 63.7277 30.553 62.9113 31.0801 61.9586C31.6078 61.0069 32.2957 60.0881 33.1466 59.2036C33.5547 58.7952 33.963 58.4214 34.371 58.0813C34.7791 57.7417 35.0677 57.5196 35.2383 57.4176C35.7142 57.1801 36.1646 57.0604 36.5905 57.0604C37.0152 57.0604 37.3472 57.1967 37.5853 57.4688C37.7895 57.6393 37.917 57.7156 37.9682 57.6984C38.0191 57.6811 38.1291 57.5539 38.2996 57.3155C38.9454 56.5336 39.388 56.0232 39.6261 55.7848C39.8636 55.5473 40.0677 55.4277 40.2386 55.4277C40.5782 55.4277 40.7233 55.5985 40.6721 55.9381C40.6212 56.2783 40.374 56.8738 39.9323 57.7238C39.4558 58.5402 39.0305 59.3738 38.6567 60.2241C38.2823 61.0741 37.9846 61.8563 37.764 62.5705C37.5423 63.2851 37.4069 63.9058 37.3557 64.4329C37.3048 64.9609 37.3636 65.3259 37.5344 65.5298C37.874 65.6667 38.2566 65.6322 38.6825 65.4283C39.1072 65.2241 39.5664 64.91 40.0599 64.4838C40.5527 64.0591 41.055 63.5656 41.5651 63.0043C42.0752 62.4433 42.5681 61.8741 43.0445 61.2955C43.3166 60.9217 43.5804 60.7085 43.8358 60.6576C44.0908 60.6064 44.2181 60.7339 44.2181 61.0399C44.2181 61.1423 44.0987 61.3552 43.8612 61.6778C43.6228 62.0014 43.3254 62.3752 42.9679 62.8008C42.6111 63.2261 42.2285 63.6508 41.8201 64.0758C41.4121 64.5017 41.055 64.8667 40.7487 65.1732C40.2041 65.6152 39.6773 65.9814 39.1672 66.2701C38.6567 66.5594 38.2654 66.6866 37.9937 66.6524C37.9249 66.6524 37.8149 66.6357 37.662 66.6015C37.509 66.5682 37.3636 66.5167 37.2282 66.4488Z" fill="#444444"/>
<path d="M111.513 64.8667C112.193 64.3911 112.84 63.8295 113.452 63.1827C114.064 62.5375 114.6 61.8996 115.059 61.2695C115.519 60.6406 115.892 60.0708 116.182 59.5601C116.47 59.0503 116.632 58.6598 116.667 58.3869C116.156 58.3869 115.586 58.6165 114.957 59.0757C114.327 59.5347 113.741 60.1051 113.197 60.7848C112.652 61.4658 112.21 62.1801 111.871 62.928C111.531 63.6762 111.411 64.3229 111.513 64.8667ZM117.279 66.4488C116.7 66.1765 116.36 65.7085 116.258 65.0454C116.156 64.382 116.156 63.7107 116.258 63.0304C116.394 62.2137 116.632 61.3292 116.972 60.3768C117.006 60.275 116.955 60.318 116.82 60.5046C116.683 60.6915 116.496 60.9472 116.258 61.2695C116.02 61.593 115.739 61.9671 115.416 62.3924C115.093 62.8177 114.728 63.2342 114.32 63.642C113.809 64.1527 113.401 64.5525 113.095 64.8412C112.789 65.1305 112.55 65.3435 112.381 65.4789C112.21 65.6152 112.057 65.7009 111.922 65.7339C111.786 65.7685 111.649 65.7848 111.513 65.7848C111.037 65.7848 110.714 65.6921 110.544 65.5043C110.374 65.318 110.289 64.9518 110.289 64.4075C110.323 63.7277 110.603 62.9113 111.13 61.9586C111.658 61.0069 112.346 60.0881 113.197 59.2036C113.605 58.7952 114.014 58.4214 114.421 58.0813C114.829 57.7417 115.118 57.5196 115.289 57.4176C115.765 57.1801 116.215 57.0604 116.641 57.0604C117.066 57.0604 117.398 57.1967 117.636 57.4688C117.84 57.6393 117.968 57.7156 118.019 57.6984C118.069 57.6811 118.179 57.5539 118.35 57.3155C118.996 56.5336 119.438 56.0232 119.677 55.7848C119.914 55.5473 120.118 55.4277 120.289 55.4277C120.629 55.4277 120.774 55.5985 120.723 55.9381C120.672 56.2783 120.425 56.8738 119.983 57.7238C119.506 58.5402 119.081 59.3738 118.707 60.2241C118.333 61.0741 118.035 61.8563 117.814 62.5705C117.593 63.2851 117.457 63.9058 117.406 64.4329C117.355 64.9609 117.414 65.3259 117.585 65.5298C117.924 65.6667 118.307 65.6322 118.733 65.4283C119.158 65.2241 119.617 64.91 120.11 64.4838C120.603 64.0591 121.106 63.5656 121.616 63.0043C122.125 62.4433 122.618 61.8741 123.095 61.2955C123.367 60.9217 123.631 60.7085 123.886 60.6576C124.141 60.6064 124.268 60.7339 124.268 61.0399C124.268 61.1423 124.149 61.3552 123.912 61.6778C123.673 62.0014 123.376 62.3752 123.018 62.8008C122.662 63.2261 122.279 63.6508 121.87 64.0758C121.462 64.5017 121.106 64.8667 120.799 65.1732C120.255 65.6152 119.728 65.9814 119.218 66.2701C118.707 66.5594 118.316 66.6866 118.044 66.6524C117.975 66.6524 117.865 66.6357 117.713 66.6015C117.559 66.5682 117.414 66.5167 117.279 66.4488Z" fill="#444444"/>
<path d="M57.228 62.1629C57.228 62.5031 57.806 62.299 58.9628 61.5507C59.5408 61.1766 60.0509 60.7595 60.4932 60.3006C60.9348 59.8414 61.259 59.3906 61.4625 58.9487C61.8024 58.0984 61.5816 57.8772 60.7994 58.2847C60.4932 58.4213 60.1363 58.6675 59.728 59.025C59.3197 59.3821 58.9283 59.7644 58.5545 60.1728C58.1801 60.5808 57.8656 60.9725 57.6109 61.3466C57.3555 61.721 57.228 61.993 57.228 62.1629ZM62.3304 59.5094C62.1595 59.8847 61.9133 60.2579 61.5903 60.6317C61.2665 61.007 60.893 61.372 60.4677 61.7292C60.0421 62.086 59.6005 62.4095 59.1412 62.6985C58.6823 62.9878 58.2482 63.2007 57.8402 63.3362L57.0238 63.6421L57.4322 63.9487C57.9759 64.3909 58.9374 64.433 60.3148 64.0756C61.6924 63.719 63.2997 62.9787 65.1363 61.8564C65.8846 61.3808 66.4122 61.0579 66.7182 60.8873C67.0238 60.7177 67.211 60.7683 67.2795 61.04C67.3128 61.1088 67.1683 61.2784 66.8457 61.5507C66.5216 61.8234 66.1139 62.1293 65.6213 62.4689C65.1276 62.8091 64.6008 63.1499 64.0392 63.4894C63.4782 63.8296 62.9759 64.1016 62.5342 64.3058C61.4119 64.8844 60.2893 65.2494 59.1667 65.4027C58.0444 65.5554 57.1938 65.479 56.6158 65.1734C56.2075 64.901 55.9191 64.6036 55.7482 64.2798C55.5786 63.9574 55.4932 63.5067 55.4932 62.9278C55.5277 61.6013 56.2075 60.2751 57.5342 58.9487C58.8941 57.6216 60.1018 56.9418 61.1569 56.9076C61.8709 56.8055 62.3467 57.0097 62.5854 57.5195C62.8229 58.0296 62.7381 58.693 62.3304 59.5094Z" fill="#444444"/>
</svg>
