<svg width="155" height="73" viewBox="0 0 155 73" fill="none" xmlns="http://www.w3.org/2000/svg">
<path d="M48.8792 69.8907V64.5735H49.492V66.5363H49.5439C49.5889 66.4671 49.6512 66.3788 49.7308 66.2715C49.8122 66.1624 49.9282 66.0655 50.0787 65.9807C50.2311 65.8941 50.437 65.8509 50.6967 65.8509C51.0325 65.8509 51.3284 65.9348 51.5846 66.1027C51.8408 66.2706 52.0407 66.5086 52.1844 66.8167C52.328 67.1248 52.3999 67.4883 52.3999 67.9071C52.3999 68.3295 52.328 68.6956 52.1844 69.0054C52.0407 69.3135 51.8417 69.5524 51.5872 69.722C51.3328 69.8899 51.0394 69.9738 50.7071 69.9738C50.4509 69.9738 50.2458 69.9314 50.0917 69.8466C49.9377 69.7601 49.8191 69.6623 49.736 69.5532C49.6529 69.4424 49.5889 69.3507 49.5439 69.278H49.4712V69.8907H48.8792ZM49.4816 67.8968C49.4816 68.1979 49.5257 68.4636 49.614 68.6938C49.7023 68.9223 49.8312 69.1015 50.0009 69.2313C50.1705 69.3594 50.3782 69.4234 50.624 69.4234C50.8801 69.4234 51.0939 69.3559 51.2653 69.2209C51.4384 69.0842 51.5682 68.9007 51.6547 68.6705C51.743 68.4385 51.7871 68.1806 51.7871 67.8968C51.7871 67.6164 51.7439 67.3637 51.6573 67.1386C51.5725 66.9119 51.4436 66.7327 51.2705 66.6012C51.0991 66.4679 50.8836 66.4013 50.624 66.4013C50.3747 66.4013 50.1653 66.4645 49.9957 66.5908C49.826 66.7154 49.698 66.8903 49.6114 67.1153C49.5249 67.3386 49.4816 67.5991 49.4816 67.8968ZM55.0092 69.9738C54.6249 69.9738 54.2935 69.889 54.0148 69.7194C53.7378 69.548 53.5241 69.3092 53.3735 69.0028C53.2246 68.6947 53.1502 68.3364 53.1502 67.9279C53.1502 67.5194 53.2246 67.1594 53.3735 66.8478C53.5241 66.5346 53.7335 66.2905 54.0018 66.1157C54.2718 65.9391 54.5868 65.8509 54.9469 65.8509C55.1546 65.8509 55.3597 65.8855 55.5622 65.9547C55.7647 66.0239 55.9491 66.1365 56.1152 66.2922C56.2814 66.4463 56.4138 66.6505 56.5125 66.905C56.6111 67.1594 56.6604 67.4727 56.6604 67.8448V68.1045H53.5864V67.5748H56.0373C56.0373 67.3498 55.9923 67.149 55.9023 66.9725C55.814 66.7959 55.6877 66.6566 55.5233 66.5545C55.3606 66.4523 55.1684 66.4013 54.9469 66.4013C54.7028 66.4013 54.4916 66.4619 54.3134 66.583C54.1368 66.7025 54.0009 66.8582 53.9057 67.0504C53.8105 67.2425 53.7629 67.4485 53.7629 67.6683V68.0214C53.7629 68.3226 53.8149 68.5779 53.9187 68.7873C54.0243 68.995 54.1706 69.1534 54.3575 69.2624C54.5444 69.3697 54.7617 69.4234 55.0092 69.4234C55.1702 69.4234 55.3155 69.4009 55.4454 69.3559C55.5769 69.3092 55.6903 69.2399 55.7855 69.1482C55.8807 69.0547 55.9542 68.9388 56.0062 68.8003L56.5981 68.9665C56.5358 69.1672 56.4311 69.3438 56.284 69.4961C56.1369 69.6467 55.9551 69.7644 55.7388 69.8492C55.5224 69.9323 55.2792 69.9738 55.0092 69.9738ZM58.7661 69.9842C58.5134 69.9842 58.284 69.9366 58.078 69.8414C57.8721 69.7445 57.7085 69.6052 57.5873 69.4234C57.4662 69.2399 57.4056 69.0184 57.4056 68.7587C57.4056 68.5303 57.4506 68.3451 57.5406 68.2031C57.6306 68.0595 57.7509 67.947 57.9015 67.8656C58.0521 67.7843 58.2182 67.7237 58.4 67.6839C58.5835 67.6423 58.7678 67.6094 58.953 67.5852C59.1953 67.554 59.3918 67.5307 59.5424 67.5151C59.6947 67.4978 59.8055 67.4692 59.8747 67.4294C59.9457 67.3896 59.9812 67.3204 59.9812 67.2217V67.2009C59.9812 66.9448 59.9111 66.7457 59.7709 66.6038C59.6324 66.4619 59.4221 66.3909 59.1399 66.3909C58.8474 66.3909 58.6181 66.4549 58.4519 66.583C58.2858 66.7111 58.1689 66.8478 58.1014 66.9932L57.5198 66.7855C57.6237 66.5432 57.7622 66.3545 57.9352 66.2195C58.1101 66.0828 58.3005 65.9876 58.5064 65.9339C58.7141 65.8785 58.9184 65.8509 59.1192 65.8509C59.2473 65.8509 59.3944 65.8664 59.5606 65.8976C59.7284 65.927 59.8903 65.9885 60.0461 66.0819C60.2036 66.1754 60.3343 66.3165 60.4381 66.5051C60.542 66.6938 60.5939 66.9465 60.5939 67.2633V69.8907H59.9812V69.3507H59.95C59.9085 69.4373 59.8392 69.5299 59.7423 69.6285C59.6454 69.7272 59.5164 69.8111 59.3554 69.8804C59.1945 69.9496 58.998 69.9842 58.7661 69.9842ZM58.8595 69.4338C59.1019 69.4338 59.3061 69.3862 59.4723 69.291C59.6402 69.1958 59.7665 69.0729 59.8513 68.9223C59.9379 68.7717 59.9812 68.6134 59.9812 68.4472V67.8864C59.9552 67.9175 59.8981 67.9461 59.8098 67.9721C59.7233 67.9963 59.6229 68.0179 59.5086 68.037C59.3961 68.0543 59.2862 68.0699 59.1789 68.0837C59.0733 68.0958 58.9876 68.1062 58.9219 68.1149C58.7626 68.1356 58.6138 68.1694 58.4753 68.2161C58.3385 68.2611 58.2278 68.3295 58.143 68.4212C58.0599 68.5112 58.0183 68.6341 58.0183 68.7899C58.0183 69.0028 58.0971 69.1638 58.2546 69.2728C58.4138 69.3801 58.6155 69.4338 58.8595 69.4338ZM64.2255 68.2603V65.9028H64.8382V69.8907H64.2255V69.2157H64.184C64.0905 69.4182 63.9451 69.5904 63.7478 69.7324C63.5505 69.8726 63.3012 69.9427 63 69.9427C62.7508 69.9427 62.5292 69.8882 62.3354 69.7791C62.1415 69.6683 61.9892 69.5022 61.8784 69.2806C61.7677 69.0573 61.7123 68.7761 61.7123 68.4368V65.9028H62.325V68.3953C62.325 68.686 62.4063 68.918 62.5691 69.0911C62.7335 69.2642 62.9429 69.3507 63.1974 69.3507C63.3497 69.3507 63.5046 69.3118 63.6621 69.2339C63.8213 69.156 63.9546 69.0366 64.0619 68.8756C64.171 68.7146 64.2255 68.5095 64.2255 68.2603ZM67.6949 65.9028V66.422H65.6282V65.9028H67.6949ZM66.2305 64.9473H66.8433V68.7484C66.8433 68.9214 66.8684 69.0513 66.9186 69.1378C66.9705 69.2226 67.0363 69.2797 67.1159 69.3092C67.1972 69.3369 67.2829 69.3507 67.3729 69.3507C67.4404 69.3507 67.4958 69.3472 67.5391 69.3403C67.5824 69.3317 67.617 69.3247 67.6429 69.3196L67.7676 69.87C67.726 69.8856 67.668 69.9011 67.5936 69.9167C67.5192 69.934 67.4248 69.9427 67.3106 69.9427C67.1375 69.9427 66.9679 69.9055 66.8017 69.831C66.6373 69.7566 66.5005 69.6432 66.3915 69.4909C66.2842 69.3386 66.2305 69.1465 66.2305 68.9145V64.9473ZM69.0112 71.3862C68.9073 71.3862 68.8147 71.3776 68.7334 71.3603C68.652 71.3447 68.5958 71.3291 68.5646 71.3135L68.7204 70.7735C68.8693 70.8116 69.0008 70.8254 69.1151 70.815C69.2293 70.8047 69.3306 70.7536 69.4188 70.6619C69.5088 70.5719 69.591 70.4256 69.6655 70.2231L69.7797 69.9115L68.305 65.9028H68.9697L70.0705 69.0807H70.112L71.2129 65.9028H71.8776L70.1847 70.4723C70.1086 70.6783 70.0143 70.8488 69.9017 70.9838C69.7892 71.1205 69.6586 71.2218 69.5097 71.2876C69.3626 71.3533 69.1964 71.3862 69.0112 71.3862ZM77.5674 66.7959L77.017 66.9517C76.9824 66.86 76.9313 66.7708 76.8638 66.6843C76.798 66.596 76.708 66.5233 76.5938 66.4662C76.4796 66.4091 76.3333 66.3805 76.155 66.3805C75.911 66.3805 75.7076 66.4368 75.5449 66.5493C75.3839 66.66 75.3034 66.8011 75.3034 66.9725C75.3034 67.1248 75.3588 67.2451 75.4696 67.3334C75.5804 67.4216 75.7534 67.4952 75.9888 67.554L76.5808 67.6994C76.9374 67.786 77.2031 67.9184 77.3779 68.0967C77.5527 68.2732 77.6401 68.5008 77.6401 68.7795C77.6401 69.008 77.5743 69.2122 77.4428 69.3923C77.313 69.5723 77.1312 69.7142 76.8976 69.818C76.6639 69.9219 76.3921 69.9738 76.0823 69.9738C75.6756 69.9738 75.3389 69.8856 75.0723 69.709C74.8058 69.5325 74.637 69.2746 74.5661 68.9353L75.1476 68.7899C75.203 69.0045 75.3077 69.1655 75.4618 69.2728C75.6176 69.3801 75.8209 69.4338 76.0719 69.4338C76.3575 69.4338 76.5843 69.3732 76.7522 69.252C76.9218 69.1292 77.0066 68.982 77.0066 68.8107C77.0066 68.6722 76.9581 68.5562 76.8612 68.4628C76.7643 68.3676 76.6154 68.2966 76.4146 68.2499L75.75 68.0941C75.3848 68.0075 75.1165 67.8734 74.9451 67.6917C74.7755 67.5082 74.6907 67.2788 74.6907 67.0036C74.6907 66.7786 74.7539 66.5796 74.8802 66.4065C75.0083 66.2334 75.1823 66.0975 75.4021 65.9988C75.6236 65.9002 75.8746 65.8509 76.155 65.8509C76.5497 65.8509 76.8595 65.9374 77.0845 66.1105C77.3112 66.2836 77.4722 66.5121 77.5674 66.7959ZM78.5625 71.3862V65.9028H79.1544V66.5363H79.2271C79.2721 66.4671 79.3344 66.3788 79.4141 66.2715C79.4954 66.1624 79.6114 66.0655 79.762 65.9807C79.9143 65.8941 80.1203 65.8509 80.3799 65.8509C80.7157 65.8509 81.0117 65.9348 81.2678 66.1027C81.524 66.2706 81.7239 66.5086 81.8676 66.8167C82.0113 67.1248 82.0831 67.4883 82.0831 67.9071C82.0831 68.3295 82.0113 68.6956 81.8676 69.0054C81.7239 69.3135 81.5249 69.5524 81.2704 69.722C81.016 69.8899 80.7226 69.9738 80.3903 69.9738C80.1341 69.9738 79.929 69.9314 79.7749 69.8466C79.6209 69.7601 79.5023 69.6623 79.4192 69.5532C79.3362 69.4424 79.2721 69.3507 79.2271 69.278H79.1752V71.3862H78.5625ZM79.1648 67.8968C79.1648 68.1979 79.2089 68.4636 79.2972 68.6938C79.3855 68.9223 79.5144 69.1015 79.6841 69.2313C79.8537 69.3594 80.0614 69.4234 80.3072 69.4234C80.5634 69.4234 80.7771 69.3559 80.9485 69.2209C81.1216 69.0842 81.2514 68.9007 81.3379 68.6705C81.4262 68.4385 81.4703 68.1806 81.4703 67.8968C81.4703 67.6164 81.4271 67.3637 81.3405 67.1386C81.2557 66.9119 81.1268 66.7327 80.9537 66.6012C80.7823 66.4679 80.5668 66.4013 80.3072 66.4013C80.0579 66.4013 79.8485 66.4645 79.6789 66.5908C79.5093 66.7154 79.3812 66.8903 79.2946 67.1153C79.2081 67.3386 79.1648 67.5991 79.1648 67.8968ZM84.1913 69.9842C83.9386 69.9842 83.7093 69.9366 83.5033 69.8414C83.2973 69.7445 83.1337 69.6052 83.0126 69.4234C82.8914 69.2399 82.8308 69.0184 82.8308 68.7587C82.8308 68.5303 82.8758 68.3451 82.9658 68.2031C83.0558 68.0595 83.1761 67.947 83.3267 67.8656C83.4773 67.7843 83.6435 67.7237 83.8252 67.6839C84.0087 67.6423 84.193 67.6094 84.3782 67.5852C84.6206 67.554 84.817 67.5307 84.9676 67.5151C85.1199 67.4978 85.2307 67.4692 85.2999 67.4294C85.3709 67.3896 85.4064 67.3204 85.4064 67.2217V67.2009C85.4064 66.9448 85.3363 66.7457 85.1961 66.6038C85.0576 66.4619 84.8473 66.3909 84.5652 66.3909C84.2727 66.3909 84.0433 66.4549 83.8771 66.583C83.711 66.7111 83.5941 66.8478 83.5266 66.9932L82.9451 66.7855C83.0489 66.5432 83.1874 66.3545 83.3605 66.2195C83.5353 66.0828 83.7257 65.9876 83.9317 65.9339C84.1394 65.8785 84.3436 65.8509 84.5444 65.8509C84.6725 65.8509 84.8196 65.8664 84.9858 65.8976C85.1537 65.927 85.3155 65.9885 85.4713 66.0819C85.6288 66.1754 85.7595 66.3165 85.8633 66.5051C85.9672 66.6938 86.0191 66.9465 86.0191 67.2633V69.8907H85.4064V69.3507H85.3752C85.3337 69.4373 85.2645 69.5299 85.1675 69.6285C85.0706 69.7272 84.9416 69.8111 84.7807 69.8804C84.6197 69.9496 84.4232 69.9842 84.1913 69.9842ZM84.2848 69.4338C84.5271 69.4338 84.7313 69.3862 84.8975 69.291C85.0654 69.1958 85.1918 69.0729 85.2766 68.9223C85.3631 68.7717 85.4064 68.6134 85.4064 68.4472V67.8864C85.3804 67.9175 85.3233 67.9461 85.235 67.9721C85.1485 67.9963 85.0481 68.0179 84.9339 68.037C84.8213 68.0543 84.7114 68.0699 84.6041 68.0837C84.4985 68.0958 84.4129 68.1062 84.3471 68.1149C84.1878 68.1356 84.039 68.1694 83.9005 68.2161C83.7638 68.2611 83.653 68.3295 83.5682 68.4212C83.4851 68.5112 83.4436 68.6341 83.4436 68.7899C83.4436 69.0028 83.5223 69.1638 83.6798 69.2728C83.8391 69.3801 84.0407 69.4338 84.2848 69.4338ZM88.7576 69.9738C88.3837 69.9738 88.0618 69.8856 87.7918 69.709C87.5218 69.5325 87.314 69.2893 87.1687 68.9794C87.0233 68.6696 86.9506 68.3156 86.9506 67.9175C86.9506 67.5125 87.025 67.1551 87.1738 66.8452C87.3244 66.5337 87.5339 66.2905 87.8022 66.1157C88.0722 65.9391 88.3872 65.8509 88.7472 65.8509C89.0276 65.8509 89.2803 65.9028 89.5053 66.0066C89.7304 66.1105 89.9147 66.2559 90.0584 66.4428C90.202 66.6298 90.2912 66.8478 90.3258 67.0971H89.7131C89.6663 66.9154 89.5625 66.7544 89.4015 66.6142C89.2423 66.4722 89.0276 66.4013 88.7576 66.4013C88.5187 66.4013 88.3093 66.4636 88.1293 66.5882C87.951 66.7111 87.8117 66.8851 87.7113 67.1101C87.6126 67.3334 87.5633 67.5956 87.5633 67.8968C87.5633 68.2049 87.6118 68.4731 87.7087 68.7016C87.8073 68.9301 87.9458 69.1075 88.1241 69.2339C88.3041 69.3602 88.5153 69.4234 88.7576 69.4234C88.9168 69.4234 89.0614 69.3957 89.1912 69.3403C89.321 69.2849 89.4309 69.2053 89.5209 69.1015C89.6109 68.9976 89.675 68.873 89.7131 68.7276H90.3258C90.2912 68.963 90.2055 69.175 90.0688 69.3637C89.9337 69.5506 89.7546 69.6995 89.5313 69.8103C89.3098 69.9193 89.0519 69.9738 88.7576 69.9738ZM92.8936 69.9738C92.5093 69.9738 92.1778 69.889 91.8992 69.7194C91.6222 69.548 91.4085 69.3092 91.2579 69.0028C91.109 68.6947 91.0346 68.3364 91.0346 67.9279C91.0346 67.5194 91.109 67.1594 91.2579 66.8478C91.4085 66.5346 91.6179 66.2905 91.8862 66.1157C92.1562 65.9391 92.4712 65.8509 92.8313 65.8509C93.039 65.8509 93.2441 65.8855 93.4466 65.9547C93.6491 66.0239 93.8334 66.1365 93.9996 66.2922C94.1658 66.4463 94.2982 66.6505 94.3968 66.905C94.4955 67.1594 94.5448 67.4727 94.5448 67.8448V68.1045H91.4708V67.5748H93.9217C93.9217 67.3498 93.8767 67.149 93.7867 66.9725C93.6984 66.7959 93.5721 66.6566 93.4076 66.5545C93.2449 66.4523 93.0528 66.4013 92.8313 66.4013C92.5872 66.4013 92.376 66.4619 92.1977 66.583C92.0212 66.7025 91.8853 66.8582 91.7901 67.0504C91.6949 67.2425 91.6473 67.4485 91.6473 67.6683V68.0214C91.6473 68.3226 91.6992 68.5779 91.8031 68.7873C91.9087 68.995 92.0549 69.1534 92.2419 69.2624C92.4288 69.3697 92.646 69.4234 92.8936 69.4234C93.0545 69.4234 93.1999 69.4009 93.3297 69.3559C93.4613 69.3092 93.5747 69.2399 93.6699 69.1482C93.7651 69.0547 93.8386 68.9388 93.8906 68.8003L94.4825 68.9665C94.4202 69.1672 94.3155 69.3438 94.1684 69.4961C94.0212 69.6467 93.8395 69.7644 93.6231 69.8492C93.4068 69.9323 93.1636 69.9738 92.8936 69.9738Z" fill="white"/>
<path d="M117.236 16.8511C119.516 19.6631 121.747 22.5445 124.456 24.9312C125.808 26.1159 127.272 27.1852 128.886 27.9419C130.492 28.7004 132.279 29.0954 134.028 28.9046C135.78 28.7144 137.465 28.0437 139.026 27.1904C140.588 26.3261 142.055 25.2853 143.438 24.1436C144.82 22.9992 146.126 21.7599 147.343 20.4404C148.553 19.1203 149.715 17.7293 150.643 16.2322L150.598 16.3334C150.73 15.8772 150.882 15.4716 150.989 15.0596C151.099 14.6474 151.183 14.2248 151.249 13.7934C151.381 12.9316 151.466 12.0522 151.53 11.1695C151.663 9.4038 151.717 7.62505 151.771 5.8469L151.805 4.51405L151.819 3.84823L151.827 3.51532L151.83 3.34872C151.83 3.30086 151.837 3.21907 151.828 3.20574C151.82 3.17696 151.823 3.15636 151.815 3.1194L151.779 2.99672C151.76 2.91554 151.711 2.82557 151.68 2.73954C151.597 2.56718 151.501 2.39634 151.386 2.237C151.155 1.92196 150.882 1.63146 150.559 1.42033C149.92 0.984119 149.122 0.852348 148.334 0.979271C147.54 1.10589 146.772 1.47212 146.042 1.89985C146.019 1.91348 145.994 1.9256 145.97 1.9362L145.96 1.94044C145.568 2.10341 145.162 2.45147 144.846 2.86102C144.523 3.26875 144.238 3.72404 144.019 4.21568C143.567 5.1929 143.303 6.26706 143.179 7.35666C143.105 7.90131 143.104 8.45444 143.088 9.00606C143.117 9.55889 143.119 10.1126 143.199 10.6636C143.304 11.7699 143.566 12.8589 143.845 13.9394L143.851 13.9624C143.912 14.2002 143.769 14.4426 143.532 14.5041C143.441 14.5274 143.35 14.521 143.269 14.4913C142.388 14.1712 141.664 13.7295 140.92 13.2888C140.185 12.8401 139.471 12.3718 138.768 11.8735C138.592 11.7475 138.416 11.6203 138.241 11.483C138.071 11.3498 137.916 11.2265 137.767 11.1323C137.474 10.9423 137.163 10.8772 136.789 10.8793C136.42 10.8863 136.025 10.9614 135.633 11.0629C135.239 11.1595 134.846 11.2916 134.454 11.4252L134.445 11.4282C134.402 11.4431 134.356 11.4497 134.313 11.4494C134.087 11.4473 133.856 11.4515 133.596 11.427C133.336 11.4031 133.079 11.3382 132.852 11.2668C132.364 11.1123 132 10.9263 131.601 10.8475C130.817 10.6567 130.033 10.8733 129.381 11.3746L129.137 11.5688L128.874 11.7926C128.697 11.9392 128.52 12.0865 128.34 12.2273C127.981 12.513 127.616 12.7874 127.247 13.0567C126.508 13.5953 125.761 14.1075 124.988 14.6034L124.888 13.9119C124.963 13.93 125.095 13.9543 125.208 13.9664C125.325 13.9806 125.445 13.9915 125.567 13.9973C125.809 14.0121 126.056 14.0106 126.303 14.0021C126.798 13.9824 127.296 13.9288 127.791 13.8482C128.287 13.7631 128.779 13.6656 129.271 13.5368C129.741 13.4275 130.239 13.2433 130.75 13.1152C131.769 12.8438 132.832 12.6893 133.9 12.7081C134.966 12.7344 136.033 12.9298 137.035 13.3051L136.997 13.2936C137.367 13.3769 137.792 13.4366 138.199 13.4953L139.439 13.6583C140.268 13.761 141.1 13.857 141.93 13.9479L141.942 13.9491C142.121 13.9685 142.25 14.1294 142.231 14.3078C142.228 14.3347 142.221 14.3617 142.212 14.3859C141.996 14.9678 141.726 15.4777 141.403 15.9787C141.08 16.474 140.707 16.9389 140.281 17.3552C139.854 17.7696 139.379 18.1418 138.852 18.4296C138.338 18.7095 137.812 18.9685 137.228 19.143C136.936 19.229 136.627 19.2857 136.314 19.3002C136.001 19.3157 135.692 19.2808 135.407 19.2408C134.841 19.1548 134.317 19.0991 133.792 19.1754C133.528 19.2099 133.253 19.2739 132.955 19.3193C132.658 19.3656 132.339 19.3814 132.033 19.3514C131.417 19.2914 130.845 19.1066 130.303 18.8901L130.297 18.8873L130.281 18.8798C129.857 18.6492 129.509 18.3975 129.145 18.1431C128.785 17.888 128.433 17.6266 128.083 17.363L127.039 16.5633L126.522 16.1556C126.345 16.0126 126.191 15.8942 125.994 15.7164C125.88 15.614 125.871 15.4392 125.974 15.3256C126.006 15.2895 126.046 15.2638 126.089 15.2493L126.105 15.2438C126.852 14.9909 127.65 14.8118 128.449 14.7606C129.249 14.7088 130.046 14.7585 130.828 14.8694C131.22 14.9224 131.608 14.9936 131.993 15.0733C132.178 15.1051 132.405 15.1669 132.585 15.2296C132.772 15.292 132.946 15.3522 133.113 15.3865C133.834 15.5104 134.603 15.5198 135.351 15.4349C136.109 15.3541 136.843 15.1793 137.604 14.9966C137.996 14.9191 138.384 14.8185 138.791 14.7973C139.195 14.7682 139.602 14.7794 140.005 14.8343C140.407 14.8891 140.808 14.983 141.187 15.1408C141.381 15.2075 141.56 15.3135 141.743 15.4043C141.915 15.5176 142.098 15.6155 142.253 15.7515C142.904 16.2583 143.394 16.9459 143.711 17.6866C143.716 17.6981 143.721 17.7123 143.724 17.7241C143.872 18.2869 143.945 18.9055 143.867 19.5029C143.796 20.1023 143.595 20.6803 143.309 21.2004C143.019 21.7187 142.666 22.1998 142.254 22.6148C142.06 22.8365 141.832 23.0189 141.621 23.2203C141.401 23.4108 141.168 23.5853 140.942 23.7683L140.966 23.748C140.54 24.1572 140.095 24.4992 139.639 24.8467C139.551 24.9142 139.426 24.9003 139.354 24.817L139.346 24.8082C138.419 23.7277 137.193 22.8383 135.845 22.3258C135.168 22.0698 134.457 21.9132 133.737 21.8578C133.015 21.7881 132.293 21.8726 131.601 22.0653C130.203 22.4436 129.007 23.3715 128.039 24.4505C127.084 25.5546 126.325 26.8344 125.789 28.1973L125.783 28.2112C125.756 28.2812 125.677 28.3157 125.607 28.2882L125.601 28.2857C125.206 28.1104 124.917 27.8883 124.597 27.6699C124.286 27.4473 123.982 27.2186 123.681 26.9847C123.081 26.517 122.494 26.0332 121.92 25.5349C120.77 24.5395 119.663 23.4941 118.63 22.3755L118.836 22.2949L118.792 35.0754L118.789 35.0548C118.866 35.4262 118.84 35.7876 118.766 36.1411C118.692 36.4931 118.574 36.8351 118.415 37.1556C118.097 37.7959 117.675 38.3827 117.172 38.8855C116.935 39.1512 116.656 39.3729 116.398 39.6174C116.117 39.8334 115.845 40.0627 115.556 40.2675C115.261 40.4634 114.974 40.6722 114.672 40.8572L113.757 41.397C113.735 41.4098 113.708 41.4025 113.695 41.381C113.682 41.3595 113.689 41.3316 113.711 41.3189L113.713 41.3174L114.62 40.7742C114.919 40.5879 115.202 40.3786 115.494 40.182C115.78 39.9767 116.048 39.7476 116.325 39.5317C116.578 39.2878 116.853 39.0664 117.085 38.8028C117.578 38.303 117.988 37.7235 118.293 37.0977C118.446 36.7848 118.558 36.4525 118.627 36.1135C118.697 35.7776 118.714 35.4171 118.645 35.0957L118.644 35.0893L118.642 35.0754L118.599 22.2949C118.598 22.2295 118.651 22.1761 118.717 22.1761C118.751 22.1758 118.783 22.1916 118.804 22.2146C119.837 23.3169 120.945 24.3493 122.095 25.3314C122.669 25.8227 123.256 26.2998 123.855 26.7596C124.155 26.9898 124.458 27.214 124.765 27.4315C125.069 27.6396 125.397 27.8701 125.696 28.0013L125.509 28.0898C126.049 26.6906 126.813 25.3786 127.79 24.233C128.287 23.6677 128.842 23.15 129.461 22.7126C130.075 22.2703 130.768 21.9277 131.501 21.7181C132.231 21.5085 133.007 21.4146 133.763 21.4821C134.521 21.5352 135.271 21.6951 135.983 21.9592C136.696 22.2222 137.368 22.5857 137.987 23.0219C138.605 23.4639 139.175 23.9528 139.678 24.5471L139.386 24.5086C139.825 24.17 140.273 23.8177 140.659 23.4411L140.672 23.429L140.682 23.4208C140.898 23.243 141.121 23.0734 141.331 22.8895C141.531 22.6956 141.75 22.519 141.93 22.3082C142.32 21.912 142.643 21.4597 142.907 20.9832C143.167 20.5043 143.344 19.9839 143.404 19.4495C143.47 18.9125 143.407 18.3772 143.264 17.8392L143.277 17.8765C142.979 17.1928 142.533 16.5821 141.955 16.1359C141.817 16.015 141.654 15.9308 141.502 15.8303C141.338 15.7515 141.18 15.6564 141.006 15.5985C140.667 15.4589 140.305 15.3765 139.939 15.3283C139.573 15.2805 139.2 15.272 138.829 15.3004C138.459 15.3204 138.092 15.4189 137.723 15.4931C136.977 15.6761 136.197 15.8666 135.41 15.9541C134.616 16.0462 133.817 16.0462 133.007 15.9102C132.792 15.8669 132.599 15.7991 132.417 15.7403C132.23 15.6779 132.081 15.637 131.884 15.6028C131.509 15.5273 131.132 15.4601 130.754 15.411C129.999 15.3077 129.239 15.2656 128.488 15.3177C127.737 15.371 127.008 15.5373 126.286 15.7851L126.397 15.3129C126.526 15.4259 126.716 15.5767 126.879 15.7064L127.393 16.1071L128.433 16.8953C128.781 17.1549 129.132 17.4121 129.486 17.6602C129.837 17.9047 130.203 18.1603 130.548 18.3451L130.525 18.3348C131.039 18.5384 131.565 18.6998 132.084 18.7471C132.604 18.8068 133.102 18.6592 133.708 18.5656C134.313 18.4732 134.935 18.5402 135.491 18.6223C136.046 18.7095 136.536 18.6941 137.048 18.5359C137.555 18.3827 138.057 18.1358 138.539 17.8689C139.011 17.6087 139.439 17.2703 139.825 16.8911C140.591 16.1329 141.206 15.1659 141.578 14.1745L141.86 14.6125C141.025 14.5256 140.191 14.4335 139.357 14.3347L138.105 14.1766C137.683 14.1169 137.277 14.0657 136.829 13.967C136.819 13.9649 136.81 13.9621 136.801 13.9591L136.791 13.9552C135.862 13.6129 134.877 13.4381 133.888 13.4181C132.896 13.4063 131.905 13.5535 130.937 13.8164C130.45 13.9412 129.982 14.1206 129.45 14.2508C128.948 14.3853 128.431 14.4923 127.913 14.584C127.393 14.6722 126.866 14.7331 126.333 14.7576C126.066 14.7685 125.798 14.7719 125.527 14.7573C125.391 14.7519 125.255 14.7407 125.117 14.7246C124.974 14.7079 124.852 14.6913 124.677 14.6486C124.475 14.5989 124.352 14.3947 124.401 14.1927C124.425 14.0963 124.484 14.0176 124.561 13.9673L124.577 13.957C125.323 13.4714 126.064 12.9564 126.783 12.4248C127.142 12.1586 127.498 11.8874 127.845 11.6075C128.02 11.4694 128.19 11.3258 128.36 11.1835L128.612 10.9663L128.897 10.736C129.289 10.4368 129.744 10.1896 130.247 10.0636C130.748 9.93057 131.283 9.94148 131.774 10.0466C132.266 10.1432 132.721 10.3647 133.096 10.4749C133.301 10.5376 133.486 10.5816 133.675 10.5982C133.866 10.6155 134.088 10.6124 134.313 10.6121L134.173 10.6367C134.582 10.494 134.993 10.3528 135.423 10.2438C135.85 10.1314 136.293 10.0393 136.773 10.0257C137.244 10.009 137.799 10.1217 138.221 10.3995C138.431 10.5304 138.608 10.6721 138.773 10.7987C138.932 10.9229 139.101 11.0426 139.271 11.1629C139.954 11.6409 140.662 12.0986 141.378 12.529C142.091 12.9498 142.836 13.3796 143.554 13.6356L142.978 14.1872C142.682 13.0646 142.406 11.9311 142.29 10.766C142.204 10.1881 142.197 9.60039 142.166 9.01545C142.179 8.42809 142.18 7.84012 142.257 7.25336C142.386 6.08227 142.664 4.9136 143.165 3.81885C143.41 3.27026 143.726 2.74621 144.112 2.26366C144.214 2.14612 144.313 2.02647 144.418 1.91106L144.768 1.58633C144.89 1.48212 145.032 1.39154 145.165 1.29582C145.305 1.20494 145.474 1.13528 145.629 1.05894L145.547 1.09953C146.352 0.630005 147.218 0.210766 148.192 0.0559731C149.155 -0.103062 150.241 0.0708122 151.078 0.65242C151.502 0.933228 151.849 1.30279 152.141 1.70628C152.286 1.90954 152.41 2.12795 152.518 2.35786C152.565 2.48055 152.623 2.58899 152.659 2.7244L152.714 2.92311C152.73 2.99491 152.738 3.08669 152.747 3.16787C152.758 3.26481 152.749 3.2954 152.749 3.35841L152.746 3.52623L152.737 3.86187L152.721 4.53313L152.683 5.87447C152.63 7.66109 152.546 9.44772 152.398 11.238C152.325 12.1331 152.23 13.0295 152.084 13.9294C152.011 14.3787 151.918 14.8315 151.793 15.2795C151.671 15.7294 151.506 16.1589 151.388 16.5591L151.385 16.5685C151.375 16.6012 151.36 16.6327 151.343 16.6603C150.344 18.236 149.153 19.6265 147.906 20.9651C146.653 22.2976 145.313 23.5453 143.893 24.6995C142.473 25.8539 140.957 26.8987 139.331 27.7602C137.707 28.6123 135.946 29.2866 134.081 29.459C132.211 29.6319 130.335 29.1769 128.685 28.3645C127.024 27.5566 125.553 26.4331 124.217 25.1963C121.534 22.7129 119.375 19.7722 117.165 16.9077C117.15 16.8881 117.153 16.8596 117.173 16.8441C117.192 16.8287 117.221 16.8323 117.236 16.8511Z" fill="white"/>
<path d="M118.533 46.0907C119.359 46.9471 120.069 47.8952 120.8 48.824C121.524 49.7588 122.248 50.6924 122.987 51.6132C123.726 52.535 124.49 53.4347 125.277 54.312C126.079 55.175 126.899 56.0226 127.796 56.7799C128.016 56.9743 128.255 57.1425 128.484 57.3251C128.601 57.4127 128.712 57.5093 128.834 57.589L129.201 57.8264L129.567 58.0642C129.688 58.1454 129.825 58.1987 129.953 58.2675L130.741 58.661C131.789 59.179 132.9 59.5616 134.044 59.766C135.186 59.9799 136.363 59.9778 137.495 59.763C138.627 59.5467 139.709 59.1011 140.684 58.4844L140.643 58.5171C140.991 58.1757 141.332 57.8628 141.664 57.5296C141.991 57.1961 142.316 56.8589 142.62 56.5045C143.235 55.8011 143.8 55.0547 144.315 54.2753C144.834 53.4986 145.294 52.6829 145.708 51.8447C146.133 51.0116 146.479 50.1411 146.814 49.268C146.818 49.258 146.822 49.2477 146.827 49.2383C147.533 47.7858 148.325 46.3124 149.484 45.0959C150.062 44.4922 150.739 43.9539 151.526 43.5971C152.309 43.2363 153.2 43.0909 154.065 43.1754L153.701 43.6534C152.986 41.8828 152.332 40.0926 151.724 38.2847C151.117 36.476 150.563 34.6488 150.086 32.7967C149.614 30.9444 149.202 29.0699 148.966 27.157C148.846 26.2012 148.765 25.237 148.753 24.2638C148.741 23.2911 148.805 22.3057 149.018 21.3282L149.888 21.6568C149.505 22.2908 149.089 22.7898 148.667 23.3168C148.244 23.8321 147.814 24.338 147.378 24.8381C146.511 25.8414 145.617 26.8174 144.718 27.7867C143.817 28.7573 142.917 29.7178 141.997 30.6775C141.533 31.1558 141.057 31.6238 140.563 32.0758L139.824 32.7371C139.705 32.841 139.592 32.9524 139.481 33.0663C139.367 33.1766 139.259 33.2938 139.153 33.4144C137.44 35.3285 136.351 37.7713 135.649 40.2795C135.499 40.9156 135.324 41.5472 135.211 42.1933C135.152 42.5156 135.077 42.8358 135.03 43.1606L134.889 44.1357C134.837 44.4604 134.805 44.7875 134.776 45.1153L134.684 46.0983C134.639 46.7547 134.613 47.4133 134.576 48.0724C134.576 48.0975 134.554 48.1172 134.53 48.1166C134.506 48.1157 134.487 48.0957 134.485 48.0724C134.41 45.4306 134.612 42.7661 135.199 40.1647C135.518 38.8706 135.928 37.5932 136.482 36.3697L136.691 35.9114L136.925 35.4639C137.075 35.1628 137.247 34.8726 137.424 34.5846C137.59 34.2907 137.795 34.0199 137.982 33.7373C138.19 33.4695 138.39 33.1948 138.618 32.9415C138.728 32.8113 138.841 32.6837 138.962 32.562C139.079 32.4375 139.199 32.3148 139.327 32.1985L140.05 31.5263C140.522 31.0771 140.979 30.6109 141.425 30.1328C142.314 29.1693 143.2 28.1854 144.077 27.2039C144.952 26.2188 145.825 25.2313 146.684 24.2371C147.112 23.7394 147.535 23.2375 147.946 22.7307C148.348 22.2269 148.77 21.6989 149.066 21.2003L149.071 21.1937C149.204 20.9701 149.493 20.8968 149.716 21.0298C149.892 21.1352 149.975 21.3385 149.936 21.529C149.573 23.3008 149.658 25.194 149.871 27.0467C150.091 28.9069 150.462 30.7584 150.906 32.5917C151.352 34.4255 151.877 36.2434 152.455 38.0448C153.033 39.8457 153.66 41.6341 154.351 43.3935C154.422 43.574 154.333 43.7782 154.153 43.8491C154.099 43.8703 154.041 43.877 153.988 43.8715C153.242 43.7937 152.488 43.9073 151.801 44.2135C151.112 44.5164 150.494 44.992 149.952 45.547C149.409 46.1034 148.937 46.739 148.515 47.4084C148.092 48.0788 147.725 48.7843 147.362 49.5058L147.375 49.4761C147.024 50.3655 146.66 51.2516 146.216 52.1003C145.783 52.9537 145.303 53.7843 144.763 54.5749C144.227 55.3682 143.639 56.1277 143.002 56.842C142.686 57.2018 142.35 57.5435 142.011 57.881C141.672 58.2151 141.313 58.5383 140.982 58.8561L140.976 58.8618C140.966 58.8718 140.953 58.8815 140.941 58.8888C139.912 59.5255 138.767 59.9857 137.574 60.1941C136.382 60.4031 135.153 60.3858 133.974 60.1483C132.792 59.9202 131.653 59.5089 130.59 58.9642L129.797 58.5547C129.666 58.482 129.526 58.4244 129.403 58.339L129.028 58.0894L128.655 57.8395C128.53 57.7559 128.419 57.6559 128.301 57.565C128.07 57.3757 127.828 57.2 127.608 56.9998C125.819 55.4216 124.299 53.5913 122.839 51.7314C122.111 50.7987 121.399 49.8539 120.689 48.9094C119.972 47.9715 119.274 47.0134 118.469 46.1549L118.467 46.1534C118.45 46.1349 118.451 46.1062 118.469 46.0892C118.487 46.0722 118.516 46.0728 118.533 46.0907Z" fill="white"/>
<path d="M29.8959 25.4681C29.9292 24.8901 29.9383 24.4905 29.9217 24.2691C29.9038 24.0483 29.8108 23.802 29.6408 23.5294C29.2328 22.849 28.6203 22.7815 27.8042 23.3252C27.2938 23.6315 26.664 24.2267 25.9161 25.1109C25.1679 25.9957 24.3858 27.0329 23.5691 28.2234C22.753 29.4142 21.9367 30.7065 21.1203 32.1008C20.3039 33.4961 19.5721 34.8737 18.9262 36.2336C18.1777 37.8663 17.4634 39.5932 16.7834 41.4126C16.1027 43.2325 15.5078 45.0013 14.9977 46.7185C14.4876 48.4367 14.0871 50.0437 13.7984 51.5404C13.5091 53.0372 13.3649 54.2619 13.3649 55.2139V56.438L13.9262 55.622C14.0962 55.4181 14.4533 54.8998 14.9977 54.0656C15.5411 53.2325 16.1536 52.3232 16.8346 51.3363C18.2965 49.1255 19.6996 46.8973 21.0437 44.6523C22.3871 42.4074 23.6203 40.2476 24.7426 38.1722C25.8652 36.0981 26.8349 34.1846 27.651 32.4325C28.4673 30.681 29.0798 29.1758 29.4879 27.9172C29.5557 27.6451 29.6408 27.2626 29.7429 26.7691C29.845 26.2766 29.8959 25.8428 29.8959 25.4681ZM27.1917 22.1008C27.9063 21.7612 28.544 21.6413 29.1053 21.7433C29.6663 21.8454 30.1255 22.1435 30.4827 22.6364C30.8398 23.1298 31.0519 23.7762 31.1206 24.5753C31.1885 25.3748 31.1027 26.2844 30.8653 27.3047C30.559 28.5636 29.9725 30.1621 29.1053 32.1008C28.2377 34.0398 27.149 36.2002 25.8398 38.5806C24.53 40.9618 23.0414 43.5218 21.3754 46.2596C19.7084 48.998 17.9227 51.7955 16.0182 54.6523L13.6709 58.1217L14.1301 59.0916C14.7759 60.2482 15.6099 60.8262 16.6304 60.8262C17.4465 60.8262 18.3907 60.4357 19.4621 59.6523C20.5335 58.8708 21.8858 57.6461 23.5182 55.9788C24.1307 55.3672 24.6745 54.8398 25.151 54.3973C25.6269 53.9556 25.8989 53.7342 25.9673 53.7342C26.4435 53.7342 26.4599 54.0656 26.0182 54.7293C25.576 55.3927 24.6063 56.4723 23.1102 57.9693C21.6816 59.3973 20.4827 60.4357 19.5133 61.0812C18.5437 61.7273 17.5655 62.0509 16.5792 62.0509C15.2185 62.0839 14.028 61.3532 13.0078 59.8565C12.939 59.7547 12.8803 59.6866 12.8291 59.6523C12.7782 59.6193 12.7015 59.6523 12.5994 59.7547C12.4974 59.8565 12.3447 60.0352 12.1405 60.2903C11.9364 60.5456 11.6637 60.9107 11.3238 61.3878C10.5756 62.4077 9.75896 63.4873 8.87474 64.6275C7.99021 65.7665 7.13173 66.8467 6.2984 67.8672C5.46476 68.8872 4.69898 69.7808 4.00257 70.5457C3.30494 71.3111 2.78604 71.8294 2.44646 72.1018C1.45925 72.8839 0.74526 72.9863 0.303602 72.4083C-0.173498 71.864 -0.0880736 69.3637 0.558359 64.908C0.796151 63.139 1.02546 61.5404 1.2472 60.1122C1.46803 58.6833 1.6722 57.2886 1.8594 55.9279C2.046 54.5678 2.23351 53.1817 2.42071 51.77C2.60731 50.3587 2.81996 48.7684 3.05836 46.9993C3.19407 46.013 3.33917 44.9162 3.49214 43.7084C3.64542 42.5013 3.81506 41.2769 4.00257 40.0349C4.18917 38.7935 4.36758 37.5858 4.53813 36.4123C4.70807 35.2388 4.86104 34.2103 4.99736 33.3252C5.13276 32.4413 5.26059 31.5652 5.37994 30.698C5.49869 29.8304 5.60956 29.0316 5.71164 28.2998C5.81373 27.5688 5.89824 26.9221 5.9667 26.3608C6.03455 25.7998 6.06879 25.4002 6.06879 25.1618C6.13634 24.2437 6.22994 23.6233 6.34959 23.2998C6.46803 22.9765 6.66372 22.9002 6.93605 23.0701C7.17354 23.2404 7.3356 23.6315 7.42102 24.2437C7.50554 24.8559 7.47191 25.9957 7.31894 27.6618C7.16596 29.3288 6.88516 31.6416 6.47682 34.6008C6.06879 37.5603 5.50747 41.438 4.79319 46.2339C4.0789 51.0642 3.49214 55.0352 3.03292 58.1471C2.57399 61.2599 2.21654 63.7342 1.96149 65.5711C1.70643 67.4083 1.52801 68.7169 1.42592 69.4997C1.32384 70.2818 1.27295 70.741 1.27295 70.8777V71.4384L2.39527 70.316C2.83693 69.908 3.39006 69.3216 4.05346 68.5561C4.71685 67.7903 5.41357 66.9567 6.14542 66.0558C6.87637 65.154 7.6161 64.227 8.36492 63.275C9.11283 62.3226 9.77593 61.4462 10.3545 60.6474C10.9325 59.8489 11.4005 59.1855 11.7576 58.6578C12.1151 58.1308 12.2759 57.816 12.2426 57.7136C12.2081 57.6461 12.166 57.4165 12.1151 57.0248C12.0639 56.6343 12.0384 56.2009 12.0384 55.7238C11.9021 53.6833 12.2335 51.0985 13.0332 47.9687C13.8323 44.8395 14.9977 41.4889 16.5283 37.9175C17.2762 36.1493 18.1356 34.3888 19.105 32.6367C20.0743 30.8852 21.0437 29.2949 22.0133 27.866C22.9827 26.4374 23.9178 25.213 24.8193 24.1925C25.7201 23.1722 26.5111 22.4752 27.1917 22.1008Z" fill="white"/>
<path d="M53.0899 32.9844C51.4908 34.9231 49.8247 37.0408 48.0899 39.3367C46.3551 41.6328 44.7048 43.9032 43.1405 46.1481C41.5756 48.3931 40.1561 50.5026 38.8805 52.4749C37.6049 54.4482 36.6441 56.0806 35.9976 57.3726C34.9771 59.3458 34.3737 61.0037 34.1865 62.3477C33.9996 63.6909 34.2631 64.3628 34.9771 64.3628C35.2833 64.3628 35.7423 64.2098 36.3548 63.9038C36.967 63.5973 37.6816 63.1553 38.4976 62.5773C39.314 61.9982 40.2237 61.3093 41.2276 60.5108C42.2302 59.712 43.2938 58.8193 44.4161 57.8324C45.3682 56.9821 46.1676 56.2757 46.8143 55.715C47.4601 55.1534 47.996 54.7032 48.4216 54.3624C48.8463 54.0229 49.1692 53.7933 49.391 53.6736C49.6118 53.5549 49.756 53.5128 49.8247 53.5464C49.9944 53.6145 50.0795 53.699 50.0795 53.8014C50.0795 53.836 49.756 54.1507 49.1102 54.745C48.4637 55.3409 47.6816 56.0552 46.7631 56.8882C45.845 57.7224 44.8835 58.5718 43.8805 59.4394C42.8767 60.3067 42.0182 61.0467 41.3039 61.6586C39.3649 63.2913 37.8345 64.3706 36.7122 64.8983C35.5896 65.4254 34.6887 65.5023 34.0077 65.1285C33.2598 64.7535 32.9281 63.8696 33.013 62.475C33.0981 61.08 33.5661 59.4482 34.4161 57.5767C34.9604 56.3869 35.8189 54.8474 36.9924 52.9596C38.1659 51.0718 39.5094 49.0395 41.0234 46.8624C42.5365 44.686 44.161 42.4577 45.8959 40.1785C47.6307 37.9002 49.3313 35.7571 50.9983 33.7496C51.7459 32.8315 52.3414 32.1172 52.7837 31.6068C53.2253 31.0969 53.5658 30.714 53.8042 30.459C54.042 30.2036 54.2204 30.0594 54.3401 30.0252C54.4588 29.9916 54.5697 29.9916 54.6718 30.0252C54.9435 30.1273 54.9689 30.3823 54.7484 30.7907C54.5264 31.1987 53.9741 31.9306 53.0899 32.9844Z" fill="white"/>
<path d="M77.3951 52.8157C76.4769 54.3124 75.8302 55.6389 75.4564 56.7952C74.9457 58.4279 74.9636 59.2616 75.5073 59.2955C75.7793 59.3639 76.2728 59.1852 76.9868 58.7593C77.701 58.3346 78.5174 57.7821 79.4356 57.1014C82.4287 54.8232 84.0103 53.7175 84.1805 53.7847C84.5201 53.9553 84.2829 54.3291 83.4665 54.9071C83.2624 55.0782 82.9055 55.3669 82.3951 55.7746C81.885 56.1827 81.3915 56.5743 80.9153 56.9484C78.9421 58.5476 77.4887 59.5427 76.5533 59.9331C75.6179 60.3242 74.929 60.2645 74.4865 59.7544C73.8412 58.905 74.0197 57.3738 75.0226 55.1627C76.0256 52.9517 77.8198 50.1115 80.4055 46.6419C80.7793 46.1315 81.1022 45.6898 81.3746 45.3154C81.6466 44.9413 81.7656 44.7374 81.7317 44.7029C81.4591 44.7374 81.1877 44.7717 80.9153 44.805C80.6427 44.8392 80.3622 44.8737 80.0735 44.9071C79.7842 44.9413 79.4528 44.9758 79.079 45.0091C78.2281 45.1112 77.5484 45.1963 77.0377 45.2642C76.5278 45.3327 76.1271 45.3663 75.839 45.3663C75.5503 45.3663 75.354 45.3496 75.2522 45.3154C75.1499 45.2818 75.099 45.2306 75.099 45.1621C75.099 44.9922 75.3882 44.8392 75.9662 44.7029C76.5442 44.5675 77.5814 44.4145 79.079 44.244C79.7588 44.1419 80.3877 44.0571 80.9662 43.9889C81.5442 43.9207 81.9016 43.8699 82.0377 43.8356C82.14 43.8356 82.25 43.7932 82.3697 43.7081C82.4884 43.6236 82.6502 43.4618 82.854 43.2231C83.0582 42.9856 83.3133 42.6709 83.6198 42.2795C83.9258 41.8888 84.3168 41.3699 84.793 40.7234C85.4392 39.8734 86.0253 39.0737 86.5536 38.3255C87.0804 37.5776 87.4121 37.1184 87.5484 36.9478C87.8204 36.5062 88.05 36.2254 88.2369 36.1057C88.4238 35.9873 88.6019 35.9957 88.7731 36.1311C88.8403 36.1999 88.8576 36.302 88.824 36.4374C88.7895 36.5737 88.6789 36.7945 88.4926 37.1008C88.3051 37.4067 88.0246 37.8327 87.6505 38.3761C87.2755 38.9207 86.7656 39.6353 86.1195 40.5193C85.4734 41.4044 84.9881 42.0675 84.6658 42.5091C84.3423 42.9514 84.2066 43.2489 84.2575 43.4018C84.3084 43.5548 84.5716 43.6148 85.0487 43.5806C85.5243 43.5472 86.2555 43.4785 87.2424 43.3764C88.8746 43.2068 89.9887 43.1132 90.584 43.0959C91.1792 43.0792 91.4767 43.1556 91.4767 43.3252C91.4767 43.4273 91.4512 43.5039 91.4003 43.5548C91.3494 43.606 91.1792 43.6569 90.8905 43.7081C90.6012 43.759 90.1502 43.8187 89.538 43.8868C88.9261 43.955 88.0588 44.0398 86.9359 44.1419L83.1606 44.5499L81.3237 46.999C79.6228 49.3803 78.3133 51.319 77.3951 52.8157Z" fill="white"/>
<path d="M71.4268 49.6521C71.4944 49.5842 71.5801 49.4567 71.6819 49.2695C71.7843 49.0829 71.9024 48.9042 72.039 48.7339L72.4474 48.0193L71.7843 48.4277C71.2051 48.7682 70.6105 49.1595 69.9979 49.6012C69.3857 50.0435 68.7223 50.5539 68.0084 51.1319C67.2941 51.7104 66.5107 52.3905 65.6613 53.1726C64.8104 53.9554 63.8241 54.8563 62.7018 55.8768C61.8173 56.6935 61.0263 57.3999 60.3293 57.9945C59.6323 58.5895 59.2325 58.9048 59.1307 58.9381C58.5182 59.0747 58.2119 58.8533 58.2119 58.2747C58.2119 57.6967 58.5436 56.8461 59.207 55.7235C59.8704 54.6012 60.831 53.2577 62.0896 51.6929C62.6 51.0131 62.9741 50.5539 63.2125 50.3152C63.4497 50.0777 63.6539 49.9756 63.8241 50.0095C64.1982 50.0777 64.317 50.3076 64.1816 50.6984C64.0456 51.0894 63.5863 51.7952 62.8042 52.8158C62.3616 53.3944 61.9445 53.9636 61.554 54.5249C61.1624 55.0859 60.8222 55.5793 60.5335 56.004C60.2448 56.4299 60.0152 56.7698 59.845 57.0246C59.675 57.2796 59.6069 57.4075 59.6408 57.4075C59.675 57.4075 59.9134 57.2212 60.3548 56.8461C60.7967 56.472 61.3069 56.0131 61.8854 55.4688C63.0084 54.4149 64.0113 53.4961 64.8956 52.7134C65.7801 51.9313 66.5795 51.2515 67.2941 50.6729C68.0084 50.0947 68.6715 49.5842 69.284 49.142C69.8962 48.7003 70.4908 48.3086 71.0694 47.9685C72.4983 47.1188 73.2631 47.05 73.3655 47.7646C73.3988 47.9348 73.391 48.1136 73.3401 48.3002C73.2892 48.4874 73.178 48.7339 73.0084 49.0399C72.8378 49.3458 72.6 49.7463 72.2941 50.2388C71.9878 50.7326 71.6131 51.336 71.1718 52.0503C70.6613 52.8328 70.253 53.4707 69.9471 53.9636C69.6411 54.457 69.3857 54.8817 69.1816 55.2392C68.9774 55.5966 68.8072 55.9277 68.6715 56.2342C68.5354 56.5402 68.3822 56.8973 68.2125 57.3057C67.9396 57.986 67.77 58.6322 67.7024 59.2447C67.6337 59.8563 67.6682 60.2479 67.8042 60.4179C68.0084 60.5875 68.4331 60.4355 69.0798 59.9587C69.7253 59.4825 70.831 58.4968 72.3959 56.9991C73.2804 56.1828 74.071 55.4433 74.7683 54.7799C75.4654 54.1168 75.8482 53.7848 75.9167 53.7848C76.0185 53.7848 76.1033 53.8872 76.1718 54.0914C76.2054 54.1932 75.9676 54.5079 75.4578 55.035C74.9471 55.5627 74.1985 56.3024 73.2125 57.2542C72.3274 58.1051 71.6055 58.7848 71.0439 59.2953C70.4826 59.8054 70.0146 60.2058 69.6411 60.4942C69.2661 60.7829 68.9601 60.9792 68.7223 61.081C68.4839 61.1834 68.2634 61.2343 68.0593 61.2343C67.6167 61.2343 67.2941 61.1319 67.0902 60.9277C66.7149 60.52 66.5968 59.7978 66.7328 58.7594C66.8682 57.7222 67.2256 56.6087 67.8042 55.4179C67.906 55.1801 68.1183 54.789 68.4418 54.2441C68.7651 53.7003 69.1134 53.1305 69.4881 52.5347C69.8619 51.94 70.2276 51.3787 70.585 50.851C70.9421 50.3243 71.2227 49.9247 71.4268 49.6521Z" fill="white"/>
<path d="M101.374 49.6521C101.443 49.5842 101.528 49.4567 101.63 49.2695C101.732 49.0829 101.851 48.9042 101.987 48.7339L102.395 48.0193L101.732 48.4277C101.153 48.7682 100.559 49.1595 99.9462 49.6012C99.334 50.0435 98.6706 50.5539 97.956 51.1319C97.2417 51.7104 96.459 52.3905 95.609 53.1726C94.7587 53.9554 93.7724 54.8563 92.65 55.8768C91.7649 56.6935 90.974 57.3999 90.2776 57.9945C89.5806 58.5895 89.1807 58.9048 89.0783 58.9381C88.4661 59.0747 88.1602 58.8533 88.1602 58.2747C88.1602 57.6967 88.4916 56.8461 89.1546 55.7235C89.8186 54.6012 90.7786 53.2577 92.0378 51.6929C92.5477 51.0131 92.9218 50.5539 93.1602 50.3152C93.398 50.0777 93.6021 49.9756 93.7724 50.0095C94.1465 50.0777 94.2652 50.3076 94.1298 50.6984C93.9932 51.0894 93.534 51.7952 92.7518 52.8158C92.3093 53.3944 91.8927 53.9636 91.5017 54.5249C91.1106 55.0859 90.7698 55.5793 90.4817 56.004C90.1931 56.4299 89.9634 56.7698 89.7926 57.0246C89.6227 57.2796 89.5551 57.4075 89.5884 57.4075C89.6227 57.4075 89.8611 57.2212 90.303 56.8461C90.7444 56.472 91.2551 56.0131 91.8337 55.4688C92.956 54.4149 93.959 53.4961 94.8438 52.7134C95.7277 51.9313 96.5277 51.2515 97.2417 50.6729C97.956 50.0947 98.6197 49.5842 99.2316 49.142C99.8438 48.7003 100.438 48.3086 101.018 47.9685C102.446 47.1188 103.211 47.05 103.313 47.7646C103.347 47.9348 103.339 48.1136 103.288 48.3002C103.237 48.4874 103.126 48.7339 102.957 49.0399C102.785 49.3458 102.548 49.7463 102.242 50.2388C101.936 50.7326 101.561 51.336 101.119 52.0503C100.61 52.8328 100.201 53.4707 99.8947 53.9636C99.5887 54.457 99.334 54.8817 99.1298 55.2392C98.9256 55.5966 98.7554 55.9277 98.6197 56.2342C98.4831 56.5402 98.3298 56.8973 98.1602 57.3057C97.8878 57.986 97.7182 58.6322 97.6501 59.2447C97.5816 59.8563 97.6158 60.2479 97.7518 60.4179C97.956 60.5875 98.3813 60.4355 99.0274 59.9587C99.6736 59.4825 100.779 58.4968 102.344 56.9991C103.228 56.1828 104.019 55.4433 104.717 54.7799C105.414 54.1168 105.796 53.7848 105.864 53.7848C105.967 53.7848 106.051 53.8872 106.119 54.0914C106.153 54.1932 105.916 54.5079 105.405 55.035C104.895 55.5627 104.146 56.3024 103.16 57.2542C102.276 58.1051 101.553 58.7848 100.992 59.2953C100.431 59.8054 99.9628 60.2058 99.5887 60.4942C99.2143 60.7829 98.9078 60.9792 98.6706 61.081C98.4322 61.1834 98.2117 61.2343 98.0075 61.2343C97.5649 61.2343 97.2417 61.1319 97.0378 60.9277C96.6631 60.52 96.5444 59.7978 96.6804 58.7594C96.8164 57.7222 97.1733 56.6087 97.7518 55.4179C97.8542 55.1801 98.066 54.789 98.3895 54.2441C98.7127 53.7003 99.0611 53.1305 99.4358 52.5347C99.8096 51.94 100.176 51.3787 100.533 50.851C100.89 50.3243 101.17 49.9247 101.374 49.6521Z" fill="white"/>
<path d="M87.7529 49.1422C87.4127 49.4823 87.1831 49.6865 87.0643 49.7544C86.9447 49.8228 86.7659 49.8053 86.5281 49.7035C86.1537 49.6014 86.2389 49.1252 86.7838 48.2746C87.0552 47.8666 87.2761 47.6203 87.4469 47.5349C87.6168 47.4504 87.821 47.4758 88.0594 47.6112C88.535 47.8496 88.4326 48.36 87.7529 49.1422ZM85.4567 53.9383C85.0823 54.4481 84.6918 55.044 84.2835 55.7237C83.8752 56.4047 83.6374 56.9318 83.5692 57.3059C83.4671 57.5779 83.425 57.7821 83.4417 57.9175C83.4593 58.0541 83.5014 58.1559 83.5692 58.224C83.8415 58.4967 84.4022 58.3773 85.2525 57.8666C86.1028 57.3568 87.3276 56.4213 88.9267 55.0606C89.9466 54.2109 90.5418 53.8193 90.7124 53.8874C90.882 53.9216 90.9671 54.0068 90.9671 54.1422C90.9671 54.1767 90.8223 54.3294 90.5337 54.6014C90.2444 54.874 89.8869 55.1882 89.4622 55.545C89.036 55.9024 88.5859 56.2853 88.1103 56.6934C87.6332 57.1017 87.1912 57.4585 86.7838 57.7648C86.1028 58.2749 85.5845 58.6324 85.2271 58.8362C84.8703 59.0404 84.4877 59.1764 84.0793 59.2446C83.6374 59.3463 83.263 59.2446 82.957 58.938C82.7192 58.7341 82.5741 58.5642 82.5232 58.4282C82.4717 58.2928 82.4463 58.0199 82.4463 57.6115C82.4463 57.0335 82.6087 56.3617 82.9316 55.5965C83.2551 54.831 83.6889 54.0913 84.2326 53.3767C85.0484 52.2886 85.6609 51.9484 86.0689 52.3562C86.2389 52.527 86.2731 52.7136 86.1713 52.9175C86.0689 53.1216 85.8305 53.4618 85.4567 53.9383Z" fill="white"/>
<path d="M25.1502 57.8667C25.8302 57.3911 26.477 56.8295 27.0889 56.1827C27.7014 55.5375 28.2369 54.8996 28.6962 54.2695C29.1557 53.6406 29.5292 53.0708 29.8188 52.5601C30.1072 52.0503 30.2689 51.6598 30.3035 51.3869C29.7934 51.3869 29.2233 51.6165 28.5941 52.0757C27.9643 52.5347 27.3779 53.1051 26.8341 53.7848C26.2895 54.4658 25.8472 55.1801 25.5076 55.928C25.1681 56.6762 25.0481 57.3229 25.1502 57.8667ZM30.9157 59.4488C30.3368 59.1765 29.9972 58.7085 29.8951 58.0454C29.7934 57.382 29.7934 56.7107 29.8951 56.0304C30.0308 55.2137 30.2689 54.3292 30.6094 53.3768C30.643 53.275 30.5922 53.318 30.4567 53.5046C30.3201 53.6915 30.1329 53.9472 29.8951 54.2695C29.657 54.593 29.3762 54.9671 29.0536 55.3924C28.7295 55.8177 28.3645 56.2342 27.9564 56.642C27.4463 57.1527 27.038 57.5525 26.732 57.8412C26.4258 58.1305 26.1874 58.3435 26.0174 58.4789C25.8472 58.6152 25.6939 58.7009 25.5585 58.7339C25.4228 58.7685 25.2865 58.7848 25.1502 58.7848C24.6743 58.7848 24.3514 58.6921 24.1808 58.5043C24.0109 58.318 23.9258 57.9518 23.9258 57.4075C23.96 56.7277 24.2405 55.9113 24.7676 54.9586C25.2953 54.0069 25.9832 53.0881 26.8341 52.2036C27.2422 51.7952 27.6505 51.4214 28.0585 51.0813C28.4666 50.7417 28.7552 50.5196 28.9258 50.4176C29.4017 50.1801 29.8521 50.0604 30.278 50.0604C30.7027 50.0604 31.0347 50.1967 31.2728 50.4688C31.477 50.6393 31.6045 50.7156 31.6557 50.6984C31.7066 50.6811 31.8166 50.5539 31.9871 50.3155C32.6329 49.5336 33.0755 49.0232 33.3136 48.7848C33.5511 48.5473 33.7552 48.4277 33.9261 48.4277C34.2657 48.4277 34.4108 48.5985 34.3596 48.9381C34.3087 49.2783 34.0615 49.8738 33.6198 50.7238C33.1433 51.5402 32.718 52.3738 32.3442 53.2241C31.9698 54.0741 31.6721 54.8563 31.4515 55.5705C31.2298 56.2851 31.0944 56.9058 31.0432 57.4329C30.9923 57.9609 31.0511 58.3259 31.2219 58.5298C31.5615 58.6667 31.9441 58.6322 32.37 58.4283C32.7947 58.2241 33.2539 57.91 33.7474 57.4838C34.2402 57.0591 34.7425 56.5656 35.2526 56.0043C35.7627 55.4433 36.2556 54.8741 36.732 54.2955C37.0041 53.9217 37.2679 53.7085 37.5233 53.6576C37.7783 53.6064 37.9056 53.7339 37.9056 54.0399C37.9056 54.1423 37.7862 54.3552 37.5487 54.6778C37.3103 55.0014 37.0129 55.3752 36.6554 55.8008C36.2986 56.2261 35.916 56.6508 35.5076 57.0758C35.0996 57.5017 34.7425 57.8667 34.4362 58.1732C33.8916 58.6152 33.3648 58.9814 32.8547 59.2701C32.3442 59.5594 31.9529 59.6866 31.6812 59.6524C31.6124 59.6524 31.5024 59.6357 31.3495 59.6015C31.1965 59.5682 31.0511 59.5167 30.9157 59.4488Z" fill="white"/>
<path d="M105.201 57.8667C105.881 57.3911 106.528 56.8295 107.14 56.1827C107.752 55.5375 108.288 54.8996 108.747 54.2695C109.207 53.6406 109.58 53.0708 109.87 52.5601C110.158 52.0503 110.32 51.6598 110.355 51.3869C109.844 51.3869 109.274 51.6165 108.645 52.0757C108.015 52.5347 107.429 53.1051 106.885 53.7848C106.34 54.4658 105.898 55.1801 105.559 55.928C105.219 56.6762 105.099 57.3229 105.201 57.8667ZM110.967 59.4488C110.388 59.1765 110.048 58.7085 109.946 58.0454C109.844 57.382 109.844 56.7107 109.946 56.0304C110.082 55.2137 110.32 54.3292 110.66 53.3768C110.694 53.275 110.643 53.318 110.508 53.5046C110.371 53.6915 110.184 53.9472 109.946 54.2695C109.708 54.593 109.427 54.9671 109.104 55.3924C108.781 55.8177 108.416 56.2342 108.008 56.642C107.497 57.1527 107.089 57.5525 106.783 57.8412C106.477 58.1305 106.238 58.3435 106.069 58.4789C105.898 58.6152 105.745 58.7009 105.61 58.7339C105.474 58.7685 105.337 58.7848 105.201 58.7848C104.725 58.7848 104.402 58.6921 104.232 58.5043C104.062 58.318 103.977 57.9518 103.977 57.4075C104.011 56.7277 104.291 55.9113 104.818 54.9586C105.346 54.0069 106.034 53.0881 106.885 52.2036C107.293 51.7952 107.702 51.4214 108.109 51.0813C108.517 50.7417 108.806 50.5196 108.977 50.4176C109.453 50.1801 109.903 50.0604 110.329 50.0604C110.754 50.0604 111.086 50.1967 111.324 50.4688C111.528 50.6393 111.656 50.7156 111.706 50.6984C111.757 50.6811 111.867 50.5539 112.038 50.3155C112.684 49.5336 113.126 49.0232 113.365 48.7848C113.602 48.5473 113.806 48.4277 113.977 48.4277C114.317 48.4277 114.462 48.5985 114.411 48.9381C114.36 49.2783 114.113 49.8738 113.671 50.7238C113.194 51.5402 112.769 52.3738 112.395 53.2241C112.021 54.0741 111.723 54.8563 111.502 55.5705C111.281 56.2851 111.145 56.9058 111.094 57.4329C111.043 57.9609 111.102 58.3259 111.273 58.5298C111.612 58.6667 111.995 58.6322 112.421 58.4283C112.846 58.2241 113.305 57.91 113.798 57.4838C114.291 57.0591 114.794 56.5656 115.304 56.0043C115.813 55.4433 116.306 54.8741 116.783 54.2955C117.055 53.9217 117.319 53.7085 117.574 53.6576C117.829 53.6064 117.956 53.7339 117.956 54.0399C117.956 54.1423 117.837 54.3552 117.6 54.6778C117.361 55.0014 117.064 55.3752 116.706 55.8008C116.35 56.2261 115.967 56.6508 115.558 57.0758C115.15 57.5017 114.794 57.8667 114.487 58.1732C113.943 58.6152 113.416 58.9814 112.906 59.2701C112.395 59.5594 112.004 59.6866 111.732 59.6524C111.663 59.6524 111.553 59.6357 111.401 59.6015C111.247 59.5682 111.102 59.5167 110.967 59.4488Z" fill="white"/>
<path d="M50.9155 55.1629C50.9155 55.5031 51.4935 55.299 52.6503 54.5507C53.2283 54.1766 53.7384 53.7595 54.1807 53.3006C54.6223 52.8414 54.9465 52.3906 55.15 51.9487C55.4899 51.0984 55.2691 50.8772 54.4869 51.2847C54.1807 51.4213 53.8238 51.6675 53.4155 52.025C53.0072 52.3821 52.6158 52.7644 52.242 53.1728C51.8676 53.5808 51.5531 53.9725 51.2984 54.3466C51.043 54.721 50.9155 54.993 50.9155 55.1629ZM56.0179 52.5094C55.847 52.8847 55.6008 53.2579 55.2778 53.6317C54.954 54.007 54.5805 54.372 54.1552 54.7292C53.7296 55.086 53.288 55.4095 52.8287 55.6985C52.3698 55.9878 51.9357 56.2007 51.5277 56.3362L50.7113 56.6421L51.1197 56.9487C51.6634 57.3909 52.6249 57.433 54.0023 57.0756C55.3799 56.719 56.9872 55.9787 58.8238 54.8564C59.5721 54.3808 60.0997 54.0579 60.4057 53.8873C60.7113 53.7177 60.8985 53.7683 60.967 54.04C61.0003 54.1088 60.8558 54.2784 60.5332 54.5507C60.2091 54.8234 59.8014 55.1293 59.3088 55.4689C58.8151 55.8091 58.2883 56.1499 57.7267 56.4894C57.1657 56.8296 56.6634 57.1016 56.2217 57.3058C55.0994 57.8844 53.9768 58.2494 52.8542 58.4027C51.7319 58.5554 50.8813 58.479 50.3033 58.1734C49.895 57.901 49.6066 57.6036 49.4357 57.2798C49.2661 56.9574 49.1807 56.5067 49.1807 55.9278C49.2152 54.6013 49.895 53.2751 51.2217 51.9487C52.5816 50.6216 53.7893 49.9418 54.8444 49.9076C55.5584 49.8055 56.0342 50.0097 56.2729 50.5195C56.5104 51.0296 56.4256 51.693 56.0179 52.5094Z" fill="white"/>
</svg>
