<svg width="120" height="140" viewBox="0 0 120 140" fill="none" xmlns="http://www.w3.org/2000/svg">
<g filter="url(#filter0_dddd_14_169)">
<rect x="13" y="23" width="94" height="94" rx="47" fill="url(#paint0_radial_14_169)" shape-rendering="crispEdges"/>
<rect x="11.5" y="21.5" width="97" height="97" rx="48.5" stroke="white" stroke-width="3" shape-rendering="crispEdges"/>
<path d="M41.9532 88.538C42.9144 89.5351 43.7419 90.6391 44.5929 91.7205C45.4359 92.809 46.2789 93.8961 47.1395 94.9683C47.9995 96.0416 48.889 97.0892 49.8057 98.1106C50.739 99.1155 51.6945 100.102 52.7382 100.984C52.9942 101.211 53.2736 101.406 53.5395 101.619C53.676 101.721 53.8051 101.834 53.9469 101.926L54.374 102.203L54.8008 102.48C54.9415 102.574 55.1006 102.636 55.2498 102.716L56.1679 103.175C57.388 103.778 58.6817 104.223 60.0139 104.461C61.3433 104.71 62.7132 104.708 64.0313 104.458C65.3505 104.206 66.6093 103.687 67.745 102.969L67.6974 103.007C68.1023 102.609 68.4998 102.245 68.8857 101.857C69.2673 101.469 69.6447 101.076 69.9992 100.664C70.7152 99.8446 71.3727 98.9755 71.9726 98.0679C72.5768 97.1636 73.113 96.2137 73.5944 95.2378C74.0896 94.2678 74.4928 93.2541 74.8825 92.2376C74.8868 92.226 74.8924 92.214 74.8977 92.203C75.7199 90.5118 76.6426 88.7962 77.9921 87.3797C78.665 86.6767 79.4526 86.05 80.369 85.6345C81.2815 85.2144 82.3188 85.0451 83.3254 85.1435L82.9018 85.7001C82.0698 83.6385 81.3079 81.5539 80.5993 79.4489C79.8935 77.3429 79.2477 75.2153 78.6929 73.0588C78.1434 70.902 77.6637 68.7194 77.3879 66.492C77.2492 65.3792 77.1544 64.2565 77.1406 63.1233C77.1261 61.9907 77.2006 60.8433 77.4492 59.7051L78.4622 60.0878C78.0157 60.826 77.5311 61.407 77.0408 62.0207C76.5477 62.6206 76.0465 63.2097 75.5393 63.792C74.5295 64.9602 73.4893 66.0966 72.4418 67.2253C71.3928 68.3554 70.3452 69.4739 69.274 70.5912C68.7337 71.1482 68.1789 71.6931 67.6047 72.2194L66.7433 72.9893C66.6051 73.1103 66.4735 73.2401 66.3441 73.3727C66.2111 73.5011 66.0855 73.6376 65.9628 73.778C63.9682 76.0068 62.6995 78.8511 61.8829 81.7715C61.708 82.5122 61.5038 83.2476 61.3726 84C61.3034 84.3753 61.216 84.7481 61.1613 85.1262L60.998 86.2616C60.9366 86.6397 60.8992 87.0206 60.8664 87.4023L60.7592 88.5468C60.707 89.3111 60.676 90.0779 60.6333 90.8454C60.6326 90.8747 60.6079 90.8976 60.579 90.8969C60.5511 90.8959 60.5289 90.8726 60.5275 90.8454C60.4393 87.7694 60.6749 84.667 61.3588 81.6379C61.7295 80.1311 62.2067 78.6437 62.8522 77.2191L63.0959 76.6854L63.3679 76.1645C63.5432 75.8139 63.7431 75.476 63.9488 75.1405C64.1428 74.7984 64.3812 74.4831 64.5985 74.154C64.8411 73.8422 65.0736 73.5223 65.3402 73.2274C65.4679 73.0758 65.5995 72.9273 65.7402 72.7855C65.8767 72.6405 66.0157 72.4977 66.1645 72.3622L67.0072 71.5795C67.5563 71.0565 68.0882 70.5136 68.6078 69.9571C69.6426 68.8351 70.6747 67.6895 71.6954 66.5467C72.7148 65.3997 73.7306 64.2498 74.7309 63.0922C75.23 62.5127 75.7216 61.9283 76.2013 61.3382C76.6694 60.7516 77.1596 60.1368 77.5053 59.5563L77.5102 59.5485C77.6651 59.2882 78.0016 59.2029 78.2615 59.3577C78.4672 59.4804 78.5634 59.7171 78.5183 59.939C78.0957 62.002 78.1938 64.2064 78.4418 66.3636C78.6982 68.5296 79.1303 70.6854 79.6473 72.82C80.1665 74.9554 80.7781 77.072 81.4504 79.1696C82.1237 81.2665 82.8545 83.3489 83.6591 85.3974C83.7416 85.6077 83.6379 85.8454 83.4277 85.9279C83.3649 85.9526 83.2979 85.9604 83.2355 85.954C82.3667 85.8634 81.4896 85.9956 80.6892 86.3522C79.8872 86.7049 79.1673 87.2587 78.5363 87.9049C77.9039 88.5528 77.355 89.2928 76.8637 90.0723C76.371 90.8528 75.9435 91.6743 75.5209 92.5145L75.5361 92.4799C75.127 93.5155 74.7037 94.5472 74.1863 95.5355C73.6826 96.5291 73.1236 97.4962 72.4943 98.4168C71.87 99.3405 71.1861 100.225 70.4436 101.056C70.0758 101.476 69.685 101.873 69.2906 102.266C68.8956 102.655 68.4773 103.032 68.0921 103.402L68.0854 103.408C68.0731 103.42 68.0586 103.431 68.0448 103.44C66.8456 104.181 65.5131 104.717 64.1234 104.96C62.7354 105.203 61.3045 105.183 59.9317 104.906C58.5562 104.641 57.2299 104.162 55.9916 103.528L55.0689 103.051C54.9162 102.966 54.7532 102.899 54.6093 102.8L54.1737 102.509L53.7384 102.218C53.5938 102.121 53.464 102.004 53.3265 101.898C53.0581 101.678 52.7755 101.473 52.5191 101.24C50.4371 99.4026 48.6664 97.2715 46.9664 95.1059C46.1188 94.0199 45.2903 92.9197 44.4632 91.82C43.6283 90.728 42.8153 89.6124 41.8785 88.6128L41.8767 88.611C41.8566 88.5895 41.8577 88.556 41.8792 88.5362C41.9 88.5165 41.9331 88.5172 41.9532 88.538Z" fill="white"/>
<path d="M40.444 54.4921C43.0988 57.7663 45.6958 61.1213 48.8505 63.9004C50.4247 65.2798 52.1293 66.5249 54.0089 67.406C55.879 68.2892 57.9593 68.7491 59.9959 68.5269C62.0356 68.3054 63.9974 67.5245 65.8149 66.5309C67.6335 65.5246 69.3424 64.3127 70.9529 62.9833C72.5613 61.6508 74.0829 60.2078 75.4997 58.6714C76.9081 57.1343 78.2608 55.5146 79.3418 53.7715L79.29 53.8893C79.4427 53.3581 79.6205 52.8858 79.7446 52.4061C79.8734 51.9261 79.9707 51.4341 80.0473 50.9318C80.2007 49.9283 80.2998 48.9044 80.3746 47.8766C80.5291 45.8206 80.5922 43.7495 80.6553 41.6791L80.6952 40.1271L80.7118 39.3519L80.7202 38.9643L80.7245 38.7703C80.7238 38.7145 80.7326 38.6193 80.7213 38.6038C80.7128 38.5703 80.7164 38.5463 80.7068 38.5033L80.6649 38.3604C80.643 38.2659 80.5852 38.1611 80.5488 38.061C80.4525 37.8603 80.3407 37.6613 80.2067 37.4758C79.9379 37.109 79.6205 36.7707 79.2441 36.5249C78.4996 36.017 77.5709 35.8635 76.6531 36.0113C75.729 36.1588 74.8342 36.5852 73.9845 37.0832C73.9573 37.0991 73.9291 37.1132 73.9005 37.1256L73.8885 37.1305C73.4321 37.3203 72.9595 37.7255 72.5916 38.2024C72.216 38.6771 71.8844 39.2073 71.6294 39.7797C71.1028 40.9176 70.7956 42.1683 70.6513 43.437C70.5653 44.0712 70.5632 44.7152 70.5448 45.3575C70.5783 46.0012 70.5808 46.646 70.6746 47.2876C70.7967 48.5757 71.1018 49.8437 71.4266 51.1018L71.4337 51.1286C71.5049 51.4055 71.3384 51.6877 71.0619 51.7593C70.9564 51.7864 70.8506 51.779 70.7554 51.7445C69.7301 51.3716 68.8874 50.8574 68.0205 50.3442C67.1651 49.8218 66.3334 49.2765 65.5148 48.6963C65.3106 48.5496 65.1046 48.4014 64.9018 48.2417C64.7039 48.0865 64.5233 47.9429 64.3491 47.8332C64.0084 47.6121 63.6458 47.5362 63.2112 47.5387C62.7809 47.5468 62.3206 47.6343 61.8642 47.7524C61.4064 47.865 60.9486 48.0187 60.4922 48.1743L60.4812 48.1778C60.4311 48.1951 60.3782 48.2029 60.3281 48.2025C60.065 48.2 59.7955 48.205 59.4933 48.1764C59.1896 48.1485 58.8908 48.0731 58.627 47.9898C58.0584 47.8099 57.6341 47.5934 57.1703 47.5017C56.2575 47.2795 55.3436 47.5316 54.5853 48.1154L54.3013 48.3415L53.9945 48.6021C53.7885 48.7728 53.5825 48.9443 53.3723 49.1083C52.9547 49.4409 52.5293 49.7604 52.1001 50.074C51.2401 50.7011 50.3696 51.2976 49.4699 51.875L49.3531 51.0697C49.4406 51.0909 49.5947 51.1191 49.7259 51.1332C49.8624 51.1498 50.0025 51.1625 50.1439 51.1692C50.4261 51.1865 50.7135 51.1847 51.0014 51.1748C51.5773 51.1519 52.1568 51.0895 52.7339 50.9956C53.3109 50.8965 53.8837 50.783 54.4572 50.6331C55.0039 50.5057 55.5842 50.2913 56.1785 50.1421C57.365 49.826 58.603 49.6462 59.8463 49.668C61.0882 49.6987 62.3309 49.9262 63.4969 50.3632L63.4528 50.3498C63.8831 50.4468 64.3787 50.5163 64.8527 50.5847L66.2968 50.7745C67.2618 50.8941 68.23 51.0059 69.1968 51.1117L69.2112 51.1131C69.419 51.1357 69.5692 51.323 69.5467 51.5307C69.5431 51.5621 69.5354 51.5935 69.5251 51.6217C69.2737 52.2993 68.9587 52.8929 68.5827 53.4763C68.207 54.053 67.7725 54.5944 67.2766 55.079C66.78 55.5615 66.2266 55.995 65.6128 56.3301C65.0143 56.656 64.4016 56.9576 63.7212 57.1607C63.3819 57.2609 63.0218 57.3268 62.6575 57.3438C62.2928 57.3618 61.9333 57.3212 61.6018 57.2746C60.9426 57.1745 60.3324 57.1096 59.7208 57.1985C59.4132 57.2387 59.094 57.3131 58.7466 57.366C58.4002 57.42 58.0295 57.4383 57.6726 57.4034C56.9555 57.3335 56.2899 57.1184 55.6589 56.8662L55.6512 56.863L55.6325 56.8542C55.1387 56.5858 54.7345 56.2927 54.3098 55.9964C53.8915 55.6994 53.4813 55.395 53.0732 55.0882L51.8581 54.157L51.2564 53.6823C51.0504 53.5158 50.8705 53.3779 50.6409 53.1708C50.509 53.0516 50.4984 52.8481 50.6176 52.7158C50.6553 52.6739 50.7019 52.6439 50.752 52.6269L50.7707 52.6206C51.6408 52.3261 52.5695 52.1176 53.5 52.058C54.4315 51.9977 55.3595 52.0555 56.2702 52.1846C56.7262 52.2464 57.1777 52.3293 57.626 52.422C57.8422 52.4591 58.1064 52.531 58.3159 52.604C58.5339 52.6767 58.7364 52.7469 58.9303 52.7867C59.7698 52.931 60.665 52.9419 61.5365 52.8432C62.4187 52.749 63.2729 52.5455 64.1597 52.3328C64.6157 52.2425 65.0675 52.1254 65.5423 52.1007C66.0121 52.0668 66.4858 52.0799 66.9549 52.1437C67.423 52.2076 67.8903 52.3169 68.3319 52.5007C68.558 52.5783 68.7657 52.7017 68.9795 52.8075C69.1795 52.9394 69.3922 53.0534 69.5728 53.2117C70.3304 53.8018 70.9014 54.6025 71.2707 55.4649C71.2767 55.4783 71.282 55.4949 71.2855 55.5086C71.4577 56.1639 71.5427 56.8842 71.4517 57.5797C71.3695 58.2778 71.1356 58.9507 70.802 59.5563C70.4648 60.1598 70.0539 60.7199 69.5735 61.2032C69.3481 61.4613 69.0825 61.6737 68.8366 61.9082C68.5802 62.1301 68.3097 62.3333 68.0466 62.5463L68.0737 62.5227C67.5782 62.9992 67.06 63.3974 66.5292 63.8019C66.4262 63.8806 66.2805 63.8644 66.1969 63.7674L66.1881 63.7572C65.1085 62.499 63.681 61.4635 62.1115 60.8667C61.3235 60.5686 60.495 60.3863 59.6569 60.3217C58.8161 60.2406 57.9756 60.339 57.17 60.5633C55.5422 61.0039 54.1497 62.0842 53.022 63.3406C51.9103 64.6262 51.0264 66.1165 50.4024 67.7033L50.3961 67.7195C50.364 67.801 50.2719 67.8412 50.1905 67.8091L50.1841 67.8063C49.7238 67.6021 49.3877 67.3435 49.0142 67.0892C48.653 66.83 48.2982 66.5637 47.9483 66.2914C47.2492 65.7468 46.5656 65.1835 45.8972 64.6033C44.5591 63.4443 43.2699 62.2271 42.0668 60.9245L42.3063 60.8307L42.2551 75.712L42.2516 75.688C42.3412 76.1205 42.3116 76.5412 42.2252 76.9529C42.1384 77.3627 42.0015 77.7609 41.8167 78.1341C41.4467 78.8797 40.9543 79.5629 40.3695 80.1484C40.0934 80.4578 39.7678 80.7159 39.4683 81.0006C39.1407 81.2521 38.8243 81.5191 38.4878 81.7575C38.1439 81.9857 37.8095 82.2287 37.4582 82.4442L36.3927 83.0728C36.3676 83.0876 36.3352 83.0791 36.3204 83.0541C36.3056 83.029 36.3137 82.9966 36.3387 82.9818L36.3415 82.98L37.3976 82.3476C37.7453 82.1307 38.0758 81.887 38.4159 81.658C38.7485 81.4189 39.0603 81.1523 39.3833 80.9008C39.6772 80.6168 39.9981 80.359 40.2683 80.0521C40.8418 79.4702 41.3197 78.7954 41.6749 78.0667C41.8527 77.7024 41.9825 77.3154 42.0633 76.9208C42.1451 76.5296 42.1645 76.1099 42.0848 75.7356L42.083 75.7282L42.0812 75.712L42.0301 60.8307C42.0297 60.7545 42.0915 60.6924 42.1677 60.6924C42.2072 60.6921 42.2446 60.7104 42.2696 60.7372C43.4716 62.0207 44.7622 63.2228 46.1008 64.3663C46.7699 64.9384 47.4534 65.4939 48.1507 66.0293C48.4996 66.2974 48.8526 66.5584 49.2103 66.8116C49.5641 67.054 49.946 67.3224 50.2945 67.4751L50.0765 67.5781C50.7047 65.9489 51.595 64.4213 52.7321 63.0874C53.3106 62.4292 53.9578 61.8264 54.6777 61.3171C55.393 60.8021 56.2 60.4032 57.0536 60.1591C57.9032 59.915 58.8072 59.8057 59.6873 59.8844C60.5694 59.9461 61.4431 60.1323 62.2723 60.4399C63.1019 60.746 63.8853 61.1693 64.6058 61.6772C65.3257 62.1918 65.9892 62.7611 66.575 63.4531L66.234 63.4083C66.7458 63.014 67.2678 62.6038 67.7164 62.1654L67.7319 62.1513L67.7432 62.1417C67.9947 61.9347 68.255 61.7372 68.4991 61.5231C68.7315 61.2973 68.9865 61.0917 69.1964 60.8462C69.6503 60.3849 70.0267 59.8583 70.3339 59.3034C70.6376 58.7458 70.8429 58.1398 70.9131 57.5177C70.9896 56.8923 70.9162 56.2691 70.7498 55.6426L70.7646 55.686C70.4182 54.8899 69.899 54.1789 69.2257 53.6593C69.0656 53.5186 68.8751 53.4205 68.6984 53.3034C68.5069 53.2117 68.3238 53.101 68.1206 53.0336C67.7263 52.871 67.3048 52.7751 66.8787 52.719C66.4523 52.6633 66.0174 52.6534 65.5857 52.6866C65.1547 52.7098 64.7279 52.8245 64.2983 52.9109C63.4296 53.1239 62.5217 53.3458 61.6046 53.4477C60.6809 53.5549 59.7504 53.5549 58.8065 53.3966C58.5568 53.3461 58.3314 53.2671 58.1205 53.1987C57.9018 53.126 57.7294 53.0784 57.4997 53.0386C57.0627 52.9507 56.624 52.8724 56.1838 52.8153C55.3045 52.695 54.4191 52.646 53.5455 52.7067C52.6704 52.7687 51.8218 52.9624 50.9809 53.2509L51.1107 52.701C51.2606 52.8326 51.4814 53.0082 51.6722 53.1592L52.2704 53.6258L53.4806 54.5436C53.8865 54.8459 54.2946 55.1453 54.707 55.4342C55.1158 55.7188 55.5425 56.0165 55.9439 56.2317L55.9175 56.2197C56.5153 56.4567 57.128 56.6447 57.7325 56.6997C58.3374 56.7692 58.9176 56.5974 59.6231 56.4884C60.3278 56.3809 61.0519 56.4588 61.6995 56.5544C62.345 56.656 62.9164 56.638 63.5131 56.4539C64.1029 56.2754 64.6873 55.9879 65.2485 55.6772C65.798 55.3742 66.2957 54.9802 66.7458 54.5386C67.6381 53.6558 68.3538 52.5299 68.7869 51.3755L69.1153 51.8855C68.1425 51.7843 67.1722 51.6771 66.2008 51.5621L64.7431 51.378C64.2517 51.3085 63.7791 51.2489 63.2571 51.1339C63.2461 51.1314 63.2352 51.1283 63.225 51.1247L63.213 51.1202C62.1316 50.7216 60.9849 50.5181 59.8322 50.4948C58.6778 50.481 57.5234 50.6525 56.3972 50.9586C55.8293 51.1039 55.2847 51.3127 54.6657 51.4644C54.0805 51.621 53.4785 51.7455 52.8753 51.8524C52.2704 51.955 51.657 52.0259 51.0363 52.0545C50.7255 52.0672 50.4134 52.0711 50.097 52.0541C49.9393 52.0478 49.7806 52.0347 49.6198 52.016C49.4533 51.9966 49.3112 51.9772 49.108 51.9275C48.8727 51.8697 48.7288 51.6319 48.7863 51.3967C48.8142 51.2845 48.8826 51.1928 48.9726 51.1343L48.9909 51.1223C49.8596 50.5569 50.7227 49.9573 51.5597 49.3382C51.9784 49.0282 52.3928 48.7125 52.7967 48.3866C53.0002 48.2258 53.1977 48.0586 53.3959 47.8928L53.6894 47.6399L54.0209 47.3719C54.4773 47.0234 55.0082 46.7356 55.5933 46.5888C56.1767 46.434 56.7996 46.4467 57.371 46.5691C57.9445 46.6816 58.4736 46.9394 58.9106 47.0678C59.149 47.1408 59.3642 47.192 59.5853 47.2114C59.8075 47.2315 60.0654 47.228 60.3281 47.2276L60.1645 47.2562C60.6414 47.0901 61.1196 46.9257 61.6201 46.7987C62.1178 46.6679 62.6331 46.5606 63.1915 46.5448C63.7403 46.5254 64.3872 46.6566 64.8785 46.98C65.1229 47.1324 65.3289 47.2974 65.5204 47.4449C65.7063 47.5895 65.9024 47.7288 66.1003 47.8688C66.8964 48.4254 67.7207 48.9584 68.5541 49.4596C69.3837 49.9495 70.2517 50.45 71.0877 50.748L70.4168 51.3903C70.0725 50.0832 69.7509 48.7633 69.6158 47.4068C69.5156 46.7338 69.5079 46.0495 69.4715 45.3685C69.4867 44.6845 69.4881 43.9999 69.577 43.3167C69.7272 41.9531 70.0514 40.5924 70.6348 39.3177C70.9198 38.6789 71.288 38.0687 71.7377 37.5068C71.8559 37.37 71.9712 37.2307 72.0936 37.0963L72.5006 36.7182C72.6431 36.5968 72.8089 36.4914 72.9637 36.3799C73.127 36.2741 73.3232 36.193 73.5037 36.1041L73.4078 36.1514C74.3453 35.6047 75.3534 35.1165 76.488 34.9363C77.609 34.7511 78.8734 34.9535 79.8487 35.6308C80.3418 35.9577 80.7467 36.388 81.0864 36.8578C81.2553 37.0945 81.3992 37.3488 81.5255 37.6165C81.5802 37.7594 81.6468 37.8857 81.6888 38.0433L81.7533 38.2747C81.7724 38.3583 81.7816 38.4652 81.7914 38.5597C81.8045 38.6726 81.7936 38.7082 81.7946 38.7815L81.79 38.9769L81.7805 39.3678L81.7615 40.1494L81.7174 41.7112C81.6553 43.7915 81.5579 45.8718 81.3858 47.9563C81.3001 48.9986 81.1901 50.0423 81.0193 51.0902C80.9347 51.6132 80.8261 52.1406 80.6807 52.6622C80.5386 53.186 80.3464 53.6861 80.2088 54.1521L80.2056 54.163C80.1944 54.2011 80.1771 54.2378 80.1573 54.2699C78.9937 56.1047 77.6076 57.7236 76.1547 59.2823C74.6963 60.8339 73.1355 62.2867 71.482 63.6305C69.8295 64.9747 68.0638 66.1912 66.1705 67.1943C64.2799 68.1865 62.2289 68.9717 60.0576 69.1724C57.8803 69.3738 55.6953 68.844 53.7751 67.898C51.8408 66.9573 50.128 65.6491 48.5719 64.209C45.4486 61.3174 42.9338 57.8933 40.3614 54.558C40.3431 54.5351 40.3473 54.502 40.3702 54.484C40.3928 54.466 40.4256 54.4702 40.444 54.4921Z" fill="white"/>
</g>
<defs>
<filter id="filter0_dddd_14_169" x="2" y="12" width="116" height="116" filterUnits="userSpaceOnUse" color-interpolation-filters="sRGB">
<feFlood flood-opacity="0" result="BackgroundImageFix"/>
<feColorMatrix in="SourceAlpha" type="matrix" values="0 0 0 0 0 0 0 0 0 0 0 0 0 0 0 0 0 0 127 0" result="hardAlpha"/>
<feOffset dy="4"/>
<feGaussianBlur stdDeviation="2"/>
<feComposite in2="hardAlpha" operator="out"/>
<feColorMatrix type="matrix" values="0 0 0 0 0 0 0 0 0 0 0 0 0 0 0 0 0 0 0.25 0"/>
<feBlend mode="normal" in2="BackgroundImageFix" result="effect1_dropShadow_14_169"/>
<feColorMatrix in="SourceAlpha" type="matrix" values="0 0 0 0 0 0 0 0 0 0 0 0 0 0 0 0 0 0 127 0" result="hardAlpha"/>
<feOffset dy="-4"/>
<feGaussianBlur stdDeviation="2"/>
<feComposite in2="hardAlpha" operator="out"/>
<feColorMatrix type="matrix" values="0 0 0 0 0 0 0 0 0 0 0 0 0 0 0 0 0 0 0.25 0"/>
<feBlend mode="normal" in2="effect1_dropShadow_14_169" result="effect2_dropShadow_14_169"/>
<feColorMatrix in="SourceAlpha" type="matrix" values="0 0 0 0 0 0 0 0 0 0 0 0 0 0 0 0 0 0 127 0" result="hardAlpha"/>
<feOffset dx="4" dy="4"/>
<feGaussianBlur stdDeviation="2"/>
<feComposite in2="hardAlpha" operator="out"/>
<feColorMatrix type="matrix" values="0 0 0 0 0 0 0 0 0 0 0 0 0 0 0 0 0 0 0.25 0"/>
<feBlend mode="normal" in2="effect2_dropShadow_14_169" result="effect3_dropShadow_14_169"/>
<feColorMatrix in="SourceAlpha" type="matrix" values="0 0 0 0 0 0 0 0 0 0 0 0 0 0 0 0 0 0 127 0" result="hardAlpha"/>
<feOffset dx="-4" dy="4"/>
<feGaussianBlur stdDeviation="2"/>
<feComposite in2="hardAlpha" operator="out"/>
<feColorMatrix type="matrix" values="0 0 0 0 0 0 0 0 0 0 0 0 0 0 0 0 0 0 0.25 0"/>
<feBlend mode="normal" in2="effect3_dropShadow_14_169" result="effect4_dropShadow_14_169"/>
<feBlend mode="normal" in="SourceGraphic" in2="effect4_dropShadow_14_169" result="shape"/>
</filter>
<radialGradient id="paint0_radial_14_169" cx="0" cy="0" r="1" gradientUnits="userSpaceOnUse" gradientTransform="translate(60 70) rotate(90) scale(91.5)">
<stop stop-color="#213721"/>
<stop offset="1" stop-color="#050E05"/>
</radialGradient>
</defs>
</svg>
